<svg id="Слой_1" data-name="Слой 1" xmlns="http://www.w3.org/2000/svg" viewBox="0 0 512 512"><defs><style>.cls-1{fill:#208cd9;}.cls-2{fill:#03b97c;}</style></defs><path class="cls-1" d="M256,192.44a54.37,54.37,0,1,1,54.38-54.37A54.43,54.43,0,0,1,256,192.44Zm0-83a28.65,28.65,0,1,0,28.66,28.64A28.67,28.67,0,0,0,256,109.43Z"/><path class="cls-1" d="M255.84,231.29c-91-50.08-183.67-42.78-214.07-33.71-2.71,8.76-4.22,19.11-5.75,28.32,23.72-9.93,109-20.69,194.47,20.91Q242.76,238.49,255.84,231.29Z"/><path class="cls-1" d="M112.92,390.25A195.61,195.61,0,0,1,60.2,269.83a245.27,245.27,0,0,1,126.58,12.51c7.16-6.91,14.67-13.52,21.46-19-58-25-121.16-28.25-174.13-14.45A221.17,221.17,0,0,0,102.27,416C103.73,412.1,111.36,394,112.92,390.25Z"/><path class="cls-1" d="M330.45,366.55a275.9,275.9,0,0,0-53-60.31,251.88,251.88,0,0,0-21.54,15.58,249.49,249.49,0,0,1,79.51,113.7,195.75,195.75,0,0,1-159-.09c-3,8.93-5.18,16.88-7.56,24.72a221,221,0,0,0,197-11.29C359.43,420.69,341.88,384.2,330.45,366.55Z"/><path class="cls-1" d="M299.56,293.39a299,299,0,0,1,77.12,109.88c2.47,6.08,8.81,25.23,10.88,31.51,7.34-5.66,15-11.49,21.5-18.06-6.81-18.42-25.87-78.45-84-134.53C315.75,285.24,302.49,291.54,299.56,293.39Z"/><path class="cls-2" d="M477.89,248.62c-92.4-25.1-195.69,5.67-264.17,76.95-46.26,48.15-59.56,95.06-68.63,122.7,5.93,3.66,16.16,8.5,23.77,11.93C174,443.3,183.28,402.37,219,358.48c20.57-25.27,45.76-45,68.68-58.76,43.77-26.31,104.5-39.69,164.15-29.89a195.54,195.54,0,0,1-52.73,120.38c2.79,7,8.26,21.85,10,26.51a136.27,136.27,0,0,1-10.24,9.18C449.3,383.66,480.09,320.31,477.89,248.62Z"/><path class="cls-2" d="M256,33.93c-102.22,0-188.46,69.46-214.17,163.64,7.94-2.37,18.19-3.95,28.56-4.95,26.44-77.22,99.55-133,185.61-133s159.28,55.83,185.67,133.13c-138.79-13.2-280.58,63.09-339.41,223.29,6.53,6.57,14.44,12.76,21.78,18.41.92-2.78,6.36-18.2,7.35-21C178.69,283,312.83,197.93,457.78,220.58A110.36,110.36,0,0,1,475.86,225C460.71,117.16,367.91,33.93,256,33.93Z"/></svg>