<svg id="Слой_1" data-name="Слой 1" xmlns="http://www.w3.org/2000/svg" viewBox="0 0 512 512"><defs><style>.cls-1{fill:#208cd9;}.cls-2{fill:#03b97c;}</style></defs><path class="cls-1" d="M256,185.86a60,60,0,1,1,60-60A60.07,60.07,0,0,1,256,185.86Zm0-91.62a31.62,31.62,0,1,0,31.63,31.61A31.64,31.64,0,0,0,256,94.24Z"/><path class="cls-1" d="M255.82,228.73c-100.39-55.27-202.69-47.21-236.25-37.2-3,9.67-4.65,21.09-6.34,31.26,26.18-11,120.28-22.84,214.61,23.07Q241.39,236.66,255.82,228.73Z"/><path class="cls-1" d="M98.1,404.15A215.88,215.88,0,0,1,39.91,271.26,270.63,270.63,0,0,1,179.6,285.07c7.91-7.62,16.2-14.92,23.7-21-64-27.64-133.72-31.18-192.17-15.95a244,244,0,0,0,75.22,184.5C88,428.28,96.38,408.31,98.1,404.15Z"/><path class="cls-1" d="M338.16,378a304.56,304.56,0,0,0-58.45-66.55,271.9,271.9,0,0,0-23.77,17.19,275.37,275.37,0,0,1,87.74,125.48,216.08,216.08,0,0,1-175.5-.1c-3.33,9.85-5.71,18.62-8.33,27.28a243.94,243.94,0,0,0,217.41-12.45C370.14,437.75,350.77,397.48,338.16,378Z"/><path class="cls-1" d="M304.08,297.27a329.87,329.87,0,0,1,85.1,121.26c2.73,6.71,9.72,27.84,12,34.77,8.11-6.25,16.53-12.68,23.73-19.93C417.4,413,396.37,346.79,332.23,284.9,321.94,288.27,307.3,295.22,304.08,297.27Z"/><path class="cls-2" d="M500.88,247.85c-102-27.69-216,6.27-291.54,84.93-51.05,53.14-65.73,104.9-75.74,135.41,6.54,4,17.84,9.38,26.23,13.17,5.66-18.66,15.91-63.83,55.32-112.26,22.69-27.89,50.49-49.64,75.79-64.85,48.31-29,115.33-43.8,181.16-33a215.84,215.84,0,0,1-58.2,132.86c3.08,7.72,9.12,24.11,11,29.25a146,146,0,0,1-11.3,10.13C469.32,396.88,503.3,327,500.88,247.85Z"/><path class="cls-2" d="M256,10.92c-112.81,0-208,76.65-236.36,180.6,8.77-2.62,20.08-4.37,31.52-5.47C80.34,100.83,161,39.31,256,39.31s175.78,61.61,204.91,146.92C307.74,171.66,151.26,255.86,86.33,432.66c7.21,7.24,15.93,14.08,24,20.32,1-3.08,7-20.09,8.11-23.13,52.2-144.07,200.24-237.93,360.2-212.94a122.78,122.78,0,0,1,19.95,4.83C481.92,102.77,379.5,10.92,256,10.92Z"/></svg>