<svg id="Слой_1" data-name="Слой 1" xmlns="http://www.w3.org/2000/svg" viewBox="0 0 1210 512"><defs><style>.cls-1{fill:#208cd9;}.cls-2{fill:#03b97c;}</style></defs><path class="cls-1" d="M263,185.86a60,60,0,1,1,60-60A60.07,60.07,0,0,1,263,185.86Zm0-91.62a31.62,31.62,0,1,0,31.63,31.61A31.64,31.64,0,0,0,263,94.24Z"/><path class="cls-1" d="M262.82,228.73c-100.39-55.27-202.69-47.21-236.25-37.2-3,9.67-4.65,21.09-6.34,31.26,26.18-11,120.28-22.84,214.61,23.07Q248.39,236.66,262.82,228.73Z"/><path class="cls-1" d="M105.1,404.15A215.88,215.88,0,0,1,46.91,271.26,270.63,270.63,0,0,1,186.6,285.07c7.91-7.62,16.2-14.92,23.7-21-64-27.64-133.72-31.18-192.17-15.95a244,244,0,0,0,75.22,184.5C95,428.28,103.38,408.31,105.1,404.15Z"/><path class="cls-1" d="M345.16,378a304.56,304.56,0,0,0-58.45-66.55,271.9,271.9,0,0,0-23.77,17.19,275.37,275.37,0,0,1,87.74,125.48,216.08,216.08,0,0,1-175.5-.1c-3.33,9.85-5.71,18.62-8.33,27.28a243.94,243.94,0,0,0,217.41-12.45C377.14,437.75,357.77,397.48,345.16,378Z"/><path class="cls-1" d="M311.08,297.27a329.87,329.87,0,0,1,85.1,121.26c2.73,6.71,9.72,27.84,12,34.77,8.11-6.25,16.53-12.68,23.73-19.93C424.4,413,403.37,346.79,339.23,284.9,328.94,288.27,314.3,295.22,311.08,297.27Z"/><path class="cls-2" d="M507.88,247.85c-102-27.69-216,6.27-291.54,84.93-51.05,53.14-65.73,104.9-75.74,135.41,6.54,4,17.84,9.38,26.23,13.17,5.66-18.66,15.91-63.83,55.32-112.26,22.69-27.89,50.49-49.64,75.79-64.85,48.31-29,115.33-43.8,181.16-33a215.84,215.84,0,0,1-58.2,132.86c3.08,7.72,9.12,24.11,11,29.25a146,146,0,0,1-11.3,10.13C476.32,396.88,510.3,327,507.88,247.85Z"/><path class="cls-2" d="M263,10.92c-112.81,0-208,76.65-236.36,180.6,8.77-2.62,20.08-4.37,31.52-5.47C87.34,100.83,168,39.31,263,39.31s175.78,61.61,204.91,146.92C314.74,171.66,158.26,255.86,93.33,432.66c7.21,7.24,15.93,14.08,24,20.32,1-3.08,7-20.09,8.11-23.13,52.2-144.07,200.24-237.93,360.2-212.94a122.78,122.78,0,0,1,19.95,4.83C488.92,102.77,386.5,10.92,263,10.92Z"/><path class="cls-1" d="M617.39,73.37h50.36v359H617.39Zm34.07,311.1h81.23q39.75,0,61.6-20.62t21.86-58.14V200q0-37.53-21.86-58.15t-61.6-20.61H651.46V73.37h79.75q43.2,0,73.83,15.06t46.66,43.95q16,28.89,16,69.63V303.73q0,40.74-16,69.63t-46.79,43.95Q774.18,432.37,731,432.37h-79.5Z"/><path class="cls-2" d="M998.12,431.14a185.7,185.7,0,0,1-43.34-14.82,183.17,183.17,0,0,1-37.65-24.69l31.36-38.52a141.9,141.9,0,0,0,45.18,26.67,157,157,0,0,0,53.58,8.89q39,0,60.49-14.45t21.48-40.86v-.25q0-18.75-9.75-29.75t-25.18-16.3q-15.43-5.3-39.88-9.75a5.16,5.16,0,0,0-1.6-.24,5.22,5.22,0,0,1-1.61-.25l-3.7-.74q-36.06-6.18-58.64-13.95t-38.64-28.4q-16.07-20.61-16.05-58.64v-.24q0-33.34,14.94-56.92T992.68,82q28.65-12.35,68.89-12.35a171.91,171.91,0,0,1,37.9,4.2,188.69,188.69,0,0,1,36.79,12.47,212.52,212.52,0,0,1,35.68,20.86l-28.64,40q-20.5-15.06-40.87-22.59a117.12,117.12,0,0,0-40.86-7.53q-36.79,0-57.16,14.69T984,173.36v.25q0,18.52,10.5,29.14a63.35,63.35,0,0,0,26.17,15.67q15.68,5.07,43.58,10.5a18.32,18.32,0,0,0,1.85.37c.57.08,1.19.21,1.85.37.82.17,1.73.33,2.72.49s1.89.33,2.71.5q32.6,6.66,54.45,15.8t36.54,29.5q14.68,20.37,14.69,55.68v.5q0,32.83-15.56,56.17t-45.06,35.55q-29.51,12.22-71.23,12.22A235.8,235.8,0,0,1,998.12,431.14Z"/></svg>