<?xml version="1.0" encoding="utf-8"?>
<!-- Generator: Adobe Illustrator 25.2.1, SVG Export Plug-In . SVG Version: 6.00 Build 0)  -->
<svg version="1.1" xmlns="http://www.w3.org/2000/svg" xmlns:xlink="http://www.w3.org/1999/xlink" x="0px" y="0px"
	 viewBox="0 0 500 500" style="enable-background:new 0 0 500 500;" xml:space="preserve">
<style type="text/css">
	.st0{fill:#EBEBEB;}
	.st1{fill:#FFFFFF;}
	.st2{fill:#E6E6E6;}
	.st3{display:none;}
	.st4{display:inline;}
	.st5{fill:#407BFF;}
	.st6{opacity:0.9;fill:#FFFFFF;}
	.st7{fill:#F5F5F5;}
	.st8{fill:#263238;}
	.st9{opacity:0.1;}
	.st10{opacity:0.6;fill:#FFFFFF;}
	.st11{opacity:0.2;fill:#FFFFFF;}
</style>
<g id="Background_Complete">
	<g>
		<rect y="382.4" class="st0" width="500" height="0.25"/>
		<rect x="416.78" y="398.49" class="st0" width="33.12" height="0.25"/>
		<rect x="260.33" y="395.36" class="st0" width="12.89" height="0.25"/>
		<rect x="322.53" y="396.42" class="st0" width="27.14" height="0.25"/>
		<rect x="359.67" y="389.21" class="st0" width="56.11" height="0.25"/>
		<rect x="52.46" y="400.78" class="st0" width="26.53" height="0.25"/>
		<rect x="87.89" y="400.78" class="st0" width="23" height="0.25"/>
		<rect x="131" y="395.24" class="st0" width="60.81" height="0.25"/>
		<path class="st0" d="M237.01,337.8H43.92c-3.15,0-5.71-2.56-5.71-5.71V60.66c0-3.15,2.56-5.71,5.71-5.71h193.1
			c3.15,0,5.71,2.56,5.71,5.71v271.43C242.72,335.24,240.16,337.8,237.01,337.8z M43.92,55.2c-3.01,0-5.46,2.45-5.46,5.46v271.43
			c0,3.01,2.45,5.46,5.46,5.46h193.1c3.01,0,5.46-2.45,5.46-5.46V60.66c0-3.01-2.45-5.46-5.46-5.46H43.92z"/>
		<path class="st0" d="M453.31,337.8h-193.1c-3.15,0-5.71-2.56-5.71-5.71V60.66c0-3.15,2.56-5.71,5.71-5.71h193.1
			c3.15,0,5.71,2.56,5.71,5.71v271.43C459.02,335.24,456.46,337.8,453.31,337.8z M260.21,55.2c-3.01,0-5.46,2.45-5.46,5.46v271.43
			c0,3.01,2.45,5.46,5.46,5.46h193.1c3.01,0,5.46-2.45,5.46-5.46V60.66c0-3.01-2.45-5.46-5.46-5.46H260.21z"/>
	</g>
	<g>
		<g>
			<g>
				<path class="st0" d="M467.06,194.17c3.25-11.28,2.66-22.76-0.99-33.04c2.85-4.08,5.1-8.69,6.56-13.74
					c6.7-23.22-5.51-47.4-27.54-56.11c-4.25-30.42-25.84-57-57.25-66.06c-24.84-7.16-50.31-1.78-69.67,12.39
					c-4.85-5.07-11.05-8.98-18.27-11.06c-21.78-6.28-44.53,6.28-50.81,28.06c-1.05,3.64-1.56,7.31-1.6,10.93
					c-21.92,4.42-40.69,20.57-47.31,43.54c-5.95,20.63-0.68,41.84,12.19,57.11c-1.66,3.01-3.03,6.24-4.02,9.68
					c-7.13,24.73,7.13,50.55,31.86,57.68c8.15,2.35,16.42,2.36,24.1,0.46c9.09,12.53,22.26,22.25,38.28,26.87
					c20.63,5.95,41.74,2.25,58.54-8.41c7.52,17.49,13.7,43.73,0.4,69.46c48.34-4.74,83.26-51.11,76.14-93.6
					C451.46,221.98,462.52,209.91,467.06,194.17z"/>
				<path class="st1" d="M374.32,312.33c-0.26,0-0.52-0.1-0.71-0.29c-0.26-0.26-0.36-0.63-0.26-0.99c6.81-23.72,0.6-46.46-5.8-61.36
					l-3.25-7.55l-6.94,4.4c-10.47,6.65-22.52,10.16-34.83,10.16c-6.07,0-12.13-0.86-18.02-2.56c-14.03-4.05-25.98-12.44-34.56-24.26
					l-2.77-3.82l-4.58,1.14c-6.72,1.67-13.79,1.54-20.48-0.39c-10.16-2.93-18.57-9.64-23.69-18.9c-5.11-9.26-6.31-19.95-3.38-30.12
					c0.82-2.84,1.97-5.61,3.42-8.23l2.33-4.22l-3.11-3.68c-11.86-14.07-15.91-33.01-10.82-50.66c5.7-19.75,21.78-34.55,41.97-38.62
					l5.55-1.12l0.06-5.67c0.03-3.08,0.48-6.13,1.33-9.07c4.18-14.5,17.62-24.62,32.69-24.62c3.18,0,6.36,0.45,9.45,1.34
					c5.77,1.67,11.01,4.84,15.15,9.17l4.24,4.44l4.95-3.62c12.52-9.16,27.89-14.2,43.28-14.2c6.84,0,13.67,0.97,20.31,2.89
					c27.75,8,48.26,31.67,52.26,60.3l0.56,4.04l3.8,1.5c19,7.51,29.06,28,23.39,47.66c-1.21,4.18-3.08,8.1-5.57,11.67l-2.06,2.95
					l1.2,3.4c3.31,9.31,3.6,19.26,0.86,28.76c-3.8,13.16-13.13,24-25.6,29.74l-4.86,2.24l0.88,5.28
					c3.04,18.13-2.42,37.93-14.98,54.33c-10.46,13.66-25.08,23.77-41.18,28.47C374.51,312.32,374.41,312.33,374.32,312.33z
					 M364.77,239.68c0.1,0,0.2,0.01,0.3,0.04c0.28,0.09,0.51,0.29,0.62,0.56l3.71,8.62c6.38,14.83,12.55,37.29,6.37,60.93
					c15.01-4.79,28.6-14.41,38.43-27.24c12.22-15.96,17.54-35.2,14.6-52.78l-1.01-6.03c-0.07-0.45,0.16-0.88,0.57-1.07l5.56-2.56
					c11.95-5.5,20.88-15.88,24.52-28.48c2.62-9.1,2.34-18.62-0.83-27.54l-1.38-3.88c-0.11-0.3-0.06-0.64,0.12-0.91l2.36-3.38
					c2.37-3.39,4.15-7.12,5.29-11.08c5.38-18.66-4.16-38.11-22.2-45.24l-4.34-1.71c-0.33-0.13-0.57-0.43-0.62-0.79l-0.65-4.62
					c-3.89-27.85-23.84-50.88-50.83-58.66c-6.46-1.86-13.11-2.81-19.76-2.81c-14.98,0-29.93,4.91-42.1,13.81l-5.66,4.14
					c-0.41,0.3-0.97,0.25-1.31-0.12l-4.85-5.07c-3.9-4.08-8.83-7.06-14.26-8.63c-2.91-0.84-5.9-1.27-8.9-1.27
					c-14.18,0-26.84,9.53-30.77,23.18c-0.8,2.77-1.22,5.64-1.25,8.53l-0.07,6.47c-0.01,0.47-0.34,0.88-0.8,0.97l-6.35,1.28
					c-19.46,3.92-34.95,18.18-40.44,37.21c-4.9,17.01-1.01,35.25,10.43,48.81l3.55,4.21c0.27,0.32,0.31,0.77,0.11,1.13l-2.67,4.82
					c-1.38,2.49-2.47,5.12-3.25,7.82c-2.78,9.65-1.64,19.8,3.21,28.59c4.86,8.79,12.84,15.16,22.49,17.95
					c6.35,1.83,13.06,1.95,19.44,0.37l5.24-1.3c0.39-0.1,0.81,0.05,1.05,0.38l3.17,4.37c8.31,11.46,19.89,19.59,33.49,23.51
					c5.71,1.65,11.59,2.48,17.47,2.48c11.93,0,23.6-3.41,33.76-9.85l7.93-5.03C364.39,239.73,364.58,239.68,364.77,239.68z"/>
			</g>
			<g>
				<path class="st1" d="M304.19,146.19l-26.8-4.17l0.42-2.68c0.71-4.56,1.8-8.18,3.28-10.87c1.48-2.68,3.42-5.04,5.83-7.08
					c2.41-2.03,7.65-5.45,15.72-10.27c4.29-2.51,6.64-5.06,7.04-7.64c0.4-2.59-0.05-4.72-1.35-6.39c-1.31-1.67-3.51-2.75-6.61-3.23
					c-3.34-0.52-6.27,0.16-8.8,2.02c-2.53,1.87-4.53,5.51-6,10.92l-26.84-7.65c2.51-9.92,7.42-17.45,14.75-22.59
					c7.33-5.15,17.57-6.69,30.74-4.64c10.25,1.6,18.19,5.03,23.83,10.28c7.66,7.12,10.74,15.5,9.24,25.13
					c-0.62,4-2.33,7.68-5.12,11.05c-2.79,3.37-8.01,7.21-15.66,11.5c-5.34,3.02-8.8,5.58-10.4,7.66
					C305.85,139.64,304.76,142.52,304.19,146.19z M275.36,149l28.71,4.47l-3.94,25.32l-28.71-4.47L275.36,149z"/>
			</g>
			<g>
				<path class="st1" d="M372.59,185.42l-14.88-12.05l1.21-1.49c2.05-2.53,4-4.36,5.86-5.47c1.85-1.11,3.88-1.86,6.07-2.25
					c2.19-0.39,6.61-0.62,13.24-0.69c3.51-0.01,5.85-0.73,7.01-2.17c1.16-1.44,1.64-2.9,1.44-4.38c-0.2-1.48-1.17-2.92-2.89-4.32
					c-1.85-1.5-3.88-2.13-6.09-1.89c-2.21,0.24-4.72,1.75-7.53,4.54l-13.67-14.19c5.05-5.16,10.72-8.02,17.02-8.56
					c6.3-0.54,13.1,2.15,20.41,8.07c5.69,4.61,9.32,9.52,10.9,14.73c2.15,7.06,1.06,13.27-3.28,18.62c-1.8,2.22-4.15,3.86-7.04,4.93
					c-2.9,1.07-7.45,1.56-13.64,1.47c-4.33-0.05-7.35,0.28-9.07,0.99C375.93,182.02,374.24,183.39,372.59,185.42z M354,176.91
					l15.94,12.91l-11.39,14.06l-15.94-12.91L354,176.91z"/>
			</g>
			<g>
				<path class="st1" d="M376.75,98.8l-6.44-8.8l0.88-0.64c1.5-1.1,2.84-1.82,4.02-2.16c1.18-0.34,2.4-0.46,3.67-0.36
					c1.26,0.11,3.73,0.62,7.39,1.54c1.93,0.5,3.32,0.45,4.17-0.18c0.85-0.62,1.32-1.36,1.43-2.2c0.1-0.85-0.22-1.78-0.96-2.8
					c-0.8-1.1-1.83-1.74-3.08-1.92c-1.25-0.19-2.85,0.28-4.8,1.4l-5.47-9.79c3.53-2.11,7.06-2.86,10.61-2.24
					c3.55,0.62,6.9,3.08,10.06,7.4c2.46,3.36,3.75,6.59,3.86,9.69c0.16,4.2-1.34,7.46-4.51,9.77c-1.31,0.96-2.84,1.52-4.59,1.69
					c-1.75,0.17-4.32-0.22-7.72-1.17c-2.38-0.65-4.09-0.91-5.14-0.77C379.08,97.41,377.96,97.92,376.75,98.8z M367.75,91.42
					l6.9,9.42l-8.31,6.09l-6.9-9.42L367.75,91.42z"/>
			</g>
		</g>
		<g>
			<g>
				<path class="st2" d="M128.34,223.57c-8.27,0-16.59-2.26-23.96-6.66c-10.15-6.05-17.32-15.42-19.75-25.79
					c-8.24-0.59-15.83-4.64-20.89-11.16c-3.67-4.72-5.76-10.34-6.07-16.3c-2.17-1.48-4.09-3.28-5.71-5.35
					c-7.89-10.15-6.9-24.4,2.25-33.34c-3.81-16.26,2.2-33.31,15.39-43.56c10.35-8.04,23.53-10.87,36.27-7.8
					c1.48-3.38,3.79-6.34,6.71-8.61c4.69-3.65,10.53-5.25,16.43-4.51c5.9,0.74,11.16,3.73,14.8,8.43c1.1,1.41,2.02,2.96,2.76,4.6
					c12.03-1.97,24.08,2.73,31.57,12.38c6.7,8.62,8.72,19.92,5.44,30.33c1.31,1.12,2.5,2.36,3.54,3.7
					c8.51,10.95,6.53,26.79-4.43,35.3c-3.34,2.6-7.3,4.31-11.48,4.98c-2.18,8.16-6.85,15.21-13.54,20.4
					c-8.44,6.56-19.25,9.3-29.79,7.58c-0.11,9.71,2.15,22.88,13.02,32.3c0.22,0.19,0.31,0.48,0.25,0.76
					c-0.06,0.28-0.27,0.51-0.55,0.59C136.62,223,132.48,223.57,128.34,223.57z M95.73,73.98c-9.03,0-17.84,2.98-25.18,8.68
					c-12.82,9.97-18.6,26.61-14.72,42.39c0.07,0.27-0.02,0.56-0.22,0.76c-8.86,8.36-9.9,21.92-2.42,31.55
					c1.59,2.05,3.5,3.81,5.66,5.23c0.21,0.14,0.34,0.37,0.35,0.63c0.22,5.77,2.22,11.23,5.76,15.8
					c4.91,6.32,12.32,10.18,20.33,10.59c0.35,0.02,0.65,0.27,0.73,0.62c2.21,10.17,9.19,19.41,19.16,25.35
					c10.28,6.12,22.45,7.97,33.63,5.14c-10.73-10.04-12.73-23.66-12.47-33.47c0.01-0.23,0.11-0.45,0.29-0.59
					c0.18-0.14,0.41-0.2,0.64-0.16c10.39,1.95,21.12-0.64,29.45-7.11c6.54-5.09,11.08-12.02,13.11-20.06
					c0.08-0.31,0.34-0.54,0.65-0.58c4.09-0.56,7.98-2.2,11.25-4.74c10.27-7.98,12.13-22.83,4.15-33.1c-1.08-1.39-2.33-2.67-3.71-3.8
					c-0.25-0.21-0.35-0.55-0.25-0.85c3.34-10.05,1.46-21.03-5.03-29.38c-7.26-9.34-19.01-13.82-30.67-11.69
					c-0.37,0.07-0.73-0.13-0.87-0.47c-0.71-1.73-1.65-3.35-2.79-4.82c-3.39-4.36-8.28-7.15-13.76-7.83
					c-5.48-0.69-10.91,0.8-15.27,4.19c-2.88,2.24-5.13,5.21-6.49,8.59c-0.15,0.37-0.55,0.56-0.92,0.47
					C102.67,74.42,99.18,73.98,95.73,73.98z"/>
			</g>
			<g>
				<path class="st0" d="M100.59,139.96l-13.81,3.25l-0.33-1.38c-0.55-2.35-0.74-4.32-0.55-5.91c0.19-1.59,0.67-3.12,1.44-4.58
					c0.77-1.46,2.64-4.15,5.6-8.07c1.59-2.06,2.22-3.76,1.91-5.09c-0.31-1.33-0.95-2.28-1.91-2.83c-0.96-0.55-2.24-0.64-3.84-0.27
					c-1.72,0.41-3.01,1.31-3.87,2.71c-0.86,1.4-1.11,3.56-0.76,6.47l-14.51,1.58c-0.74-5.3,0.16-9.92,2.7-13.85
					c2.54-3.94,7.2-6.7,13.99-8.3c5.28-1.24,9.81-1.14,13.57,0.3c5.11,1.94,8.25,5.4,9.42,10.36c0.49,2.06,0.38,4.18-0.3,6.36
					c-0.69,2.18-2.46,5.07-5.33,8.66c-1.99,2.52-3.17,4.44-3.53,5.76C100.11,136.46,100.15,138.07,100.59,139.96z M87.17,146.99
					l14.79-3.48l3.07,13.05l-14.79,3.48L87.17,146.99z"/>
			</g>
			<g>
				<path class="st0" d="M135.75,110.79l-9.59-2.91l0.29-0.96c0.5-1.63,1.08-2.9,1.76-3.8c0.68-0.91,1.51-1.67,2.5-2.29
					c0.99-0.62,3.08-1.6,6.28-2.94c1.7-0.7,2.69-1.51,2.97-2.43c0.28-0.92,0.23-1.73-0.16-2.41c-0.39-0.68-1.14-1.19-2.25-1.53
					c-1.19-0.36-2.3-0.27-3.32,0.28c-1.02,0.55-1.94,1.78-2.76,3.68l-9.42-4.19c1.43-3.5,3.62-6,6.56-7.5
					c2.95-1.5,6.77-1.54,11.48-0.11c3.67,1.11,6.39,2.78,8.18,5c2.43,3,3.12,6.22,2.08,9.67c-0.43,1.43-1.25,2.69-2.44,3.78
					c-1.19,1.09-3.3,2.22-6.32,3.4c-2.11,0.83-3.51,1.58-4.2,2.26C136.7,108.48,136.15,109.48,135.75,110.79z M125.07,110.32
					l10.27,3.12l-2.75,9.06l-10.27-3.12L125.07,110.32z"/>
			</g>
		</g>
	</g>
</g>
<g id="Background_Simple" class="st3">
	<g class="st4">
		<path class="st5" d="M74.83,95.34c-95.71,61.98,62.1,91.13,102.84,124.74c29.23,24.11,18.83,76.34,63.89,105.36
			c47.36,30.5,117.04,29.97,152.3,12.78c53.27-25.98,52.21-142.65-34.62-184.19c-65.86-31.5-115.21,15.39-182.86-9.76
			C133.83,128.47,126.94,61.59,74.83,95.34z"/>
		<path class="st6" d="M74.83,95.34c-95.71,61.98,62.1,91.13,102.84,124.74c29.23,24.11,18.83,76.34,63.89,105.36
			c47.36,30.5,117.04,29.97,152.3,12.78c53.27-25.98,52.21-142.65-34.62-184.19c-65.86-31.5-115.21,15.39-182.86-9.76
			C133.83,128.47,126.94,61.59,74.83,95.34z"/>
	</g>
</g>
<g id="Shadow_1_">
	<ellipse id="_x3C_Path_x3E__372_" class="st7" cx="250" cy="416.24" rx="193.89" ry="11.32"/>
</g>
<g id="Question_Marks">
	<g>
		<g>
			<path class="st5" d="M157.61,247.44l-0.92-0.39c0.83-1.95,1.3-3.58,1.45-4.96l0.99,0.11
				C158.98,243.68,158.48,245.39,157.61,247.44z M157.22,235.98c-1.94-4.26-5.55-6.95-10.43-7.77l0.17-0.99
				c5.23,0.88,9.09,3.77,11.17,8.35L157.22,235.98z"/>
			<path class="st5" d="M151.98,257.5l-9.84,4.48l-0.45-0.98c-0.76-1.67-1.19-3.12-1.29-4.34c-0.1-1.22,0.04-2.43,0.39-3.63
				c0.36-1.2,1.35-3.49,2.99-6.86c0.88-1.78,1.1-3.14,0.67-4.09c-0.43-0.95-1.05-1.56-1.85-1.83c-0.8-0.27-1.77-0.15-2.91,0.37
				c-1.23,0.56-2.05,1.43-2.49,2.6c-0.43,1.18-0.3,2.83,0.39,4.95L127,251.49c-1.34-3.85-1.35-7.43-0.03-10.75
				c1.31-3.32,4.39-6.08,9.22-8.28c3.76-1.71,7.16-2.31,10.19-1.79c4.11,0.69,6.97,2.81,8.58,6.35c0.67,1.47,0.91,3.07,0.72,4.8
				c-0.19,1.73-1.09,4.15-2.7,7.26c-1.11,2.17-1.71,3.78-1.79,4.83C151.1,254.95,151.37,256.15,151.98,257.5z M143,264.74l10.54-4.8
				l4.23,9.29l-10.54,4.8L143,264.74z"/>
		</g>
		<g>
			<path class="st5" d="M127.64,279.73l-5.01,6.79l-0.68-0.5c-1.16-0.85-2-1.67-2.53-2.47c-0.53-0.79-0.9-1.67-1.11-2.63
				c-0.21-0.96-0.4-2.9-0.57-5.81c-0.08-1.55-0.44-2.56-1.1-3.04c-0.66-0.48-1.31-0.66-1.96-0.55c-0.65,0.12-1.26,0.57-1.84,1.36
				c-0.62,0.85-0.86,1.75-0.71,2.72c0.15,0.97,0.87,2.04,2.15,3.22l-5.97,6.31c-2.38-2.12-3.75-4.56-4.11-7.32
				c-0.37-2.76,0.68-5.81,3.14-9.15c1.91-2.6,4-4.3,6.26-5.1c3.06-1.09,5.82-0.73,8.26,1.07c1.01,0.75,1.78,1.75,2.31,3
				c0.53,1.25,0.84,3.25,0.92,5.97c0.07,1.91,0.27,3.23,0.62,3.97C126.07,278.33,126.71,279.05,127.64,279.73z M124.27,288.09
				l5.36-7.28l6.42,4.73l-5.36,7.28L124.27,288.09z"/>
		</g>
	</g>
</g>
<g id="Character_1_">
	<g>
		<path class="st5" d="M234.09,412.64c-1.62,0-3.19-0.88-3.99-2.42c-4.02-7.76-9.07-16.87-18.15-26.73
			c-1.06-1.15-1.45-2.78-1.01-4.28c3.37-11.71,8.67-27.72,8.72-27.88c0.78-2.35,3.32-3.63,5.67-2.85c2.35,0.78,3.63,3.32,2.85,5.67
			c-0.05,0.15-4.61,13.94-7.92,25.16c8.35,9.47,13.5,18.46,17.82,26.79c1.14,2.2,0.28,4.91-1.92,6.04
			C235.49,412.47,234.78,412.64,234.09,412.64z"/>
		<polygon class="st8" points="241.56,416.24 206.77,416.24 225.21,405.78 240.66,406.38 		"/>
		
			<ellipse transform="matrix(0.9545 -0.2983 0.2983 0.9545 -94.0061 84.8068)" class="st8" cx="230.8" cy="350.34" rx="30.04" ry="24.9"/>
		<path class="st8" d="M151.65,333.98c-1.76,0-3.43-1.04-4.15-2.77c-0.95-2.29,0.14-4.91,2.43-5.86c2.61-1.08,2.97-3.74,2.97-3.77
			c0.19-2,1.69-3.64,3.67-4c1.07-0.19,2.1-0.5,3.3-0.84c6.08-1.78,13.6-3.98,37.31,2.66c23.38-13.08,23.65-37.6,23.65-38.66
			c0-2.47,2-4.49,4.47-4.49c0,0,0.01,0,0.02,0c2.46,0,4.47,1.98,4.48,4.45c0.01,1.3-0.14,32.08-30.04,47.5
			c-1.02,0.53-2.2,0.64-3.3,0.32c-22.59-6.53-28.96-4.67-34.07-3.17c-0.45,0.13-0.91,0.27-1.38,0.4c-1.11,2.85-3.41,6.14-7.64,7.89
			C152.81,333.87,152.23,333.98,151.65,333.98z"/>
		<path class="st5" d="M204.08,301.89c-8.51-33.83-31.18-121.06,41.47-126.39c65.18-4.78,83.07,81.97,87.41,112.03
			c2.53,17.52,3.39,33.4,3.53,45.82c0.19,16.01-11.06,29.82-26.76,33.01c-35.51,7.21-69.12,8.24-91.75-0.7
			c-6.12-2.42-9.82-8.65-9.23-15.2C209.63,340.74,209.65,324.03,204.08,301.89z"/>
		<path class="st9" d="M332.96,287.52c-4.1-28.32-20.22-107.04-76.66-111.96c-6.57-0.57-13.05,2.66-16.07,8.52
			c-2.52,4.88-2.44,10.79,1.33,16.64C254,220,283.67,286.67,279.19,323c-2.04,16.53-12.41,29.73-3.39,48.31
			c10.89-0.9,22.31-2.59,33.94-4.96c15.7-3.18,26.95-16.99,26.76-33.01C336.35,320.93,335.5,305.04,332.96,287.52z"/>
		<path class="st8" d="M323.24,333.79c-0.25,0-0.45-0.2-0.45-0.44c-0.18-15.45-1.37-30.85-3.53-45.76
			c-10.8-74.65-39.88-112.41-84.1-109.15c-0.24,0.03-0.46-0.17-0.48-0.41c-0.02-0.25,0.17-0.46,0.41-0.48
			c44.75-3.3,74.17,34.72,85.05,109.92c2.16,14.95,3.35,30.39,3.54,45.88C323.69,333.58,323.49,333.79,323.24,333.79
			C323.24,333.79,323.24,333.79,323.24,333.79z"/>
		
			<ellipse transform="matrix(0.9545 -0.2983 0.2983 0.9545 -90.8803 110.0747)" class="st8" cx="315.12" cy="352.73" rx="30.04" ry="24.9"/>
		<path class="st5" d="M325.3,412.64c-1.62,0-3.19-0.88-3.99-2.42c-4.02-7.76-9.07-16.87-18.15-26.73
			c-1.06-1.15-1.45-2.78-1.01-4.28c3.37-11.71,8.67-27.72,8.72-27.88c0.78-2.35,3.31-3.63,5.67-2.85c2.35,0.78,3.63,3.32,2.85,5.67
			c-0.05,0.15-4.61,13.94-7.92,25.16c8.35,9.47,13.5,18.46,17.82,26.79c1.14,2.2,0.28,4.91-1.92,6.04
			C326.69,412.47,325.99,412.64,325.3,412.64z"/>
		<path class="st8" d="M315.88,275.91c-1.61,0-3.17-0.87-3.98-2.4c-1.15-2.19-0.31-4.9,1.88-6.05l0,0
			c0.86-0.46,20.39-11.13,25.88-36.77c-13.02-5.45-36.42-17.74-41.54-23.92c-0.5-0.6-0.83-1.32-0.96-2.08c-0.12-0.67-0.96-5.98,1-11
			l-2.36-4.56c-1.14-2.2-0.28-4.91,1.92-6.05c2.2-1.14,4.91-0.28,6.05,1.92l3.4,6.56c0.73,1.4,0.66,3.08-0.17,4.43
			c-1.07,1.73-1.21,4.26-1.12,5.91c5.76,5.21,29.04,17.54,40.43,21.77c2,0.74,3.2,2.79,2.87,4.89
			c-5.07,32.77-30.14,46.27-31.21,46.83C317.29,275.74,316.58,275.91,315.88,275.91z"/>
		<path class="st8" d="M301.57,206.15c-0.42,0-0.85-0.12-1.23-0.37c-1.04-0.68-1.33-2.07-0.65-3.1c0.15-0.24,3.86-5.83,9.5-7.34
			c1.19-0.32,2.43,0.39,2.75,1.59c0.32,1.2-0.39,2.43-1.59,2.75c-3.94,1.06-6.88,5.42-6.91,5.46
			C303.02,205.79,302.3,206.15,301.57,206.15z"/>
		<polygon class="st8" points="332.77,416.24 297.98,416.24 316.42,405.78 331.87,406.38 		"/>
		<g>
			
				<ellipse transform="matrix(0.9961 -0.0882 0.0882 0.9961 -21.9882 23.7599)" class="st1" cx="258.01" cy="260.82" rx="23.92" ry="21.53"/>
			
				<ellipse transform="matrix(0.9617 -0.274 0.274 0.9617 -62.3949 79.1696)" class="st8" cx="252.18" cy="262.92" rx="6.57" ry="11.96"/>
			<path class="st8" d="M230.8,264.86c15.1-1.94,45.01-10.47,49.94-13.91c-3.89-11.36-21.96-21.08-38.13-15.61
				C228.03,240.28,230.8,264.86,230.8,264.86z"/>
			<path class="st8" d="M233.73,272.16c18.74-3.56,43.11-9.54,50.08-13.38c-0.43,12.23-3.98,24.62-23.12,28.8
				C245.06,291.01,233.73,272.16,233.73,272.16z"/>
		</g>
		<g>
			
				<ellipse transform="matrix(0.834 -0.5518 0.5518 0.834 -113.5489 159.3437)" class="st1" cx="208.01" cy="268.36" rx="14.72" ry="18.63"/>
			<path class="st8" d="M208.34,268.68c1.14,5.36,0.16,9.83-2.19,9.98c-2.35,0.16-5.18-4.06-6.31-9.42
				c-1.14-5.36-0.16-9.83,2.19-9.98C204.37,259.11,207.2,263.32,208.34,268.68z"/>
			<path class="st8" d="M189.75,266.63c10.13,1.2,30.25-0.14,33.59-1.97c-2.47-9.7-14.45-20.67-25.34-19.27
				C188.18,246.66,189.75,266.63,189.75,266.63z"/>
			<path class="st8" d="M191.63,272.94c12.59,0.57,28.97,0.25,33.68-1.52c-0.43,9.61-2.95,18.77-15.81,18.62
				C198.99,289.92,191.63,272.94,191.63,272.94z"/>
		</g>
		<path class="st8" d="M264.09,229.3c-18.89,0-31.44-9.33-32.06-9.8c-1.97-1.5-2.36-4.31-0.86-6.29c1.49-1.97,4.3-2.36,6.27-0.87
			c0.22,0.16,15.13,11.04,35.84,7.11c2.44-0.46,4.78,1.14,5.24,3.57c0.46,2.43-1.14,4.78-3.57,5.24
			C271.14,228.99,267.51,229.3,264.09,229.3z"/>
		<path class="st8" d="M183.88,221.57c-0.5,0-1.02-0.09-1.52-0.26c-2.33-0.84-3.54-3.41-2.7-5.74c2.38-6.62,6.32-10.92,11.72-12.77
			c9.79-3.37,20.33,3.18,20.77,3.46c2.09,1.32,2.72,4.09,1.4,6.19c-1.32,2.09-4.08,2.72-6.18,1.4c-2.04-1.27-8.37-4.21-13.1-2.56
			c-2.72,0.95-4.74,3.34-6.17,7.31C187.44,220.43,185.72,221.57,183.88,221.57z"/>
		<path class="st8" d="M219.23,297.25c-0.12,0-0.25-0.02-0.37-0.05c-0.71-0.21-1.12-0.93-0.92-1.64c0.03-0.12,0.88-3.03,4.56-4.93
			c5.15-2.65,12.99-2.1,23.31,1.63c0.7,0.25,1.06,1.03,0.81,1.72c-0.25,0.7-1.02,1.06-1.72,0.81c-11.83-4.29-17.98-3.36-21.05-1.83
			c-2.68,1.34-3.29,3.25-3.32,3.33C220.35,296.87,219.81,297.25,219.23,297.25z"/>
		<g>
			<g>
				<path class="st5" d="M176.88,292.32c-26.1,2.34-44.79,13.15-44.79,13.15c7.73-1.46,35.36,32.73,42.46,59.09
					c13.1-4.86,28.38-8.17,44.68-10.75C209.36,326.64,191.31,295.85,176.88,292.32z"/>
				<path class="st10" d="M176.88,292.32c-26.1,2.34-44.79,13.15-44.79,13.15c7.73-1.46,35.36,32.73,42.46,59.09
					c13.1-4.86,28.38-8.17,44.68-10.75C209.36,326.64,191.31,295.85,176.88,292.32z"/>
			</g>
			<g>
				<path class="st5" d="M176.88,292.32c-17.08-1.93-44.81,12.37-44.81,12.37c-4.91,3.13-3.58,9.01-0.9,11.49
					c2.57-3.69,31.23-13.29,42.01-14.58C167.82,296.64,172.8,293.04,176.88,292.32z"/>
				<path class="st11" d="M176.88,292.32c-17.08-1.93-44.81,12.37-44.81,12.37c-4.91,3.13-3.58,9.01-0.9,11.49
					c2.57-3.69,31.23-13.29,42.01-14.58C167.82,296.64,172.8,293.04,176.88,292.32z"/>
			</g>
		</g>
		<path class="st8" d="M151.66,333.98c-1.47,0-2.9-0.72-3.76-2.04c-3.25-4.98-1.22-12.59-0.78-14.06c0.71-2.37,3.21-3.72,5.58-3.01
			c2.37,0.71,3.72,3.2,3.02,5.57c-0.73,2.51-0.88,5.72-0.3,6.6c1.35,2.07,0.77,4.85-1.31,6.21
			C153.35,333.75,152.5,333.98,151.66,333.98z"/>
	</g>
</g>
<g id="_x34_00_ERROR">
	<g>
		<g>
			<path class="st5" d="M136.33,137.94h-15.13v-6.83l15.13-17.99h7.24v18.38h3.75v6.45h-3.75v5.59h-7.24V137.94z M136.33,131.5
				v-9.41l-8,9.41H136.33z"/>
			<path class="st5" d="M149.91,128.46c0-5.68,1.02-9.66,3.07-11.93c2.05-2.27,5.16-3.41,9.35-3.41c2.01,0,3.66,0.25,4.96,0.74
				c1.29,0.5,2.35,1.14,3.16,1.94c0.82,0.8,1.46,1.63,1.93,2.51c0.47,0.88,0.85,1.9,1.13,3.07c0.56,2.23,0.84,4.55,0.84,6.98
				c0,5.42-0.92,9.4-2.75,11.91c-1.84,2.52-5,3.77-9.48,3.77c-2.52,0-4.55-0.4-6.1-1.2c-1.55-0.8-2.82-1.98-3.81-3.53
				c-0.72-1.1-1.28-2.61-1.68-4.52C150.11,132.88,149.91,130.77,149.91,128.46z M158.15,128.48c0,3.81,0.34,6.41,1.01,7.8
				c0.67,1.39,1.65,2.09,2.93,2.09c0.84,0,1.57-0.3,2.19-0.89c0.62-0.59,1.07-1.53,1.37-2.8c0.29-1.28,0.44-3.27,0.44-5.98
				c0-3.97-0.34-6.64-1.01-8.01c-0.67-1.37-1.68-2.05-3.03-2.05c-1.37,0-2.37,0.7-2.98,2.09
				C158.46,122.13,158.15,124.71,158.15,128.48z"/>
			<path class="st5" d="M177.77,128.46c0-5.68,1.02-9.66,3.07-11.93c2.05-2.27,5.16-3.41,9.35-3.41c2.01,0,3.66,0.25,4.96,0.74
				c1.29,0.5,2.35,1.14,3.16,1.94c0.82,0.8,1.46,1.63,1.93,2.51c0.47,0.88,0.85,1.9,1.13,3.07c0.56,2.23,0.84,4.55,0.84,6.98
				c0,5.42-0.92,9.4-2.75,11.91c-1.84,2.52-5,3.77-9.48,3.77c-2.52,0-4.55-0.4-6.1-1.2c-1.55-0.8-2.82-1.98-3.81-3.53
				c-0.72-1.1-1.28-2.61-1.68-4.52C177.97,132.88,177.77,130.77,177.77,128.46z M186.01,128.48c0,3.81,0.34,6.41,1.01,7.8
				c0.67,1.39,1.65,2.09,2.93,2.09c0.84,0,1.57-0.3,2.19-0.89c0.62-0.59,1.07-1.53,1.37-2.8c0.29-1.28,0.44-3.27,0.44-5.98
				c0-3.97-0.34-6.64-1.01-8.01c-0.67-1.37-1.68-2.05-3.03-2.05c-1.37,0-2.37,0.7-2.98,2.09
				C186.32,122.13,186.01,124.71,186.01,128.48z"/>
			<path class="st8" d="M220.89,113.63h24.76v6.38h-15.5v4.75h14.38v6.1h-14.38v5.89h15.95v6.77h-25.21V113.63z"/>
			<path class="st8" d="M251.2,143.53v-29.9h15.4c2.86,0,5.04,0.24,6.55,0.73c1.51,0.49,2.73,1.4,3.65,2.72
				c0.92,1.33,1.39,2.94,1.39,4.84c0,1.66-0.35,3.09-1.06,4.29c-0.71,1.2-1.68,2.18-2.92,2.93c-0.79,0.48-1.87,0.87-3.24,1.18
				c1.1,0.37,1.9,0.74,2.4,1.1c0.34,0.25,0.83,0.77,1.48,1.57c0.65,0.8,1.08,1.42,1.29,1.86l4.47,8.66h-10.44l-4.94-9.14
				c-0.63-1.18-1.18-1.95-1.67-2.3c-0.67-0.46-1.42-0.69-2.26-0.69h-0.82v12.14H251.2z M260.48,125.75h3.9
				c0.42,0,1.24-0.14,2.45-0.41c0.61-0.12,1.11-0.43,1.5-0.94c0.39-0.5,0.58-1.08,0.58-1.73c0-0.96-0.31-1.71-0.92-2.22
				c-0.61-0.52-1.76-0.78-3.45-0.78h-4.06V125.75z"/>
			<path class="st8" d="M283.69,143.53v-29.9h15.4c2.86,0,5.04,0.24,6.55,0.73c1.51,0.49,2.73,1.4,3.65,2.72
				c0.92,1.33,1.39,2.94,1.39,4.84c0,1.66-0.35,3.09-1.06,4.29c-0.71,1.2-1.68,2.18-2.92,2.93c-0.79,0.48-1.87,0.87-3.24,1.18
				c1.1,0.37,1.9,0.74,2.4,1.1c0.34,0.25,0.83,0.77,1.48,1.57c0.65,0.8,1.08,1.42,1.29,1.86l4.47,8.66h-10.44l-4.94-9.14
				c-0.63-1.18-1.18-1.95-1.67-2.3c-0.67-0.46-1.42-0.69-2.26-0.69h-0.82v12.14H283.69z M292.97,125.75h3.9
				c0.42,0,1.24-0.14,2.45-0.41c0.61-0.12,1.11-0.43,1.5-0.94c0.39-0.5,0.58-1.08,0.58-1.73c0-0.96-0.31-1.71-0.92-2.22
				c-0.61-0.52-1.76-0.78-3.45-0.78h-4.06V125.75z"/>
			<path class="st8" d="M314.18,128.6c0-4.88,1.36-8.68,4.08-11.4c2.72-2.72,6.51-4.08,11.36-4.08c4.98,0,8.81,1.34,11.5,4.01
				c2.69,2.67,4.04,6.42,4.04,11.23c0,3.49-0.59,6.36-1.76,8.6c-1.18,2.24-2.88,3.98-5.1,5.22c-2.22,1.24-4.99,1.87-8.31,1.87
				c-3.37,0-6.16-0.54-8.37-1.61c-2.21-1.07-4-2.77-5.37-5.1C314.87,135.01,314.18,132.1,314.18,128.6z M323.42,128.64
				c0,3.02,0.56,5.19,1.68,6.51c1.12,1.32,2.65,1.98,4.58,1.98c1.99,0,3.52-0.65,4.61-1.94c1.09-1.29,1.63-3.61,1.63-6.96
				c0-2.81-0.57-4.87-1.7-6.17c-1.14-1.3-2.68-1.95-4.62-1.95c-1.86,0-3.36,0.66-4.49,1.98
				C323.99,123.41,323.42,125.6,323.42,128.64z"/>
			<path class="st8" d="M350.27,143.53v-29.9h15.4c2.86,0,5.04,0.24,6.55,0.73c1.51,0.49,2.73,1.4,3.65,2.72
				c0.92,1.33,1.39,2.94,1.39,4.84c0,1.66-0.35,3.09-1.06,4.29c-0.71,1.2-1.68,2.18-2.92,2.93c-0.79,0.48-1.87,0.87-3.24,1.18
				c1.1,0.37,1.9,0.74,2.4,1.1c0.34,0.25,0.83,0.77,1.48,1.57c0.65,0.8,1.08,1.42,1.29,1.86l4.47,8.66h-10.44l-4.94-9.14
				c-0.63-1.18-1.18-1.95-1.67-2.3c-0.67-0.46-1.42-0.69-2.26-0.69h-0.82v12.14H350.27z M359.55,125.75h3.9
				c0.42,0,1.24-0.14,2.45-0.41c0.61-0.12,1.11-0.43,1.5-0.94c0.39-0.5,0.58-1.08,0.58-1.73c0-0.96-0.31-1.71-0.92-2.22
				c-0.61-0.52-1.76-0.78-3.45-0.78h-4.06V125.75z"/>
		</g>
	</g>
</g>
<g id="Bad_Request">
	<g>
		<path class="st8" d="M162.29,97.02V74.74h8.36c1.7,0,3.07,0.23,4.1,0.68c1.03,0.45,1.83,1.14,2.42,2.08
			c0.58,0.94,0.87,1.92,0.87,2.94c0,0.95-0.26,1.85-0.78,2.69c-0.52,0.84-1.3,1.52-2.34,2.04c1.35,0.4,2.38,1.07,3.11,2.02
			c0.72,0.95,1.09,2.08,1.09,3.37c0,1.04-0.22,2.01-0.66,2.91c-0.44,0.9-0.99,1.59-1.63,2.07c-0.65,0.49-1.46,0.85-2.44,1.1
			c-0.98,0.25-2.18,0.37-3.59,0.37H162.29z M165.24,84.1h4.82c1.31,0,2.24-0.09,2.81-0.26c0.75-0.22,1.31-0.59,1.69-1.11
			c0.38-0.52,0.57-1.17,0.57-1.95c0-0.74-0.18-1.39-0.53-1.95c-0.35-0.56-0.86-0.95-1.52-1.16c-0.66-0.21-1.79-0.31-3.39-0.31h-4.45
			V84.1z M165.24,94.39h5.55c0.95,0,1.62-0.04,2.01-0.11c0.68-0.12,1.25-0.32,1.7-0.61c0.46-0.28,0.83-0.7,1.12-1.24
			c0.29-0.54,0.44-1.17,0.44-1.88c0-0.83-0.21-1.55-0.64-2.17c-0.43-0.61-1.02-1.04-1.77-1.29c-0.75-0.25-1.84-0.37-3.26-0.37h-5.15
			V94.39z"/>
		<path class="st8" d="M193.36,95.03c-1.01,0.86-1.99,1.47-2.93,1.82c-0.94,0.35-1.94,0.53-3.02,0.53c-1.77,0-3.14-0.43-4.09-1.3
			c-0.95-0.87-1.43-1.97-1.43-3.32c0-0.79,0.18-1.51,0.54-2.17c0.36-0.65,0.83-1.18,1.41-1.57c0.58-0.4,1.24-0.69,1.97-0.9
			c0.54-0.14,1.35-0.28,2.43-0.41c2.21-0.26,3.84-0.58,4.88-0.94c0.01-0.37,0.02-0.61,0.02-0.71c0-1.12-0.26-1.9-0.77-2.36
			c-0.7-0.62-1.74-0.93-3.12-0.93c-1.29,0-2.24,0.23-2.85,0.68c-0.61,0.45-1.07,1.25-1.36,2.39l-2.67-0.37
			c0.24-1.14,0.64-2.07,1.2-2.77c0.56-0.7,1.36-1.25,2.42-1.63c1.05-0.38,2.27-0.57,3.66-0.57c1.38,0,2.5,0.16,3.36,0.49
			c0.86,0.32,1.49,0.73,1.9,1.22c0.4,0.49,0.69,1.11,0.85,1.86c0.09,0.47,0.14,1.31,0.14,2.52v3.65c0,2.54,0.06,4.15,0.17,4.83
			c0.12,0.67,0.35,1.32,0.69,1.94h-2.86C193.62,96.46,193.44,95.79,193.36,95.03z M193.13,88.92c-0.99,0.41-2.48,0.75-4.47,1.03
			c-1.12,0.16-1.92,0.34-2.39,0.55c-0.47,0.2-0.83,0.5-1.08,0.89c-0.25,0.39-0.38,0.82-0.38,1.3c0,0.73,0.28,1.34,0.83,1.82
			c0.55,0.49,1.36,0.73,2.42,0.73c1.05,0,1.99-0.23,2.81-0.69c0.82-0.46,1.42-1.09,1.81-1.89c0.29-0.62,0.44-1.53,0.44-2.74V88.92z"
			/>
		<path class="st8" d="M210.61,97.02v-2.04c-1.02,1.6-2.53,2.4-4.51,2.4c-1.29,0-2.47-0.36-3.55-1.06c-1.08-0.71-1.92-1.7-2.51-2.97
			c-0.59-1.27-0.89-2.73-0.89-4.38c0-1.61,0.27-3.07,0.81-4.39c0.54-1.31,1.34-2.32,2.42-3.02c1.07-0.7,2.27-1.05,3.6-1.05
			c0.97,0,1.84,0.21,2.6,0.62c0.76,0.41,1.38,0.95,1.85,1.6v-8h2.72v22.28H210.61z M201.96,88.97c0,2.07,0.44,3.61,1.31,4.64
			c0.87,1.02,1.9,1.54,3.09,1.54c1.2,0,2.21-0.49,3.05-1.47c0.84-0.98,1.25-2.47,1.25-4.48c0-2.21-0.43-3.83-1.28-4.86
			c-0.85-1.03-1.9-1.55-3.15-1.55c-1.22,0-2.23,0.5-3.05,1.49C202.37,85.26,201.96,86.83,201.96,88.97z"/>
		<path class="st8" d="M226.49,97.02V74.74h9.88c1.99,0,3.5,0.2,4.53,0.6c1.03,0.4,1.86,1.11,2.48,2.12
			c0.62,1.01,0.93,2.13,0.93,3.36c0,1.58-0.51,2.91-1.54,4c-1.02,1.08-2.6,1.77-4.74,2.07c0.78,0.38,1.37,0.75,1.78,1.11
			c0.86,0.79,1.68,1.78,2.45,2.96l3.88,6.06h-3.71l-2.95-4.64c-0.86-1.34-1.57-2.36-2.13-3.07c-0.56-0.71-1.06-1.21-1.5-1.49
			c-0.44-0.28-0.89-0.48-1.35-0.59c-0.33-0.07-0.88-0.11-1.64-0.11h-3.42v9.9H226.49z M229.44,84.57h6.34c1.35,0,2.4-0.14,3.16-0.42
			c0.76-0.28,1.34-0.72,1.73-1.34c0.4-0.61,0.59-1.28,0.59-2c0-1.05-0.38-1.92-1.15-2.6c-0.77-0.68-1.97-1.02-3.63-1.02h-7.05V84.57
			z"/>
		<path class="st8" d="M259.63,91.83l2.83,0.35c-0.45,1.65-1.27,2.93-2.48,3.85c-1.21,0.91-2.75,1.37-4.62,1.37
			c-2.36,0-4.23-0.73-5.62-2.18s-2.07-3.49-2.07-6.12c0-2.72,0.7-4.82,2.1-6.32c1.4-1.5,3.21-2.25,5.44-2.25
			c2.16,0,3.92,0.73,5.29,2.2c1.37,1.47,2.05,3.54,2.05,6.2c0,0.16-0.01,0.41-0.02,0.73h-12.04c0.1,1.77,0.6,3.13,1.5,4.07
			c0.9,0.94,2.03,1.41,3.37,1.41c1,0,1.86-0.26,2.57-0.79C258.65,93.82,259.21,92.98,259.63,91.83z M250.65,87.4h9.01
			c-0.12-1.36-0.47-2.38-1.03-3.05c-0.87-1.05-2-1.58-3.39-1.58c-1.26,0-2.31,0.42-3.17,1.26C251.21,84.87,250.74,85.99,250.65,87.4
			z"/>
		<path class="st8" d="M276.18,103.21v-7.9c-0.43,0.6-1.02,1.09-1.79,1.49c-0.77,0.39-1.58,0.59-2.44,0.59
			c-1.92,0-3.56-0.77-4.95-2.3c-1.38-1.53-2.08-3.63-2.08-6.29c0-1.62,0.28-3.08,0.84-4.36c0.56-1.29,1.38-2.26,2.45-2.93
			c1.07-0.66,2.24-1,3.52-1c2,0,3.57,0.84,4.71,2.52v-2.16h2.46v22.33H276.18z M267.75,88.91c0,2.08,0.44,3.64,1.31,4.67
			c0.87,1.04,1.92,1.56,3.13,1.56c1.17,0,2.17-0.49,3.01-1.48c0.84-0.99,1.26-2.49,1.26-4.51c0-2.15-0.44-3.76-1.33-4.85
			c-0.89-1.08-1.93-1.63-3.12-1.63c-1.19,0-2.19,0.5-3.02,1.51C268.16,85.2,267.75,86.77,267.75,88.91z"/>
		<path class="st8" d="M293.78,97.02v-2.37c-1.26,1.82-2.96,2.74-5.12,2.74c-0.95,0-1.84-0.18-2.67-0.55
			c-0.83-0.36-1.44-0.82-1.84-1.38c-0.4-0.55-0.68-1.23-0.84-2.03c-0.11-0.54-0.17-1.39-0.17-2.55v-10h2.74v8.95
			c0,1.43,0.06,2.39,0.17,2.89c0.17,0.72,0.54,1.28,1.09,1.7c0.56,0.41,1.25,0.62,2.07,0.62s1.59-0.21,2.31-0.63
			c0.72-0.42,1.23-0.99,1.53-1.72c0.3-0.72,0.45-1.78,0.45-3.15v-8.65h2.74v16.14H293.78z"/>
		<path class="st8" d="M311.57,91.83l2.83,0.35c-0.45,1.65-1.27,2.93-2.48,3.85c-1.21,0.91-2.75,1.37-4.62,1.37
			c-2.36,0-4.23-0.73-5.62-2.18s-2.07-3.49-2.07-6.12c0-2.72,0.7-4.82,2.1-6.32c1.4-1.5,3.21-2.25,5.44-2.25
			c2.16,0,3.92,0.73,5.29,2.2c1.37,1.47,2.05,3.54,2.05,6.2c0,0.16-0.01,0.41-0.02,0.73h-12.04c0.1,1.77,0.6,3.13,1.5,4.07
			c0.9,0.94,2.03,1.41,3.37,1.41c1,0,1.86-0.26,2.57-0.79C310.59,93.82,311.15,92.98,311.57,91.83z M302.59,87.4h9.01
			c-0.12-1.36-0.47-2.38-1.03-3.05c-0.87-1.05-2-1.58-3.39-1.58c-1.26,0-2.31,0.42-3.17,1.26C303.15,84.87,302.68,85.99,302.59,87.4
			z"/>
		<path class="st8" d="M316.74,92.21l2.71-0.43c0.15,1.09,0.58,1.92,1.27,2.49c0.69,0.58,1.66,0.87,2.91,0.87
			c1.26,0,2.19-0.26,2.8-0.77c0.61-0.51,0.91-1.11,0.91-1.8c0-0.62-0.27-1.1-0.81-1.46c-0.38-0.24-1.31-0.55-2.8-0.93
			c-2.01-0.51-3.4-0.95-4.17-1.32c-0.78-0.37-1.36-0.88-1.76-1.54c-0.4-0.65-0.6-1.38-0.6-2.17c0-0.72,0.16-1.38,0.49-2
			c0.33-0.61,0.78-1.12,1.35-1.53c0.43-0.31,1.01-0.58,1.74-0.8c0.73-0.22,1.52-0.33,2.36-0.33c1.27,0,2.38,0.18,3.34,0.55
			c0.96,0.37,1.66,0.86,2.12,1.48c0.46,0.62,0.77,1.46,0.94,2.5l-2.68,0.36c-0.12-0.83-0.47-1.48-1.06-1.95
			c-0.58-0.47-1.41-0.7-2.47-0.7c-1.26,0-2.15,0.21-2.69,0.62c-0.54,0.42-0.81,0.9-0.81,1.46c0,0.35,0.11,0.67,0.33,0.96
			c0.22,0.29,0.57,0.54,1.05,0.73c0.27,0.1,1.08,0.33,2.42,0.7c1.94,0.52,3.29,0.94,4.05,1.27c0.77,0.33,1.37,0.81,1.8,1.44
			c0.44,0.63,0.65,1.41,0.65,2.34c0,0.91-0.27,1.77-0.8,2.58c-0.53,0.81-1.3,1.43-2.3,1.87c-1,0.44-2.14,0.66-3.4,0.66
			c-2.1,0-3.7-0.44-4.8-1.31C317.74,95.21,317.04,93.92,316.74,92.21z"/>
		<path class="st8" d="M339.37,94.58l0.4,2.42c-0.77,0.16-1.46,0.24-2.07,0.24c-0.99,0-1.76-0.16-2.31-0.47
			c-0.55-0.31-0.93-0.73-1.15-1.24c-0.22-0.51-0.33-1.59-0.33-3.23v-9.29h-2.01v-2.13h2.01v-4l2.72-1.64v5.64h2.75v2.13h-2.75v9.44
			c0,0.78,0.05,1.28,0.14,1.5c0.1,0.22,0.25,0.4,0.47,0.53c0.22,0.13,0.53,0.2,0.93,0.2C338.47,94.68,338.87,94.65,339.37,94.58z"/>
	</g>
</g>
</svg>
