<?xml version="1.0" encoding="utf-8"?>
<!-- Generator: Adobe Illustrator 25.2.1, SVG Export Plug-In . SVG Version: 6.00 Build 0)  -->
<svg version="1.1" xmlns="http://www.w3.org/2000/svg" xmlns:xlink="http://www.w3.org/1999/xlink" x="0px" y="0px"
	 viewBox="0 0 500 500" style="enable-background:new 0 0 500 500;" xml:space="preserve">
<style type="text/css">
	.st0{fill:#EBEBEB;}
	.st1{fill:#E0E0E0;}
	.st2{fill:#F5F5F5;}
	.st3{fill:#FAFAFA;}
	.st4{display:none;}
	.st5{display:inline;}
	.st6{fill:#03b97c;}
	.st7{opacity:0.9;fill:#FFFFFF;}
	.st8{fill:#263238;}
	.st9{fill:#FFFFFF;}
	.st10{fill:#B55B52;}
	.st11{opacity:0.2;}
	.st12{fill:#A02724;}
	.st13{opacity:0.8;fill:#263238;}
	.st14{opacity:0.4;}
</style>
<g id="Background_Complete">
	<g>
		<rect y="382.4" class="st0" width="500" height="0.25"/>
		<rect x="52.46" y="391.92" class="st0" width="33.12" height="0.25"/>
		<rect x="145.33" y="389.21" class="st0" width="34.5" height="0.25"/>
		<rect x="76.08" y="396.75" class="st0" width="55.42" height="0.25"/>
		<rect x="405.64" y="397.67" class="st0" width="43.19" height="0.25"/>
		<rect x="370.43" y="391.42" class="st0" width="22.9" height="0.25"/>
		<rect x="195.63" y="395.43" class="st0" width="93.68" height="0.25"/>
		<path class="st0" d="M237.01,337.8H43.92c-3.15,0-5.71-2.56-5.71-5.71V60.66c0-3.15,2.56-5.71,5.71-5.71h193.1
			c3.15,0,5.71,2.56,5.71,5.71v271.43C242.72,335.24,240.16,337.8,237.01,337.8z M43.92,55.2c-3.01,0-5.46,2.45-5.46,5.46v271.43
			c0,3.01,2.45,5.46,5.46,5.46h193.1c3.01,0,5.46-2.45,5.46-5.46V60.66c0-3.01-2.45-5.46-5.46-5.46H43.92z"/>
		<path class="st0" d="M453.31,337.8h-193.1c-3.15,0-5.71-2.56-5.71-5.71V60.66c0-3.15,2.56-5.71,5.71-5.71h193.1
			c3.15,0,5.71,2.56,5.71,5.71v271.43C459.02,335.24,456.46,337.8,453.31,337.8z M260.21,55.2c-3.01,0-5.46,2.45-5.46,5.46v271.43
			c0,3.01,2.45,5.46,5.46,5.46h193.1c3.01,0,5.46-2.45,5.46-5.46V60.66c0-3.01-2.45-5.46-5.46-5.46H260.21z"/>
	</g>
	<g>
		<g>
			<rect x="148.6" y="379.3" class="st1" width="54.14" height="3.1"/>
			<path class="st1" d="M170.8,311.59l-14.96,67.71h39.65l-14.96-67.71C179.38,306.38,171.95,306.38,170.8,311.59z"/>
			<g>
				<polygon class="st2" points="183.51,325.03 167.83,325.03 164.04,342.19 187.3,342.19 				"/>
				<polygon class="st2" points="187.96,345.21 163.38,345.21 161.45,353.9 189.88,353.9 				"/>
			</g>
		</g>
		<g>
			<polygon class="st1" points="72.52,382.4 80.56,382.4 104.24,250 96.19,250 			"/>
			<polygon class="st1" points="283.16,382.4 291.2,382.4 314.88,250 306.83,250 			"/>
			<g>
				<rect x="72.52" y="256.45" class="st0" width="266.04" height="48.12"/>
				<polygon class="st3" points="101.36,302.44 73.78,302.44 89.08,258.57 116.66,258.57 				"/>
				<polygon class="st3" points="156.52,302.44 128.94,302.44 144.24,258.57 171.82,258.57 				"/>
				<polygon class="st3" points="211.68,302.44 184.1,302.44 199.39,258.57 226.97,258.57 				"/>
				<polygon class="st3" points="266.83,302.44 239.26,302.44 254.55,258.57 282.13,258.57 				"/>
				<polygon class="st3" points="321.99,302.44 294.41,302.44 309.71,258.57 337.29,258.57 				"/>
			</g>
			<polygon class="st1" points="127.92,382.4 119.87,382.4 96.19,250 104.24,250 			"/>
			<polygon class="st1" points="338.55,382.4 330.51,382.4 306.83,250 314.88,250 			"/>
		</g>
		<g>
			<rect x="376" y="378.33" class="st1" width="71" height="4.07"/>
			<path class="st1" d="M404.65,291.65l-19.15,86.68h52l-19.15-86.68C416.73,284.32,406.27,284.32,404.65,291.65z"/>
			<g>
				<polygon class="st2" points="421.78,307.17 401.22,307.17 396.25,329.67 426.75,329.67 				"/>
				<polygon class="st2" points="427.62,333.63 395.38,333.63 392.86,345.02 430.14,345.02 				"/>
			</g>
		</g>
		<g>
			<path class="st0" d="M463,241.9v29.3c0,1.96-1.91,3.36-3.78,2.77L36.25,139.92c-1.21-0.38-2.03-1.5-2.03-2.77v-29.3
				c0-1.96,1.91-3.36,3.78-2.77l422.97,134.04C462.18,239.51,463,240.63,463,241.9z"/>
			<g>
				<polygon class="st3" points="429.71,262.38 453,269.76 440.08,234.75 416.8,227.37 				"/>
				<polygon class="st3" points="383.14,247.62 406.43,255 393.51,219.99 370.23,212.61 				"/>
				<polygon class="st3" points="336.57,232.86 359.86,240.24 346.94,205.23 323.66,197.85 				"/>
				<polygon class="st3" points="290,218.11 313.29,225.49 300.37,190.47 277.08,183.09 				"/>
				<polygon class="st3" points="243.43,203.35 266.71,210.73 253.8,175.71 230.51,168.33 				"/>
				<polygon class="st3" points="196.86,188.59 220.14,195.97 207.23,160.95 183.94,153.57 				"/>
				<polygon class="st3" points="150.28,173.83 173.57,181.21 160.65,146.19 137.37,138.81 				"/>
				<polygon class="st3" points="103.71,159.07 127,166.45 114.08,131.43 90.8,124.05 				"/>
				<polygon class="st3" points="57.14,144.31 80.43,151.69 67.51,116.67 44.23,109.29 				"/>
			</g>
		</g>
	</g>
</g>
<g id="Background_Simple" class="st4">
	<g class="st5">
		<path class="st6" d="M387.66,67.98c-3.49-2.3-7.11-4.41-10.84-6.33c-32.15-16.51-76.41-20.43-107.29-2.33
			c-18.4,10.78-26.25,31.59-39.93,47.24c-17.21,19.69-44.27,30.9-68.25,42.03c-32.39,15.03-61.5,31.86-72.88,65.22
			c-9.46,27.73-4.63,60.55,18.16,82.65c21.67,21.02,50.49,36.8,79.52,46.9c24.98,8.7,48.02,8.2,66.54-10.39
			c12.1-12.14,19.04-27.87,26.49-42.96c8.42-17.07,19.38-38.37,38.37-47.06c18.12-8.29,41.29-5.18,60.54-10.52
			c31.8-8.83,54.38-37.34,57.92-68.11C440.21,127.77,420.34,89.49,387.66,67.98z"/>
		<path class="st7" d="M387.66,67.98c-3.49-2.3-7.11-4.41-10.84-6.33c-32.15-16.51-76.41-20.43-107.29-2.33
			c-18.4,10.78-26.25,31.59-39.93,47.24c-17.21,19.69-44.27,30.9-68.25,42.03c-32.39,15.03-61.5,31.86-72.88,65.22
			c-9.46,27.73-4.63,60.55,18.16,82.65c21.67,21.02,50.49,36.8,79.52,46.9c24.98,8.7,48.02,8.2,66.54-10.39
			c12.1-12.14,19.04-27.87,26.49-42.96c8.42-17.07,19.38-38.37,38.37-47.06c18.12-8.29,41.29-5.18,60.54-10.52
			c31.8-8.83,54.38-37.34,57.92-68.11C440.21,127.77,420.34,89.49,387.66,67.98z"/>
	</g>
</g>
<g id="Shadow_1_">
	<ellipse id="_x3C_Path_x3E__370_" class="st2" cx="250" cy="416.24" rx="193.89" ry="11.32"/>
</g>
<g id="_x34_03_Sign">
	<g>
		<path class="st8" d="M326.47,407.57h-11.53V60.12c0-1.88,11.53-1.88,11.53,0L326.47,407.57z"/>
		<polygon points="326.47,190.6 314.94,192.92 314.94,176.97 326.47,176.97 		"/>
		<g>
			<path class="st9" d="M397.73,186.6l-161.8-12.03c-6.58-0.49-11.57-6.28-11.08-12.86l6.76-90.86c0.49-6.58,6.28-11.57,12.86-11.08
				l161.8,12.03c6.58,0.49,11.57,6.28,11.08,12.86l-6.76,90.86C410.1,182.1,404.31,187.09,397.73,186.6z"/>
			<path class="st6" d="M398.63,188.13c-0.34,0-0.68-0.01-1.01-0.04l-161.8-12.03c-3.58-0.27-6.86-1.92-9.22-4.66
				c-2.36-2.74-3.51-6.22-3.25-9.8l6.76-90.86c0.27-3.58,1.92-6.86,4.66-9.22c2.74-2.36,6.22-3.52,9.8-3.25l161.8,12.03
				c3.58,0.27,6.86,1.92,9.22,4.66c2.36,2.74,3.51,6.22,3.25,9.8l-6.76,90.86c-0.27,3.58-1.92,6.86-4.66,9.21
				C404.94,186.98,401.85,188.13,398.63,188.13z M243.57,61.24c-2.5,0-4.91,0.89-6.84,2.56c-2.13,1.84-3.42,4.38-3.63,7.17
				l-6.76,90.86c-0.43,5.77,3.92,10.82,9.69,11.25l161.8,12.03c2.78,0.21,5.49-0.69,7.62-2.53c2.13-1.84,3.42-4.38,3.63-7.16
				l6.76-90.86c0.43-5.77-3.92-10.82-9.69-11.25l-161.8-12.03C244.1,61.25,243.83,61.24,243.57,61.24z"/>
		</g>
		<g>
			<g>
				<path class="st6" d="M287.44,108.05l-20.33-1.51l0.68-9.18l22.12-22.65l9.73,0.72l-1.84,24.68l5.04,0.38l-0.64,8.66l-5.04-0.38
					l-0.56,7.51l-9.73-0.72L287.44,108.05z M288.09,99.39l0.94-12.64l-11.68,11.84L288.09,99.39z"/>
				<path class="st6" d="M306.64,96.67c0.57-7.63,2.34-12.87,5.31-15.72c2.98-2.85,7.28-4.06,12.9-3.64c2.7,0.2,4.9,0.7,6.58,1.5
					c1.69,0.8,3.04,1.77,4.05,2.92c1.02,1.15,1.8,2.34,2.34,3.56c0.54,1.23,0.95,2.64,1.21,4.24c0.53,3.05,0.67,6.2,0.43,9.45
					c-0.54,7.29-2.17,12.53-4.89,15.72c-2.72,3.2-7.09,4.57-13.12,4.12c-3.38-0.25-6.07-0.99-8.07-2.22c-2-1.23-3.59-2.94-4.77-5.12
					c-0.86-1.55-1.46-3.63-1.81-6.24C306.46,102.63,306.41,99.77,306.64,96.67z M317.7,97.51c-0.38,5.11-0.19,8.64,0.58,10.58
					c0.76,1.94,2,2.97,3.72,3.1c1.13,0.08,2.14-0.24,3.03-0.97c0.89-0.73,1.59-1.94,2.12-3.63c0.52-1.69,0.92-4.35,1.19-7.98
					c0.4-5.33,0.21-8.95-0.56-10.85c-0.77-1.9-2.06-2.92-3.86-3.06c-1.84-0.14-3.25,0.7-4.21,2.51
					C318.75,89.02,318.08,92.46,317.7,97.51z"/>
				<path class="st6" d="M355.5,91.95l-10.41-2.68c1.13-3.29,3-5.74,5.63-7.35c2.63-1.6,6.22-2.24,10.79-1.9
					c5.24,0.39,8.96,1.65,11.15,3.78c2.19,2.13,3.18,4.67,2.96,7.63c-0.13,1.74-0.72,3.27-1.78,4.61c-1.05,1.34-2.58,2.46-4.58,3.38
					c1.52,0.5,2.68,1.03,3.46,1.61c1.27,0.92,2.23,2.08,2.87,3.48c0.64,1.4,0.89,3.03,0.75,4.89c-0.17,2.34-0.95,4.53-2.33,6.59
					c-1.38,2.06-3.27,3.58-5.66,4.57c-2.39,0.99-5.45,1.34-9.2,1.06c-3.65-0.27-6.5-0.92-8.55-1.93c-2.05-1.02-3.69-2.4-4.93-4.15
					c-1.24-1.75-2.13-3.91-2.67-6.46l11.26-0.65c0.27,2.28,0.84,3.89,1.69,4.82c0.86,0.94,2,1.46,3.42,1.56
					c1.5,0.11,2.79-0.34,3.86-1.37c1.08-1.02,1.68-2.45,1.82-4.27c0.14-1.86-0.23-3.34-1.12-4.43c-0.88-1.09-2.15-1.7-3.79-1.82
					c-0.88-0.07-2.1,0.06-3.67,0.39l1.17-7.93c0.61,0.14,1.09,0.22,1.44,0.25c1.46,0.11,2.71-0.27,3.76-1.13
					c1.05-0.86,1.62-1.93,1.71-3.21c0.09-1.22-0.2-2.23-0.88-3.01c-0.68-0.78-1.65-1.23-2.93-1.32c-1.31-0.1-2.41,0.22-3.29,0.95
					C356.6,88.63,355.94,89.98,355.5,91.95z"/>
				<path class="st6" d="M272.07,123.81l15.52,1.15l-0.3,4l-9.72-0.72l-0.22,2.98l9.01,0.67l-0.28,3.82l-9.01-0.67l-0.27,3.7
					l10,0.74l-0.32,4.24l-15.8-1.18L272.07,123.81z"/>
				<path class="st6" d="M289.67,143.97l1.39-18.74l9.65,0.72c1.79,0.13,3.15,0.39,4.07,0.77c0.92,0.38,1.64,1,2.16,1.88
					c0.52,0.87,0.73,1.91,0.64,3.1c-0.08,1.04-0.37,1.92-0.87,2.64c-0.5,0.72-1.15,1.29-1.97,1.7c-0.52,0.26-1.21,0.46-2.09,0.59
					c0.67,0.28,1.16,0.55,1.46,0.8c0.2,0.17,0.49,0.52,0.85,1.06c0.37,0.53,0.61,0.94,0.72,1.22l2.4,5.64l-6.54-0.49l-2.67-5.96
					c-0.34-0.77-0.65-1.28-0.94-1.52c-0.4-0.32-0.86-0.5-1.39-0.54l-0.51-0.04l-0.57,7.61L289.67,143.97z M296.32,133.25l2.44,0.18
					c0.26,0.02,0.78-0.03,1.55-0.14c0.39-0.05,0.72-0.22,0.98-0.52c0.27-0.3,0.42-0.65,0.45-1.06c0.04-0.61-0.11-1.08-0.47-1.44
					c-0.36-0.35-1.07-0.57-2.12-0.65l-2.54-0.19L296.32,133.25z"/>
				<path class="st6" d="M310.04,145.48l1.39-18.74l9.65,0.72c1.79,0.13,3.15,0.39,4.07,0.77c0.92,0.38,1.64,1,2.16,1.88
					c0.52,0.87,0.73,1.91,0.64,3.1c-0.08,1.04-0.37,1.92-0.87,2.64c-0.5,0.72-1.15,1.29-1.97,1.7c-0.52,0.26-1.21,0.46-2.09,0.59
					c0.67,0.28,1.16,0.55,1.46,0.8c0.2,0.17,0.49,0.52,0.85,1.06c0.37,0.53,0.61,0.94,0.72,1.22l2.4,5.64l-6.54-0.49l-2.67-5.96
					c-0.34-0.77-0.65-1.28-0.94-1.52c-0.4-0.32-0.86-0.5-1.39-0.54l-0.51-0.04l-0.57,7.61L310.04,145.48z M316.69,134.77l2.44,0.18
					c0.26,0.02,0.78-0.03,1.55-0.14c0.39-0.05,0.72-0.22,0.98-0.52c0.27-0.3,0.42-0.65,0.45-1.06c0.04-0.61-0.11-1.08-0.47-1.44
					c-0.36-0.35-1.07-0.57-2.12-0.65l-2.54-0.19L316.69,134.77z"/>
				<path class="st6" d="M329.85,137.55c0.23-3.06,1.26-5.38,3.09-6.96c1.83-1.58,4.27-2.25,7.31-2.03
					c3.12,0.23,5.46,1.25,7.02,3.05c1.56,1.8,2.23,4.21,2.01,7.23c-0.16,2.19-0.66,3.96-1.51,5.31c-0.84,1.35-1.99,2.36-3.44,3.03
					c-1.45,0.68-3.22,0.94-5.3,0.78c-2.11-0.16-3.84-0.62-5.17-1.4c-1.33-0.78-2.38-1.92-3.13-3.45
					C329.98,141.59,329.69,139.74,329.85,137.55z M335.64,138c-0.14,1.89,0.11,3.28,0.75,4.16c0.64,0.88,1.57,1.36,2.78,1.45
					c1.24,0.09,2.24-0.24,2.98-1c0.74-0.76,1.19-2.19,1.35-4.28c0.13-1.76-0.13-3.08-0.78-3.95c-0.65-0.87-1.59-1.35-2.81-1.44
					c-1.17-0.09-2.14,0.26-2.9,1.03C336.23,134.75,335.78,136.09,335.64,138z"/>
				<path class="st6" d="M351.77,148.59l1.39-18.74l9.65,0.72c1.79,0.13,3.15,0.39,4.07,0.77c0.92,0.38,1.64,1,2.16,1.88
					c0.52,0.87,0.73,1.91,0.64,3.1c-0.08,1.04-0.37,1.92-0.87,2.64c-0.5,0.72-1.15,1.29-1.96,1.7c-0.52,0.26-1.21,0.46-2.09,0.59
					c0.67,0.28,1.16,0.55,1.46,0.8c0.2,0.17,0.49,0.52,0.85,1.06c0.37,0.53,0.61,0.94,0.73,1.22l2.4,5.64l-6.54-0.49l-2.67-5.96
					c-0.34-0.77-0.65-1.28-0.94-1.52c-0.4-0.32-0.86-0.5-1.39-0.54l-0.51-0.04l-0.57,7.61L351.77,148.59z M358.41,137.87l2.44,0.18
					c0.26,0.02,0.78-0.03,1.55-0.14c0.39-0.05,0.72-0.22,0.98-0.52c0.27-0.3,0.42-0.65,0.45-1.06c0.04-0.61-0.11-1.08-0.47-1.44
					c-0.36-0.35-1.07-0.57-2.12-0.65l-2.54-0.19L358.41,137.87z"/>
			</g>
		</g>
		<g>
			<path class="st8" d="M252.75,163.34l1.27-17.1l11.54,0.86l-0.15,2.02l-9.27-0.69l-0.39,5.3l8.03,0.6l-0.15,2.02l-8.03-0.6
				l-0.58,7.77L252.75,163.34z"/>
			<path class="st8" d="M267.16,156.04c0.21-2.84,1.14-5,2.78-6.5c1.64-1.49,3.67-2.15,6.08-1.97c1.58,0.12,2.97,0.6,4.18,1.45
				c1.21,0.85,2.1,1.97,2.66,3.37c0.56,1.4,0.78,2.95,0.66,4.66c-0.13,1.73-0.59,3.26-1.4,4.58c-0.8,1.32-1.87,2.28-3.21,2.89
				c-1.33,0.61-2.75,0.86-4.23,0.75c-1.61-0.12-3.02-0.62-4.23-1.49c-1.21-0.87-2.09-2-2.64-3.4
				C267.27,158.99,267.05,157.54,267.16,156.04z M269.49,156.25c-0.15,2.06,0.28,3.73,1.3,4.99c1.02,1.27,2.37,1.96,4.04,2.09
				c1.7,0.13,3.15-0.37,4.34-1.48c1.19-1.12,1.87-2.77,2.03-4.97c0.1-1.39-0.04-2.62-0.43-3.7c-0.39-1.07-1.02-1.93-1.89-2.57
				c-0.86-0.64-1.86-1-2.99-1.08c-1.6-0.12-3.02,0.33-4.26,1.34C270.39,151.88,269.68,153.68,269.49,156.25z"/>
			<path class="st8" d="M285.84,165.8l1.27-17.1l7.58,0.56c1.52,0.11,2.67,0.35,3.44,0.72c0.77,0.37,1.36,0.96,1.78,1.77
				c0.42,0.81,0.59,1.69,0.52,2.63c-0.09,1.21-0.56,2.21-1.41,2.98c-0.85,0.77-2.1,1.21-3.76,1.32c0.58,0.33,1.01,0.65,1.3,0.95
				c0.62,0.66,1.19,1.46,1.71,2.42l2.63,4.88l-2.85-0.21l-2-3.73c-0.58-1.08-1.07-1.9-1.46-2.48c-0.39-0.58-0.74-0.99-1.06-1.23
				c-0.32-0.24-0.65-0.42-1-0.53c-0.25-0.07-0.67-0.13-1.25-0.18l-2.62-0.2l-0.57,7.59L285.84,165.8z M288.82,156.42l4.86,0.36
				c1.03,0.08,1.85,0.03,2.45-0.14c0.6-0.17,1.07-0.48,1.41-0.93c0.34-0.45,0.53-0.95,0.57-1.5c0.06-0.81-0.18-1.5-0.73-2.06
				c-0.55-0.57-1.46-0.89-2.72-0.99l-5.41-0.4L288.82,156.42z"/>
			<path class="st8" d="M302.97,167.08l1.27-17.1l6.42,0.48c1.31,0.1,2.34,0.35,3.11,0.75c0.76,0.41,1.34,0.98,1.74,1.74
				c0.39,0.75,0.56,1.52,0.5,2.31c-0.05,0.73-0.3,1.4-0.75,2.02c-0.44,0.62-1.08,1.09-1.91,1.43c1.01,0.38,1.77,0.96,2.27,1.73
				c0.5,0.77,0.72,1.66,0.64,2.65c-0.06,0.8-0.28,1.53-0.67,2.2c-0.39,0.66-0.85,1.16-1.37,1.5c-0.53,0.34-1.17,0.57-1.94,0.71
				c-0.77,0.13-1.69,0.16-2.78,0.08L302.97,167.08z M305.38,165.23l4.26,0.32c0.73,0.05,1.25,0.07,1.55,0.03
				c0.53-0.05,0.97-0.18,1.34-0.37c0.37-0.19,0.68-0.49,0.93-0.89c0.26-0.4,0.41-0.87,0.45-1.42c0.05-0.64-0.08-1.2-0.37-1.7
				c-0.29-0.5-0.72-0.86-1.29-1.09c-0.57-0.23-1.39-0.39-2.48-0.47l-3.95-0.29L305.38,165.23z M305.97,157.33l3.7,0.27
				c1,0.08,1.73,0.06,2.17-0.04c0.59-0.13,1.04-0.38,1.36-0.75c0.32-0.38,0.5-0.86,0.55-1.46c0.04-0.57-0.06-1.08-0.3-1.53
				c-0.24-0.45-0.61-0.78-1.1-0.97c-0.49-0.2-1.36-0.34-2.58-0.43l-3.42-0.25L305.97,157.33z"/>
			<path class="st8" d="M319.38,168.3l1.27-17.1l2.26,0.17l-1.27,17.1L319.38,168.3z"/>
			<path class="st8" d="M325.63,168.76l1.27-17.1l5.89,0.44c1.33,0.1,2.34,0.26,3.03,0.47c0.96,0.3,1.77,0.77,2.42,1.41
				c0.85,0.83,1.45,1.85,1.81,3.07c0.36,1.22,0.48,2.59,0.37,4.11c-0.1,1.3-0.33,2.44-0.71,3.42c-0.38,0.98-0.83,1.78-1.35,2.4
				c-0.52,0.62-1.08,1.1-1.67,1.44c-0.59,0.34-1.29,0.57-2.11,0.71c-0.81,0.13-1.73,0.16-2.77,0.09L325.63,168.76z M328.05,166.91
				l3.65,0.27c1.13,0.08,2.02,0.04,2.68-0.12c0.66-0.16,1.19-0.42,1.6-0.77c0.58-0.5,1.05-1.19,1.42-2.07
				c0.37-0.88,0.6-1.97,0.69-3.26c0.13-1.79-0.06-3.19-0.57-4.19c-0.52-1-1.18-1.7-2-2.09c-0.59-0.28-1.56-0.47-2.9-0.57l-3.59-0.27
				L328.05,166.91z"/>
			<path class="st8" d="M342.89,170.05l1.27-17.1l5.89,0.44c1.33,0.1,2.34,0.26,3.03,0.47c0.96,0.3,1.77,0.77,2.42,1.41
				c0.85,0.83,1.45,1.85,1.81,3.07c0.36,1.22,0.48,2.59,0.37,4.11c-0.1,1.3-0.33,2.44-0.71,3.42c-0.38,0.98-0.83,1.78-1.35,2.4
				c-0.52,0.62-1.08,1.1-1.67,1.44c-0.59,0.34-1.29,0.57-2.1,0.71c-0.81,0.13-1.73,0.16-2.77,0.09L342.89,170.05z M345.3,168.2
				l3.65,0.27c1.13,0.08,2.02,0.04,2.68-0.12c0.66-0.16,1.19-0.42,1.6-0.77c0.58-0.5,1.05-1.19,1.42-2.07
				c0.37-0.88,0.6-1.97,0.69-3.26c0.13-1.79-0.06-3.19-0.57-4.19c-0.52-1-1.18-1.7-2-2.09c-0.59-0.28-1.56-0.47-2.9-0.57l-3.59-0.27
				L345.3,168.2z"/>
			<path class="st8" d="M360.19,171.33l1.27-17.1l12.36,0.92l-0.15,2.02l-10.1-0.75l-0.39,5.24l9.46,0.7l-0.15,2.01l-9.46-0.7
				l-0.43,5.82l10.5,0.78l-0.15,2.02L360.19,171.33z"/>
			<path class="st8" d="M376.05,172.51l1.27-17.1l2.32,0.17l7.98,14.09l1-13.43l2.17,0.16l-1.27,17.1l-2.32-0.17l-7.98-14.11
				l-1,13.44L376.05,172.51z"/>
		</g>
	</g>
</g>
<g id="Character_1_">
	<g>
		<path class="st8" d="M169.92,164.89l0.33,1.96l0.38,2.09c0.27,1.39,0.54,2.79,0.86,4.18c0.61,2.77,1.32,5.51,2.12,8.17
			c0.4,1.33,0.83,2.63,1.31,3.9c0.46,1.27,0.95,2.52,1.49,3.69c1.08,2.36,2.31,4.52,3.67,6.23l-2.74-1.8
			c0.64,0.32,1.25,0.59,2.29,0.53c1-0.05,2.35-0.42,3.73-1.11c1.4-0.66,2.86-1.59,4.3-2.66c0.72-0.53,1.44-1.09,2.15-1.69
			c0.36-0.29,0.71-0.59,1.06-0.9c0.34-0.28,0.72-0.64,0.99-0.85l0.54-0.43c1.6-1.28,3.95-1.02,5.23,0.58
			c0.91,1.14,1.04,2.65,0.47,3.89c-0.29,0.63-0.5,1.1-0.77,1.63c-0.26,0.51-0.53,1.01-0.81,1.5c-0.58,0.98-1.19,1.95-1.86,2.88
			c-1.35,1.88-2.93,3.67-4.86,5.31c-0.96,0.82-2.05,1.58-3.23,2.28c-1.18,0.7-2.5,1.32-3.98,1.75c-1.47,0.44-3.06,0.73-4.73,0.75
			c-1.67,0.02-3.36-0.25-4.96-0.71c-0.92-0.27-1.72-0.76-2.35-1.4l-0.39-0.4c-2.76-2.82-4.83-5.87-6.49-8.96
			c-1.69-3.08-3.02-6.22-4.13-9.37c-1.14-3.14-2.01-6.32-2.77-9.5c-0.36-1.6-0.71-3.19-0.99-4.8c-0.14-0.81-0.28-1.61-0.4-2.43
			c-0.12-0.84-0.22-1.59-0.33-2.57c-0.45-4.12,2.52-7.82,6.64-8.27c3.96-0.43,7.54,2.31,8.21,6.19L169.92,164.89z"/>
		<path class="st9" d="M191.67,186.08c-2.11,0.67-4.58,3.11-3.81,5.97c0.78,2.86,9.33,5.03,9.61-0.14
			C195,187,191.67,186.08,191.67,186.08z"/>
		<path class="st10" d="M190.54,188.87l0.91-1.39l9.34-2.52c0,0,1.36,5.95-5.39,8.22c-0.48,0.16-1,0.1-1.45-0.14l-2.69-1.4
			C190.26,191.11,189.92,189.83,190.54,188.87z"/>
		<path class="st8" d="M120.08,154.75c11.94-2.16,28.12-2.58,39.85-0.57c5.96,1.02,10.17,6.43,9.64,12.46
			c-0.67,7.71-1.53,14.52-1.97,19.87c0.53,13.56-0.62,36.22-0.62,40.95c0,0-49.69,0.7-49.69,0.7c-2.21-6.19-1.49-34.08-5.37-62.15
			C111.19,160.67,114.77,155.71,120.08,154.75z"/>
		<path class="st11" d="M145.59,227.52l-0.99-0.12c2.82-22.25,0.03-59.53,0-59.9l1-0.08C145.62,167.79,148.43,205.17,145.59,227.52z
			"/>
		<path class="st6" d="M150.1,155.32c-1.96-0.53-0.19-2.55-0.19-2.55s8.89,0,15.03,1.21c0.94,0.73-0.07,1.65-0.07,1.65
			S155.92,156.9,150.1,155.32z"/>
		<path class="st11" d="M147.29,152.47c0,0,2.95,5.92-1,11.3c3.13,0.02,6,2,6,2s1.41-5.07-2.56-12.79
			C149.3,152.25,147.29,152.47,147.29,152.47z"/>
		<path class="st6" d="M150.44,155.34c0.77,3.61-5.94,10.43-5.94,10.43s-11.87-6.22-12.62-9.79L150.44,155.34z"/>
		<path class="st11" d="M119.36,172.37c1.3,2.51-0.28,13.05-4.99,18.23c-0.31-4.58-0.7-9.36-1.2-14.24L119.36,172.37z"/>
		<path class="st10" d="M133.16,136.82l13.45,6.45c-1.43,3.81-2.11,7.77,1.88,9.66c2.26,1.07,3.29,4.02,1.94,6.26
			c-1.15,1.92-3.1,3.59-6.12,3.89c-4.67,0.47-9.27-2.53-11.94-5.35c-1.1-1.16-0.02-2.52,0.12-4.14
			C132.99,147.87,133.88,141.88,133.16,136.82z"/>
		<path class="st11" d="M139.35,138.1l7.25,5.16c-0.42,1.1-0.76,2.2-0.94,3.27c-2.98,0.98-7.71-1.62-7.78-4.21
			C137.83,141.02,139.04,138.72,139.35,138.1z"/>
		<path class="st8" d="M148.77,115.09c2.56,2.09,5.5,11.43,1.73,15.21C144.94,123.83,144.31,114.12,148.77,115.09z"/>
		<path class="st10" d="M129.44,125.9c1.02,7.97,1.2,12.69,5.52,16.5c6.49,5.73,16.14,1.33,17.53-6.81
			c1.25-7.32-0.62-19.13-8.67-21.73C135.88,111.3,128.42,117.93,129.44,125.9z"/>
		<path class="st8" d="M129.69,132.78c3.78,0.28,5.09-8.86,2.74-14.03c1.64,0.68,6.31,0.01,7.62-2.13
			c7.53,2.15,10.35,2.19,11.32-0.93c0.97-3.11-10.9-5.85-17.76-4.38c-6.86,1.47-4.84,6.44-4.84,6.44S117.15,121.5,129.69,132.78z"/>
		<path class="st10" d="M126.93,133.39c1.15,1.81,2.89,2.93,4.43,3.3c2.33,0.56,3.13-1.78,2.19-4.13c-0.85-2.11-3.09-4.95-5.28-4.46
			C126.11,128.6,125.62,131.32,126.93,133.39z"/>
		<path class="st8" d="M140.1,127.24c0.04,0.65,0.42,1.16,0.85,1.12c0.43-0.03,0.74-0.59,0.7-1.24s-0.42-1.15-0.85-1.12
			C140.37,126.03,140.06,126.59,140.1,127.24z"/>
		<path class="st8" d="M148.94,126.52c0.04,0.65,0.42,1.15,0.85,1.12c0.43-0.03,0.74-0.59,0.7-1.24c-0.04-0.65-0.42-1.15-0.85-1.12
			C149.21,125.31,148.9,125.87,148.94,126.52z"/>
		<path class="st12" d="M147.51,127.19c0,0,1.73,3.65,3.48,5.35c-1.08,1.16-3.08,0.82-3.08,0.82L147.51,127.19z"/>
		<path class="st8" d="M143.46,122.08c0.04,0.05,0.08,0.1,0.09,0.17c0.05,0.21-0.08,0.41-0.29,0.46c-2.08,0.49-3.38-0.71-3.44-0.76
			c-0.15-0.15-0.16-0.39-0.01-0.54c0.15-0.15,0.39-0.16,0.54-0.02l0,0c0.04,0.04,1.07,0.96,2.73,0.57
			C143.23,121.93,143.37,121.98,143.46,122.08z"/>
		<path class="st8" d="M145.08,123.97c-0.06-0.03-0.1-0.08-0.14-0.14c-0.11-0.18-0.05-0.42,0.13-0.53c1.83-1.09,3.44-0.34,3.51-0.31
			c0.19,0.09,0.27,0.32,0.18,0.51c-0.09,0.19-0.32,0.27-0.51,0.18l0,0c-0.05-0.02-1.31-0.6-2.77,0.27
			C145.34,124.04,145.2,124.04,145.08,123.97z"/>
		<path class="st8" d="M152.57,120.34c-0.12,0.04-0.25,0.02-0.36-0.07c-1.3-1.08-2.63-0.68-2.68-0.67c-0.2,0.06-0.42-0.05-0.48-0.25
			c-0.06-0.2,0.05-0.42,0.25-0.48c0.07-0.02,1.77-0.54,3.4,0.81c0.16,0.13,0.18,0.38,0.05,0.54
			C152.71,120.27,152.64,120.32,152.57,120.34z"/>
		<g>
			<path class="st8" d="M196.16,219.96L196.16,219.96c-0.44-0.81-1.45-1.11-2.26-0.67l-12.23,6.61l-5.78-10.7
				c-0.44-0.81-1.45-1.11-2.26-0.67c-0.81,0.44-1.11,1.45-0.67,2.26l5.78,10.7l-42.16,22.78c-0.81,0.44-1.11,1.45-0.67,2.26v0
				c0.44,0.81,1.45,1.11,2.26,0.67l57.32-30.98C196.29,221.78,196.6,220.77,196.16,219.96z"/>
			<path class="st6" d="M195.26,276.18c-19.98-15-81.57-21.04-60.29-48.43l32.01-0.3c0,0,45.04,23.11,47.45,47.27
				c2.51,25.12,6.96,64.69,6.96,64.69l-12.4,4.4C209,343.82,190.9,295.3,195.26,276.18z"/>
			<path class="st11" d="M136.07,241.5c-0.74,1.61-1.43,3.3-2.05,5.06c4.98,5.65,14.8,10,25.44,14.04
				C156.21,254.81,148.95,248.41,136.07,241.5z"/>
			<path class="st8" d="M209.13,348.21l12.82-3.3c0.78-0.2,1.67-0.23,2.45,0.12c4.48,2.02,7.34,1.42,11.77,1.14
				c5.31-0.33,4.11,5.36,0.39,6.33c-6.16,1.6-5.7,1.25-10.95,2.62c-1.19,0.31-3.64,0.94-3.64,0.94l-2.08-1.27l-1.02,2.03
				c0,0-4.05,0.99-6.75,1.65c-0.75,0.18-1.5-0.29-1.61-1.05L209.13,348.21z"/>
			<path class="st8" d="M209.46,349.47c0.19-0.09,14.61-4.13,14.61-4.13l-2.23-11.09l-16.03,4.34L209.46,349.47z"/>
		</g>
		<g>
			<path class="st6" d="M119.77,309.82c0.61-36.44-7.05-73.53-2.48-81.66l37.12-0.52c0,0-11.1,60.75-14.03,85.02
				c-3.04,25.24-18,90.86-18,90.86l-11.97,0.19C110.41,403.7,111.83,335.98,119.77,309.82z"/>
			<path class="st8" d="M109.97,405.63l11.02-0.17c0.81-0.01,1.69,0.17,2.37,0.7c3.96,3.02,4.42,3.12,8.81,3.9
				c5.26,0.93,2.9,6.18-0.95,6.24c-6.36,0.1-5.84-0.13-11.26-0.05c-1.22,0.02-5.89,0.05-5.89,0.05l-0.86-1.73l-0.97,1.73h-1.55
				c-0.75,0-1.37-0.65-1.32-1.4L109.97,405.63z"/>
			<path class="st8" d="M109.92,406.94c0.19-0.04,13.85,0.63,13.85,0.63l0.91-12.48l-14.84,0.42L109.92,406.94z"/>
		</g>
		<path class="st9" d="M146.8,151.76c0,0,3.44,6.63-0.51,12.01c3.13,0.02,6.55,1.36,6.55,1.36s2.79-6.75-3.36-12.79
			C149.05,151.61,146.8,151.76,146.8,151.76z"/>
		<g>
			<path class="st8" d="M115.93,231.98c17.75,1.06,38.1,1.39,50.83,0c0.14-0.02,0.27-0.11,0.35-0.28c0.8-1.63,1.19-4.45,1.1-6.79
				c-0.01-0.36-0.23-0.63-0.48-0.62c-16.8,0.65-33.49,0.62-51.04-0.01c-0.2-0.01-0.38,0.16-0.45,0.43
				c-0.56,2.05-0.86,4.28-0.75,6.63C115.49,231.69,115.69,231.96,115.93,231.98z"/>
			<path class="st11" d="M115.93,231.98c17.75,1.06,38.1,1.39,50.83,0c0.14-0.02,0.27-0.11,0.35-0.28c0.8-1.63,1.19-4.45,1.1-6.79
				c-0.01-0.36-0.23-0.63-0.48-0.62c-16.8,0.65-33.49,0.62-51.04-0.01c-0.2-0.01-0.38,0.16-0.45,0.43
				c-0.56,2.05-0.86,4.28-0.75,6.63C115.49,231.69,115.69,231.96,115.93,231.98z"/>
		</g>
		<path class="st9" d="M146.21,234.73c-1.92,0-3.64-0.22-3.76-0.23l-0.85-0.11l-0.02-0.86c-0.01-0.22-0.13-5.38,0.16-9.54l0.06-0.84
			l0.83-0.09c3.77-0.4,7.44-0.15,7.59-0.14l0.89,0.06l0.04,0.89c0.01,0.24,0.23,5.86-0.34,9.56l-0.09,0.59l-0.56,0.2
			C149.07,234.61,147.59,234.73,146.21,234.73z M143.56,232.6c1.46,0.13,3.82,0.24,5.35-0.1c0.32-2.6,0.29-6.02,0.26-7.63
			c-1.16-0.04-3.27-0.08-5.5,0.1C143.52,227.85,143.54,231.08,143.56,232.6z"/>
		<path class="st6" d="M126.92,224.26c0,0-0.29,5.61-0.7,9.18c-0.79,0.82-2.27,0.19-2.27,0.19s0.29-5.19,0.65-9.26
			C125.79,224,126.92,224.26,126.92,224.26z"/>
		<path class="st6" d="M163.56,224.26c0,0-0.29,5.61-0.7,9.18c-0.79,0.82-2.27,0.19-2.27,0.19s0.29-5.19,0.65-9.26
			C162.43,224,163.56,224.26,163.56,224.26z"/>
		<g>
			<path class="st6" d="M151.96,173.63c0.54,7.23,5.15,8.86,5.8,8.84c0.65-0.01,5-1.83,4.46-9.06c-1.84,0.05-3.58-0.75-5.28-1.95
				C155.52,172.85,153.88,173.62,151.96,173.63z"/>
		</g>
		<g>
			<path class="st8" d="M151,114.43c5.14,0.86,7.08,3.26-4.5,4.66c-11.58,1.4-20.16,0.34-20.16,0.34S141.78,114.38,151,114.43z"/>
			<path class="st6" d="M125.42,120.03c0,0,10.07-3.41,25.94-5.26c0.26-3.2-2.24-5.54-2.24-5.54s5.86-1.05,2.95-2.75
				c-2-1.17-6.78-1.3-12.06-4.7c-2.17,1.98-8.11,5.2-12.17,5.61c-1.01,1.72-3.63,6.02-7.88,7.69c0.06,1.88,4.29,2.36,4.29,2.36
				S124.04,118.7,125.42,120.03z"/>
			<path class="st13" d="M124.24,117.44c8.61-5.59,16.87-8.02,24.88-8.21c0,0,2.5,2.34,2.24,5.53c-15.87,1.85-25.94,5.26-25.94,5.26
				C124.04,118.7,124.24,117.44,124.24,117.44z"/>
		</g>
		<g>
			<path class="st9" d="M139.51,107.7c0.99,4.92,4.47,5.81,4.94,5.78c0.47-0.04,3.47-1.48,2.48-6.4c-1.33,0.12-2.66-0.34-3.99-1.09
				C142.02,107,140.9,107.61,139.51,107.7z"/>
		</g>
		<path class="st8" d="M145.35,123.07c1.14,0.16,3.01,8.74-2.95,9.2c-5.01,0.39-6.57-4.21-6.57-5.81
			C135.83,124.06,143.73,122.84,145.35,123.07z"/>
		<path class="st8" d="M147.87,122.97c-0.71,0.43,0.88,9.57,5.04,8.61c3.5-0.81,2.91-5.78,2.34-7.38
			C154.4,121.79,148.88,122.36,147.87,122.97z"/>
		<g class="st11">
			<path class="st9" d="M143.24,123.16l3.11,5.67c-0.26,1.08-0.79,2.07-1.72,2.71l-4.29-7.85
				C141.35,123.44,142.38,123.26,143.24,123.16z"/>
			<path class="st9" d="M139.08,124.04l4.4,8.04c-0.32,0.1-0.69,0.16-1.08,0.19c-0.25,0.02-0.48,0.03-0.72,0.02l-4.18-7.63
				C137.97,124.43,138.51,124.23,139.08,124.04z"/>
			<path class="st9" d="M152.91,122.61l2.76,5.03c-0.06,0.87-0.25,1.74-0.69,2.44l-4.18-7.65
				C151.51,122.42,152.24,122.47,152.91,122.61z"/>
			<path class="st9" d="M154.44,130.77c-0.24,0.24-0.54,0.44-0.89,0.6l-4.77-8.71c0.32-0.07,0.7-0.12,1.11-0.17L154.44,130.77z"/>
		</g>
		<g>
			<g>
				<path class="st6" d="M209.05,177.94c0.51-0.22-0.34-2.26-0.86-2.04l-69.93,29.33c-0.18-0.27-0.51-0.39-0.82-0.26l-2.92,1.23
					c-0.3,0.13-0.45,0.45-0.39,0.76l-9.19,3.86c-2.06,0.86-3.9,2.17-5.39,3.84l-4.12,4.6c-0.16,2.21-2.02,3.91-4.24,3.86l-0.61-0.01
					l-21.14,12.79c-1.59,0.96-2.37,2.86-1.9,4.67c0.91,3.52,2.16,6.35,3.68,8.65c1.44,2.19,4.53,2.5,6.42,0.69l21.4-20.57
					c0.9-0.87,1.47-2.03,1.59-3.28l0.26-2.64l4.62-5.16c1.32,2.24,4.1,3.24,6.56,2.2c2.68-1.12,3.95-4.22,2.82-6.9
					c-0.03-0.06-0.07-0.11-0.1-0.17l1.71-0.72c0.17,0.28,0.52,0.41,0.83,0.28l2.92-1.23c0.31-0.13,0.46-0.47,0.38-0.79l40.79-17.11
					c0.47-0.2,0.7-0.74,0.5-1.22l0,0l21.99-9.22c0.34-0.14-0.18-1.39-0.52-1.25l-1.63,0.68l-0.08-1.78L209.05,177.94z
					 M131.64,219.42c-2.05,0.86-4.4-0.06-5.35-2.05l0.61-0.69l0.31-0.13c0.27,0.35,0.57,0.69,0.93,0.97
					c1.11,0.87,2.49,1.25,3.89,1.09l-0.13-1.1c-1.1,0.13-2.19-0.17-3.07-0.86c-0.21-0.16-0.39-0.34-0.56-0.54l5.51-2.31
					c0.03,0.06,0.07,0.11,0.1,0.17C134.76,216.09,133.76,218.54,131.64,219.42z M199.78,183.64l-18.37,7.7l-0.65-1.54l18.93-7.94
					L199.78,183.64z"/>
				<path class="st11" d="M209.05,177.94c0.51-0.22-0.34-2.26-0.86-2.04l-69.93,29.33c-0.18-0.27-0.51-0.39-0.82-0.26l-2.92,1.23
					c-0.3,0.13-0.45,0.45-0.39,0.76l-9.19,3.86c-2.06,0.86-3.9,2.17-5.39,3.84l-4.12,4.6c-0.16,2.21-2.02,3.91-4.24,3.86l-0.61-0.01
					l-21.14,12.79c-1.59,0.96-2.37,2.86-1.9,4.67c0.91,3.52,2.16,6.35,3.68,8.65c1.44,2.19,4.53,2.5,6.42,0.69l21.4-20.57
					c0.9-0.87,1.47-2.03,1.59-3.28l0.26-2.64l4.62-5.16c1.32,2.24,4.1,3.24,6.56,2.2c2.68-1.12,3.95-4.22,2.82-6.9
					c-0.03-0.06-0.07-0.11-0.1-0.17l1.71-0.72c0.17,0.28,0.52,0.41,0.83,0.28l2.92-1.23c0.31-0.13,0.46-0.47,0.38-0.79l40.79-17.11
					c0.47-0.2,0.7-0.74,0.5-1.22l0,0l21.99-9.22c0.34-0.14-0.18-1.39-0.52-1.25l-1.63,0.68l-0.08-1.78L209.05,177.94z
					 M131.64,219.42c-2.05,0.86-4.4-0.06-5.35-2.05l0.61-0.69l0.31-0.13c0.27,0.35,0.57,0.69,0.93,0.97
					c1.11,0.87,2.49,1.25,3.89,1.09l-0.13-1.1c-1.1,0.13-2.19-0.17-3.07-0.86c-0.21-0.16-0.39-0.34-0.56-0.54l5.51-2.31
					c0.03,0.06,0.07,0.11,0.1,0.17C134.76,216.09,133.76,218.54,131.64,219.42z M199.78,183.64l-18.37,7.7l-0.65-1.54l18.93-7.94
					L199.78,183.64z"/>
			</g>
			<path class="st6" d="M182.07,189.63l-19.38,8.13c-0.67,0.28-1,1.04-0.76,1.72l0.79,2.2c0.27,0.74,1.09,1.1,1.82,0.8l19.38-8.13
				c0.67-0.28,1-1.04,0.76-1.72l-0.79-2.2C183.62,189.69,182.79,189.33,182.07,189.63z"/>
		</g>
		<path class="st10" d="M194.4,182.05l0.67-0.18c1.73-0.47,3.58,0.09,4.75,1.44l0.6,0.68c0.69,0.79,0.4,2.01-0.57,2.41l-6.59,2.72
			c-0.79,0.33-1.69-0.06-2-0.86l0,0C190.26,185.67,191.72,182.78,194.4,182.05z"/>
		<path class="st8" d="M124.6,168.25l-0.5,0.6l-0.58,0.71l-1.18,1.47c-0.78,1.01-1.57,2.03-2.34,3.06
			c-1.54,2.08-3.03,4.22-4.47,6.39c-1.47,2.16-2.79,4.41-4.15,6.65c-1.3,2.27-2.56,4.56-3.75,6.89l-0.88,1.76l-0.22,0.43
			c-0.02,0.05-0.05,0.1-0.07,0.14c-0.06,0.08-0.11,0.21-0.16,0.35c-0.21,0.54-0.4,1.36-0.46,2.33c-0.13,1.94,0.12,4.34,0.57,6.76
			c0.89,4.87,2.58,10.1,4.26,15.07l0.06,0.19c0.66,1.96-0.39,4.09-2.35,4.75c-1.54,0.52-3.19-0.02-4.15-1.23
			c-1.9-2.41-3.46-4.8-4.95-7.38c-1.48-2.57-2.81-5.26-3.92-8.15c-1.09-2.91-2.04-5.99-2.34-9.62c-0.14-1.81-0.15-3.79,0.32-5.95
			c0.11-0.54,0.24-1.08,0.44-1.65l0.28-0.84l0.2-0.53l0.8-2.06c2.16-5.49,4.81-10.78,7.84-15.85c1.53-2.53,3.14-5.01,4.9-7.41
			c0.88-1.2,1.78-2.39,2.73-3.56c0.49-0.58,0.95-1.17,1.47-1.75l0.78-0.88l0.89-0.96c2.81-3.04,7.55-3.23,10.59-0.42
			c2.95,2.72,3.21,7.27,0.66,10.31L124.6,168.25z"/>
		<path class="st6" d="M132.43,156.09c2.01-0.71-0.54-2.85-0.54-2.85s-10.6,0.33-16.91,2c-0.94,0.9,0.14,1.98,0.14,1.98
			S126.47,158.2,132.43,156.09z"/>
		<path class="st11" d="M132.27,153.04c0,0,1.56,5.91,8.71,10.75c-3.13,0.02-7.54,3.12-7.54,3.12s-4.16-5.23-2.69-13.42
			C131.19,152.75,132.27,153.04,132.27,153.04z"/>
		<path class="st9" d="M132.48,151.96c0,0,1.86,6.41,8.5,11.82c-3.13,0.02-7.79,1.56-7.79,1.56s-3.91-3.67-2.44-11.86
			C131.19,152.75,132.48,151.96,132.48,151.96z"/>
		<path class="st10" d="M109.62,220.41l6.22,5.35l-8.25,5.36c0,0-5.04-5.53-2.54-8.68L109.62,220.41z"/>
		<path class="st9" d="M104.19,224.92c0,0-1.29-1.02-1.69-2.2c1.98-2.05,5.98-3.74,7.79-4.2c1.1,1.04,1.15,3.2,1.15,3.2
			S106.17,222.62,104.19,224.92z"/>
		<path class="st10" d="M116.54,234.25l-3.21,1.39c-1.28,0.55-2.77,0.1-3.52-1.07l-2.22-3.45l8.25-5.36l2.16,4.7
			C118.66,231.9,118,233.61,116.54,234.25z"/>
		<path class="st8" d="M141.51,136.03C141.52,136.03,141.52,136.03,141.51,136.03c3.45-2.13,6.48-0.74,6.61-0.68
			c0.13,0.06,0.18,0.21,0.12,0.34c-0.06,0.13-0.21,0.18-0.34,0.12c-0.03-0.01-2.92-1.33-6.12,0.65c-0.12,0.07-0.27,0.04-0.35-0.08
			C141.36,136.26,141.4,136.1,141.51,136.03z"/>
		<polygon class="st9" points="125.15,173.51 138.64,173 138.59,171.91 125.11,172.42 		"/>
	</g>
</g>
<g id="Barricade">
	<g>
		<g>
			<g>
				<polygon class="st6" points="241.89,417.46 215.7,417.46 234.73,266.28 260.92,266.28 				"/>
				<polygon class="st14" points="241.89,417.46 215.7,417.46 234.73,266.28 260.92,266.28 				"/>
			</g>
			<polygon class="st8" points="213.36,417.46 215.7,417.46 234.73,266.28 232.39,266.28 			"/>
		</g>
		<g>
			<g>
				<polygon class="st6" points="339.53,417.46 313.35,417.46 332.38,266.28 358.57,266.28 				"/>
				<polygon class="st14" points="339.53,417.46 313.35,417.46 332.38,266.28 358.57,266.28 				"/>
			</g>
			<polygon class="st8" points="311.01,417.46 313.35,417.46 332.38,266.28 330.04,266.28 			"/>
		</g>
		<g>
			<g>
				<polygon class="st6" points="266.12,399.47 361.08,399.47 356.94,366.56 261.98,366.56 				"/>
				<polygon class="st8" points="266.12,399.47 264.57,399.47 260.42,366.56 261.98,366.56 				"/>
				<g>
					<polygon class="st9" points="355.85,368 359.63,398.03 354.02,398.03 338.95,368 					"/>
					<polygon class="st9" points="329.38,368 344.45,398.03 323.85,398.03 308.78,368 					"/>
					<polygon class="st9" points="299.21,368 314.28,398.03 293.67,398.03 278.61,368 					"/>
					<polygon class="st9" points="269.05,368 284.11,398.03 267.21,398.03 263.43,368 					"/>
				</g>
			</g>
			<g>
				<polygon class="st6" points="351.99,417.46 378.18,417.46 359.14,266.28 332.96,266.28 				"/>
				<polygon class="st11" points="341.44,333.63 368.99,344.46 361.08,281.68 334.89,281.68 				"/>
				<polygon class="st8" points="351.99,417.46 349.65,417.46 330.61,266.28 332.96,266.28 				"/>
			</g>
			<g>
				<polygon class="st6" points="254.34,417.46 280.53,417.46 261.49,266.28 235.31,266.28 				"/>
				<polygon class="st11" points="243.79,333.63 271.34,344.46 263.43,281.68 237.25,281.68 				"/>
				<polygon class="st8" points="254.34,417.46 252,417.46 232.97,266.28 235.31,266.28 				"/>
			</g>
			<g>
				<polygon class="st6" points="233.33,326.66 376.32,326.66 370.09,277.11 227.09,277.11 				"/>
				<polygon class="st8" points="233.33,326.66 230.99,326.66 224.75,277.11 227.09,277.11 				"/>
				<g>
					<polygon class="st9" points="368.44,279.27 374.14,324.49 365.69,324.49 343,279.27 					"/>
					<polygon class="st9" points="328.59,279.27 351.28,324.49 320.25,324.49 297.57,279.27 					"/>
					<polygon class="st9" points="283.16,279.27 305.85,324.49 274.82,324.49 252.13,279.27 					"/>
					<polygon class="st9" points="237.74,279.27 260.42,324.49 234.97,324.49 229.28,279.27 					"/>
				</g>
			</g>
		</g>
	</g>
</g>
</svg>
