<?xml version="1.0" encoding="utf-8"?>
<!-- Generator: Adobe Illustrator 25.2.1, SVG Export Plug-In . SVG Version: 6.00 Build 0)  -->
<svg version="1.1" xmlns="http://www.w3.org/2000/svg" xmlns:xlink="http://www.w3.org/1999/xlink" x="0px" y="0px"
	 viewBox="0 0 750 500" style="enable-background:new 0 0 750 500;" xml:space="preserve">
<style type="text/css">
	.st0{fill:#92E3A9;}
	.st1{opacity:0.8;fill:#FFFFFF;}
	.st2{fill:none;stroke:#263238;stroke-miterlimit:10;}
	.st3{fill:#263238;}
	.st4{fill:none;stroke:#263238;stroke-linecap:round;stroke-linejoin:round;stroke-miterlimit:10;}
	.st5{fill:#263238;stroke:#263238;stroke-miterlimit:10;}
	.st6{fill:#92E3A9;stroke:#263238;stroke-miterlimit:10;}
	.st7{fill:none;stroke:#FFFFFF;stroke-miterlimit:10;}
	.st8{fill:#FFFFFF;stroke:#263238;stroke-miterlimit:10;}
</style>
<g id="Background_Simple">
	<g>
		<path class="st0" d="M735.11,238.32c-7.01-79.01-57.52-146.21-134.17-175.14c-20.15-7.61-41.96-12.7-64.3-12.76
			c-91.27-0.26-206.49,49.83-263.88,56.76c-57.38,6.93-116.27-51.8-200.4,19.61C-11.77,198.2-17.74,383.75,126,435.7
			s237.41-27.79,300.83-1.32c63.42,26.47,182.37,30.85,259.19-18.9C731.58,385.98,741.19,306.89,735.11,238.32z"/>
		<path class="st1" d="M735.11,238.32c-7.01-79.01-57.52-146.21-134.17-175.14c-20.15-7.61-41.96-12.7-64.3-12.76
			c-91.27-0.26-206.49,49.83-263.88,56.76c-57.38,6.93-116.27-51.8-200.4,19.61C-11.77,198.2-17.74,383.75,126,435.7
			s237.41-27.79,300.83-1.32c63.42,26.47,182.37,30.85,259.19-18.9C731.58,385.98,741.19,306.89,735.11,238.32z"/>
	</g>
</g>
<g id="Floor">
	<g>
		<line class="st2" x1="668.52" y1="454.84" x2="697.41" y2="454.84"/>
		<line class="st2" x1="55.32" y1="454.84" x2="662.6" y2="454.84"/>
	</g>
</g>
<g id="Plants">
	<g>
		<g>
			<path class="st3" d="M61.6,405.22c1.69,0.74,5.82,0.64,5.82,0.64c0.04,0-0.89-2.7-0.97-2.87c-0.91-1.9-3.77-5.03-6.1-4.71
				c-1.68,0.23-2.61,1.91-2.24,3.49C58.5,403.39,60.16,404.59,61.6,405.22z"/>
			<path class="st3" d="M63.03,417.19c1.75,0.26,5.44-0.81,5.73-0.9c0.58,2.06,1.35,4.13,2.24,6.19c0.51,1.17,1.05,2.34,1.62,3.5
				c-0.34-0.49-0.64-0.93-0.69-0.99c-1.38-1.59-4.97-3.85-7.13-2.93c-1.56,0.66-2.02,2.53-1.23,3.96c0.8,1.46,2.72,2.18,4.27,2.4
				c1.58,0.23,4.74-0.62,5.57-0.85c0.22,0.44,0.44,0.89,0.66,1.33c1.07,2.13,2.14,4.24,3.13,6.35c0.35,0.74,0.67,1.49,0.99,2.23
				c-0.3-0.44-0.55-0.8-0.6-0.85c-1.37-1.59-4.97-3.85-7.13-2.93c-1.56,0.66-2.02,2.53-1.23,3.96c0.8,1.46,2.72,2.18,4.27,2.4
				c1.5,0.22,4.43-0.54,5.42-0.81c0.3,0.77,0.61,1.54,0.87,2.3c0.17,0.52,0.36,1.02,0.5,1.55c0.15,0.53,0.29,1.05,0.44,1.57
				c0.24,1.01,0.5,2.04,0.71,3.03c0.15,0.69,0.28,1.34,0.42,2c-0.34-0.74-1.03-2.18-1.11-2.3c-1.12-1.78-4.32-4.56-6.61-3.98
				c-1.64,0.42-2.38,2.2-1.82,3.72c0.57,1.56,2.35,2.56,3.86,3.02c1.65,0.5,5.31,0.04,5.77-0.02c0.22,1.09,0.42,2.16,0.6,3.17
				c0.09,0.53,0.18,1.04,0.26,1.54h1.46c-0.11-0.58-0.22-1.17-0.34-1.8c-0.22-1.11-0.47-2.29-0.75-3.51
				c0.28-0.11,1.84-0.74,3.22-1.51c1.2,1.3,4.29,2.83,4.69,3.02c-0.42,1.03-0.84,2.03-1.25,2.97c-0.12,0.28-0.24,0.55-0.36,0.82
				h1.53c0.04-0.09,0.08-0.18,0.11-0.28c0.43-1.05,0.87-2.17,1.31-3.34c0.44,0.09,4.06,0.83,5.75,0.45
				c1.53-0.35,3.38-1.21,4.07-2.73c0.67-1.48,0.07-3.31-1.54-3.85c-2.23-0.75-5.64,1.78-6.88,3.47c-0.07,0.1-0.75,1.27-1.17,2.02
				c0.18-0.48,0.35-0.94,0.53-1.43c0.36-0.97,0.68-1.95,1.04-3c0.15-0.51,0.31-1.03,0.47-1.56c0.17-0.52,0.28-1.08,0.42-1.63
				c0.3-1.27,0.55-2.58,0.77-3.9c0.85,0.31,3.89,1.37,5.46,1.25c1.57-0.11,3.53-0.68,4.44-2.08c0.89-1.36,0.57-3.26-0.94-4.04
				c-2.09-1.08-5.84,0.91-7.33,2.39c-0.09,0.09-1.04,1.28-1.55,1.94c0.12-0.79,0.25-1.59,0.35-2.4c0.29-2.33,0.51-4.7,0.74-7.07
				c0.07-0.72,0.15-1.44,0.22-2.17c0.3,0.11,3.88,1.45,5.64,1.32c1.57-0.11,3.53-0.68,4.44-2.08c0.89-1.36,0.57-3.26-0.94-4.04
				c-2.09-1.08-5.84,0.91-7.33,2.39c-0.11,0.11-1.48,1.82-1.8,2.27c0.17-1.59,0.35-3.17,0.59-4.72c0.33-2.14,0.78-4.23,1.36-6.21
				c0.14,0.05,3.87,1.46,5.68,1.34c1.57-0.11,3.53-0.69,4.44-2.08c0.89-1.36,0.57-3.26-0.94-4.04c-2.09-1.08-5.84,0.91-7.33,2.39
				c-0.12,0.12-1.58,1.95-1.82,2.3c0.04-0.12,0.06-0.24,0.09-0.36c0.65-2.11,1.54-4.08,2.46-5.88c0.54-1.05,1.11-2.02,1.68-2.95
				c0.67,0.33,3.74,1.82,5.37,1.89c1.57,0.06,3.58-0.29,4.64-1.58c1.03-1.26,0.93-3.18-0.49-4.12c-1.96-1.3-5.91,0.26-7.55,1.57
				c-0.09,0.07-0.92,0.9-1.51,1.5c0.27-0.42,0.53-0.85,0.8-1.25c0.98-1.48,1.98-2.78,2.87-3.92c0.51-0.64,0.98-1.22,1.43-1.75
				c0.83-0.01,4.16-0.12,5.61-0.8c1.42-0.67,3.05-1.91,3.39-3.54c0.34-1.59-0.64-3.25-2.33-3.43c-2.34-0.25-5.12,2.95-5.97,4.87
				c-0.07,0.17-0.93,2.89-0.89,2.89c0,0,0.04,0,0.05,0c-0.44,0.5-0.91,1.05-1.41,1.65c-0.92,1.12-1.94,2.4-2.96,3.87
				c-1.02,1.46-2.09,3.08-3.07,4.89c-0.98,1.81-1.92,3.76-2.62,5.9c-0.01,0.02-0.01,0.05-0.02,0.07c0.01-0.69-0.02-2.62-0.04-2.77
				c-0.27-2.08-2.02-5.95-4.33-6.38c-1.67-0.31-3.08,1-3.21,2.62c-0.14,1.66,1.06,3.31,2.24,4.36c1.32,1.18,4.98,2.32,5.28,2.41
				c-0.65,2.04-1.16,4.19-1.55,6.39c-0.22,1.26-0.41,2.53-0.58,3.81c-0.01-0.6-0.02-1.13-0.03-1.2c-0.27-2.08-2.02-5.95-4.33-6.38
				c-1.67-0.31-3.08,1-3.21,2.62c-0.14,1.66,1.06,3.31,2.24,4.36c1.19,1.06,4.29,2.1,5.12,2.36c-0.06,0.49-0.13,0.98-0.19,1.48
				c-0.28,2.36-0.55,4.72-0.89,7.02c-0.12,0.81-0.26,1.61-0.41,2.4c-0.01-0.53-0.02-0.98-0.03-1.04c-0.27-2.08-2.02-5.95-4.33-6.38
				c-1.67-0.31-3.08,1-3.21,2.62c-0.14,1.65,1.07,3.31,2.24,4.36c1.13,1.01,3.99,1.99,4.97,2.31c-0.17,0.81-0.34,1.62-0.55,2.4
				c-0.15,0.53-0.26,1.05-0.44,1.57c-0.17,0.52-0.33,1.04-0.5,1.55c-0.35,0.97-0.71,1.98-1.08,2.92c-0.25,0.66-0.5,1.28-0.75,1.9
				c0.13-0.81,0.34-2.39,0.35-2.53c0.03-1.4-0.46-3.66-1.45-5.26c0.01-0.21-0.01-0.41-0.04-0.62c-0.26-1.61-1.77-2.8-3.41-2.36
				c-2.27,0.61-3.72,4.6-3.82,6.7c-0.01,0.12,0.07,1.47,0.14,2.33c-0.11-0.49-0.22-0.98-0.34-1.48c-0.24-1.01-0.51-2-0.79-3.08
				c-0.16-0.51-0.31-1.03-0.47-1.56c-0.15-0.52-0.37-1.06-0.55-1.59c-0.45-1.23-0.97-2.45-1.51-3.68c0.88-0.21,4-1,5.25-1.96
				c1.25-0.96,2.57-2.52,2.55-4.18c-0.01-1.63-1.32-3.03-3.01-2.85c-2.34,0.25-4.37,3.98-4.79,6.04c-0.03,0.13-0.16,1.64-0.23,2.47
				c-0.33-0.73-0.66-1.46-1.03-2.19c-1.05-2.11-2.17-4.2-3.28-6.3c-0.34-0.64-0.67-1.29-1.01-1.93c0.31-0.07,4.04-0.94,5.44-2.01
				c1.25-0.96,2.57-2.52,2.55-4.18c-0.01-1.63-1.32-3.03-3.01-2.85c-2.34,0.25-4.37,3.98-4.79,6.04c-0.03,0.15-0.23,2.33-0.25,2.88
				c-0.74-1.42-1.46-2.84-2.11-4.27c-0.9-1.97-1.68-3.95-2.3-5.93c0.15-0.03,4.04-0.92,5.47-2.02c1.25-0.96,2.57-2.52,2.55-4.18
				c-0.01-1.63-1.32-3.03-3.01-2.85c-2.34,0.25-4.37,3.98-4.79,6.04c-0.03,0.16-0.24,2.5-0.25,2.93c-0.04-0.12-0.09-0.24-0.12-0.35
				c-0.63-2.12-0.97-4.25-1.19-6.26c-0.13-1.17-0.19-2.29-0.23-3.39c0.74-0.09,4.12-0.54,5.53-1.39c1.34-0.81,2.83-2.22,3-3.87
				c0.17-1.62-0.98-3.16-2.68-3.16c-2.35,0-4.78,3.48-5.43,5.48c-0.04,0.11-0.27,1.25-0.43,2.09c-0.01-0.49-0.02-1-0.02-1.48
				c0-1.78,0.12-3.41,0.23-4.85c0.07-0.82,0.15-1.56,0.23-2.25c0.68-0.47,3.4-2.39,4.24-3.76c0.82-1.34,1.49-3.27,0.88-4.82
				c-0.6-1.51-2.33-2.35-3.83-1.58c-2.09,1.08-2.64,5.29-2.3,7.36c0.03,0.18,0.82,2.93,0.86,2.9c0,0,0.03-0.02,0.04-0.03
				c-0.09,0.66-0.18,1.38-0.27,2.16c-0.14,1.44-0.29,3.07-0.33,4.86c-0.05,1.79-0.05,3.73,0.14,5.77c0.18,2.05,0.48,4.2,1.07,6.37
				c0.01,0.02,0.02,0.05,0.02,0.07c-0.37-0.58-1.46-2.17-1.56-2.29c-1.37-1.59-4.97-3.85-7.13-2.93c-1.56,0.66-2.02,2.53-1.23,3.96
				C59.56,416.24,61.47,416.96,63.03,417.19z"/>
			<path class="st3" d="M103.38,406.13c0.04,0.02,0.75-2.75,0.78-2.92c0.29-2.08-0.37-6.27-2.49-7.3c-1.53-0.74-3.23,0.15-3.79,1.68
				c-0.57,1.56,0.15,3.48,1,4.79C99.88,403.93,103.37,406.13,103.38,406.13z"/>
		</g>
	</g>
	<g>
		<g>
			<path class="st3" d="M610.69,412.73c1.43,0.63,4.94,0.55,4.94,0.55c0.04,0-0.75-2.29-0.82-2.43c-0.77-1.61-3.2-4.27-5.18-4
				c-1.43,0.19-2.22,1.62-1.9,2.96C608.07,411.17,609.47,412.19,610.69,412.73z"/>
			<path class="st3" d="M611.9,422.88c1.49,0.22,4.62-0.69,4.86-0.76c0.49,1.75,1.14,3.51,1.9,5.25c0.43,1,0.89,1.99,1.37,2.97
				c-0.29-0.42-0.54-0.79-0.59-0.84c-1.17-1.35-4.21-3.27-6.05-2.49c-1.32,0.56-1.71,2.15-1.05,3.36c0.68,1.24,2.31,1.85,3.62,2.04
				c1.34,0.2,4.02-0.52,4.73-0.73c0.19,0.38,0.37,0.76,0.56,1.13c0.91,1.8,1.82,3.6,2.66,5.39c0.3,0.63,0.57,1.26,0.84,1.89
				c-0.25-0.37-0.47-0.68-0.51-0.73c-1.17-1.35-4.21-3.27-6.05-2.49c-1.32,0.56-1.71,2.15-1.05,3.36c0.68,1.24,2.31,1.85,3.62,2.04
				c1.28,0.19,3.76-0.46,4.6-0.69c0.26,0.65,0.52,1.31,0.74,1.96c0.14,0.44,0.31,0.86,0.42,1.32c0.13,0.45,0.25,0.89,0.37,1.33
				c0.2,0.85,0.42,1.73,0.6,2.57c0.13,0.58,0.24,1.14,0.36,1.7c-0.29-0.63-0.88-1.85-0.94-1.95c-0.95-1.51-3.67-3.87-5.61-3.38
				c-1.39,0.36-2.02,1.86-1.54,3.16c0.48,1.32,2,2.17,3.27,2.56c1.4,0.43,4.51,0.04,4.9-0.01c0.19,0.93,0.36,1.83,0.51,2.69
				c0.08,0.45,0.15,0.88,0.22,1.31h1.24c-0.09-0.49-0.19-1-0.29-1.52c-0.18-0.94-0.4-1.95-0.63-2.98c0.23-0.09,1.56-0.63,2.73-1.28
				c1.02,1.11,3.64,2.4,3.98,2.57c-0.36,0.88-0.71,1.73-1.06,2.52c-0.1,0.24-0.21,0.46-0.31,0.69h1.3c0.03-0.08,0.06-0.15,0.1-0.23
				c0.37-0.89,0.74-1.85,1.11-2.83c0.38,0.08,3.45,0.7,4.88,0.38c1.3-0.29,2.87-1.03,3.45-2.31c0.57-1.26,0.06-2.81-1.3-3.27
				c-1.89-0.64-4.78,1.51-5.84,2.95c-0.06,0.08-0.64,1.08-0.99,1.71c0.15-0.4,0.3-0.79,0.45-1.21c0.3-0.82,0.58-1.65,0.88-2.55
				c0.13-0.44,0.26-0.88,0.4-1.32c0.14-0.44,0.23-0.92,0.36-1.38c0.26-1.08,0.47-2.19,0.65-3.31c0.72,0.26,3.3,1.16,4.63,1.07
				c1.33-0.09,3-0.58,3.76-1.76c0.75-1.16,0.48-2.77-0.79-3.43c-1.78-0.92-4.96,0.77-6.22,2.03c-0.08,0.08-0.88,1.08-1.32,1.64
				c0.11-0.67,0.22-1.35,0.3-2.03c0.25-1.98,0.43-3.99,0.63-6c0.06-0.61,0.13-1.23,0.19-1.84c0.26,0.1,3.3,1.23,4.79,1.12
				c1.33-0.09,3-0.58,3.76-1.76c0.75-1.16,0.48-2.77-0.79-3.43c-1.78-0.92-4.96,0.77-6.22,2.03c-0.1,0.09-1.25,1.54-1.53,1.92
				c0.14-1.35,0.3-2.69,0.5-4.01c0.28-1.82,0.66-3.59,1.15-5.27c0.12,0.05,3.29,1.24,4.82,1.13c1.33-0.09,3-0.58,3.77-1.76
				c0.75-1.16,0.48-2.77-0.79-3.43c-1.78-0.92-4.96,0.77-6.22,2.03c-0.1,0.1-1.34,1.66-1.55,1.96c0.03-0.1,0.05-0.21,0.08-0.31
				c0.55-1.79,1.3-3.46,2.09-4.99c0.45-0.89,0.94-1.71,1.43-2.5c0.57,0.28,3.17,1.55,4.56,1.6c1.33,0.05,3.04-0.25,3.94-1.34
				c0.88-1.07,0.79-2.7-0.41-3.49c-1.66-1.1-5.01,0.22-6.41,1.33c-0.08,0.06-0.78,0.76-1.28,1.28c0.23-0.35,0.45-0.72,0.68-1.06
				c0.84-1.26,1.68-2.36,2.43-3.33c0.43-0.55,0.84-1.03,1.22-1.49c0.7-0.01,3.53-0.1,4.76-0.68c1.21-0.57,2.58-1.62,2.88-3
				c0.29-1.35-0.55-2.76-1.98-2.91c-1.99-0.21-4.35,2.51-5.07,4.14c-0.06,0.14-0.79,2.46-0.75,2.46c0,0,0.03,0,0.04,0
				c-0.38,0.43-0.77,0.89-1.2,1.4c-0.78,0.95-1.65,2.04-2.51,3.28c-0.87,1.24-1.78,2.62-2.6,4.15c-0.83,1.54-1.63,3.19-2.22,5.01
				c-0.01,0.02-0.01,0.04-0.02,0.06c0.01-0.58-0.02-2.22-0.03-2.35c-0.23-1.77-1.71-5.05-3.68-5.41c-1.41-0.26-2.61,0.85-2.73,2.22
				c-0.11,1.41,0.9,2.81,1.9,3.7c1.12,1,4.23,1.97,4.48,2.05c-0.55,1.73-0.98,3.56-1.31,5.43c-0.19,1.07-0.35,2.15-0.49,3.24
				c-0.01-0.51-0.02-0.96-0.03-1.02c-0.23-1.77-1.71-5.05-3.68-5.41c-1.41-0.26-2.61,0.85-2.73,2.22c-0.12,1.41,0.9,2.81,1.9,3.7
				c1.01,0.9,3.64,1.78,4.34,2c-0.05,0.42-0.11,0.83-0.16,1.25c-0.24,2-0.47,4.01-0.76,5.96c-0.1,0.69-0.22,1.36-0.35,2.04
				c-0.01-0.45-0.02-0.83-0.02-0.89c-0.23-1.77-1.71-5.05-3.68-5.41c-1.42-0.26-2.61,0.85-2.73,2.22c-0.12,1.4,0.9,2.81,1.9,3.7
				c0.96,0.86,3.39,1.69,4.22,1.96c-0.15,0.69-0.29,1.38-0.46,2.04c-0.13,0.45-0.22,0.89-0.37,1.33c-0.14,0.44-0.28,0.88-0.42,1.31
				c-0.3,0.82-0.6,1.68-0.92,2.47c-0.21,0.56-0.43,1.08-0.64,1.61c0.11-0.68,0.29-2.03,0.29-2.14c0.03-1.18-0.39-3.11-1.23-4.46
				c0.01-0.18,0-0.35-0.03-0.52c-0.22-1.36-1.5-2.38-2.89-2.01c-1.93,0.51-3.15,3.9-3.25,5.68c-0.01,0.11,0.06,1.25,0.12,1.97
				c-0.1-0.42-0.19-0.83-0.29-1.26c-0.2-0.85-0.43-1.7-0.67-2.61c-0.13-0.44-0.26-0.88-0.4-1.32c-0.12-0.44-0.31-0.9-0.47-1.35
				c-0.38-1.04-0.82-2.08-1.28-3.12c0.75-0.18,3.39-0.85,4.45-1.67c1.06-0.81,2.18-2.14,2.17-3.55c-0.01-1.38-1.12-2.58-2.55-2.42
				c-1.99,0.22-3.71,3.38-4.07,5.13c-0.02,0.11-0.14,1.39-0.19,2.1c-0.28-0.62-0.56-1.24-0.87-1.86c-0.89-1.79-1.84-3.57-2.78-5.35
				c-0.29-0.55-0.57-1.09-0.86-1.64c0.27-0.06,3.43-0.79,4.62-1.71c1.06-0.81,2.18-2.14,2.17-3.55c-0.01-1.38-1.12-2.58-2.55-2.42
				c-1.99,0.22-3.71,3.38-4.07,5.13c-0.03,0.13-0.19,1.98-0.21,2.45c-0.63-1.2-1.24-2.41-1.79-3.62c-0.77-1.67-1.43-3.36-1.95-5.03
				c0.12-0.03,3.43-0.78,4.64-1.71c1.06-0.81,2.18-2.14,2.17-3.55c-0.01-1.38-1.12-2.58-2.55-2.42c-1.99,0.22-3.71,3.38-4.07,5.13
				c-0.03,0.14-0.21,2.12-0.21,2.48c-0.03-0.1-0.07-0.2-0.1-0.3c-0.53-1.8-0.82-3.61-1.01-5.32c-0.11-0.99-0.16-1.95-0.19-2.88
				c0.63-0.08,3.5-0.46,4.69-1.18c1.14-0.69,2.4-1.89,2.54-3.29c0.14-1.37-0.83-2.68-2.27-2.69c-2,0-4.06,2.95-4.61,4.65
				c-0.03,0.09-0.23,1.06-0.37,1.77c-0.01-0.42-0.02-0.85-0.02-1.25c0-1.51,0.1-2.89,0.19-4.12c0.06-0.7,0.13-1.32,0.2-1.91
				c0.58-0.4,2.89-2.03,3.6-3.19c0.69-1.14,1.26-2.78,0.74-4.09c-0.51-1.28-1.98-2-3.25-1.34c-1.77,0.92-2.24,4.49-1.95,6.25
				c0.03,0.15,0.7,2.48,0.73,2.46c0,0,0.03-0.02,0.03-0.02c-0.08,0.56-0.16,1.17-0.23,1.83c-0.12,1.22-0.25,2.61-0.28,4.13
				c-0.04,1.51-0.04,3.16,0.12,4.9c0.15,1.74,0.41,3.56,0.91,5.4c0.01,0.02,0.01,0.04,0.02,0.06c-0.31-0.49-1.24-1.84-1.32-1.94
				c-1.17-1.35-4.21-3.27-6.05-2.49c-1.32,0.56-1.71,2.15-1.05,3.36C608.96,422.08,610.59,422.69,611.9,422.88z"/>
			<path class="st3" d="M646.15,413.5c0.03,0.02,0.64-2.33,0.66-2.48c0.25-1.77-0.32-5.32-2.12-6.19c-1.3-0.63-2.74,0.13-3.22,1.42
				c-0.48,1.32,0.13,2.95,0.85,4.07C643.18,411.63,646.15,413.5,646.15,413.5z"/>
		</g>
	</g>
	<g>
		<g>
			<path class="st3" d="M690.85,430.42c-0.83,0.36-2.86,0.32-2.87,0.32c-0.02,0,0.44-1.33,0.48-1.41c0.45-0.93,1.86-2.47,3-2.32
				c0.83,0.11,1.29,0.94,1.1,1.72C692.37,429.51,691.55,430.11,690.85,430.42z"/>
			<path class="st3" d="M690.14,436.3c-0.86,0.13-2.68-0.4-2.82-0.44c-0.29,1.02-0.66,2.03-1.1,3.05c-0.25,0.58-0.52,1.15-0.8,1.72
				c0.17-0.24,0.32-0.46,0.34-0.49c0.68-0.78,2.44-1.9,3.51-1.44c0.77,0.33,0.99,1.25,0.61,1.95c-0.39,0.72-1.34,1.07-2.1,1.18
				c-0.78,0.11-2.33-0.3-2.74-0.42c-0.11,0.22-0.21,0.44-0.32,0.66c-0.53,1.05-1.05,2.09-1.54,3.13c-0.17,0.37-0.33,0.73-0.49,1.1
				c0.15-0.22,0.27-0.4,0.3-0.42c0.68-0.78,2.44-1.9,3.51-1.44c0.77,0.33,0.99,1.25,0.61,1.95c-0.39,0.72-1.34,1.07-2.1,1.18
				c-0.74,0.11-2.18-0.26-2.67-0.4c-0.15,0.38-0.3,0.76-0.43,1.13c-0.08,0.26-0.18,0.5-0.25,0.76c-0.07,0.26-0.14,0.52-0.22,0.77
				c-0.12,0.49-0.24,1-0.35,1.49c-0.07,0.34-0.14,0.66-0.21,0.99c0.17-0.37,0.51-1.08,0.54-1.13c0.55-0.88,2.13-2.24,3.25-1.96
				c0.81,0.21,1.17,1.08,0.9,1.83c-0.28,0.77-1.16,1.26-1.9,1.49c-0.81,0.25-2.61,0.02-2.84-0.01c-0.11,0.54-0.21,1.06-0.29,1.56
				c-0.05,0.26-0.09,0.51-0.13,0.76h-0.72c0.05-0.29,0.11-0.58,0.17-0.88c0.11-0.55,0.23-1.13,0.37-1.73
				c-0.14-0.05-0.9-0.36-1.58-0.74c-0.59,0.64-2.11,1.39-2.31,1.49c0.21,0.51,0.41,1,0.61,1.46c0.06,0.14,0.12,0.27,0.18,0.4h-0.75
				c-0.02-0.05-0.04-0.09-0.06-0.14c-0.21-0.52-0.43-1.07-0.65-1.64c-0.22,0.05-2,0.41-2.83,0.22c-0.75-0.17-1.67-0.6-2-1.34
				c-0.33-0.73-0.03-1.63,0.76-1.89c1.1-0.37,2.77,0.88,3.39,1.71c0.04,0.05,0.37,0.63,0.57,0.99c-0.09-0.23-0.17-0.46-0.26-0.7
				c-0.18-0.48-0.34-0.96-0.51-1.48c-0.08-0.25-0.15-0.51-0.23-0.77c-0.08-0.25-0.14-0.53-0.21-0.8c-0.15-0.63-0.27-1.27-0.38-1.92
				c-0.42,0.15-1.91,0.67-2.69,0.62c-0.77-0.05-1.74-0.34-2.18-1.02c-0.44-0.67-0.28-1.6,0.46-1.99c1.03-0.53,2.88,0.45,3.61,1.18
				c0.05,0.05,0.51,0.63,0.76,0.95c-0.06-0.39-0.12-0.78-0.17-1.18c-0.14-1.15-0.25-2.32-0.36-3.48c-0.03-0.36-0.07-0.71-0.11-1.07
				c-0.15,0.06-1.91,0.71-2.78,0.65c-0.77-0.05-1.74-0.34-2.18-1.02c-0.44-0.67-0.28-1.6,0.46-1.99c1.03-0.53,2.88,0.45,3.61,1.18
				c0.06,0.05,0.73,0.89,0.89,1.12c-0.08-0.78-0.17-1.56-0.29-2.33c-0.16-1.05-0.38-2.08-0.67-3.06c-0.07,0.03-1.91,0.72-2.79,0.66
				c-0.77-0.05-1.74-0.34-2.18-1.02c-0.44-0.67-0.28-1.6,0.46-1.99c1.03-0.53,2.88,0.45,3.61,1.18c0.06,0.06,0.78,0.96,0.9,1.13
				c-0.02-0.06-0.03-0.12-0.05-0.18c-0.32-1.04-0.76-2.01-1.21-2.89c-0.26-0.52-0.54-0.99-0.83-1.45c-0.33,0.16-1.84,0.9-2.65,0.93
				c-0.77,0.03-1.76-0.14-2.28-0.78c-0.51-0.62-0.46-1.56,0.24-2.03c0.97-0.64,2.91,0.13,3.72,0.77c0.04,0.03,0.45,0.44,0.74,0.74
				c-0.13-0.21-0.26-0.42-0.39-0.61c-0.48-0.73-0.97-1.37-1.41-1.93c-0.25-0.32-0.48-0.6-0.71-0.86c-0.41-0.01-2.05-0.06-2.76-0.39
				c-0.7-0.33-1.5-0.94-1.67-1.74c-0.17-0.78,0.32-1.6,1.15-1.69c1.15-0.12,2.52,1.45,2.94,2.4c0.04,0.08,0.46,1.42,0.44,1.42
				c0,0-0.02,0-0.02,0c0.22,0.25,0.45,0.52,0.7,0.81c0.45,0.55,0.95,1.18,1.46,1.9c0.5,0.72,1.03,1.52,1.51,2.41
				c0.48,0.89,0.94,1.85,1.29,2.9c0,0.01,0.01,0.02,0.01,0.04c-0.01-0.34,0.01-1.29,0.02-1.36c0.13-1.03,0.99-2.93,2.13-3.14
				c0.82-0.15,1.52,0.49,1.58,1.29c0.07,0.82-0.52,1.63-1.1,2.15c-0.65,0.58-2.45,1.14-2.6,1.19c0.32,1.01,0.57,2.06,0.76,3.15
				c0.11,0.62,0.2,1.25,0.29,1.88c0-0.29,0.01-0.56,0.02-0.59c0.13-1.03,0.99-2.93,2.13-3.14c0.82-0.15,1.52,0.49,1.58,1.29
				c0.07,0.82-0.52,1.63-1.1,2.15c-0.58,0.52-2.11,1.03-2.52,1.16c0.03,0.24,0.06,0.48,0.09,0.73c0.14,1.16,0.27,2.32,0.44,3.46
				c0.06,0.4,0.13,0.79,0.2,1.18c0-0.26,0.01-0.48,0.01-0.51c0.13-1.03,0.99-2.93,2.13-3.14c0.82-0.15,1.52,0.49,1.58,1.29
				c0.07,0.81-0.52,1.63-1.1,2.15c-0.56,0.5-1.96,0.98-2.45,1.14c0.08,0.4,0.17,0.8,0.27,1.18c0.07,0.26,0.13,0.52,0.22,0.77
				c0.08,0.26,0.16,0.51,0.25,0.76c0.17,0.48,0.35,0.97,0.53,1.44c0.12,0.32,0.25,0.63,0.37,0.94c-0.06-0.4-0.17-1.18-0.17-1.24
				c-0.02-0.69,0.23-1.8,0.71-2.59c0-0.1,0-0.2,0.02-0.3c0.13-0.79,0.87-1.38,1.68-1.16c1.12,0.3,1.83,2.26,1.88,3.3
				c0,0.06-0.04,0.73-0.07,1.15c0.06-0.24,0.11-0.48,0.17-0.73c0.12-0.49,0.25-0.99,0.39-1.51c0.08-0.25,0.15-0.51,0.23-0.77
				c0.07-0.26,0.18-0.52,0.27-0.78c0.22-0.61,0.48-1.21,0.74-1.81c-0.43-0.1-1.97-0.49-2.58-0.97c-0.61-0.47-1.26-1.24-1.26-2.06
				c0.01-0.8,0.65-1.49,1.48-1.4c1.15,0.13,2.15,1.96,2.36,2.97c0.01,0.06,0.08,0.81,0.11,1.22c0.16-0.36,0.33-0.72,0.51-1.08
				c0.51-1.04,1.07-2.07,1.62-3.1c0.17-0.32,0.33-0.63,0.5-0.95c-0.15-0.04-1.99-0.46-2.68-0.99c-0.61-0.47-1.26-1.24-1.26-2.06
				c0.01-0.8,0.65-1.49,1.48-1.4c1.15,0.12,2.15,1.96,2.36,2.97c0.02,0.08,0.11,1.15,0.12,1.42c0.36-0.7,0.72-1.4,1.04-2.1
				c0.45-0.97,0.83-1.95,1.13-2.92c-0.07-0.02-1.99-0.45-2.69-0.99c-0.61-0.47-1.26-1.24-1.26-2.06c0.01-0.8,0.65-1.49,1.48-1.4
				c1.15,0.13,2.15,1.96,2.36,2.97c0.02,0.08,0.12,1.23,0.12,1.44c0.02-0.06,0.04-0.12,0.06-0.17c0.31-1.04,0.48-2.09,0.59-3.08
				c0.06-0.58,0.09-1.13,0.11-1.67c-0.36-0.04-2.03-0.27-2.72-0.68c-0.66-0.4-1.39-1.09-1.48-1.91c-0.08-0.8,0.48-1.56,1.32-1.56
				c1.16,0,2.35,1.71,2.67,2.7c0.02,0.05,0.13,0.62,0.21,1.03c0-0.24,0.01-0.49,0.01-0.73c0-0.88-0.06-1.68-0.11-2.39
				c-0.03-0.4-0.07-0.77-0.11-1.11c-0.34-0.23-1.67-1.18-2.09-1.85c-0.4-0.66-0.73-1.61-0.43-2.37c0.29-0.74,1.15-1.16,1.89-0.78
				c1.03,0.53,1.3,2.6,1.13,3.62c-0.02,0.09-0.4,1.44-0.42,1.43c0,0-0.02-0.01-0.02-0.01c0.05,0.33,0.09,0.68,0.13,1.06
				c0.07,0.71,0.14,1.51,0.16,2.39c0.02,0.88,0.02,1.83-0.07,2.84c-0.09,1.01-0.24,2.07-0.53,3.13c0,0.01-0.01,0.02-0.01,0.04
				c0.18-0.29,0.72-1.07,0.77-1.13c0.68-0.78,2.44-1.9,3.51-1.44c0.77,0.33,0.99,1.25,0.61,1.95
				C691.85,435.84,690.91,436.19,690.14,436.3z"/>
			<path class="st3" d="M670.28,430.86c-0.02,0.01-0.37-1.35-0.38-1.44c-0.14-1.02,0.18-3.09,1.23-3.59
				c0.75-0.36,1.59,0.07,1.87,0.83c0.28,0.77-0.07,1.71-0.49,2.36C672,429.78,670.28,430.86,670.28,430.86z"/>
		</g>
	</g>
</g>
<g id="Clouds">
	<g>
		<path class="st4" d="M93.72,127.75c-3.31,1.93-4.56,5.68-5.16,7.48c-0.83,2.48-3.72-1.66-9.52,0.41
			c-5.79,2.07-6.62,6.62-7.86,7.86s-9.52,4.55-9.52,4.55h83.05"/>
		<path class="st4" d="M148.85,148.06h10.06c0,0,1.66-9.1-2.07-13.66c-3.72-4.55-12,2.07-14.48-4.55c0,0-7.45-10.76-16.55-11.59
			c-9.1-0.83-12.83,6.21-15.73,9.93c-2.9,3.72-4.55-1.66-11.59-1.66"/>
		<path class="st4" d="M109.11,140.67c-1.69,1.57-1.92,3.67-1.92,3.67"/>
		<path class="st4" d="M140.71,133.57c0,0-5.79-5.79-12.42-5.38c-6.62,0.41-4.14,8.28-7.04,10.76c-2.9,2.48-6.21-0.83-9.93,0.41"/>
	</g>
	<g>
		<path class="st4" d="M318.61,35.99c-2.73,1.6-3.76,4.68-4.25,6.17c-0.68,2.05-3.07-1.37-7.85,0.34c-4.78,1.71-5.46,5.46-6.49,6.49
			c-1.02,1.02-7.85,3.75-7.85,3.75h68.5"/>
		<path class="st4" d="M364.09,52.74h8.3c0,0,1.37-7.51-1.71-11.26c-3.07-3.75-9.9,1.71-11.95-3.75c0,0-6.14-8.87-13.65-9.56
			c-7.51-0.68-10.58,5.12-12.97,8.19c-2.39,3.07-3.75-1.37-9.56-1.37"/>
		<path class="st4" d="M331.3,46.64c-1.39,1.3-1.58,3.02-1.58,3.02"/>
		<path class="st4" d="M357.37,40.79c0,0-4.78-4.78-10.24-4.44c-5.46,0.34-3.41,6.83-5.8,8.87c-2.39,2.05-5.12-0.68-8.19,0.34"/>
	</g>
	<g>
		<path class="st4" d="M623.69,129.04c-2.73,1.6-3.76,4.68-4.25,6.17c-0.68,2.05-3.07-1.37-7.85,0.34
			c-4.78,1.71-5.46,5.46-6.49,6.49c-1.02,1.02-7.85,3.75-7.85,3.75h68.5"/>
		<path class="st4" d="M669.16,145.78h8.3c0,0,1.37-7.51-1.71-11.26c-3.07-3.75-9.9,1.71-11.95-3.75c0,0-6.14-8.87-13.65-9.56
			c-7.51-0.68-10.58,5.12-12.97,8.19c-2.39,3.07-3.75-1.37-9.56-1.37"/>
		<path class="st4" d="M636.38,139.69c-1.39,1.3-1.58,3.02-1.58,3.02"/>
		<path class="st4" d="M662.45,133.84c0,0-4.78-4.78-10.24-4.44c-5.46,0.34-3.41,6.83-5.8,8.87c-2.39,2.05-5.12-0.68-8.19,0.34"/>
	</g>
</g>
<g id="Text_3">
	<g>
		<path class="st5" d="M598.85,271.14l-22.33-50.69l-60.39,26.61l-14.3-32.45l-7.28-156.93l44.19-19.47l59.43,134.91l19.15-8.44
			l13.94,31.65l-19.15,8.44l22.33,50.69L598.85,271.14z M532.13,202.22l30.44-13.41l-40.65-92.26L532.13,202.22z"/>
		<path class="st6" d="M594,273.35l-22.33-50.69l-60.39,26.61l-14.3-32.45L489.7,59.88l44.19-19.47l59.43,134.91l19.15-8.44
			l13.94,31.65l-19.15,8.44l22.33,50.69L594,273.35z M527.28,204.42l30.44-13.41l-40.65-92.26L527.28,204.42z"/>
	</g>
</g>
<g id="Text_2">
	<g>
		<path class="st5" d="M409.17,315.3c-12.84,2.37-24.01,1.44-33.52-2.77s-17.3-10.97-23.38-20.28c-6.08-9.31-10.34-20.6-12.78-33.85
			l-19.27-104.63c-2.51-13.64-2.7-25.98-0.54-37c2.15-11.02,6.92-20.2,14.3-27.52c7.38-7.32,17.67-12.19,30.86-14.62
			c13.01-2.4,24.23-1.48,33.65,2.74c9.41,4.23,17.09,11.11,23.03,20.64c5.94,9.54,10.17,21.13,12.68,34.77l19.27,104.63
			c2.44,13.26,2.48,25.32,0.12,36.19c-2.36,10.87-7.23,19.96-14.62,27.28C431.59,308.19,421.66,313,409.17,315.3z M401.95,276.1
			c4.75-0.87,7.88-3.14,9.39-6.8c1.51-3.65,2.2-7.8,2.07-12.45c-0.13-4.64-0.55-8.89-1.25-12.73l-18.95-102.9
			c-0.78-4.22-1.9-8.59-3.37-13.09c-1.47-4.5-3.56-8.23-6.29-11.21c-2.73-2.97-6.56-4.01-11.48-3.1c-4.93,0.91-8.18,3.25-9.76,7.01
			c-1.58,3.77-2.25,8.01-2.02,12.74c0.23,4.73,0.74,9.2,1.52,13.43l18.95,102.9c0.71,3.85,1.83,7.96,3.36,12.34
			c1.53,4.39,3.75,8,6.64,10.85C393.65,275.94,397.38,276.94,401.95,276.1z"/>
		<path class="st6" d="M403.44,316.62c-12.84,2.37-24.01,1.44-33.52-2.77c-9.5-4.21-17.3-10.97-23.38-20.28
			c-6.08-9.31-10.34-20.6-12.78-33.85l-19.27-104.63c-2.51-13.64-2.7-25.98-0.54-37c2.15-11.02,6.92-20.2,14.3-27.52
			c7.38-7.32,17.67-12.19,30.86-14.62c13.01-2.4,24.23-1.48,33.65,2.74c9.41,4.23,17.09,11.11,23.03,20.64
			c5.94,9.54,10.17,21.13,12.68,34.77l19.27,104.63c2.44,13.26,2.48,25.32,0.12,36.19c-2.36,10.87-7.23,19.96-14.62,27.28
			C425.86,309.51,415.93,314.32,403.44,316.62z M396.22,277.42c4.75-0.87,7.88-3.14,9.39-6.8c1.51-3.65,2.2-7.8,2.07-12.45
			c-0.13-4.64-0.55-8.89-1.25-12.73l-18.95-102.9c-0.78-4.22-1.9-8.59-3.37-13.09c-1.47-4.5-3.56-8.23-6.29-11.21
			c-2.73-2.97-6.56-4.01-11.48-3.1c-4.93,0.91-8.18,3.25-9.76,7.01c-1.58,3.77-2.25,8.01-2.02,12.74c0.23,4.73,0.74,9.2,1.52,13.43
			l18.95,102.9c0.71,3.85,1.83,7.96,3.36,12.34c1.53,4.39,3.75,8,6.64,10.85C387.91,277.26,391.64,278.26,396.22,277.42z"/>
	</g>
</g>
<g id="Text_1">
	<g>
		<path class="st5" d="M179.67,289.6l12.72-53.91l-64.23-15.16l8.15-34.51L225.06,56.4l47,11.09l-33.86,143.48l20.37,4.81
			l-7.94,33.66l-20.37-4.81l-12.72,53.91L179.67,289.6z M167.96,194.39l32.38,7.64l23.16-98.12L167.96,194.39z"/>
		<path class="st6" d="M174.49,288.46l12.72-53.91l-64.23-15.16l8.15-34.51l88.75-129.62l47,11.09l-33.86,143.48l20.37,4.81
			l-7.94,33.66l-20.37-4.81l-12.72,53.91L174.49,288.46z M162.78,193.25l32.38,7.64l23.16-98.12L162.78,193.25z"/>
	</g>
</g>
<g id="Character_3">
	<g>
		<g>
			<path class="st5" d="M534.59,299c0,0-3.56,23.79-2.22,31.79c1.33,8,19.12,43.58,19.12,43.58v4.89l-13.56,6.67l4,9.12l5.56-1.33
				l-5.34,25.35l11.56,2.45l14.9-32.46c0,0,25.79-8,26.24-10.01c0.44-2-4.22-32.91-4.22-32.91s-5.78-28.01-9.56-37.35
				c-3.78-9.34-8.45-17.79-8.45-17.79L534.59,299z"/>
			<polyline class="st7" points="547.93,333.02 556.82,335.69 570.61,371.26 553.71,379.05 			"/>
			<line class="st7" x1="566.16" y1="390.16" x2="550.82" y2="393.27"/>
		</g>
		<g>
			<path class="st8" d="M521.83,240.58l-12.42,9.69l-2.94-6.01l-8.29,4.66c0,0-0.31,26.25,1.91,27.31
				c2.22,1.05,29.47-14.95,29.47-14.95s1.82,28.89,1.36,33.21c-0.45,4.32,2.5,6.37,4.55,6.14c2.05-0.23,40.72-5.23,41.63-6.37
				c0.91-1.14,1.82-4.09,1.36-5.91c-0.46-1.82-8.87-33.44-8.87-33.44s22.97,3.64,23.88,1.59c0.91-2.05,7.73-21.61,7.73-21.61
				l-11.6-2.73l-4.32,6.6c0,0-24.79-10.24-32.75-10.24S524.33,238.76,521.83,240.58z"/>
			<line class="st2" x1="585.29" y1="238.76" x2="591.15" y2="241.14"/>
			<polyline class="st2" points="555.43,252.96 569.6,254.91 554.09,257.24 			"/>
			<line class="st2" x1="502.24" y1="258.43" x2="500.35" y2="260.57"/>
			<line class="st2" x1="509.41" y1="250.27" x2="504.14" y2="256.26"/>
			<path class="st2" d="M563.43,266.41c-4.94,6.99-15.13,20.77-21.68,25.17"/>
			<path class="st2" d="M566.31,262.25c0,0-0.52,0.77-1.42,2.08"/>
			<path class="st2" d="M541.85,288.25c-1.48,1.54-2.92,2.9-4.14,3.82"/>
			<path class="st2" d="M551.03,277.53c0,0-3.84,4.95-7.83,9.3"/>
		</g>
		<g>
			<path class="st8" d="M498.18,248.92l-1.1-24.9c0,0-4.46-8.54-4.56-9.22c-0.1-0.68,1.68-8.98,2.16-10.43
				c0.48-1.45,2.99,0.02,4.29,2.59c1.29,2.57,0.66,6.11,0.66,6.11s2.94,4.4,3.46,6.39c0.52,1.99-0.44,4.89-0.44,4.89l3.82,19.9
				L498.18,248.92z"/>
			<path class="st2" d="M496.79,204.23c0,0-1.45,0.32-1.15,1.67c0.3,1.35,1.73,6.71,1.52,8.23"/>
		</g>
		<g>
			<path class="st8" d="M589.61,231.1c0,0,17.26-29.34,18.85-30.18c1.59-0.85,13.66-0.53,13.66-0.53s4.66-6.46,5.3-5.72
				c0.64,0.74,0.64,0.74,0.64,0.74s1.69-0.95,2.22-0.42c0.53,0.53,0.53,0.53,0.53,0.53s1.17-0.95,1.8-0.64
				c0.64,0.32,0.64,1.27,0.64,1.27s1.27-0.74,0.95,0.64s-4.24,8.15-5.82,9.11c-1.59,0.95-17.79,0.95-17.79,0.95l-8.79,26.05
				L589.61,231.1z"/>
			<path class="st2" d="M628.06,195.41c0,0-4.02,7.52-4.87,8.26"/>
			<line class="st2" x1="630.81" y1="195.51" x2="625.83" y2="204.62"/>
			<line class="st2" x1="633.25" y1="196.15" x2="628.48" y2="204.2"/>
		</g>
		<polygon class="st8" points="495.25,247.74 497.68,254.97 510.2,246.25 507.19,239.79 		"/>
		<g>
			<path class="st8" d="M570.28,202.14c0,0,0,4.55-1.14,8.19c-1.14,3.64,2.05,6.82,1.14,7.96c-0.91,1.14-3.87,2.73-3.87,2.73
				s-1.36,6.14-3.64,7.05c-2.27,0.91-8.64-1.82-8.64-1.82s-5.69-7.28-1.82-13.65C556.18,206.24,570.28,202.14,570.28,202.14z"/>
			<path class="st3" d="M566.18,213.42c-0.27,0.84-0.77,1.44-1.11,1.33c-0.35-0.11-0.41-0.88-0.14-1.73
				c0.27-0.84,0.77-1.44,1.11-1.33C566.39,211.8,566.45,212.58,566.18,213.42z"/>
			<path class="st2" d="M564.28,209.13c0,0,1.33-1.89,3.3-0.75"/>
			<path class="st2" d="M560.96,218.48c0,0,0.73,2.63,3.94,2.92"/>
		</g>
		<path class="st5" d="M575.06,191.45c0,0,2.5,5.91-0.45,9.78c-2.96,3.87-10.46,4.09-15.01,10.01c-4.55,5.91-2.73,13.65-1.59,16.15
			c1.14,2.5-0.68,12.06-3.87,13.42c-3.18,1.36-8.42,2.27-7.05,5.46c1.36,3.18,2.96,8.64,1.59,11.37c-1.36,2.73-10.01,7.51-16.83,5
			c-6.82-2.5-6.6-7.51-4.78-10.92c1.82-3.41-1.82-1.82-5.69-7.28c-3.87-5.46-8.64-15.01-2.5-19.79c6.14-4.78,10.92-6.37,11.37-10.92
			s-1.88-15.35,4.03-19.9s9.26-3.47,9.26-3.47s5.59-6.19,11.73-6.19c6.14,0,8.64,3.87,8.64,3.87S571.64,181.9,575.06,191.45z"/>
		<polygon class="st8" points="588.7,228.53 586.66,233.76 601.44,238.99 603.49,230.8 		"/>
		<path class="st8" d="M537.92,385.94c0,0-29.23,10.25-28.88,12.37c0.35,2.11,7.23,20.62,10.04,23.61c2.82,3,4.05,4.76,4.58,2.29
			c0.53-2.47-0.18-5.46-0.18-6.7s1.41-15.33,1.94-16.04c0.53-0.7,16.49-6.42,16.49-6.42L537.92,385.94z"/>
		<path class="st8" d="M520.68,402.89l-3.28-9.16c-4.78,2.01-8.48,3.82-8.35,4.58c0.35,2.11,7.23,20.62,10.04,23.61
			c2.82,3,4.05,4.76,4.58,2.29c0.53-2.47-0.18-5.46-0.18-6.7c0-1.23,1.41-15.33,1.94-16.04L520.68,402.89z"/>
		<path class="st8" d="M542.15,419.07c0,0-8.35,28.77-8.08,30.34c0.28,1.57,8.23,4.05,11.28,4.91c3.06,0.87,10.81,0.56,12.87-0.28
			c2.07-0.84,3.37-2.51,1.75-3.11c-1.63-0.6-6.11-1.73-6.11-1.73l-6.54-8.59l6.39-19.09L542.15,419.07z"/>
		<path class="st8" d="M559.97,450.93c-1.63-0.6-6.11-1.73-6.11-1.73l-6.54-8.59l-1.52,3.98l-9.96-3.18c-1.08,4.54-1.87,7.48-1.77,8
			c0.28,1.57,8.23,4.05,11.28,4.91c3.06,0.87,10.81,0.56,12.87-0.28C560.29,453.21,561.6,451.54,559.97,450.93z"/>
	</g>
</g>
<g id="Character_2">
	<g>
		<g>
			<path class="st8" d="M339.46,184.69c0,0,8.85,7.92,10.14,7.92s2.58-3.87,4.61-1.11c2.03,2.76,0,5.9,0,5.9s8.11,8.85,6.82,10.5
				c-1.29,1.66-7.37,5.16-7.37,5.16l-1.29,15.48l-16.59-4.61l-0.18-5.71l-8.66-5.71c0,0-4.61-7.74-1.47-15.3
				C328.58,189.66,339.46,184.69,339.46,184.69z"/>
			<path class="st5" d="M339.46,184.69c0,0-8.66,7.56-7.74,8.48c0.92,0.92,5.53,2.21,4.79,3.5s-2.76,5.34-2.76,5.34
				s3.69,2.03,3.5,3.13c-0.18,1.11-1.11,2.21-1.66,2.03c-0.55-0.18-5.9-2.03-6.45,0.92c-0.55,2.95,1.84,5.71,3.87,6.63
				c2.03,0.92,5.34-1.11,5.34-1.11s-2.21,4.42-2.76,4.61c-0.55,0.18-10.51-4.24-14.38-5.9c-3.87-1.66-7.37-4.05-6.45-8.11
				c0.92-4.05,2.03-9.21,5.53-12.16c3.5-2.95,6.45-6.27,6.45-6.27s-4.98-2.76-1.29-4.24c3.69-1.47,7.56,0,7.56,0
				s-1.29-4.05,2.03-3.32C338.35,178.97,340.01,181.18,339.46,184.69z"/>
			<polygon class="st5" points="353.65,213.07 347.75,216.38 352.91,220.07 			"/>
			<path class="st2" d="M342.41,190.58c0,0-3.69,0-3.32,3.5"/>
			<path class="st3" d="M346.56,195.08c0.67,0.83,0.8,1.84,0.29,2.26c-0.51,0.42-1.48,0.08-2.15-0.75s-0.8-1.84-0.29-2.26
				C344.93,193.92,345.89,194.25,346.56,195.08z"/>
		</g>
		<path class="st8" d="M325.91,432.21c0,0,0.91,9.1,1.82,10.46c0.91,1.36,9.55,5.69,11.37,7.51c1.82,1.82-2.27,3.18-4.32,4.09
			c-2.05,0.91-4.32,0.68-8.42-0.45s-7.96-4.55-10.46-5.69c-2.5-1.14-8.87-3.18-8.42-4.78c0.46-1.59,8.42-14.56,8.42-14.56
			L325.91,432.21z"/>
		<path class="st8" d="M415.53,436.76c0,0,10.01,12.97,10.69,13.19c1.64,0.54,8.35-6.81,9.66-7.88c3.8-3.13,7.25-6.64,9.98-10.76
			c1.12-1.7,4.52-7.49,1.75-9.33c-3.43-2.29-7.6,3.09-10.46,4.32c-1.59,0.68-6.14,2.73-6.14,2.73L415.53,436.76z"/>
		<path class="st5" d="M334.55,315.07c0,0,0.68,11.6,1.59,12.97c0.91,1.36,4.09,12.06,4.09,12.06l-7.28,41.63l-18.42,46.18
			l13.19,5.91l26.39-48.68c0,0,9.1-23.43,9.33-24.11c0.23-0.68,52.09,75.75,52.09,75.75l10.92-7.05l-34.57-75.29l-17.06-40.49
			L334.55,315.07z"/>
		<polygon class="st8" points="314.76,419.7 312.94,429.94 327.5,436.31 332.96,428.12 		"/>
		<polygon class="st8" points="410.52,434.26 416.44,440.18 430.99,429.03 425.54,422.21 		"/>
		<path class="st8" d="M333.37,227.26c0,0-6.08,22.48-5.34,28.38c0.74,5.9-1.29,61.56-1.29,61.56s13.27,4.05,28.75,2.4
			c15.48-1.66,24.51-4.61,24.51-4.61s-15.48-61.37-18.06-68.74c-2.58-7.37-9.03-15.85-9.03-15.85L333.37,227.26z"/>
		<polygon class="st8" points="333.93,221.36 331.53,228.55 356.41,235 357.15,226.71 		"/>
		<path class="st8" d="M391.24,310.38l5.16,1.29c0,0,2.21-3.13,3.87-3.69c1.66-0.55,3.69-0.18,5.71-0.18c2.03,0,3.87-2.76,5.53-1.47
			c1.66,1.29-0.92,2.76-1.84,3.13c-0.92,0.37-5.34,1.29-5.34,1.29s10.51,3.13,11.24,3.13c0.74,0-0.55,1.84-1.47,2.4
			c-0.92,0.55-4.05,0.74-4.05,0.74s-5.16,1.84-7.74,2.03c-2.58,0.18-9.4-2.03-9.4-2.03l-4.24-1.66l-2.58-0.92L391.24,310.38z"/>
		<path class="st8" d="M339.27,237.4c0,0-7.74,7-5.71,13.45c2.03,6.45,50.87,68.19,50.87,68.19l10.14-9.58l-42.57-70.96"/>
		<line class="st7" x1="347.97" y1="340.77" x2="362.3" y2="359.2"/>
	</g>
</g>
<g id="Character_1">
	<g>
		<path class="st5" d="M135.25,189.33c0,0-5.93,5.79-6.37,9.4c-0.43,3.62-5.5,18.67-3.76,21.56c1.74,2.89,11,8.68,11,8.68
			s-11.29,2.89-10.42,8.83c0.87,5.93,4.92,6.51,4.92,6.51s-9.12,5.35-6.08,9.26c3.04,3.91,10.27,3.33,11.43,0.14
			c1.16-3.18-1.01-7.23-1.01-7.23s5.79-1.74,7.23-4.2c1.45-2.46,1.01-4.77,1.01-4.77s5.06,0.87,8.1-1.3
			c3.04-2.17,4.34-8.97,4.34-8.97s10.71-6.08,14.47-15.92c3.76-9.84,2.46-13.89,0-16.93c-2.46-3.04-20.4-12.01-25.9-10.85
			C138.73,184.7,135.25,189.33,135.25,189.33z"/>
		<path class="st8" d="M147.55,225.94l2.89,13.46l14.9-8.68l-4.05-5.79C161.3,224.93,151.03,228.4,147.55,225.94z"/>
		<g>
			<path class="st8" d="M146.68,197.72l-9.12,16.06c0,0,3.33,7.38,5.35,9.69c2.03,2.32,4.49,5.21,11.29,5.93
				c6.8,0.72,10.85-5.93,11.14-10.27c0.29-4.34-4.34-17.22-4.34-17.22L146.68,197.72z"/>
			<path class="st8" d="M138.73,215.23c0,0-4.34-1.74-3.33,1.88c1.01,3.62,5.64,3.62,5.64,3.62L138.73,215.23z"/>
			<path class="st8" d="M162.17,205.68c0,0,0.58-2.46,2.75-1.01c2.17,1.45-0.72,6.8-0.72,6.8L162.17,205.68z"/>
			<polyline class="st2" points="150.88,213.5 152.76,217.84 155.66,216.68 			"/>
			<path class="st2" d="M150.59,220.87c0,0,5.93,2.6,8.25-3.76"/>
			<path class="st2" d="M154.79,210.46c0,0,1.88-2.46,4.34-1.74"/>
			<path class="st2" d="M151.75,204.96c0,0,2.32-2.89,5.79-1.88"/>
			<path class="st2" d="M146.54,206.84c0,0-4.05-1.74-5.79,2.89"/>
			<path class="st3" d="M147.45,213.19c0.37,0.75,0.26,1.56-0.24,1.81c-0.5,0.25-1.21-0.16-1.58-0.92
				c-0.37-0.75-0.26-1.56,0.24-1.81C146.37,212.03,147.08,212.44,147.45,213.19z"/>
		</g>
		<path class="st8" d="M218.66,201.94c0,0,8.27-5.61,8.86-6.2c0.59-0.59,4.13-2.95,5.76-4.28c1.62-1.33,2.07-5.76,3.84-5.02
			c1.77,0.74,2.21,2.51,1.62,3.84c-0.59,1.33-3.54,3.69-3.54,3.69s8.12-1.62,8.56-0.74c0.44,0.89,0.44,2.81-0.15,3.54
			c-0.59,0.74-1.33,1.62-1.33,1.62s-0.59,5.02-1.48,6.64c-0.89,1.62-4.28,2.66-6.64,2.66s-7.23,0.59-7.23,0.59l-5.46,2.21
			L218.66,201.94z"/>
		<polygon class="st8" points="146.43,291.21 146.04,297.97 188.3,294.11 186.37,287.93 		"/>
		<g>
			<g>
				<path class="st8" d="M149.79,236.9c0,0-7.36,4.31-9.31,7.65c-1.95,3.34-17.25,27.82-16.14,30.6c1.11,2.78,6.12,6.12,8.35,6.12
					s21.98,3.06,21.98,3.06l-3.11-44.38L149.79,236.9z"/>
				<path class="st2" d="M144.93,270.69c0,0-6.4,5.01-11.96,6.4"/>
				<path class="st2" d="M143.7,271.91c0,0-2.17,4.59-4.97,6.38"/>
			</g>
			<path class="st8" d="M218.66,201.94c0,0-65.26,32.19-69.98,34.4c-4.72,2.21-9.6,12.55-8.42,20.67
				c1.18,8.12,6.79,16.98,7.23,18.31s-1.48,12.4-1.92,14.47c-0.44,2.07-0.3,3.69,1.62,4.58c1.92,0.89,38.39-4.13,39.72-4.87
				c1.33-0.74,2.51-2.51,1.62-5.61c-0.89-3.1-4.58-11.22-4.58-11.96c0-0.74-6.35-20.97-6.35-20.97s29.82-25.25,33.22-29.38
				c3.4-4.13,10.63-11.07,10.63-11.07L218.66,201.94z"/>
			<path class="st2" d="M156.94,274.42c-1.26,1.18-2.37,2.11-3.24,2.67"/>
			<path class="st2" d="M159.56,263.76c8.13-5.27,18.05-12.8,18.05-12.8s-10.63,13.29-18.31,21.13"/>
			<path class="st2" d="M150.44,268.67c1.42-0.34,3.86-1.64,6.72-3.4"/>
			<path class="st2" d="M165.36,271.03c0,0-4.72,5.02-6.64,6.35"/>
			<path class="st2" d="M181.08,243.67c-0.78,1.03-1.55,1.9-2.29,2.56"/>
			<path class="st2" d="M192.37,222.76c0,0-4.56,10.66-9.27,18.01"/>
			<line class="st2" x1="214.96" y1="203.86" x2="218.66" y2="213.45"/>
		</g>
		<g>
			<path class="st8" d="M165.14,395.02l-7.91,30.68l-5.02,7.72l-3.28,11l6.75,3.28c0,0,3.67-3.67,5.79-1.54
				c2.12,2.12,2.32,5.79,2.32,5.79s10.23,3.09,12.35,2.89c2.12-0.19,5.4,0.39,5.79-0.58c0.39-0.96,0.58-8.3-0.39-9.26
				c-0.67-0.67-7.68-2.92-12.16-6.75c-1.95-1.68-3.43-6.77-3.67-6.95c-0.77-0.58,15.82-34.15,15.82-34.15L165.14,395.02z"/>
			<path class="st5" d="M181.93,454.25c0.39-0.96,0.58-8.3-0.39-9.26c-0.67-0.67-7.68-2.92-12.16-6.75
				c-1.95-1.68-3.43-6.77-3.67-6.95c-0.08-0.06,0.03-0.47,0.27-1.14l-9.33-3.58l-4.45,6.84l-3.28,11l6.75,3.28
				c0,0,3.67-3.67,5.79-1.54c2.12,2.12,2.32,5.79,2.32,5.79s10.23,3.09,12.35,2.89C178.26,454.64,181.54,455.22,181.93,454.25z"/>
		</g>
		<g>
			<path class="st8" d="M194.47,385.56l18.89,47.14c0,0-1.22,7.12,0,9.03c1.22,1.91,3.99,8.86,3.99,8.86l10.07-2.43
				c0,0-0.87-3.47,1.91-3.3c2.78,0.17,4.86,1.39,4.86,1.39s8.16-4.34,10.59-5.73c2.43-1.39,3.65-3.3,3.47-3.99
				c-0.17-0.69-2.6-6.08-5.38-5.56c-2.78,0.52-7.99,2.78-10.59,2.78c-2.6,0-8.34-1.91-9.55-3.99c-1.22-2.08-9.36-37.05-9.36-37.05
				l-2.32-16.79l-8.3-28.36L194.47,385.56z"/>
			<path class="st5" d="M248.26,436.52c-0.17-0.69-2.6-6.08-5.38-5.56c-2.78,0.52-7.99,2.78-10.59,2.78c-2.6,0-8.34-1.91-9.55-3.99
				c-0.12-0.21-0.31-0.74-0.55-1.52l-9.1,3.8l0.27,0.66c0,0-1.22,7.12,0,9.03c1.22,1.91,3.99,8.86,3.99,8.86l10.07-2.43
				c0,0-0.87-3.47,1.91-3.3c2.78,0.17,4.86,1.39,4.86,1.39s8.16-4.34,10.59-5.73C247.22,439.13,248.44,437.22,248.26,436.52z"/>
		</g>
		<path class="st5" d="M146.04,297.97L133.31,398.3c0,0,16.59,2.12,35.69,1.54c19.1-0.58,24.12-1.35,24.12-1.35l9.84-45.73
			l10.42,39.94l4.82-1.54c0,0-5.4-32.41-8.49-39.36c-3.09-6.95-21.42-57.69-21.42-57.69L146.04,297.97z"/>
	</g>
</g>
</svg>
