<?xml version="1.0" encoding="utf-8"?>
<!-- Generator: Adobe Illustrator 25.2.1, SVG Export Plug-In . SVG Version: 6.00 Build 0)  -->
<svg version="1.1" xmlns="http://www.w3.org/2000/svg" xmlns:xlink="http://www.w3.org/1999/xlink" x="0px" y="0px"
	 viewBox="0 0 500 500" style="enable-background:new 0 0 500 500;" xml:space="preserve">
<style type="text/css">
	.st0{fill:#EBEBEB;}
	.st1{fill:#E6E6E6;}
	.st2{fill:#E0E0E0;}
	.st3{fill:#F5F5F5;}
	.st4{fill:#FFFFFF;}
	.st5{opacity:0.6;}
	.st6{display:none;}
	.st7{display:inline;}
	.st8{fill:#407BFF;}
	.st9{opacity:0.9;fill:#FFFFFF;}
	.st10{fill:#263238;}
	.st11{opacity:0.2;}
</style>
<g id="Background_Complete">
	<g>
		<g>
			<rect y="382.4" class="st0" width="500" height="0.25"/>
			<path class="st0" d="M237.01,337.8H43.92c-3.15,0-5.71-2.56-5.71-5.71V60.66c0-3.15,2.56-5.71,5.71-5.71h193.1
				c3.15,0,5.71,2.56,5.71,5.71v271.43C242.72,335.24,240.16,337.8,237.01,337.8z M43.92,55.2c-3.01,0-5.46,2.45-5.46,5.46v271.43
				c0,3.01,2.45,5.46,5.46,5.46h193.1c3.01,0,5.46-2.45,5.46-5.46V60.66c0-3.01-2.45-5.46-5.46-5.46H43.92z"/>
			<path class="st0" d="M453.31,337.8h-193.1c-3.15,0-5.71-2.56-5.71-5.71V60.66c0-3.15,2.56-5.71,5.71-5.71h193.1
				c3.15,0,5.71,2.56,5.71,5.71v271.43C459.02,335.24,456.46,337.8,453.31,337.8z M260.21,55.2c-3.01,0-5.46,2.45-5.46,5.46v271.43
				c0,3.01,2.45,5.46,5.46,5.46h193.1c3.01,0,5.46-2.45,5.46-5.46V60.66c0-3.01-2.45-5.46-5.46-5.46H260.21z"/>
		</g>
		<g>
			<rect x="51.28" y="391.92" class="st0" width="26" height="0.25"/>
			<rect x="145.15" y="389.21" class="st0" width="45.03" height="0.25"/>
			<rect x="78.28" y="401.21" class="st0" width="60.79" height="0.25"/>
			<rect x="429.49" y="399.53" class="st0" width="19.23" height="0.25"/>
			<rect x="365.29" y="399.53" class="st0" width="55.29" height="0.25"/>
			<rect x="257.05" y="395.31" class="st0" width="74.47" height="0.25"/>
		</g>
	</g>
	<g>
		<g>
			<path class="st1" d="M190.83,215.44L178.18,382.4h121.98l12.65-166.96H190.83z M267.54,333.45
				c-1.03,13.62-12.91,24.66-26.53,24.66c-13.62,0-23.82-11.04-22.79-24.66l4.45-58.7c1.03-13.62,12.91-24.67,26.53-24.67
				c6.81,0,12.77,2.76,16.89,7.23c4.12,4.46,6.41,10.63,5.9,17.44L267.54,333.45z"/>
			<polygon class="st1" points="338.87,382.4 161.01,382.4 162.03,371.44 339.9,371.44 			"/>
		</g>
		<g>
			<path class="st2" d="M407.23,320.41h15.75c0.9,0,1.6-0.74,1.55-1.64l-0.06-1.12c-0.05-0.9-0.82-1.64-1.72-1.64h-15.75
				c-0.9,0-1.6,0.74-1.55,1.64l0.06,1.12C405.55,319.67,406.33,320.41,407.23,320.41z"/>
			<path class="st2" d="M380.89,320.41h15.75c0.9,0,1.6-0.74,1.55-1.64l-0.06-1.12c-0.05-0.9-0.82-1.64-1.72-1.64h-15.75
				c-0.9,0-1.6,0.74-1.55,1.64l0.06,1.12C379.21,319.67,379.99,320.41,380.89,320.41z"/>
			<path class="st2" d="M435.23,319.17H67.6c-4.24,0-7.85-3.44-8.06-7.68L48.47,90.67C48.26,86.43,51.53,83,55.76,83h367.62
				c4.24,0,7.85,3.44,8.06,7.68l11.07,220.82C442.73,315.73,439.47,319.17,435.23,319.17z"/>
			<path class="st1" d="M439.73,319.17H72.11c-4.24,0-7.85-3.44-8.06-7.68L52.98,90.67C52.77,86.43,56.03,83,60.27,83h367.62
				c4.24,0,7.85,3.44,8.06,7.68l11.07,220.82C447.23,315.73,443.97,319.17,439.73,319.17z"/>
			<path class="st3" d="M74.26,303.76L63.96,98.41c-0.13-2.66,1.91-4.81,4.57-4.81h352.16c2.66,0,4.92,2.15,5.05,4.81l10.29,205.35
				c0.13,2.66-1.91,4.81-4.57,4.81H79.31C76.65,308.57,74.39,306.41,74.26,303.76z"/>
			<path class="st4" d="M85.66,104.1c0.12,2.35-1.69,4.26-4.04,4.26c-2.35,0-4.35-1.91-4.47-4.26c-0.12-2.35,1.69-4.26,4.04-4.26
				C83.54,99.85,85.54,101.75,85.66,104.1z"/>
			<path class="st4" d="M104.93,104.1c0.12,2.35-1.69,4.26-4.04,4.26c-2.35,0-4.35-1.91-4.47-4.26c-0.12-2.35,1.69-4.26,4.04-4.26
				S104.82,101.75,104.93,104.1z"/>
			<path class="st4" d="M124.21,104.1c0.12,2.35-1.69,4.26-4.04,4.26c-2.35,0-4.35-1.91-4.47-4.26c-0.12-2.35,1.69-4.26,4.04-4.26
				C122.09,99.85,124.09,101.75,124.21,104.1z"/>
			<g class="st5">
				<polygon class="st4" points="110.88,308.57 161.63,308.57 208.03,93.6 157.28,93.6 				"/>
				<polygon class="st4" points="329.28,308.57 342.13,308.57 388.53,93.6 375.68,93.6 				"/>
				<polygon class="st4" points="172.91,308.57 244.91,308.57 291.31,93.6 219.31,93.6 				"/>
			</g>
		</g>
	</g>
</g>
<g id="Background_Simple" class="st6">
	<g class="st7">
		<path class="st8" d="M298.37,335.5C382,299.85,469.46,233.1,432.31,134.95C398.6,45.91,284.74,25.7,219.62,102.42
			c-28.09,33.09-23.18,77.05-57.16,106.51c-33.97,29.45-90.4,45.83-75.13,103.97C110.97,402.91,243.33,358.95,298.37,335.5z"/>
		<path class="st9" d="M298.37,335.5C382,299.85,469.46,233.1,432.31,134.95C398.6,45.91,284.74,25.7,219.62,102.42
			c-28.09,33.09-23.18,77.05-57.16,106.51c-33.97,29.45-90.4,45.83-75.13,103.97C110.97,402.91,243.33,358.95,298.37,335.5z"/>
	</g>
</g>
<g id="Shadow_1_">
	<ellipse id="_x3C_Path_x3E__368_" class="st3" cx="250" cy="416.24" rx="193.89" ry="11.32"/>
</g>
<g id="Character_1_">
	<g>
		<g>
			<path class="st10" d="M360.6,263.05c-0.12,0-0.24,0-0.36-0.01c-26.63-2.18-44.97-24.95-45.74-25.92
				c-1.53-1.93-1.21-4.74,0.72-6.28c1.93-1.53,4.74-1.21,6.27,0.72c0.21,0.27,15.9,19.61,37.63,22.37
				c7.05-6.99,12.98-25.48,12.33-31.08c-0.01-0.05-0.01-0.1-0.01-0.16c-0.15-1.8-0.48-7.96,1.29-11.64
				c1.07-2.22,3.74-3.16,5.96-2.09c2.22,1.07,3.16,3.74,2.09,5.96c-0.44,0.92-0.65,4.24-0.44,6.99c0.99,9.2-6.98,32.42-17,40.19
				C362.55,262.73,361.59,263.05,360.6,263.05z"/>
			<path class="st10" d="M148.82,238.82c-7.93,0-30.38-1.95-48.56-22.28c-1.41-1.58-1.52-3.94-0.26-5.64
				c7.22-9.71,19.96-32.64,21.95-40.11c-0.82-1.42-2.3-3.46-4.14-4.33c-1.42-0.67-2.39-2.04-2.55-3.6l-0.72-7.32
				c-0.24-2.46,1.55-4.64,4.01-4.88c2.45-0.24,4.64,1.55,4.88,4.01l0.5,5.09c4.36,3.13,6.54,8.01,6.81,8.64
				c0.3,0.71,0.41,1.49,0.33,2.26c-0.92,7.94-13.79,30.9-21.71,42.51c18.49,18.43,40.59,16.75,41.56,16.66
				c2.44-0.2,4.62,1.6,4.84,4.05c0.22,2.45-1.58,4.62-4.03,4.85C151.52,238.74,150.49,238.82,148.82,238.82z"/>
			<path class="st10" d="M292.87,416.09H280.9c-1.4,0-2.71-0.65-3.56-1.76c-0.84-1.11-1.12-2.55-0.75-3.9
				c3.13-11.24,4.67-20.38,5.82-34.71c-4.24-19.95-8.23-38.21-8.27-38.4c-0.53-2.41,1-4.79,3.41-5.32c2.41-0.53,4.79,1,5.32,3.41
				c0.04,0.19,4.12,18.86,8.42,39.08c0.09,0.42,0.12,0.85,0.08,1.28c-1.01,12.86-2.31,21.75-4.68,31.38h6.18
				c2.47,0,4.47,2,4.47,4.47C297.33,414.09,295.33,416.09,292.87,416.09z"/>
			<path class="st10" d="M200.32,416.09h-6.76c-1.29,0-2.52-0.56-3.37-1.54c-0.85-0.97-1.23-2.27-1.05-3.55
				c1.15-8.2,7.04-23.13,13.3-38.14c2.23-19.8,4.06-36.8,4.08-36.97c0.26-2.45,2.46-4.24,4.92-3.96c2.45,0.26,4.23,2.46,3.96,4.92
				c-0.02,0.17-1.89,17.56-4.15,37.65c-0.05,0.42-0.15,0.83-0.32,1.22c-4.44,10.63-9.49,23.15-11.8,31.44h1.2
				c2.47,0,4.47,2,4.47,4.47C204.79,414.09,202.79,416.09,200.32,416.09z"/>
			<g>
				<path class="st4" d="M204.21,110.98l-52.07,52.07c-2.62,57.71-2.4,118.33,0,181.19h172.16c-3.41-81.11-3.73-159.18,0-233.25
					H204.21z"/>
				<path class="st10" d="M324.31,345.12H152.15c-0.48,0-0.87-0.38-0.89-0.86c-2.5-65.26-2.5-126.25,0-181.26
					c0.01-0.22,0.1-0.43,0.26-0.59l52.07-52.07c0.17-0.17,0.39-0.26,0.63-0.26h120.1c0.24,0,0.48,0.1,0.65,0.28
					c0.17,0.18,0.26,0.42,0.25,0.66c-3.59,71.34-3.59,147.62,0,233.17c0.01,0.24-0.08,0.48-0.25,0.66
					C324.79,345.03,324.55,345.12,324.31,345.12z M153.01,343.34h170.37c-3.54-84.86-3.54-160.59-0.01-231.47H204.58l-51.56,51.56
					C150.55,218.07,150.55,278.59,153.01,343.34z"/>
			</g>
			<g>
				<g>
					<path class="st10" d="M202.85,287.4l1.88-0.16c0.12,0.75,0.36,1.38,0.71,1.86c0.35,0.48,0.87,0.88,1.57,1.17
						c0.7,0.3,1.48,0.45,2.34,0.45c0.76,0,1.43-0.11,2-0.34c0.57-0.23,0.99-0.54,1.26-0.93c0.27-0.4,0.39-0.83,0.37-1.29
						c-0.02-0.47-0.18-0.89-0.47-1.24c-0.29-0.35-0.76-0.65-1.4-0.89c-0.41-0.16-1.32-0.4-2.72-0.74c-1.4-0.33-2.39-0.65-2.96-0.94
						c-0.74-0.38-1.3-0.85-1.68-1.41c-0.38-0.56-0.59-1.19-0.62-1.88c-0.04-0.76,0.15-1.47,0.55-2.14c0.4-0.66,1.01-1.17,1.82-1.51
						c0.81-0.34,1.73-0.52,2.75-0.52c1.12,0,2.11,0.18,2.99,0.54c0.87,0.36,1.55,0.89,2.05,1.59c0.49,0.7,0.78,1.49,0.85,2.38
						l-1.91,0.14c-0.15-0.95-0.53-1.67-1.15-2.16c-0.62-0.49-1.51-0.73-2.67-0.73c-1.21,0-2.08,0.22-2.61,0.66
						c-0.53,0.44-0.78,0.98-0.75,1.6c0.03,0.54,0.24,0.99,0.65,1.34c0.4,0.35,1.42,0.71,3.06,1.08c1.64,0.37,2.77,0.69,3.39,0.96
						c0.9,0.41,1.57,0.92,2.02,1.54c0.45,0.62,0.69,1.34,0.73,2.15c0.04,0.8-0.16,1.56-0.58,2.27c-0.43,0.71-1.06,1.26-1.9,1.66
						c-0.84,0.39-1.8,0.59-2.88,0.59c-1.37,0-2.52-0.2-3.46-0.6c-0.94-0.4-1.7-1-2.26-1.8S202.93,288.41,202.85,287.4z"/>
					<path class="st10" d="M224.91,288.73l1.93,0.24c-0.25,1.12-0.77,1.99-1.55,2.6c-0.79,0.62-1.82,0.93-3.09,0.93
						c-1.6,0-2.89-0.49-3.88-1.48c-0.98-0.99-1.52-2.37-1.6-4.14c-0.09-1.84,0.32-3.27,1.22-4.28c0.9-1.02,2.1-1.52,3.61-1.52
						c1.46,0,2.68,0.5,3.65,1.49c0.97,1,1.5,2.4,1.59,4.2c0.01,0.11,0.01,0.27,0.01,0.49h-8.15c0.13,1.2,0.51,2.12,1.15,2.76
						c0.64,0.64,1.42,0.96,2.33,0.96c0.68,0,1.25-0.18,1.71-0.54C224.31,290.08,224.67,289.52,224.91,288.73z M218.68,285.74h6.11
						c-0.13-0.92-0.39-1.61-0.8-2.07c-0.62-0.71-1.41-1.07-2.35-1.07c-0.85,0-1.55,0.28-2.11,0.85
						C218.98,284.02,218.7,284.78,218.68,285.74z"/>
					<path class="st10" d="M229.3,292.25l-0.52-10.93h1.67l0.08,1.66c0.39-0.78,0.76-1.29,1.1-1.53c0.35-0.25,0.74-0.37,1.17-0.37
						c0.62,0,1.27,0.2,1.93,0.6l-0.56,1.72c-0.47-0.27-0.92-0.4-1.38-0.4c-0.41,0-0.76,0.12-1.07,0.37
						c-0.31,0.24-0.52,0.58-0.64,1.01c-0.17,0.66-0.24,1.38-0.21,2.16l0.27,5.72H229.3z"/>
					<path class="st10" d="M239.38,292.25l-4.68-10.93h1.96l2.66,6.55c0.29,0.71,0.56,1.44,0.81,2.2c0.14-0.58,0.33-1.27,0.59-2.08
						l2.11-6.67h1.9l-3.62,10.93H239.38z"/>
					<path class="st10" d="M246.28,279.29l-0.1-2.13h1.85l0.1,2.13H246.28z M246.9,292.25l-0.52-10.93h1.85l0.52,10.93H246.9z"/>
					<path class="st10" d="M258.51,288.25l1.83,0.24c-0.14,1.25-0.6,2.24-1.39,2.95c-0.79,0.71-1.78,1.07-2.97,1.07
						c-1.5,0-2.72-0.49-3.68-1.47c-0.96-0.98-1.48-2.38-1.57-4.21c-0.06-1.18,0.09-2.21,0.44-3.1c0.35-0.89,0.91-1.55,1.69-1.99
						c0.78-0.44,1.64-0.67,2.58-0.67c1.19,0,2.17,0.3,2.96,0.9c0.78,0.6,1.31,1.46,1.58,2.56l-1.79,0.28
						c-0.21-0.73-0.54-1.29-0.99-1.66c-0.45-0.37-0.99-0.56-1.61-0.56c-0.93,0-1.68,0.33-2.23,1c-0.55,0.67-0.79,1.73-0.72,3.18
						c0.07,1.47,0.4,2.54,1,3.2c0.59,0.67,1.35,1,2.25,1c0.73,0,1.32-0.22,1.79-0.67C258.15,289.86,258.43,289.18,258.51,288.25z"/>
					<path class="st10" d="M269.43,288.73l1.93,0.24c-0.25,1.12-0.77,1.99-1.55,2.6c-0.79,0.62-1.82,0.93-3.09,0.93
						c-1.6,0-2.89-0.49-3.88-1.48c-0.98-0.99-1.52-2.37-1.6-4.14c-0.09-1.84,0.32-3.27,1.21-4.28c0.9-1.02,2.1-1.52,3.61-1.52
						c1.46,0,2.68,0.5,3.66,1.49c0.97,1,1.5,2.4,1.59,4.2c0,0.11,0.01,0.27,0.01,0.49h-8.15c0.13,1.2,0.51,2.12,1.15,2.76
						c0.64,0.64,1.42,0.96,2.33,0.96c0.68,0,1.25-0.18,1.71-0.54C268.83,290.08,269.19,289.52,269.43,288.73z M263.2,285.74h6.11
						c-0.13-0.92-0.39-1.61-0.8-2.07c-0.62-0.71-1.41-1.07-2.35-1.07c-0.85,0-1.55,0.28-2.11,0.85
						C263.5,284.02,263.22,284.78,263.2,285.74z"/>
					<path class="st10" d="M193.52,313.34l-0.08-1.61c-0.79,1.24-1.92,1.85-3.38,1.85c-0.65,0-1.25-0.12-1.82-0.37
						c-0.57-0.25-1-0.56-1.29-0.93c-0.29-0.37-0.5-0.83-0.64-1.37c-0.09-0.36-0.16-0.94-0.2-1.73l-0.32-6.78h1.85l0.29,6.06
						c0.05,0.97,0.11,1.62,0.21,1.96c0.14,0.49,0.41,0.87,0.8,1.15c0.39,0.28,0.86,0.42,1.42,0.42c0.56,0,1.07-0.14,1.54-0.43
						c0.47-0.29,0.8-0.67,0.98-1.16c0.18-0.49,0.25-1.2,0.2-2.14l-0.28-5.86h1.85l0.52,10.94H193.52z"/>
					<path class="st10" d="M198.08,313.34l-0.52-10.94h1.67l0.07,1.56c0.75-1.2,1.88-1.8,3.39-1.8c0.66,0,1.27,0.12,1.83,0.35
						c0.56,0.24,0.99,0.55,1.29,0.93c0.29,0.38,0.51,0.84,0.64,1.37c0.08,0.34,0.15,0.94,0.19,1.8l0.32,6.72h-1.85l-0.32-6.65
						c-0.04-0.75-0.14-1.32-0.3-1.69c-0.16-0.37-0.43-0.67-0.81-0.9c-0.38-0.22-0.81-0.34-1.31-0.34c-0.79,0-1.46,0.25-2.01,0.75
						s-0.79,1.45-0.72,2.85l0.29,5.97H198.08z"/>
					<path class="st10" d="M216.88,311.99c-0.66,0.58-1.3,1-1.92,1.24c-0.62,0.24-1.3,0.36-2.03,0.36c-1.2,0-2.14-0.29-2.81-0.88
						c-0.67-0.59-1.03-1.34-1.08-2.25c-0.03-0.53,0.07-1.02,0.3-1.47c0.22-0.44,0.52-0.8,0.91-1.07c0.38-0.27,0.82-0.47,1.3-0.61
						c0.36-0.1,0.9-0.19,1.63-0.28c1.49-0.18,2.58-0.39,3.27-0.64c-0.01-0.25-0.01-0.42-0.01-0.48c-0.04-0.75-0.24-1.29-0.6-1.6
						c-0.49-0.42-1.21-0.63-2.14-0.63c-0.87,0-1.51,0.15-1.91,0.46c-0.4,0.31-0.68,0.85-0.84,1.62l-1.82-0.25
						c0.13-0.78,0.37-1.4,0.72-1.88c0.35-0.48,0.88-0.84,1.58-1.1c0.7-0.26,1.52-0.39,2.46-0.39c0.93,0,1.7,0.11,2.29,0.33
						c0.59,0.22,1.04,0.5,1.33,0.83c0.29,0.33,0.5,0.75,0.64,1.26c0.08,0.32,0.13,0.89,0.17,1.71l0.12,2.47
						c0.08,1.72,0.17,2.81,0.27,3.27c0.1,0.46,0.28,0.89,0.53,1.31h-1.94C217.1,312.96,216.95,312.51,216.88,311.99z M216.52,307.85
						c-0.66,0.28-1.66,0.51-2.99,0.7c-0.76,0.11-1.29,0.23-1.6,0.37c-0.31,0.14-0.54,0.34-0.7,0.6c-0.16,0.26-0.23,0.56-0.22,0.88
						c0.02,0.49,0.23,0.91,0.62,1.24c0.39,0.33,0.95,0.49,1.67,0.49c0.71,0,1.34-0.16,1.88-0.47c0.54-0.31,0.93-0.74,1.16-1.28
						c0.18-0.42,0.25-1.04,0.21-1.85L216.52,307.85z"/>
					<path class="st10" d="M224.57,313.34l-4.68-10.94h1.96l2.66,6.55c0.29,0.71,0.56,1.44,0.81,2.2c0.14-0.58,0.33-1.27,0.59-2.08
						l2.11-6.67h1.9l-3.62,10.94H224.57z"/>
					<path class="st10" d="M239.15,311.99c-0.66,0.58-1.3,1-1.92,1.24c-0.62,0.24-1.3,0.36-2.03,0.36c-1.2,0-2.14-0.29-2.81-0.88
						c-0.67-0.59-1.03-1.34-1.08-2.25c-0.03-0.53,0.07-1.02,0.3-1.47c0.22-0.44,0.52-0.8,0.91-1.07c0.38-0.27,0.82-0.47,1.3-0.61
						c0.36-0.1,0.9-0.19,1.63-0.28c1.49-0.18,2.58-0.39,3.27-0.64c-0.01-0.25-0.01-0.42-0.01-0.48c-0.04-0.75-0.24-1.29-0.6-1.6
						c-0.49-0.42-1.21-0.63-2.14-0.63c-0.87,0-1.51,0.15-1.91,0.46c-0.4,0.31-0.68,0.85-0.84,1.62l-1.82-0.25
						c0.13-0.78,0.37-1.4,0.72-1.88c0.35-0.48,0.88-0.84,1.58-1.1c0.7-0.26,1.52-0.39,2.46-0.39c0.93,0,1.7,0.11,2.29,0.33
						c0.59,0.22,1.04,0.5,1.33,0.83c0.29,0.33,0.5,0.75,0.64,1.26c0.08,0.32,0.13,0.89,0.17,1.71l0.12,2.47
						c0.08,1.72,0.17,2.81,0.27,3.27c0.1,0.46,0.28,0.89,0.53,1.31h-1.94C239.37,312.96,239.23,312.51,239.15,311.99z
						 M238.79,307.85c-0.66,0.28-1.66,0.51-2.99,0.7c-0.76,0.11-1.29,0.23-1.6,0.37c-0.31,0.14-0.54,0.34-0.7,0.6
						c-0.16,0.26-0.23,0.56-0.22,0.88c0.02,0.49,0.23,0.91,0.62,1.24c0.39,0.33,0.95,0.49,1.67,0.49c0.71,0,1.34-0.16,1.88-0.47
						c0.54-0.31,0.93-0.74,1.16-1.28c0.18-0.42,0.25-1.04,0.21-1.85L238.79,307.85z"/>
					<path class="st10" d="M243.19,300.38l-0.1-2.13h1.85l0.1,2.13H243.19z M243.81,313.34l-0.52-10.94h1.85l0.52,10.94H243.81z"/>
					<path class="st10" d="M248.45,313.34l-0.72-15.09h1.85l0.72,15.09H248.45z"/>
					<path class="st10" d="M260.24,311.99c-0.66,0.58-1.3,1-1.92,1.24c-0.62,0.24-1.3,0.36-2.03,0.36c-1.2,0-2.14-0.29-2.81-0.88
						c-0.67-0.59-1.03-1.34-1.08-2.25c-0.03-0.53,0.07-1.02,0.3-1.47c0.22-0.44,0.52-0.8,0.91-1.07c0.38-0.27,0.82-0.47,1.3-0.61
						c0.36-0.1,0.9-0.19,1.63-0.28c1.49-0.18,2.58-0.39,3.27-0.64c-0.01-0.25-0.01-0.42-0.01-0.48c-0.04-0.75-0.24-1.29-0.6-1.6
						c-0.49-0.42-1.21-0.63-2.14-0.63c-0.87,0-1.51,0.15-1.91,0.46c-0.4,0.31-0.68,0.85-0.84,1.62l-1.82-0.25
						c0.13-0.78,0.37-1.4,0.72-1.88c0.35-0.48,0.88-0.84,1.58-1.1c0.7-0.26,1.52-0.39,2.46-0.39c0.93,0,1.7,0.11,2.29,0.33
						c0.59,0.22,1.04,0.5,1.33,0.83c0.29,0.33,0.5,0.75,0.64,1.26c0.08,0.32,0.13,0.89,0.17,1.71l0.12,2.47
						c0.08,1.72,0.17,2.81,0.28,3.27c0.1,0.46,0.28,0.89,0.53,1.31h-1.94C260.47,312.96,260.32,312.51,260.24,311.99z
						 M259.89,307.85c-0.66,0.28-1.66,0.51-2.99,0.7c-0.76,0.11-1.29,0.23-1.6,0.37c-0.31,0.14-0.54,0.34-0.7,0.6
						c-0.16,0.26-0.23,0.56-0.21,0.88c0.02,0.49,0.23,0.91,0.62,1.24c0.39,0.33,0.95,0.49,1.67,0.49c0.71,0,1.34-0.16,1.88-0.47
						c0.54-0.31,0.93-0.74,1.16-1.28c0.18-0.42,0.25-1.04,0.21-1.85L259.89,307.85z"/>
					<path class="st10" d="M266.61,313.34h-1.72l-0.72-15.09h1.85l0.26,5.38c0.74-0.98,1.71-1.47,2.93-1.47
						c0.67,0,1.32,0.14,1.93,0.41c0.61,0.27,1.13,0.65,1.54,1.14c0.41,0.49,0.74,1.08,1,1.78c0.25,0.69,0.4,1.43,0.44,2.22
						c0.09,1.87-0.3,3.32-1.18,4.35c-0.88,1.02-1.96,1.53-3.26,1.53c-1.29,0-2.33-0.54-3.12-1.62L266.61,313.34z M266.32,307.79
						c0.06,1.31,0.29,2.26,0.67,2.84c0.63,0.95,1.44,1.43,2.44,1.43c0.81,0,1.49-0.35,2.05-1.06c0.56-0.7,0.8-1.75,0.74-3.14
						c-0.07-1.43-0.4-2.48-1-3.16c-0.6-0.68-1.3-1.02-2.1-1.02c-0.81,0-1.49,0.35-2.05,1.06
						C266.51,305.44,266.26,306.46,266.32,307.79z"/>
					<path class="st10" d="M276.59,313.34l-0.72-15.09h1.85l0.72,15.09H276.59z"/>
					<path class="st10" d="M288.63,309.82l1.93,0.24c-0.25,1.12-0.77,1.99-1.55,2.6c-0.79,0.62-1.82,0.93-3.09,0.93
						c-1.6,0-2.89-0.49-3.88-1.48c-0.98-0.99-1.52-2.37-1.6-4.14c-0.09-1.84,0.32-3.27,1.22-4.28c0.9-1.02,2.1-1.52,3.61-1.52
						c1.46,0,2.68,0.5,3.65,1.49c0.97,1,1.5,2.4,1.59,4.2c0,0.11,0.01,0.28,0.01,0.5h-8.15c0.13,1.2,0.51,2.12,1.15,2.76
						c0.64,0.64,1.42,0.96,2.33,0.96c0.68,0,1.25-0.18,1.71-0.54C288.03,311.17,288.38,310.6,288.63,309.82z M282.4,306.82h6.11
						c-0.13-0.92-0.39-1.61-0.8-2.07c-0.62-0.71-1.41-1.07-2.35-1.07c-0.85,0-1.55,0.29-2.11,0.85S282.42,305.87,282.4,306.82z"/>
				</g>
			</g>
			<path class="st8" d="M293.44,319.46h-18.78c-0.37,0-0.67-0.3-0.67-0.67c0-0.37,0.3-0.67,0.67-0.67h18.78
				c0.37,0,0.67,0.3,0.67,0.67C294.11,319.16,293.81,319.46,293.44,319.46z"/>
			<path class="st8" d="M266.88,319.46h-83.87c-0.37,0-0.67-0.3-0.67-0.67c0-0.37,0.3-0.67,0.67-0.67h83.87
				c0.37,0,0.67,0.3,0.67,0.67C267.55,319.16,267.25,319.46,266.88,319.46z"/>
			<g>
				<path class="st8" d="M214.28,219.19c-0.2-4.35-2.67-7.8-5.53-7.7c-2.86,0.1-5.01,3.72-4.82,8.07c0.2,4.35,2.67,7.8,5.53,7.7
					C212.32,227.15,214.48,223.54,214.28,219.19z"/>
				<path class="st8" d="M274.65,217.82c-0.2-4.35-2.67-7.8-5.53-7.7c-2.86,0.1-5.01,3.72-4.82,8.07c0.2,4.35,2.67,7.8,5.53,7.7
					C272.69,225.79,274.85,222.18,274.65,217.82z"/>
				<path class="st8" d="M229.35,237.03c15.83-5.65,28.06,0.99,28.63,1.3c0.62,0.35,0.84,1.12,0.49,1.74
					c-0.35,0.61-1.13,0.83-1.75,0.49c-0.14-0.08-14.39-7.76-31.41,1.02c-0.63,0.32-1.41,0.08-1.74-0.54
					c-0.33-0.63-0.09-1.4,0.54-1.72C225.9,238.39,227.64,237.64,229.35,237.03z"/>
				<path class="st8" d="M205.64,178.34c0.43,0.01,0.86,0.13,1.26,0.36c1.23,0.72,1.64,2.29,0.92,3.51
					c-7.19,12.15-19.04,12.75-19.54,12.77c-1.42,0.06-2.62-1.04-2.69-2.45c-0.07-1.41,1.02-2.59,2.43-2.65l0,0
					c0.39-0.02,9.62-0.59,15.36-10.28C203.86,178.76,204.74,178.32,205.64,178.34z"/>
				<path class="st8" d="M266.05,176.87c0.82-0.16,1.7,0.08,2.33,0.71c8.03,8.03,17.14,6.4,17.52,6.32
					c1.39-0.27,2.75,0.63,3.03,2.01c0.28,1.38-0.6,2.72-1.98,3c-0.5,0.09-12.15,2.32-22.21-7.74c-1-1-1-2.62,0-3.61
					C265.12,177.19,265.57,176.96,266.05,176.87z"/>
			</g>
			<path class="st11" d="M321.72,204.86l-7.3,0.69c-2.62,0.25-5.01-1.49-5.58-4.06L298.7,156.1c-0.61-2.74,1.05-5.47,3.77-6.19
				l19.59-5.14L321.72,204.86z"/>
			<path class="st11" d="M209.02,167.69c-5.09-13.9-10.18-36.13-4.8-56.71l-52.07,52.07C166.86,167.97,190.32,170.11,209.02,167.69z
				"/>
			<g>
				<path class="st4" d="M204.21,163.05c-5.71-16.86-3.38-39.78,0-52.07l-52.07,52.07C167.91,165.92,185.52,165.46,204.21,163.05z"
					/>
				<path class="st10" d="M175.96,165.92c-8.69,0-16.64-0.67-23.97-2c-0.33-0.06-0.59-0.29-0.69-0.61c-0.1-0.32-0.01-0.66,0.22-0.9
					l52.07-52.07c0.29-0.29,0.73-0.34,1.08-0.14c0.35,0.2,0.52,0.62,0.41,1.01c-3.15,11.44-5.75,34.61-0.02,51.54
					c0.09,0.25,0.05,0.53-0.09,0.76c-0.14,0.23-0.38,0.38-0.64,0.41C194.05,165.26,184.63,165.92,175.96,165.92z M153.99,162.46
					c13.83,2.29,29.9,2.24,49.03-0.16c-4.71-14.93-3.64-34.7-0.47-48.4L153.99,162.46z"/>
			</g>
		</g>
		<g>
			<path class="st10" d="M383.1,239.11c-0.66,0-1.27-0.44-1.44-1.12l-18.34-69.88c-0.21-0.8,0.27-1.61,1.07-1.82
				c0.8-0.21,1.61,0.27,1.82,1.07l18.34,69.88c0.21,0.8-0.27,1.61-1.07,1.82C383.36,239.1,383.23,239.11,383.1,239.11z"/>
			
				<rect x="416.35" y="136.8" transform="matrix(0.9673 -0.2538 0.2538 0.9673 -21.7715 110.3701)" class="st8" width="1" height="5.51"/>
			<path class="st8" d="M414.11,131.09l-3.85-14.68c-0.89-3.4-3.97-5.78-7.49-5.78c-0.66,0-1.33,0.09-1.97,0.25l-10.07,2.64
				l-0.25-0.97l10.07-2.64c0.72-0.19,1.47-0.29,2.22-0.29c3.97,0,7.44,2.68,8.45,6.52l3.85,14.68L414.11,131.09z"/>
			<path class="st8" d="M416.17,169.44l-95.34,25.02c-2.8,0.73-5.67-0.94-6.4-3.74l-12.07-45.99c-0.73-2.8,0.94-5.67,3.74-6.4
				l95.34-25.02c2.8-0.73,5.67,0.94,6.4,3.74l12.07,45.99C420.64,165.84,418.97,168.7,416.17,169.44z"/>
			<path class="st8" d="M403.13,191.4l-60.15,15.78c-2.8,0.73-5.67-0.94-6.4-3.74l-3.77-14.37c-0.73-2.8,0.94-5.67,3.74-6.4
				l60.15-15.78c2.8-0.73,5.67,0.94,6.4,3.74l3.77,14.37C407.6,187.8,405.93,190.67,403.13,191.4z"/>
			<g>
				<g>
					<path class="st4" d="M342.15,187.94l8.23-2.14l0.55,2.12l-5.15,1.34l0.41,1.58l4.78-1.24l0.53,2.03l-4.78,1.24l0.51,1.96
						l5.3-1.38l0.59,2.25l-8.38,2.18L342.15,187.94z"/>
					<path class="st4" d="M354.81,195.26l-2.58-9.94l5.12-1.33c0.95-0.25,1.7-0.35,2.24-0.32c0.54,0.03,1.03,0.23,1.45,0.59
						c0.42,0.36,0.71,0.86,0.88,1.49c0.14,0.55,0.15,1.06,0.02,1.52c-0.13,0.46-0.37,0.87-0.72,1.23c-0.22,0.23-0.55,0.45-0.98,0.67
						c0.4,0.03,0.7,0.08,0.89,0.16c0.13,0.05,0.34,0.18,0.63,0.39c0.28,0.21,0.48,0.38,0.59,0.51l2.23,2.49l-3.47,0.9l-2.43-2.61
						c-0.31-0.34-0.56-0.55-0.76-0.62c-0.26-0.1-0.53-0.11-0.81-0.04l-0.27,0.07l1.05,4.03L354.81,195.26z M356.35,188.54l1.3-0.34
						c0.14-0.04,0.4-0.15,0.78-0.35c0.19-0.1,0.33-0.24,0.42-0.44c0.09-0.2,0.1-0.41,0.04-0.63c-0.08-0.32-0.25-0.54-0.5-0.66
						c-0.25-0.12-0.65-0.1-1.21,0.04l-1.35,0.35L356.35,188.54z"/>
					<path class="st4" d="M365.6,192.45l-2.58-9.93l5.12-1.33c0.95-0.25,1.7-0.36,2.24-0.32c0.54,0.03,1.03,0.23,1.45,0.59
						c0.42,0.36,0.71,0.86,0.88,1.49c0.14,0.55,0.15,1.06,0.02,1.52c-0.13,0.46-0.37,0.87-0.72,1.22c-0.22,0.23-0.55,0.45-0.98,0.67
						c0.4,0.03,0.7,0.08,0.89,0.16c0.13,0.05,0.34,0.18,0.63,0.39c0.28,0.21,0.48,0.38,0.59,0.51l2.23,2.49l-3.47,0.9l-2.43-2.61
						c-0.31-0.34-0.56-0.55-0.76-0.62c-0.26-0.1-0.53-0.11-0.81-0.04l-0.27,0.07l1.05,4.03L365.6,192.45z M367.15,185.74l1.3-0.34
						c0.14-0.04,0.4-0.15,0.78-0.35c0.19-0.09,0.33-0.24,0.42-0.44c0.09-0.2,0.1-0.41,0.04-0.63c-0.08-0.32-0.25-0.54-0.5-0.66
						c-0.25-0.12-0.65-0.1-1.21,0.04l-1.35,0.35L367.15,185.74z"/>
					<path class="st4" d="M374.45,184.85c-0.42-1.62-0.3-3,0.37-4.14c0.67-1.14,1.81-1.92,3.42-2.34c1.65-0.43,3.04-0.32,4.17,0.34
						c1.13,0.65,1.9,1.78,2.31,3.38c0.3,1.16,0.35,2.17,0.16,3.01c-0.2,0.85-0.61,1.57-1.24,2.18c-0.63,0.61-1.5,1.05-2.6,1.34
						c-1.12,0.29-2.09,0.35-2.92,0.19c-0.83-0.17-1.57-0.57-2.23-1.23C375.23,186.92,374.75,186.01,374.45,184.85z M377.52,184.07
						c0.26,1,0.63,1.68,1.12,2.02c0.49,0.34,1.05,0.43,1.69,0.26c0.66-0.17,1.11-0.52,1.36-1.04c0.25-0.52,0.23-1.34-0.06-2.45
						c-0.24-0.94-0.61-1.57-1.1-1.9c-0.49-0.33-1.06-0.42-1.7-0.25c-0.62,0.16-1.06,0.51-1.32,1.05
						C377.26,182.28,377.26,183.06,377.52,184.07z"/>
					<path class="st4" d="M387.73,186.7l-2.58-9.94l5.12-1.33c0.95-0.25,1.69-0.35,2.24-0.32c0.54,0.03,1.03,0.23,1.45,0.59
						c0.42,0.36,0.71,0.86,0.88,1.49c0.14,0.55,0.15,1.06,0.02,1.52c-0.13,0.46-0.37,0.87-0.72,1.23c-0.22,0.23-0.55,0.45-0.98,0.67
						c0.4,0.03,0.7,0.08,0.89,0.16c0.13,0.05,0.34,0.18,0.63,0.39c0.28,0.21,0.48,0.38,0.59,0.51l2.23,2.49l-3.47,0.9l-2.43-2.61
						c-0.31-0.34-0.56-0.55-0.75-0.62c-0.26-0.1-0.53-0.11-0.81-0.04l-0.27,0.07l1.05,4.03L387.73,186.7z M389.27,179.98l1.29-0.34
						c0.14-0.04,0.4-0.15,0.78-0.35c0.19-0.1,0.33-0.24,0.42-0.44c0.08-0.2,0.1-0.41,0.04-0.63c-0.08-0.32-0.25-0.54-0.5-0.66
						c-0.25-0.12-0.65-0.1-1.21,0.04l-1.35,0.35L389.27,179.98z"/>
				</g>
			</g>
			<g>
				<g>
					<path class="st4" d="M318.74,148.24l20.7-5.43l1.83,6.96l-14.02,3.68l0.49,4.91c0.85-0.71,1.72-1.31,2.61-1.78
						c0.89-0.48,1.8-0.84,2.73-1.08c3.14-0.82,5.94-0.54,8.39,0.84c2.45,1.38,4.06,3.52,4.81,6.4c0.53,2.03,0.54,4.11,0.02,6.24
						s-1.57,3.93-3.16,5.4c-1.59,1.47-3.83,2.58-6.71,3.34c-2.07,0.54-3.89,0.81-5.47,0.81c-1.58,0-2.99-0.26-4.23-0.77
						s-2.31-1.17-3.21-1.98c-0.9-0.82-1.76-1.9-2.57-3.26l8.57-3.28c0.58,1.36,1.37,2.3,2.34,2.83c0.98,0.53,2.01,0.65,3.09,0.37
						c1.21-0.32,2.09-1.04,2.65-2.17s0.59-2.61,0.11-4.43c-0.49-1.87-1.25-3.13-2.28-3.8s-2.2-0.82-3.53-0.47
						c-0.84,0.22-1.6,0.64-2.28,1.26c-0.51,0.45-1.01,1.16-1.5,2.13l-7.71,0.88L318.74,148.24z"/>
					<path class="st4" d="M348.53,157.05c-1.57-5.97-1.59-10.42-0.06-13.37c1.52-2.95,4.48-5,8.88-6.15
						c2.11-0.55,3.91-0.75,5.41-0.58c1.49,0.17,2.78,0.55,3.85,1.16c1.08,0.61,1.98,1.31,2.71,2.1c0.73,0.79,1.41,1.76,2.03,2.91
						c1.2,2.19,2.13,4.55,2.8,7.09c1.49,5.69,1.62,10.11,0.39,13.26c-1.23,3.15-4.21,5.34-8.91,6.57c-2.64,0.69-4.88,0.83-6.73,0.42
						c-1.85-0.42-3.51-1.3-4.97-2.65c-1.06-0.96-2.06-2.38-3.01-4.28C349.96,161.64,349.17,159.48,348.53,157.05z M357.18,154.8
						c1.05,4,2.12,6.63,3.21,7.91c1.09,1.28,2.31,1.74,3.65,1.39c0.88-0.23,1.57-0.74,2.06-1.54c0.49-0.79,0.71-1.9,0.66-3.32
						c-0.05-1.42-0.44-3.55-1.19-6.39c-1.09-4.17-2.18-6.87-3.26-8.12c-1.08-1.25-2.33-1.69-3.74-1.32
						c-1.44,0.38-2.29,1.38-2.55,3.01C355.76,148.06,356.14,150.85,357.18,154.8z"/>
					<path class="st4" d="M384.52,140.67l-8.63,0.69c0-2.81,0.78-5.16,2.37-7.07c1.58-1.91,4.16-3.33,7.72-4.27
						c4.1-1.07,7.26-1.09,9.48-0.04c2.23,1.05,3.64,2.73,4.25,5.04c0.36,1.36,0.31,2.68-0.15,3.97c-0.45,1.29-1.32,2.55-2.6,3.77
						c1.29-0.02,2.31,0.09,3.06,0.32c1.21,0.37,2.24,1,3.1,1.9c0.85,0.9,1.47,2.07,1.85,3.53c0.48,1.83,0.46,3.7-0.06,5.63
						c-0.52,1.93-1.55,3.58-3.11,4.96c-1.56,1.38-3.8,2.45-6.73,3.22c-2.85,0.75-5.19,1-7.02,0.77c-1.82-0.24-3.44-0.86-4.84-1.88
						c-1.4-1.01-2.65-2.42-3.73-4.23l8.41-3.44c0.8,1.67,1.65,2.74,2.55,3.23c0.9,0.49,1.9,0.59,3.02,0.29
						c1.17-0.31,2.03-0.99,2.58-2.05c0.55-1.06,0.64-2.3,0.27-3.73c-0.38-1.46-1.05-2.48-2.01-3.09s-2.08-0.74-3.36-0.4
						c-0.68,0.18-1.58,0.6-2.69,1.26l-1.19-6.35c0.5-0.06,0.89-0.12,1.16-0.19c1.14-0.3,2-0.91,2.57-1.84
						c0.57-0.93,0.73-1.89,0.47-2.89c-0.25-0.96-0.74-1.64-1.46-2.07c-0.72-0.42-1.58-0.5-2.58-0.24c-1.03,0.27-1.78,0.8-2.26,1.59
						C384.49,137.86,384.34,139.06,384.52,140.67z"/>
				</g>
			</g>
		</g>
	</g>
</g>
</svg>
