<?xml version="1.0" encoding="utf-8"?>
<!-- Generator: Adobe Illustrator 25.2.1, SVG Export Plug-In . SVG Version: 6.00 Build 0)  -->
<svg version="1.1" xmlns="http://www.w3.org/2000/svg" xmlns:xlink="http://www.w3.org/1999/xlink" x="0px" y="0px"
	 viewBox="0 0 500 451" style="enable-background:new 0 0 500 451;" xml:space="preserve">
<style type="text/css">
	.st0{fill:#F0F0F0;}
	.st1{opacity:0.1;}
	.st2{fill:#37474F;}
	.st3{fill:#FFFFFF;}
	.st4{fill:#455A64;}
	.st5{fill:#27DEBF;}
	.st6{opacity:0.15;}
	.st7{fill:#FAFAFA;}
	.st8{fill:#F5F5F5;}
	.st9{fill:#EBEBEB;}
	.st10{fill:#E0E0E0;}
	.st11{opacity:0.3;}
	.st12{opacity:0.2;}
	.st13{opacity:0.3;fill:#27DEBF;}
	.st14{fill:none;stroke:#E0E0E0;stroke-width:0.3844;stroke-miterlimit:10;}
	.st15{fill:none;stroke:#E0E0E0;stroke-width:0.3856;stroke-miterlimit:10;}
	.st16{fill:#263238;}
	.st17{opacity:0.15;fill:#27DEBF;}
	.st18{opacity:0.3;fill:#FFFFFF;}
	.st19{opacity:0.5;}
	.st20{fill:#FFA8A7;}
	.st21{fill:#FFC4C3;}
	.st22{fill:#F28F8F;}
	.st23{opacity:0.4;fill:#FFFFFF;}
</style>
<g id="Floor">
	<g id="Floor_1_">
		<ellipse id="Floor_8_" class="st0" cx="248.37" cy="309.15" rx="228.54" ry="131.95"/>
	</g>
</g>
<g id="Shadows">
	<g id="Shadow_8_" class="st1">
		<polygon points="254.05,408.26 132.19,337.9 314.98,232.37 436.84,302.73 		"/>
		<ellipse cx="406.18" cy="345.78" rx="46.68" ry="26.95"/>
	</g>
	<polygon id="Shadow_6_" class="st1" points="75.62,339.76 37.09,317.52 287.54,172.92 326.07,195.16 	"/>
</g>
<g id="Plants">
	<g id="Plants_13_">
		<g id="XMLID_1066_">
			<g id="XMLID_1071_">
				<path id="XMLID_1072_" class="st2" d="M62.58,297.72c0,0-0.42-13.91-6.38-25.17c-5.96-11.26-14.82-18.72-23.55-20.15
					c-8.73-1.43-16.5,6.06-7.56,12.4c8.94,6.34,25.17,13.39,31.12,34.8L62.58,297.72z"/>
			</g>
			<g id="XMLID_1067_">
				<path id="XMLID_1068_" class="st3" d="M60.3,293.93c0.03,0,0.06-0.01,0.1-0.02c0.25-0.08,0.39-0.34,0.31-0.59
					c-7.37-23.61-24.23-34.62-32.11-37.14c-0.25-0.08-0.51,0.06-0.59,0.31c-0.08,0.25,0.06,0.51,0.31,0.59
					c7.72,2.47,24.25,13.28,31.5,36.52C59.87,293.82,60.08,293.95,60.3,293.93z"/>
			</g>
		</g>
		<g id="XMLID_305_">
			<g id="XMLID_531_">
				<g id="XMLID_1064_">
					<path id="XMLID_1065_" class="st4" d="M17.26,286.06c0.59,1.76,2.35,2.81,4.01,3.67c1.64,0.85,3.44,1.77,4.22,3.46
						c1.57,3.4-1.93,7.65-0.22,10.99c0.72,1.4,2.22,2.24,3.73,2.66c1.26,0.36,2.56,0.48,3.85,0.71c0.63,0.05,1.25,0.06,1.86,0.03
						c1.8-0.09,3.74,0.01,5.29,1.07c2.43,1.68,2.91,5,4.24,7.64c1.59,3.17,4.71,5.44,8.13,6.23c2.87,0.66,7.3,0.42,8.17-0.8
						c0.66-0.92-0.76-4.04-0.69-5.17c0.18-2.91,0.08-5.84-0.29-8.74c-0.18-1.41-0.33-2.56-0.19-3.98c0.15-1.49,0.29-2.97,0.42-4.46
						c0.14-1.61,0.64-2.84,0.21-4.51c-0.41-1.6-1.26-3.07-2.12-4.46c-0.85-1.38-1.71-2.76-2.59-4.13c-1.03-1.61-2.09-3.23-3.49-4.54
						c-2.42-2.27-5.82-3.48-9.13-3.24c-2.75,0.2-5.54,1.47-8.31,1.08c-2.7-0.38-5.29-1.36-8.08-1.42c-2.92-0.07-5.99,0.88-7.87,3.21
						C17.35,282.66,16.72,284.46,17.26,286.06z"/>
				</g>
			</g>
			<g id="XMLID_509_">
				<path id="XMLID_510_" class="st3" d="M58.82,314.27c0.01,0,0.02,0,0.03,0c0.23-0.04,0.38-0.25,0.34-0.48
					c-4.36-25.92-30.66-32.08-36.94-32.22c-0.23,0-0.42,0.18-0.43,0.41c-0.01,0.23,0.18,0.42,0.41,0.43
					c6.14,0.13,31.86,6.16,36.13,31.52C58.41,314.14,58.61,314.29,58.82,314.27z"/>
			</g>
			<g id="XMLID_456_">
				<path id="XMLID_507_" class="st3" d="M30.42,298.68c0.08-0.01,0.16-0.04,0.23-0.1c0.07-0.06,7.5-6.12,18.61-3.4
					c0.22,0.05,0.45-0.08,0.51-0.31c0.05-0.22-0.08-0.45-0.31-0.51c-11.54-2.82-19.27,3.51-19.35,3.57
					c-0.18,0.15-0.2,0.41-0.05,0.59C30.16,298.64,30.29,298.69,30.42,298.68z"/>
			</g>
		</g>
	</g>
</g>
<g id="Book_1_">
	<g id="Book">
		<g id="XMLID_529_">
			<g>
				<rect x="161.83" y="81.71" class="st5" width="3.02" height="3.99"/>
				<rect x="161.83" y="81.71" class="st6" width="3.02" height="3.99"/>
			</g>
			<g>
				<polygon id="XMLID_551_" class="st5" points="59.83,148.27 302.2,8.33 302.2,187.14 59.83,327.07 				"/>
				<polygon id="XMLID_548_" class="st6" points="59.83,148.27 302.2,8.33 302.2,187.14 59.83,327.07 				"/>
			</g>
			<g id="XMLID_538_">
				<path id="XMLID_547_" class="st3" d="M181.02,82.01l3.73,2.2c4.6,2.71,22.57,2.05,34.46-4.81l96.27-55.6l-16.82-9.71
					L181.02,82.01z"/>
				<path id="XMLID_545_" class="st7" d="M315.49,23.8l-96.28,55.59c-11.88,6.88-29.87,7.52-34.46,4.82l-3.73-2.2v171.03l0,0
					l3.73,2.2c4.6,2.71,22.57,2.05,34.46-4.81l96.23-55.57l0.05-0.02L315.49,23.8z"/>
				<path id="XMLID_542_" class="st8" d="M315.49,23.8l-96.28,55.59c-11.88,6.88-29.87,7.52-34.46,4.82l-3.73-2.2v171.03l0,0
					l3.73,2.2c4.6,2.71,22.57,2.05,34.46-4.81l96.28-55.59L315.49,23.8z"/>
				<path class="st9" d="M218.18,79.96c-11.87,6.34-28.97,6.88-33.44,4.26l-3.73-2.2v171.03l0,0l3.73,2.2
					c4.47,2.63,21.57,2.08,33.44-4.25V79.96z"/>
				<path class="st10" d="M198.57,85.46c-6.27,0.58-11.61,0.06-13.82-1.24l-3.73-2.2v171.03l0,0l3.73,2.2
					c2.22,1.31,7.56,1.83,13.83,1.25V85.46z"/>
			</g>
			<g>
				<path id="XMLID_528_" class="st3" d="M184.48,84.05c4.6,2.71,3.58,13.37-8.29,20.28l-95.88,55.78l-17.28-9.98l117.99-68.12
					C181.02,82.01,179.88,81.34,184.48,84.05z"/>
				<polygon id="XMLID_527_" class="st10" points="63.03,150.13 80.31,160.11 80.31,331.14 63.03,321.16 				"/>
				<path id="XMLID_526_" class="st8" d="M176.19,104.32l-4.29,2.5l-91.59,53.29l0,151.07l0,19.96l95.88-55.79
					c8.7-5.06,10.79-9.48,10.83-13.43l0,0l0-173.37C186.96,94.77,183.25,99.93,176.19,104.32z"/>
			</g>
			<g>
				<polygon id="XMLID_534_" class="st5" points="56.35,146.22 59.83,148.27 59.83,327.07 56.35,325.06 				"/>
				<polygon id="XMLID_532_" class="st11" points="56.35,146.22 59.83,148.27 59.83,327.07 56.35,325.06 				"/>
			</g>
			<polygon id="XMLID_530_" class="st5" points="56.35,146.22 298.73,6.29 302.2,8.33 59.83,148.27 			"/>
			<path class="st5" d="M189.82,67.56c-1.36-0.79-3.57-0.79-4.93,0l-22.04,12.73c-1.36,0.79-1.36,2.06,0,2.85l4.9,2.83l26.97-15.57
				L189.82,67.56z"/>
		</g>
		<g id="XMLID_458_" class="st11">
			<path id="XMLID_1154_" d="M92.01,172.27l79.89-46.15l2.24-1.31c1.13-0.66,2.05-2.01,2.05-3.02s-0.92-1.29-2.05-0.63l-2.24,1.31
				l-79.89,46.15c-1.13,0.66-2.05,2-2.05,3.01C89.96,172.64,90.88,172.92,92.01,172.27z"/>
			<path id="XMLID_1151_" d="M92.01,181.01l79.89-46.15l2.24-1.31c1.13-0.66,2.05-2.01,2.05-3.02c0-1.01-0.92-1.29-2.05-0.63
				l-2.24,1.31l-79.89,46.15c-1.13,0.66-2.05,2-2.05,3.01C89.96,181.38,90.88,181.67,92.01,181.01z"/>
			<path id="XMLID_1148_" d="M92.01,189.75l79.89-46.15l2.24-1.31c1.13-0.66,2.05-2.01,2.05-3.02s-0.92-1.29-2.05-0.63l-2.24,1.31
				l-79.89,46.15c-1.13,0.66-2.05,2-2.05,3.01C89.96,190.12,90.88,190.41,92.01,189.75z"/>
			<path id="XMLID_1145_" d="M92.01,198.49l79.89-46.15l2.24-1.31c1.13-0.66,2.05-2.01,2.05-3.02c0-1.01-0.92-1.29-2.05-0.63
				l-2.24,1.31l-79.89,46.15c-1.13,0.66-2.05,2-2.05,3.01S90.88,199.15,92.01,198.49z"/>
			<path id="XMLID_523_" d="M92.01,207.23l79.89-46.15l2.24-1.31c1.13-0.66,2.05-2.01,2.05-3.02c0-1.01-0.92-1.29-2.05-0.63
				l-2.24,1.31l-79.89,46.15c-1.13,0.66-2.05,2-2.05,3.01C89.96,207.6,90.88,207.89,92.01,207.23z"/>
			<path id="XMLID_1139_" d="M92.01,215.97l79.89-46.15l2.24-1.31c1.13-0.66,2.05-2.01,2.05-3.02c0-1.01-0.92-1.29-2.05-0.63
				l-2.24,1.31l-79.89,46.15c-1.13,0.66-2.05,2-2.05,3.01C89.96,216.34,90.88,216.63,92.01,215.97z"/>
			<path id="XMLID_522_" d="M92.01,224.71l79.89-46.15l2.24-1.31c1.13-0.66,2.05-2.01,2.05-3.02c0-1.01-0.92-1.29-2.05-0.63
				l-2.24,1.31l-79.89,46.15c-1.13,0.66-2.05,2-2.05,3.01C89.96,225.08,90.88,225.37,92.01,224.71z"/>
			<path id="XMLID_518_" d="M92.01,233.45l79.89-46.15l2.24-1.31c1.13-0.66,2.05-2.01,2.05-3.02c0-1.01-0.92-1.29-2.05-0.63
				l-2.24,1.31l-79.89,46.15c-1.13,0.66-2.05,2-2.05,3.01S90.88,234.11,92.01,233.45z"/>
			<path id="XMLID_1130_" d="M92.01,242.19l79.89-46.15l2.24-1.31c1.13-0.66,2.05-2.01,2.05-3.02c0-1.01-0.92-1.29-2.05-0.63
				l-2.24,1.31l-79.89,46.15c-1.13,0.66-2.05,2-2.05,3.01C89.96,242.56,90.88,242.85,92.01,242.19z"/>
			<path id="XMLID_517_" d="M92.01,250.93l79.89-46.15l2.24-1.31c1.13-0.66,2.05-2.01,2.05-3.02c0-1.01-0.92-1.29-2.05-0.63
				l-2.24,1.31l-79.89,46.15c-1.13,0.66-2.05,2-2.05,3.01S90.88,251.59,92.01,250.93z"/>
			<path id="XMLID_516_" d="M92.01,259.67l79.89-46.15l2.24-1.31c1.13-0.66,2.05-2.01,2.05-3.02c0-1.01-0.92-1.29-2.05-0.63
				l-2.24,1.31l-79.89,46.15c-1.13,0.66-2.05,2-2.05,3.01C89.96,260.04,90.88,260.33,92.01,259.67z"/>
			<path id="XMLID_1091_" d="M92.01,268.41l79.89-46.15l2.24-1.31c1.13-0.66,2.05-2.01,2.05-3.02c0-1.01-0.92-1.29-2.05-0.63
				l-2.24,1.31l-79.89,46.15c-1.13,0.66-2.05,2-2.05,3.01C89.96,268.78,90.88,269.07,92.01,268.41z"/>
			<path id="XMLID_1085_" d="M92.01,277.15L171.9,231l2.24-1.31c1.13-0.66,2.05-2.01,2.05-3.02c0-1.01-0.92-1.29-2.05-0.63
				l-2.24,1.31l-79.89,46.15c-1.13,0.66-2.05,2-2.05,3.01S90.88,277.81,92.01,277.15z"/>
			<path id="XMLID_514_" d="M92.01,285.89l79.89-46.15l2.24-1.31c1.13-0.66,2.05-2.01,2.05-3.02c0-1.01-0.92-1.29-2.05-0.63
				l-2.24,1.31l-79.89,46.15c-1.13,0.66-2.05,2-2.05,3.01S90.88,286.55,92.01,285.89z"/>
			<path id="XMLID_513_" d="M92.01,294.63l79.89-46.15l2.24-1.31c1.13-0.66,2.05-2.01,2.05-3.02c0-1.01-0.92-1.29-2.05-0.63
				l-2.24,1.31l-79.89,46.15c-1.13,0.66-2.05,2-2.05,3.01C89.96,295,90.88,295.29,92.01,294.63z"/>
			<path id="XMLID_512_" d="M92.01,303.37l79.89-46.15l2.24-1.31c1.13-0.66,2.05-2.01,2.05-3.02c0-1.01-0.92-1.29-2.05-0.63
				l-2.24,1.31l-79.89,46.15c-1.13,0.66-2.05,2-2.05,3.01C89.96,303.74,90.88,304.03,92.01,303.37z"/>
			<path id="XMLID_511_" d="M92.01,312.11l79.89-46.15l2.24-1.31c1.13-0.66,2.05-2.01,2.05-3.02s-0.92-1.29-2.05-0.63l-2.24,1.31
				l-79.89,46.15c-1.13,0.66-2.05,2-2.05,3.01C89.96,312.48,90.88,312.77,92.01,312.11z"/>
		</g>
		<g id="XMLID_301_" class="st11">
			<g>
				<path id="XMLID_137_" d="M206.65,100.16c-1.28,0.3-2.32,1.29-2.32,2.27c0,0.98,1.04,1.58,2.32,1.29
					c4.39-1.02,8.78-2.58,12.56-4.76l84.14-48.69c1.13-0.66,2.05-1.98,2.05-2.97c0-0.98-0.92-1.25-2.05-0.59l-84.14,48.69
					C215.43,97.58,211.03,99.14,206.65,100.16z"/>
				<path id="XMLID_136_" d="M206.65,108.9c-1.28,0.3-2.32,1.29-2.32,2.27c0,0.98,1.04,1.58,2.32,1.29
					c4.39-1.02,8.78-2.58,12.56-4.76L303.35,59c1.13-0.66,2.05-1.98,2.05-2.97c0-0.98-0.92-1.25-2.05-0.59l-84.14,48.69
					C215.43,106.33,211.03,107.88,206.65,108.9z"/>
				<path id="XMLID_135_" d="M206.65,117.65c-1.28,0.3-2.32,1.29-2.32,2.27c0,0.98,1.04,1.58,2.32,1.29
					c4.39-1.02,8.78-2.58,12.56-4.76l84.14-48.69c1.13-0.66,2.05-1.98,2.05-2.97c0-0.98-0.92-1.25-2.05-0.59l-84.14,48.69
					C215.43,115.07,211.03,116.63,206.65,117.65z"/>
				<path id="XMLID_134_" d="M206.65,126.39c-1.28,0.3-2.32,1.29-2.32,2.27c0,0.98,1.04,1.58,2.32,1.29
					c4.39-1.02,8.78-2.58,12.56-4.76l84.14-48.69c1.13-0.66,2.05-1.98,2.05-2.97c0-0.98-0.92-1.25-2.05-0.59l-84.14,48.69
					C215.43,123.82,211.03,125.37,206.65,126.39z"/>
				<path id="XMLID_133_" d="M206.65,135.14c-1.28,0.3-2.32,1.29-2.32,2.27c0,0.98,1.04,1.58,2.32,1.29
					c4.39-1.02,8.78-2.58,12.56-4.76l84.14-48.69c1.13-0.66,2.05-1.98,2.05-2.97c0-0.98-0.92-1.25-2.05-0.59l-84.14,48.69
					C215.43,132.56,211.03,134.12,206.65,135.14z"/>
				<path id="XMLID_132_" d="M206.65,143.88c-1.28,0.3-2.32,1.29-2.32,2.27c0,0.98,1.04,1.58,2.32,1.29
					c4.39-1.02,8.78-2.58,12.56-4.76l84.14-48.69c1.13-0.66,2.05-1.98,2.05-2.97c0-0.98-0.92-1.25-2.05-0.59l-84.14,48.69
					C215.43,141.31,211.03,142.86,206.65,143.88z"/>
				<path id="XMLID_131_" d="M206.65,152.63c-1.28,0.3-2.32,1.29-2.32,2.27c0,0.98,1.04,1.58,2.32,1.29
					c4.39-1.02,8.78-2.58,12.56-4.76l84.14-48.69c1.13-0.66,2.05-1.98,2.05-2.97c0-0.98-0.92-1.25-2.05-0.59l-84.14,48.69
					C215.43,150.05,211.03,151.61,206.65,152.63z"/>
				<path id="XMLID_130_" d="M206.65,161.37c-1.28,0.3-2.32,1.29-2.32,2.27c0,0.98,1.04,1.58,2.32,1.29
					c4.39-1.02,8.78-2.58,12.56-4.76l84.14-48.69c1.13-0.66,2.05-1.98,2.05-2.97c0-0.98-0.92-1.25-2.05-0.59l-84.14,48.69
					C215.43,158.8,211.03,160.35,206.65,161.37z"/>
				<path id="XMLID_129_" d="M206.65,170.12c-1.28,0.3-2.32,1.29-2.32,2.27c0,0.98,1.04,1.58,2.32,1.29
					c4.39-1.02,8.78-2.58,12.56-4.76l84.14-48.69c1.13-0.66,2.05-1.98,2.05-2.97c0-0.98-0.92-1.25-2.05-0.59l-84.14,48.69
					C215.43,167.54,211.03,169.1,206.65,170.12z"/>
				<path id="XMLID_128_" d="M206.65,178.86c-1.28,0.3-2.32,1.29-2.32,2.27c0,0.98,1.04,1.58,2.32,1.29
					c4.39-1.02,8.78-2.58,12.56-4.76l84.14-48.69c1.13-0.66,2.05-1.98,2.05-2.97c0-0.98-0.92-1.25-2.05-0.59l-84.14,48.69
					C215.43,176.29,211.03,177.84,206.65,178.86z"/>
				<path id="XMLID_127_" d="M206.65,187.61c-1.28,0.3-2.32,1.29-2.32,2.27c0,0.98,1.04,1.58,2.32,1.29
					c4.39-1.02,8.78-2.58,12.56-4.76l84.14-48.69c1.13-0.66,2.05-1.98,2.05-2.97c0-0.98-0.92-1.25-2.05-0.59l-84.14,48.69
					C215.43,185.03,211.03,186.59,206.65,187.61z"/>
				<path id="XMLID_126_" d="M206.65,196.35c-1.28,0.3-2.32,1.29-2.32,2.27c0,0.98,1.04,1.58,2.32,1.29
					c4.39-1.02,8.78-2.58,12.56-4.76l84.14-48.69c1.13-0.66,2.05-1.98,2.05-2.97c0-0.98-0.92-1.25-2.05-0.59l-84.14,48.69
					C215.43,193.78,211.03,195.33,206.65,196.35z"/>
				<path id="XMLID_125_" d="M206.65,205.1c-1.28,0.3-2.32,1.29-2.32,2.27c0,0.98,1.04,1.58,2.32,1.29
					c4.39-1.02,8.78-2.58,12.56-4.76l84.14-48.69c1.13-0.66,2.05-1.98,2.05-2.97c0-0.98-0.92-1.25-2.05-0.59l-84.14,48.69
					C215.43,202.52,211.03,204.08,206.65,205.1z"/>
				<path id="XMLID_124_" d="M206.65,213.84c-1.28,0.3-2.32,1.29-2.32,2.27c0,0.98,1.04,1.58,2.32,1.29
					c4.39-1.02,8.78-2.58,12.56-4.76l84.14-48.69c1.13-0.66,2.05-1.98,2.05-2.97c0-0.98-0.92-1.25-2.05-0.59l-84.14,48.69
					C215.43,211.27,211.03,212.82,206.65,213.84z"/>
				<path id="XMLID_123_" d="M206.65,222.59c-1.28,0.3-2.32,1.29-2.32,2.27c0,0.98,1.04,1.58,2.32,1.29
					c4.39-1.02,8.78-2.58,12.56-4.76l84.14-48.69c1.13-0.66,2.05-1.98,2.05-2.97c0-0.98-0.92-1.25-2.05-0.59l-84.14,48.69
					C215.43,220.01,211.03,221.57,206.65,222.59z"/>
				<path id="XMLID_122_" d="M206.65,231.33c-1.28,0.3-2.32,1.29-2.32,2.27c0,0.98,1.04,1.58,2.32,1.29
					c4.39-1.02,8.78-2.58,12.56-4.76l84.14-48.69c1.13-0.66,2.05-1.98,2.05-2.97c0-0.98-0.92-1.25-2.05-0.59l-84.14,48.69
					C215.43,228.76,211.03,230.31,206.65,231.33z"/>
				<path id="XMLID_121_" d="M206.65,240.08c-1.28,0.3-2.32,1.29-2.32,2.27c0,0.98,1.04,1.58,2.32,1.29
					c4.39-1.02,8.78-2.58,12.56-4.76l84.14-48.69c1.13-0.66,2.05-1.98,2.05-2.97c0-0.98-0.92-1.25-2.05-0.59l-84.14,48.69
					C215.43,237.5,211.03,239.06,206.65,240.08z"/>
			</g>
		</g>
		<g>
			<polygon id="XMLID_452_" class="st12" points="76.5,158.02 90.3,149.02 75.3,157.21 75.3,174.15 			"/>
			<polygon id="XMLID_443_" class="st12" points="67.91,152.93 94.84,137.38 69.15,153.67 67.91,187.91 			"/>
		</g>
		<g>
			<polygon id="XMLID_441_" class="st12" points="76.5,328.94 75.99,302.49 74.68,327.89 			"/>
			<polygon id="XMLID_432_" class="st12" points="69.76,325.01 68.78,285.61 68.15,324.12 			"/>
		</g>
		<g>
			<polygon id="XMLID_292_" class="st12" points="290.69,32.81 309.99,20.65 311.43,21.47 			"/>
			<polygon id="XMLID_290_" class="st12" points="304.86,17.67 271.74,37.41 305.93,18.28 			"/>
		</g>
		<g>
			<polygon class="st13" points="87.18,248.55 87.18,255.23 179.65,201.84 179.65,195.16 			"/>
			<polygon class="st13" points="87.18,257.16 87.18,263.84 179.65,210.45 179.65,203.77 			"/>
			<polygon class="st13" points="87.18,266.22 87.18,272.89 179.65,219.5 179.65,212.83 			"/>
			<polygon class="st13" points="87.18,274.96 87.18,281.63 138.11,251.89 138.11,245.22 			"/>
		</g>
		<g>
			<polygon class="st13" points="233.6,164.02 306.8,121.75 306.8,128.43 233.59,171.26 			"/>
			<path class="st13" d="M218.18,181.82l88.62-51.12v6.67l-88.62,51.68c-4.48,2.75-9.88,4.04-15.66,4.76v-7.18
				C207.62,186.03,212.78,184.92,218.18,181.82z"/>
			<path class="st13" d="M218.18,190.25l88.62-51.12v6.67l-88.62,51.68c-4.48,2.75-9.88,4.04-15.66,4.76v-7.18
				C207.62,194.46,212.78,193.36,218.18,190.25z"/>
			<path class="st13" d="M218.18,198.68l88.62-51.12v6.67l-88.62,51.68c-4.48,2.75-9.88,4.04-15.66,4.76v-7.18
				C207.62,202.89,212.78,201.79,218.18,198.68z"/>
		</g>
		<g>
			<polygon class="st13" points="87.18,169.96 87.18,176.63 179.65,123.24 179.65,116.57 			"/>
			<polygon class="st13" points="87.18,178.57 87.18,185.24 179.65,131.85 179.65,125.18 			"/>
		</g>
	</g>
</g>
<g id="Note">
	<g id="Note_1_">
		<polygon id="XMLID_351_" class="st1" points="261.58,79.04 261.58,144.07 315.45,112.97 315.45,47.94 		"/>
		<g id="XMLID_287_">
			<g id="XMLID_307_">
				<path id="XMLID_350_" class="st4" d="M328.91,109.35c0,0-2.63,4.45-12.03,9.88c-5.28,3.05-47.45,27.39-47.45,27.39l-5.69-56.52
					l53.87-31.11l3.55,38.5C321.65,102.84,323.72,108.51,328.91,109.35z"/>
				<polygon id="XMLID_349_" class="st2" points="317.62,59 263.75,90.1 263.74,80.12 317.62,49.02 				"/>
			</g>
		</g>
		<g>
			<path class="st7" d="M312.09,77.95c-0.77,0.8-2.2,1.82-3.15,0.7c-0.02-0.02-0.03-0.05-0.04-0.07c0.63-1.2,0.93-2.51,0.61-3.73
				c-0.08-0.3-0.61-0.87-0.95-0.53c-1.02,1.05-1.37,2.53-0.93,3.86c-0.59,0.97-1.39,1.84-2.06,2.44c-0.64,0.58-1.61,1.38-2.54,1.34
				c-1.19-0.06-1.05-1.88-1.02-2.71c0.01-0.37-0.74-1.17-1-0.6c-0.64,1.39-1.61,2.69-2.53,3.9c-0.54,0.71-1.11,1.44-1.8,2.03
				c-0.21,0.18-0.42,0.36-0.68,0.47c0,0-0.01,0-0.02,0.01c-0.01-0.06-0.05-0.16-0.05-0.29c-0.03-0.48-0.74-1.14-1.04-0.49
				c-0.61,1.35-1.6,4.45-3.31,4.82c-0.53,0.11-0.97-0.32-1.51-0.32c-0.45,0-0.8,0.18-1.11,0.48c-0.7,0.67-1.13,1.66-1.68,2.44
				c-0.22,0.31-0.61,1-1.01,1.12c-0.55,0.16-0.58-0.86-0.66-1.31c-0.06-0.33-0.5-0.8-0.86-0.55c-0.79,0.54-1.23,1.32-1.59,2.17
				c-0.23-0.44-0.33-0.92-0.38-1.45c-0.03-0.33-0.62-0.91-0.9-0.48c-0.91,1.4-2.05,2.69-3.26,3.83c-0.8,0.75-3.14,2.96-4.28,1.71
				c-0.45-0.49-0.59-1.15-0.57-1.86c1.08-0.61,1.96-1.69,2.61-2.71c1.16-1.82,2.02-4.04,2.21-6.2c0.02-0.25-0.21-0.6-0.48-0.6
				c-1.55,0.03-2.63,2.14-3.25,3.31c-0.91,1.72-1.8,3.77-1.94,5.74c0,0.06,0,0.12,0,0.17c-0.49,0.19-1.02,0.27-1.6,0.19
				c-0.23-0.03-0.23,0.49,0,0.53c0.57,0.11,1.11,0.07,1.62-0.08c0.13,1.15,0.66,2.41,1.73,2.81c1.46,0.55,3.07-0.72,4.11-1.6
				c1.21-1.03,2.34-2.23,3.3-3.52c0.2,0.6,0.51,1.14,1,1.61c0.23,0.21,0.62,0.31,0.75-0.06c0.27-0.7,0.54-1.38,1.02-1.93
				c0.29,0.89,0.81,1.78,1.79,1.49c1.13-0.33,1.88-2,2.46-2.89c0.3-0.46,0.64-1.2,1.29-1.18c0.76,0.03,1.09,0.55,1.91,0.2
				c1.58-0.68,2.42-2.53,3.12-4.16c0.16,0.14,0.35,0.24,0.59,0.27c0.79,0.09,1.52-0.71,2.01-1.22c1.11-1.15,2.2-2.53,3.07-3.96
				c0.18,0.74,0.53,1.41,1.2,1.8c1.05,0.62,2.29,0.09,3.21-0.53c1-0.66,2.06-1.7,2.87-2.89c1.42,1.59,3.35,0.78,4.6-0.65
				C313.34,78.38,312.54,77.48,312.09,77.95z M274.89,90.92c0.4-0.97,0.86-1.93,1.42-2.82c0.32-0.5,0.8-1.27,1.41-1.61
				c-0.26,1.76-0.98,3.52-1.84,5.03c-0.51,0.9-1.19,1.86-2.04,2.51C274.05,92.88,274.56,91.7,274.89,90.92z"/>
			<path class="st7" d="M290.21,117.73c4.9-3.04,8.69-7.83,11.45-12.84c2.74-4.96,5.16-11.08,4.01-16.82
				c-0.07-0.34-0.76-0.76-0.8-0.19c-0.34,5.79-1.9,11.18-4.77,16.24c-2.29,4.04-5.26,7.99-9,10.85c0.13-0.35,0.27-0.7,0.39-1.06
				c0.32-0.92,0.59-1.84,0.77-2.8c0.08-0.42,0.15-0.85,0.19-1.29c0.05-0.5-0.05-1-0.12-1.5c-0.03-0.2-0.2-0.44-0.41-0.47
				c-0.29-0.03-0.22,0.2-0.33,0.35c-0.28,0.38-0.36,0.92-0.47,1.37c-0.1,0.41-0.22,0.82-0.34,1.23c-0.27,0.85-0.54,1.71-0.86,2.55
				c-0.65,1.7-1.43,3.35-2.2,5c-0.27,0.58,0.34,1.19,0.91,1.2c1.91,0.03,3.75-0.45,5.51-1.14c0.84-0.33,1.66-0.7,2.47-1.09
				c0.79-0.38,1.61-0.73,2.34-1.21c0.76-0.51-0.36-1.51-1-1.3c-1.58,0.51-3.03,1.45-4.57,2.08c-1.12,0.46-2.28,0.82-3.48,1
				c0.01-0.02,0.02-0.05,0.03-0.07C290.03,117.81,290.12,117.78,290.21,117.73z"/>
		</g>
	</g>
</g>
<g id="Notebook_1_">
	<g id="Notebook">
		<g id="Notebook_2_">
			<g id="XMLID_1055_">
				<path id="XMLID_1059_" class="st5" d="M222,282.66v-2.24l84.93-46.79c1.11-0.64,2.92-0.64,4.03,0l117.77,66.45
					c0,0,0,1.81,0,2.23c0,0.42-0.28,0.84-0.83,1.16l-84.93,49.03L222,282.66z"/>
				<path id="XMLID_1058_" class="st1" d="M428.72,302.3c0-0.42,0-2.23,0-2.23l-1.44-0.81l-84.32,50.99v2.24l84.93-49.03
					C428.44,303.14,428.72,302.72,428.72,302.3z"/>
				<path id="XMLID_1057_" class="st5" d="M222,280.42l84.93-49.03c1.11-0.64,2.92-0.64,4.03,0l116.93,67.51
					c1.11,0.64,1.11,1.68,0,2.33l-84.93,49.03L222,280.42z"/>
				<polygon id="XMLID_1056_" class="st12" points="342.96,352.49 342.96,350.25 222,280.42 222,282.66 				"/>
			</g>
			<g id="XMLID_1051_">
				<path id="XMLID_1054_" class="st5" d="M223.94,283.73l-85.85,45.2l-1.77,2.78v2.24c0,1.12,0.64,2.13,1.77,2.78l113.15,65.33
					c0.82,0.47,1.86,0.73,2.95,0.73c1.08,0,2.13-0.26,2.95-0.73l83.94-48.46v-2.24L223.94,283.73z"/>
				<path id="XMLID_1053_" class="st1" d="M223.94,283.73l-85.85,45.2l-1.77,2.78v2.24c0,1.12,0.64,2.13,1.77,2.78l113.15,65.33
					c0.82,0.47,1.86,0.73,2.95,0.73c1.08,0,2.13-0.26,2.95-0.73l83.94-48.46v-2.24L223.94,283.73z"/>
				<path id="XMLID_1052_" class="st5" d="M254.18,400.54c-1.08,0-2.13-0.26-2.95-0.73l-113.15-65.33
					c-1.12-0.65-1.77-1.66-1.77-2.78c0-1.12,0.64-2.13,1.77-2.78l82.08-47.39l120.9,69.81l-83.94,48.46
					C256.31,400.29,255.26,400.54,254.18,400.54z"/>
			</g>
			<g>
				<path id="XMLID_313_" class="st9" d="M224.64,271.24v9.86l117.24,67.6l82.13-47.42c0.57-0.33,1.03-1.12,1.03-1.78v-6.34
					c0-0.65-0.46-1.45-1.03-1.78l-115.38-66.31c-1.25-0.72-2.78-0.72-4.03,0L224.64,271.24z"/>
				<polygon class="st10" points="224.64,271.27 341.88,338.96 341.88,348.7 224.64,281.1 				"/>
				<path class="st7" d="M424.12,291.47c-0.04-0.03-0.07-0.07-0.11-0.09l-115.38-66.31c-1.25-0.72-2.78-0.72-4.03,0l-79.68,46
					l-0.29,0.2l117.24,67.69L424.12,291.47z"/>
			</g>
			<g id="XMLID_1047_">
				<path id="XMLID_1050_" class="st9" d="M220.93,274.53l-81.14,46.85l-0.83,1.16v8.71l0,0c0,0.42,0.28,0.84,0.83,1.16
					l113.15,65.33c1.11,0.64,2.92,0.64,4.03,0l81.15-46.85v-8.71L220.93,274.53z"/>
				<path id="XMLID_1049_" class="st0" d="M338.12,342.19l-1.01,0.59l-13.2,7.62l-2.46,1.42l-64.47,37.21
					c-1.12,0.64-2.92,0.64-4.03,0L139.79,323.7c-1.11-0.64-1.11-1.68,0-2.33l1.08-0.62l80.07-46.22l116.18,67.07l0.24,0.15
					L338.12,342.19z"/>
				<path id="XMLID_1048_" class="st10" d="M254.95,389.52v8.71c-0.73,0-1.46-0.16-2.01-0.48l-113.16-65.33
					c-0.55-0.32-0.83-0.74-0.83-1.16v-8.71c0,0.42,0.28,0.84,0.83,1.16l113.16,65.33C253.49,389.36,254.23,389.52,254.95,389.52z"/>
			</g>
			<path id="XMLID_1046_" class="st7" d="M338.12,341.02l-14.61,8.43l-2.29,1.32l-64.25,37.09c-1.12,0.64-2.92,0.64-4.03,0
				l-101.33-58.5c-0.91-0.5-1.76-1-2.55-1.47c-4.12-2.51-6.61-4.76-8.2-7.15c-0.07-0.1-0.13-0.2-0.2-0.3
				c-0.13-0.2-0.21-0.4-0.25-0.6c-0.19-0.89,0.41-1.75,1.41-2.05c1.96-0.59,4.93-1.63,7.64-3.18c0.04-0.02,0.07-0.04,0.1-0.06
				l71.36-41.2L338.12,341.02z"/>
			<g>
				<path id="XMLID_2330_" class="st14" d="M314.16,237.55l-60.58,35.01c-1.01,0.58-2.78,0.51-3.95-0.16l-4.33-2.49
					c-1.17-0.67-1.3-1.7-0.29-2.28l60.58-35.01c1.01-0.59,2.78-0.51,3.95,0.16l4.33,2.49C315.04,235.95,315.17,236.97,314.16,237.55
					z"/>
				<line id="XMLID_2329_" class="st14" x1="247.46" y1="271.15" x2="311.71" y2="234.03"/>
				<path id="XMLID_2328_" class="st15" d="M348.64,327.15l60.31-34.85c1.09-0.63,1.08-1.65,0-2.28l-86.48-49.81
					c-1.09-0.63-2.85-0.63-3.94,0l-60.31,34.85c-1.09,0.63-1.08,1.65,0,2.28l86.48,49.81C345.78,327.78,347.55,327.78,348.64,327.15
					z"/>
				<line id="XMLID_2327_" class="st15" x1="260.55" y1="278.69" x2="324.8" y2="241.57"/>
				<line id="XMLID_2326_" class="st15" x1="264.86" y1="281.17" x2="329.11" y2="244.05"/>
				<line id="XMLID_2325_" class="st15" x1="269.17" y1="283.66" x2="333.42" y2="246.53"/>
				<line id="XMLID_413_" class="st15" x1="273.48" y1="286.14" x2="337.73" y2="249.01"/>
				<line id="XMLID_2323_" class="st15" x1="277.79" y1="288.62" x2="342.03" y2="251.5"/>
				<line id="XMLID_2322_" class="st15" x1="282.1" y1="291.1" x2="346.34" y2="253.98"/>
				<line id="XMLID_412_" class="st15" x1="286.41" y1="293.58" x2="350.65" y2="256.46"/>
				<line id="XMLID_2320_" class="st15" x1="290.72" y1="296.07" x2="354.96" y2="258.94"/>
				<line id="XMLID_411_" class="st15" x1="295.03" y1="298.55" x2="359.27" y2="261.42"/>
				<line id="XMLID_410_" class="st15" x1="299.33" y1="301.03" x2="363.58" y2="263.91"/>
				<line id="XMLID_2317_" class="st15" x1="303.64" y1="303.51" x2="367.89" y2="266.39"/>
				<line id="XMLID_2316_" class="st15" x1="307.95" y1="305.99" x2="372.2" y2="268.87"/>
				<line id="XMLID_2315_" class="st15" x1="312.26" y1="308.48" x2="376.51" y2="271.35"/>
				<line id="XMLID_2314_" class="st15" x1="316.57" y1="310.96" x2="380.81" y2="273.83"/>
				<line id="XMLID_2313_" class="st15" x1="320.88" y1="313.44" x2="385.12" y2="276.32"/>
				<line id="XMLID_2312_" class="st15" x1="325.19" y1="315.92" x2="389.43" y2="278.8"/>
				<line id="XMLID_2311_" class="st15" x1="329.5" y1="318.4" x2="393.74" y2="281.28"/>
				<line id="XMLID_2310_" class="st15" x1="333.81" y1="320.88" x2="398.05" y2="283.76"/>
				<line id="XMLID_2309_" class="st15" x1="338.11" y1="323.37" x2="402.36" y2="286.24"/>
				<line id="XMLID_2308_" class="st15" x1="342.42" y1="325.85" x2="406.67" y2="288.72"/>
			</g>
			<g>
				<path id="XMLID_428_" class="st14" d="M222.19,290.81l-60.58,35.01c-1.01,0.59-2.78,0.51-3.95-0.16l-4.33-2.49
					c-1.17-0.67-1.3-1.7-0.29-2.28l60.58-35.01c1.01-0.58,2.78-0.51,3.95,0.16l4.33,2.49C223.07,289.2,223.2,290.22,222.19,290.81z"
					/>
				<line id="XMLID_421_" class="st14" x1="155.5" y1="324.41" x2="219.74" y2="287.28"/>
				<path id="XMLID_419_" class="st15" d="M256.67,380.41l60.31-34.85c1.09-0.63,1.08-1.65,0-2.28l-86.48-49.81
					c-1.09-0.63-2.85-0.63-3.94,0l-60.31,34.85c-1.09,0.63-1.08,1.65,0,2.28l86.48,49.81C253.82,381.04,255.58,381.04,256.67,380.41
					z"/>
				<line id="XMLID_417_" class="st15" x1="168.59" y1="331.95" x2="232.83" y2="294.82"/>
				<line id="XMLID_416_" class="st15" x1="172.89" y1="334.43" x2="237.14" y2="297.31"/>
				<line id="XMLID_414_" class="st15" x1="177.2" y1="336.91" x2="241.45" y2="299.79"/>
				<line id="XMLID_407_" class="st15" x1="181.51" y1="339.39" x2="245.76" y2="302.27"/>
				<line id="XMLID_405_" class="st15" x1="185.82" y1="341.88" x2="250.07" y2="304.75"/>
				<line id="XMLID_403_" class="st15" x1="190.13" y1="344.36" x2="254.37" y2="307.23"/>
				<line id="XMLID_401_" class="st15" x1="194.44" y1="346.84" x2="258.68" y2="309.72"/>
				<line id="XMLID_400_" class="st15" x1="198.75" y1="349.32" x2="262.99" y2="312.2"/>
				<line id="XMLID_399_" class="st15" x1="203.06" y1="351.8" x2="267.3" y2="314.68"/>
				<line id="XMLID_397_" class="st15" x1="207.37" y1="354.29" x2="271.61" y2="317.16"/>
				<line id="XMLID_396_" class="st15" x1="211.68" y1="356.77" x2="275.92" y2="319.64"/>
				<line id="XMLID_394_" class="st15" x1="215.98" y1="359.25" x2="280.23" y2="322.13"/>
				<line id="XMLID_392_" class="st15" x1="220.29" y1="361.73" x2="284.54" y2="324.61"/>
				<line id="XMLID_391_" class="st15" x1="224.6" y1="364.21" x2="288.85" y2="327.09"/>
				<line id="XMLID_378_" class="st15" x1="228.91" y1="366.69" x2="293.16" y2="329.57"/>
				<line id="XMLID_377_" class="st15" x1="233.22" y1="369.18" x2="297.46" y2="332.05"/>
				<line id="XMLID_376_" class="st15" x1="237.53" y1="371.66" x2="301.77" y2="334.53"/>
				<line id="XMLID_374_" class="st15" x1="241.84" y1="374.14" x2="306.08" y2="337.02"/>
				<line id="XMLID_367_" class="st15" x1="246.15" y1="376.62" x2="310.39" y2="339.5"/>
				<line id="XMLID_360_" class="st15" x1="250.46" y1="379.1" x2="314.7" y2="341.98"/>
			</g>
			<g id="XMLID_552_">
				<g>
					<path class="st1" d="M341.3,334.82c-0.11,0.11-0.27,0.23-0.45,0.33c-0.26,0.15-0.55,0.26-0.87,0.33
						c-1.01,0.26-2.24,0.14-3.05-0.33c-1.08-0.64-1.08-1.65,0-2.29c0.19-0.11,0.41-0.21,0.65-0.28c0.79-0.25,1.75-0.26,2.56-0.02
						c0.26,0.07,0.5,0.17,0.72,0.29C341.76,333.4,341.91,334.19,341.3,334.82z"/>
					<path class="st1" d="M329.45,327.97c-0.11,0.12-0.27,0.24-0.45,0.34c-0.26,0.15-0.55,0.27-0.86,0.33
						c-1.02,0.26-2.24,0.14-3.06-0.33c-1.07-0.64-1.07-1.65,0-2.28c0.2-0.11,0.42-0.21,0.65-0.27h0.01
						c0.79-0.26,1.74-0.27,2.54-0.03c0.27,0.07,0.51,0.17,0.73,0.29C329.91,326.56,330.06,327.36,329.45,327.97z"/>
					<path class="st1" d="M317.61,321.13c-0.12,0.12-0.27,0.24-0.45,0.34c-0.26,0.15-0.56,0.27-0.88,0.34
						c-1.01,0.25-2.22,0.13-3.04-0.34c-1.08-0.63-1.08-1.65,0-2.28c0.2-0.11,0.43-0.21,0.66-0.28c0.79-0.26,1.75-0.27,2.54-0.02
						c0.27,0.07,0.5,0.17,0.72,0.29C318.07,319.72,318.23,320.53,317.61,321.13z"/>
					<path class="st1" d="M305.76,314.3c-0.11,0.11-0.27,0.23-0.45,0.33c-0.26,0.15-0.55,0.27-0.87,0.34
						c-1.01,0.26-2.23,0.14-3.05-0.34c-1.08-0.63-1.08-1.65,0-2.28c0.2-0.11,0.43-0.21,0.66-0.28c0.8-0.26,1.75-0.26,2.55-0.02
						c0,0,0,0,0,0.01c0.26,0.06,0.49,0.16,0.71,0.28C306.23,312.88,306.38,313.69,305.76,314.3z"/>
					<path class="st1" d="M293.92,307.46c-0.11,0.11-0.27,0.23-0.45,0.33c-0.27,0.15-0.56,0.27-0.88,0.34
						c-1.01,0.26-2.22,0.14-3.04-0.34c-1.08-0.63-1.08-1.64,0-2.28c0.2-0.11,0.43-0.21,0.66-0.28c0.79-0.25,1.75-0.26,2.54-0.02
						c0.26,0.07,0.5,0.17,0.72,0.29C294.39,306.05,294.54,306.85,293.92,307.46z"/>
					<path class="st1" d="M282.08,300.62c-0.12,0.12-0.27,0.24-0.45,0.34c-0.26,0.15-0.55,0.26-0.86,0.33
						c-1.01,0.26-2.24,0.14-3.06-0.33c-1.08-0.64-1.08-1.65,0-2.29c0.2-0.11,0.42-0.21,0.65-0.27c0.01,0,0.01,0,0.01,0
						c0.8-0.25,1.75-0.26,2.55-0.02c0.27,0.07,0.5,0.17,0.72,0.29C282.54,299.21,282.69,300.01,282.08,300.62z"/>
					<path class="st1" d="M270.24,293.78c-0.12,0.13-0.27,0.25-0.45,0.35c-0.26,0.15-0.56,0.27-0.87,0.34
						c-1.01,0.25-2.23,0.13-3.05-0.34c-1.08-0.64-1.08-1.65,0-2.28c0.2-0.11,0.42-0.21,0.65-0.28h0.01
						c0.79-0.26,1.75-0.27,2.54-0.03c0,0.01,0,0.01,0.01,0.01c0.26,0.07,0.5,0.17,0.71,0.29
						C270.7,292.37,270.86,293.17,270.24,293.78z"/>
					<path class="st1" d="M258.39,286.96c-0.11,0.11-0.27,0.23-0.45,0.33c-0.27,0.15-0.56,0.27-0.87,0.33
						c-1.01,0.26-2.23,0.14-3.05-0.33c-1.08-0.63-1.08-1.65,0-2.28c0.2-0.11,0.43-0.21,0.66-0.27c0.79-0.26,1.75-0.27,2.54-0.02
						c0.26,0.07,0.5,0.17,0.72,0.29C258.86,285.53,259.01,286.34,258.39,286.96z"/>
					<path class="st1" d="M246.55,280.12c-0.11,0.11-0.27,0.23-0.45,0.33c-0.27,0.15-0.56,0.27-0.87,0.34
						c-1.01,0.25-2.23,0.13-3.05-0.34c-1.08-0.63-1.08-1.65,0-2.28c0.2-0.11,0.42-0.21,0.65-0.28h0.01
						c0.79-0.26,1.75-0.27,2.54-0.03c0,0.01,0.01,0.01,0.01,0.01c0.26,0.07,0.49,0.17,0.71,0.29
						C247.02,278.69,247.17,279.5,246.55,280.12z"/>
					<path class="st1" d="M234.71,273.27c-0.12,0.12-0.27,0.24-0.45,0.34c-0.26,0.15-0.55,0.27-0.87,0.33
						c-1.01,0.27-2.23,0.15-3.05-0.33c-1.08-0.63-1.08-1.65,0-2.28c0.2-0.11,0.43-0.21,0.66-0.28c0.79-0.25,1.75-0.26,2.54-0.02
						c0.26,0.07,0.5,0.17,0.72,0.29C235.17,271.86,235.32,272.66,234.71,273.27z"/>
				</g>
				<g id="XMLID_1041_">
					<path id="XMLID_1045_" class="st1" d="M326.34,338.97c-1.08,0.63-1.08,1.65,0,2.28c1.08,0.63,2.84,0.63,3.93,0
						c1.09-0.63,1.09-1.65,0-2.28C329.18,338.34,327.42,338.34,326.34,338.97z"/>
					<path id="XMLID_1043_" class="st16" d="M340.13,332.57c-0.34-0.4-0.72-0.73-1.16-0.98c-1.5-0.86-3.38-0.72-5.28,0.37
						c-2.21,1.28-4.19,3.73-5.52,6.55c-0.46,0.97-0.84,1.99-1.13,3.02c0.08,0.03,0.15,0.05,0.23,0.07c0.16,0.05,0.34,0.08,0.51,0.09
						c0.15,0.02,0.3,0.03,0.46,0.03c0.09,0,0.16-0.01,0.25-0.01c0.29-1.02,0.69-2.04,1.19-3c1.19-2.37,2.87-4.39,4.74-5.47
						c0.86-0.49,1.68-0.74,2.41-0.74c0.26,0,0.51,0.03,0.75,0.09c0.24,0.06,0.46,0.15,0.67,0.28c0.82,0.46,1.41,1.38,1.74,2.62
						c0.32-0.08,0.62-0.18,0.87-0.33c0.18-0.1,0.33-0.22,0.45-0.33C341.03,333.94,340.64,333.18,340.13,332.57z"/>
				</g>
				<g id="XMLID_1037_">
					<path id="XMLID_1040_" class="st1" d="M314.5,332.13c-1.08,0.63-1.08,1.65,0,2.28c1.08,0.63,2.84,0.63,3.93,0
						c1.09-0.63,1.09-1.65,0-2.28C317.34,331.5,315.58,331.5,314.5,332.13z"/>
					<path id="XMLID_1038_" class="st16" d="M328.28,325.73c-0.33-0.4-0.71-0.72-1.15-0.98c-1.5-0.86-3.38-0.72-5.29,0.37
						c-2.2,1.28-4.18,3.72-5.5,6.54c-0.47,0.98-0.85,2-1.14,3.04c0.02,0.01,0.05,0.01,0.07,0.02c0.01,0,0.01,0.01,0.02,0.01
						c0.06,0.02,0.13,0.04,0.2,0.05c0.02,0.01,0.04,0.01,0.06,0.01c0.12,0.03,0.26,0.05,0.39,0.07c0.15,0.02,0.31,0.03,0.46,0.03
						c0.09,0,0.16,0,0.25-0.01c0.29-1.03,0.69-2.05,1.19-3c1.19-2.37,2.87-4.39,4.74-5.47c0.85-0.49,1.67-0.74,2.41-0.74
						c0.27,0,0.51,0.03,0.75,0.1h0.01c0.24,0.06,0.46,0.14,0.66,0.27c0.82,0.47,1.41,1.38,1.74,2.62c0.31-0.07,0.61-0.18,0.86-0.33
						c0.18-0.1,0.33-0.22,0.45-0.34C329.18,327.09,328.79,326.33,328.28,325.73z"/>
				</g>
				<g id="XMLID_1033_">
					<path id="XMLID_1036_" class="st1" d="M302.66,325.29c-1.08,0.63-1.08,1.65,0,2.28c1.08,0.63,2.84,0.63,3.93,0
						c1.09-0.63,1.09-1.65,0-2.28C305.5,324.66,303.74,324.66,302.66,325.29z"/>
					<path id="XMLID_1034_" class="st16" d="M316.44,318.9c-0.34-0.4-0.73-0.72-1.16-0.98c-1.5-0.87-3.37-0.73-5.28,0.37
						c-2.21,1.28-4.19,3.72-5.52,6.54c-0.46,0.98-0.84,1.99-1.13,3.03c0.19,0.06,0.38,0.1,0.59,0.13c0.08,0.02,0.14,0.03,0.22,0.03
						c0.01,0.01,0.03,0.01,0.04,0.01h0.1c0.16,0.01,0.33,0.01,0.5,0c0.29-1.02,0.69-2.04,1.18-3c1.19-2.36,2.88-4.38,4.75-5.47
						c0.85-0.49,1.67-0.74,2.41-0.74c0.27,0,0.51,0.03,0.76,0.1c0.23,0.06,0.45,0.14,0.65,0.27c0.83,0.47,1.41,1.39,1.73,2.63
						c0.32-0.08,0.63-0.19,0.88-0.34c0.18-0.1,0.32-0.22,0.45-0.34C317.34,320.25,316.95,319.49,316.44,318.9z"/>
				</g>
				<g id="XMLID_1002_">
					<path id="XMLID_1032_" class="st1" d="M290.82,318.46c-1.08,0.63-1.08,1.65,0,2.28c1.08,0.63,2.84,0.63,3.93,0
						c1.09-0.63,1.09-1.65,0-2.28C293.66,317.83,291.9,317.83,290.82,318.46z"/>
					<path id="XMLID_1012_" class="st16" d="M304.61,312.07C304.61,312.06,304.61,312.06,304.61,312.07
						c-0.34-0.41-0.73-0.74-1.16-0.99c-1.5-0.86-3.38-0.73-5.29,0.37c-2.2,1.27-4.18,3.72-5.51,6.54c-0.46,0.98-0.84,1.99-1.13,3.03
						c0.09,0.03,0.18,0.06,0.28,0.08c0.14,0.04,0.3,0.06,0.46,0.08c0.16,0.02,0.32,0.03,0.49,0.03c0.08,0,0.14,0,0.22-0.01
						c0.3-1.02,0.7-2.04,1.19-2.99c1.19-2.37,2.87-4.39,4.74-5.48c0.85-0.48,1.67-0.74,2.41-0.74c0.27,0,0.52,0.04,0.76,0.1
						c0.24,0.06,0.46,0.15,0.66,0.27c0.83,0.47,1.41,1.39,1.73,2.63c0.32-0.08,0.62-0.19,0.87-0.34c0.18-0.1,0.33-0.22,0.45-0.33
						C305.51,313.43,305.12,312.67,304.61,312.07z"/>
				</g>
				<g id="XMLID_997_">
					<path id="XMLID_1001_" class="st1" d="M278.98,311.62c-1.08,0.63-1.08,1.65,0,2.28c1.08,0.63,2.84,0.63,3.93,0
						c1.09-0.63,1.09-1.65,0-2.28C281.81,310.99,280.06,310.99,278.98,311.62z"/>
					<path id="XMLID_998_" class="st16" d="M292.76,305.23c-0.33-0.4-0.72-0.72-1.16-0.98c-1.5-0.86-3.37-0.73-5.28,0.37
						c-2.21,1.28-4.19,3.72-5.52,6.54c-0.46,0.98-0.84,1.99-1.13,3.03c0.09,0.03,0.19,0.06,0.28,0.09c0.14,0.04,0.3,0.06,0.46,0.08
						c0.15,0.02,0.31,0.03,0.46,0.03c0.09,0,0.16-0.01,0.25-0.01c0.29-1.03,0.69-2.05,1.18-3c1.19-2.37,2.88-4.39,4.75-5.48
						c0.85-0.48,1.67-0.74,2.41-0.74c0.27,0,0.51,0.04,0.76,0.1c0.23,0.06,0.45,0.15,0.65,0.27c0.83,0.47,1.42,1.39,1.73,2.63
						c0.32-0.08,0.62-0.19,0.88-0.34c0.18-0.1,0.33-0.22,0.45-0.33C293.66,306.58,293.27,305.82,292.76,305.23z"/>
				</g>
				<g id="XMLID_958_">
					<path id="XMLID_967_" class="st1" d="M267.13,304.78c-1.08,0.63-1.08,1.65,0,2.28c1.08,0.63,2.84,0.63,3.93,0
						c1.09-0.63,1.09-1.65,0-2.28C269.97,304.15,268.21,304.15,267.13,304.78z"/>
					<path id="XMLID_963_" class="st16" d="M280.91,298.39c-0.34-0.4-0.73-0.73-1.16-0.98c-1.49-0.86-3.37-0.73-5.28,0.37
						c-2.2,1.28-4.18,3.73-5.52,6.55c-0.46,0.97-0.84,1.99-1.13,3.02c0.08,0.03,0.15,0.05,0.23,0.07c0.16,0.04,0.33,0.08,0.5,0.09
						c0.01,0,0.01,0,0.02,0c0.15,0.02,0.3,0.03,0.46,0.03c0.09,0,0.16-0.01,0.25-0.01c0.29-1.02,0.69-2.04,1.19-3
						c1.19-2.37,2.87-4.39,4.74-5.48c0.85-0.48,1.67-0.73,2.41-0.73c0.26,0,0.5,0.03,0.74,0.09c0.01,0,0.01,0,0.01,0
						c0.24,0.06,0.46,0.15,0.67,0.27c0.82,0.47,1.41,1.39,1.74,2.63c0.31-0.08,0.61-0.18,0.86-0.33c0.18-0.1,0.32-0.22,0.45-0.34
						C281.81,299.74,281.42,298.98,280.91,298.39z"/>
				</g>
				<g id="XMLID_606_">
					<path id="XMLID_651_" class="st1" d="M255.29,297.94c-1.08,0.63-1.08,1.65,0,2.28c1.08,0.63,2.84,0.63,3.93,0
						c1.09-0.63,1.09-1.65,0-2.28C258.13,297.31,256.37,297.31,255.29,297.94z"/>
					<path id="XMLID_607_" class="st16" d="M269.08,291.56C269.07,291.56,269.07,291.56,269.08,291.56
						c-0.35-0.41-0.74-0.73-1.17-0.98c-1.5-0.87-3.37-0.73-5.28,0.36c-2.2,1.28-4.18,3.72-5.51,6.54c-0.46,0.98-0.85,2-1.14,3.04
						c0.09,0.03,0.19,0.06,0.28,0.08c0.14,0.04,0.3,0.06,0.46,0.08c0.15,0.02,0.31,0.03,0.46,0.03c0.08,0,0.16,0,0.25-0.01
						c0.29-1.03,0.69-2.04,1.18-3c1.19-2.36,2.88-4.38,4.75-5.47c0.85-0.49,1.67-0.74,2.41-0.74c0.27,0,0.5,0.03,0.75,0.1h0.01
						c0.23,0.06,0.45,0.14,0.65,0.27c0.83,0.47,1.41,1.39,1.74,2.63c0.31-0.08,0.62-0.19,0.87-0.34c0.18-0.1,0.32-0.22,0.45-0.35
						C269.97,292.9,269.58,292.15,269.08,291.56z"/>
				</g>
				<g id="XMLID_563_">
					<path id="XMLID_593_" class="st1" d="M243.45,291.11c-1.08,0.63-1.08,1.65,0,2.28c1.08,0.63,2.84,0.63,3.93,0
						c1.09-0.63,1.09-1.65,0-2.28C246.28,290.48,244.53,290.48,243.45,291.11z"/>
					<path id="XMLID_564_" class="st16" d="M257.22,284.72c-0.33-0.4-0.72-0.72-1.16-0.98c-1.49-0.86-3.37-0.73-5.28,0.37
						c-2.2,1.28-4.18,3.72-5.52,6.54c-0.46,0.98-0.84,1.99-1.13,3.03c0.01,0,0.01,0,0.02,0c0.09,0.03,0.18,0.06,0.28,0.08
						c0.09,0.02,0.19,0.04,0.29,0.06c0.08,0.02,0.14,0.03,0.22,0.03c0.01,0.01,0.03,0.01,0.04,0.01h0.1c0.17,0.01,0.33,0.01,0.5,0
						c0.3-1.02,0.7-2.04,1.19-3c1.19-2.36,2.87-4.38,4.74-5.47c0.85-0.48,1.67-0.74,2.41-0.74c0.27,0,0.52,0.03,0.76,0.1
						c0.24,0.06,0.46,0.14,0.66,0.27c0.82,0.47,1.41,1.38,1.73,2.62c0.31-0.07,0.61-0.18,0.87-0.33c0.18-0.1,0.33-0.22,0.45-0.33
						C258.14,286.07,257.74,285.32,257.22,284.72z"/>
				</g>
				<g id="XMLID_559_">
					<path id="XMLID_562_" class="st1" d="M231.6,284.27c-1.08,0.63-1.08,1.65,0,2.28c1.08,0.63,2.84,0.63,3.93,0s1.09-1.65,0-2.28
						C234.44,283.64,232.68,283.64,231.6,284.27z"/>
					<path id="XMLID_560_" class="st16" d="M245.4,277.88C245.4,277.88,245.39,277.88,245.4,277.88c-0.34-0.41-0.73-0.73-1.17-0.98
						c-1.5-0.86-3.37-0.73-5.28,0.37c-2.2,1.27-4.18,3.72-5.51,6.54c-0.46,0.98-0.85,1.99-1.14,3.03c0.09,0.03,0.19,0.06,0.28,0.08
						c0.14,0.04,0.3,0.06,0.46,0.08c0.15,0.02,0.31,0.03,0.46,0.03c0.09,0,0.16,0,0.25-0.01c0.29-1.02,0.69-2.04,1.18-2.99
						c1.19-2.37,2.87-4.39,4.75-5.48c0.85-0.48,1.67-0.74,2.41-0.74c0.27,0,0.5,0.03,0.75,0.1h0.01c0.23,0.06,0.45,0.14,0.65,0.27
						c0.83,0.47,1.42,1.39,1.74,2.63c0.31-0.08,0.61-0.19,0.87-0.34c0.18-0.1,0.33-0.22,0.45-0.33
						C246.3,279.23,245.9,278.49,245.4,277.88z"/>
				</g>
				<g id="XMLID_555_">
					<path id="XMLID_558_" class="st1" d="M219.76,277.43c-1.08,0.63-1.08,1.65,0,2.28c1.08,0.63,2.84,0.63,3.93,0
						c1.09-0.63,1.09-1.65,0-2.28C222.6,276.8,220.84,276.8,219.76,277.43z"/>
					<path id="XMLID_556_" class="st16" d="M233.54,271.04c-0.33-0.4-0.71-0.72-1.15-0.98c-1.5-0.86-3.38-0.73-5.29,0.37
						c-2.2,1.28-4.18,3.72-5.52,6.54c-0.46,0.98-0.84,1.99-1.13,3.03c0.08,0.02,0.15,0.05,0.23,0.07c0.15,0.04,0.32,0.07,0.48,0.09
						c0.02,0.01,0.04,0.01,0.06,0.01c0.15,0.02,0.3,0.03,0.46,0.03c0.08,0,0.15-0.01,0.23-0.01c0.29-1.03,0.7-2.05,1.19-3.01
						c1.19-2.36,2.87-4.39,4.74-5.47c0.85-0.48,1.67-0.74,2.41-0.74c0.27,0,0.52,0.04,0.76,0.1c0.24,0.06,0.46,0.15,0.66,0.27
						c0.82,0.47,1.41,1.38,1.73,2.62c0.32-0.07,0.62-0.18,0.87-0.33c0.18-0.1,0.32-0.22,0.45-0.34
						C234.44,272.39,234.05,271.64,233.54,271.04z"/>
				</g>
			</g>
		</g>
		<g id="Note_2_">
			<g>
				<polygon class="st1" points="155.83,323.03 209.77,291.89 267.57,325.26 213.63,356.4 				"/>
			</g>
			<g id="XMLID_3505_">
				<g id="XMLID_1397_">
					<polygon id="XMLID_4120_" class="st5" points="164.93,326.8 156.26,321.47 210.35,290.24 219.01,295.57 					"/>
					<polygon id="XMLID_4126_" class="st17" points="164.93,326.8 156.26,321.47 210.35,290.24 219.01,295.57 					"/>
					<path id="XMLID_1403_" class="st5" d="M256.84,314.07L256.84,314.07l-37.83-18.5l-54.09,31.23l47.92,23.16l46.81-27.02
						c2.86-1.66,5.62-4.45,5.46-8.11C263.48,315.64,260.86,315.93,256.84,314.07z"/>
					<path id="XMLID_1402_" class="st18" d="M256.84,314.07L256.84,314.07l-37.83-18.5l-54.09,31.23l47.92,23.16l46.81-27.02
						c2.86-1.66,5.62-4.45,5.46-8.11C263.48,315.64,260.86,315.93,256.84,314.07z"/>
				</g>
			</g>
			<g>
				<path class="st4" d="M201.2,322.98c0.23,0.01,0.21-0.42,0.11-0.55c-0.32-0.38-0.67-0.56-1.01-0.61
					c-0.57-0.71-1.17-1.41-1.83-2.04c-0.68-0.65-1.43-1.27-2.03-2c-0.18-0.41-0.42-0.79-0.75-1.07c-0.44-0.39-0.79,0.03-0.55,0.5
					c0.15,0.29,0.33,0.57,0.53,0.83c0.63,1.75-0.16,5.16-1.91,4.01c-0.58-0.38-0.97-1-1.75-0.54c-0.58,0.34-0.73,1.07-0.76,1.75
					c-0.42-0.37-0.93-0.57-1.53-0.31c-0.76,0.33-1.11,1.14-1.15,1.93c-0.52-0.45-1.22-0.92-1.78-0.4c-0.47,0.43-0.52,1.28-0.52,2.01
					c-0.68-1-1.55-2.05-2.69-2.42c-1.54-0.49-2.33,0.99-2.73,2.23c-0.06,0.19,0.15,0.51,0.26,0.23c0.46-1.17,1.26-2.44,2.67-1.79
					c1.12,0.51,1.94,1.7,2.57,2.7c0.14,0.22,0.37,0.09,0.37-0.14c-0.01-0.6-0.11-1.49,0.21-2.03c0.49-0.84,1.33,0.02,1.79,0.48
					c0.18,0.17,0.36-0.04,0.35-0.23c-0.1-1.27,1.26-2.76,2.27-1.27c0.15,0.22,0.53,0.28,0.51-0.08c-0.02-0.56-0.08-1.48,0.43-1.85
					c0.67-0.49,1.03,0.32,1.52,0.6c0.83,0.47,1.8-0.02,2.3-0.73c0.53-0.75,0.77-1.83,0.7-2.88c0.4,0.39,0.81,0.76,1.21,1.14
					c0.5,0.49,0.96,1.01,1.4,1.56c-0.77,0.42-1.3,1.48-1.03,2.47c0.34,1.22,2.32,3.11,3.48,1.69
					C202.59,325.25,201.92,323.99,201.2,322.98z M200.43,325.59c-0.55-0.08-1.13-0.83-1.17-1.37c-0.07-0.79,0.34-1.16,0.89-1.27
					C200.53,323.48,202.1,325.83,200.43,325.59z"/>
				<path class="st4" d="M216.1,307.99c-0.23-0.4-0.74-0.35-0.63,0.18c0.24,1.16-0.8,1.33-1.7,1.14c-0.97-0.2-1.74-0.82-2.39-1.54
					c-0.15-0.19-0.3-0.37-0.45-0.52c-0.44-0.43-0.91,0.14-0.55,0.58c0.14,0.18,0.3,0.36,0.45,0.53c0.64,0.88,1.13,2.3,0.44,3.14
					c-1.05,1.27-2.18-0.62-2.68-1.43c-0.34-0.55-0.92-0.16-0.63,0.4c0.28,0.54,0.39,1.21,0.49,1.8c0.08,0.49,0.36,1.65,0,2.09
					c-0.7,0.82-2.21-1.4-2.45-2.23c0-0.01,0-0.01,0-0.01c-0.01-0.05-0.02-0.1-0.03-0.13c0,0,0,0-0.01,0
					c-0.01-0.04-0.02-0.09-0.03-0.13c-0.15-0.47-0.89-0.55-0.82,0.06c0.26,0.97,0.14,2.31-0.38,3.18c-0.67,1.1-1.96,0.32-2.65-0.53
					c-0.11-0.25-0.25-0.48-0.43-0.67c-0.41-0.42-1.03-0.2-0.75,0.42c0.09,0.19,0.21,0.4,0.37,0.61c0.36,0.91,0.18,2.38-0.14,3.09
					c-0.24,0.53-0.63,0.65-0.74-0.03c-0.07-0.4-0.03-0.82,0.01-1.22c0.05-0.46-0.03-1.35,0.73-1c0.18,0.08,0.21-0.27,0.14-0.37
					c-0.4-0.55-1.07-0.82-1.42-0.1c-0.28,0.56-0.38,1.24-0.4,1.86c-0.03,0.97,0.37,2.61,1.68,2.35c1.02-0.2,1.2-1.64,1.25-2.47
					c0.02-0.3,0.02-0.63,0-0.97c0.88,0.65,1.94,0.98,2.77,0.3c0.63-0.51,0.91-1.43,0.99-2.37c0.79,1.05,1.89,1.92,2.77,1.34
					c0.65-0.44,0.52-1.58,0.46-2.24c-0.03-0.31-0.08-0.64-0.13-0.96c0.81,0.79,1.8,1.23,2.73,0.19c0.62-0.7,0.65-1.68,0.39-2.63
					c0.67,0.44,1.43,0.73,2.27,0.76c0.56,0.02,1.25-0.07,1.63-0.54C216.69,309.32,216.42,308.56,216.1,307.99z"/>
				<path class="st4" d="M242.27,318.86c0.09-0.27-0.13-0.78-0.42-0.82c-0.03,0-0.07,0-0.1-0.01c-0.08-0.11-0.16-0.23-0.23-0.33
					c-1.44-1.97-3.33-3.63-5.23-5.15c-0.39-0.31-0.69,0.13-0.5,0.51c0.19,0.37,0.6,0.86,0.62,1.28c0.05,0.81-0.73,0.75-1.21,0.54
					c-0.31-0.14-0.62-0.35-0.92-0.59c-0.32-0.59-0.83-1.07-1.36-1.54c-0.39-0.35-0.73,0.19-0.5,0.55c0.3,0.48,0.7,1,1.17,1.47
					c0.04,0.11,0.09,0.23,0.1,0.35c0.08,0.66-0.03,1.53-0.22,2.17c-0.5,1.64-1.9-0.47-2.56-0.96c-0.71-0.53-1.54-0.35-1.89,0.5
					c-0.25,0.61-0.21,1.34-0.08,2.04c-0.53-0.48-1.14-0.86-1.69-0.38c-0.58,0.51-0.52,1.52-0.47,2.37c-0.53-0.46-1.17-0.87-1.82-0.8
					c-0.72,0.07-0.96,0.68-1.04,1.31c-0.94-0.98-2.36-2.24-3.07-0.71c-0.35,0.76,0.12,2.31-0.6,2.87c-0.42,0.33-1.01-0.15-1.51-0.71
					c-0.21-0.47-0.52-0.88-0.98-1.2c-0.58-0.39-0.72,0.4-0.41,0.77c0.14,0.16,0.33,0.41,0.56,0.67c0.3,0.66,0.25,1.57,0.18,2.31
					c-1.38-0.25-2.36-1.53-3.19-2.59c-0.31-0.43-0.64-0.85-0.99-1.24c-0.62-0.75-1.28-1.46-2.11-1.96c-0.6-0.36-0.83,0.5-0.39,0.85
					c0.69,0.55,1.46,1.24,2.13,2.02c0.23,0.29,0.46,0.59,0.69,0.89c0.63,0.93,1.07,1.94,1.08,2.99c0.02,2.44-2.82,0.62-3.79-0.13
					c-0.55-0.42-0.72,0.4-0.41,0.76c0.72,0.85,2.33,3.42-0.08,3.28c-1.21-0.07-2.43-1.06-3.37-1.73c-0.44-0.31-0.49,0.41-0.34,0.65
					c0.53,0.89,0.84,3.29-0.31,3.82c-0.16,0.08-0.18,0.48,0.05,0.44c1.37-0.25,1.48-2.13,1.18-3.54c1.32,0.95,3.18,2.05,4.46,0.86
					c0.8-0.74,0.64-1.73,0.18-2.64c1.34,0.68,2.91,1,3.33-0.68c0.16-0.62,0.14-1.26,0-1.89c0.7,0.56,1.5,0.96,2.5,1
					c0.25,0.01,0.37-0.2,0.38-0.41c0.05-0.61,0.08-1.27,0.01-1.91c0.66,0.49,1.36,0.7,1.9,0.03c0.6-0.75,0.4-1.73,0.56-2.59
					c0.3-1.67,1.97,0.49,2.49,1.01c0.3,0.29,0.7,0.22,0.69-0.24c-0.02-0.57-0.03-1.47,0.75-1.34c0.56,0.1,1.1,0.68,1.47,1.06
					c0.21,0.21,0.67,0.31,0.69-0.12c0.04-0.68-0.13-1.44,0.03-2.11c0.31-1.23,1.25,0.15,1.81,0.57c0.38,0.29,0.67-0.09,0.56-0.48
					c-0.18-0.66-0.45-1.55-0.29-2.24c0.33-1.46,1.21-0.11,1.74,0.38c0.59,0.55,1.77,1.23,2.46,0.48c0.59-0.65,0.7-2.11,0.64-3.05
					c0.37,0.23,0.76,0.41,1.16,0.48c0.65,0.12,1.41-0.17,1.61-0.85c0.09-0.29,0.06-0.57-0.02-0.85c1.02,0.84,1.98,1.76,2.85,2.77
					c0.24,0.28,0.48,0.58,0.71,0.88c-0.96,0.09-1.78,0.55-1.82,1.73c-0.04,1.22,0.73,2.55,1.64,3.33c0.74,0.62,1.74,0.83,2.2-0.2
					C243.5,321.59,242.98,320.1,242.27,318.86z M242.12,322.44c-0.7,0.78-1.67-0.81-1.9-1.35c-0.59-1.36,0.15-1.99,1.36-2.06
					c0.17,0.3,0.34,0.6,0.47,0.92C242.32,320.6,242.68,321.83,242.12,322.44z"/>
			</g>
		</g>
		<g class="st19">
			<path d="M278.27,325.18c-0.03-0.24-0.31-0.24-0.34,0c-0.13,1.01-0.73,1.47-1.68,1.53c-0.62,0.04-1.32,0.12-1.92-0.04
				c-0.11-0.03-0.19,0.06-0.22,0.15c-0.19,0.58-0.23,1.22-0.53,1.75c-0.44-0.33-0.99-0.71-1.37-0.17c-0.42,0.59-0.09,2.5-1.19,1.41
				c-0.11-0.11-0.23-0.1-0.31,0.03c-0.62,0.98-1.31,1.03-1.82,0.41c-0.14-0.39-0.31-0.73-0.49-0.99c-0.18-0.25-0.35,0.12-0.31,0.29
				c0.07,0.27,0.16,0.56,0.28,0.84c0.09,0.8-0.1,1.93-0.57,2.26c-1.06,0.75-2.3-1.05-2.46-1.91l0,0c-0.01-0.03-0.01-0.06-0.02-0.09
				c-0.1-0.39-0.51-0.19-0.45,0.16c0.01,0.04,0.02,0.08,0.02,0.11c0.18,0.73,0.01,1.86-0.37,2.51c-0.58,0.98-1.31,0.49-1.94-0.25
				c-0.19-0.22-0.34,0.07-0.34,0.25c0.01,1.19-0.95,2.88-2.07,1.43c-0.15-0.19-0.33-0.02-0.37,0.14c-0.13,0.47-0.24,0.94-0.36,1.41
				c-0.08,0.33-0.18,0.66-0.31,0.97c-0.05,0.5-0.22,0.55-0.49,0.16c-0.42-0.24-0.7-0.91-1.27-0.86c-0.77,0.07-0.87,1.14-0.84,1.88
				c-0.45-0.23-1.01-0.47-1.44-0.2c-0.44,0.28-0.57,0.98-0.65,1.5c-0.37-0.34-0.8-0.68-1.28-0.37c-0.46,0.29-0.64,1.15-0.76,1.75
				c-0.57-0.21-0.96-0.52-1.27-1.08c-0.11-0.21-0.27,0.04-0.28,0.17c-0.04,0.57,0.15,1.57-0.14,2.07c-0.6,1.03-1.86-0.79-2.11-1.45
				c-0.13-0.33-0.51-0.26-0.5,0.1c0.03,1.06,0.3,4.31-1.38,4.16c-0.26-0.02-0.53-0.14-0.8-0.31c0.52-1.77-0.3-3.81-2.09-4.52
				c-0.13-0.05-0.25-0.01-0.3,0.12c-0.57,1.43,0.44,3.55,1.71,4.71c-0.13,0.23-0.29,0.45-0.49,0.65c-0.59,0.56-1.42,0.19-1.92,0.79
				c-0.33,0.41-0.14,0.45-0.66,0.8c-0.53,0.36-0.66,0.23-1.11-0.17c-0.22-0.2-0.38-0.4-0.54-0.65c-0.14-0.21-0.33,0.02-0.35,0.18
				c-0.04,0.46-0.08,1.42-0.66,1.58c-0.5,0.14-1.07-0.42-1.38-0.7c-0.16-0.15-0.33-0.05-0.37,0.14c-0.07,0.28-0.09,0.57-0.12,0.86
				c-0.02,0.18-0.01,0.42-0.07,0.59c-0.16,0.46-0.87,1.28-1.23,0.05c-0.1-0.34-0.5-0.25-0.49,0.09c0.03,0.88-0.27,1.83-0.9,2.48
				c-0.33,0.34-0.73,0.58-1.21,0.62c0,0-0.01,0-0.01,0c0.07-0.16,0.11-0.34,0.13-0.53c0.04-0.62-0.24-1.64-0.93-1.82
				c-0.6-0.16-1.09,0.38-1.23,0.92c-0.19,0.76,0.27,1.45,0.91,1.81c0.03,0.02,0.06,0.03,0.1,0.05c-0.43,0.3-0.94,0.48-1.41,0.66
				c-0.38,0.14-0.89,0.24-1.22,0.49c-0.14,0.11-0.26,0.48-0.38,0.55c-1.09,0.59-0.55-0.15-1.09-0.12c-1.02,0.05-1.5,0.53-1.75,1.38
				c-0.89-0.9-1.67,0.46-1.96,1.46c-0.38-0.55-0.85-1.42-1.48-1.58c-0.66-0.16-1.27,0.45-1.71,0.84c-0.02,0.01-0.02,0.07,0.01,0.05
				c0.59-0.44,1.24-0.96,1.93-0.42c0.5,0.39,0.85,1.09,1.22,1.59c0.07,0.09,0.17-0.02,0.19-0.09c0.16-0.67,0.89-2.53,1.76-1.27
				c0.11,0.15,0.24,0.04,0.27-0.1c0.26-1.08,0.79-1.38,1.84-1.12c0.42,0.11,0.52,0.2,0.91-0.05c0.27-0.17,0.35-0.53,0.66-0.71
				c0.15-0.08,0.36-0.13,0.52-0.19c0.49-0.17,0.99-0.33,1.45-0.57c0.3-0.15,0.58-0.34,0.82-0.57c1.57,0.36,2.73-1.29,3.02-2.83
				c0.35,0.36,0.85,0.52,1.34,0.12c0.53-0.42,0.48-1.24,0.54-1.91c0.47,0.39,1.09,0.79,1.67,0.49c0.51-0.27,0.66-0.91,0.72-1.5
				c0.58,0.67,1.44,1.25,2.14,0.5c0.53-0.57-0.54-0.51,1.09-1.09c0.21-0.07,0.43,0.01,0.66-0.09c0.45-0.19,0.84-0.7,1.08-1.11
				c0.04-0.06,0.06-0.13,0.09-0.2c0.2,0.15,0.41,0.27,0.61,0.36c2.26,0.98,2.45-1.81,2.41-3.66c0.47,0.71,1.15,1.41,1.85,1.36
				c1.07-0.08,0.88-1.59,0.73-2.6c0.32,0.39,0.7,0.67,1.23,0.86c0.1,0.04,0.19-0.05,0.21-0.14c0.1-0.38,0.11-0.87,0.26-1.23
				c0.37-0.9,1-0.58,1.49-0.09c0.09,0.09,0.2-0.02,0.22-0.12c0.09-0.44,0.16-1.34,0.65-1.55c0.45-0.19,1.06,0.33,1.39,0.57
				c0.15,0.11,0.29-0.07,0.29-0.22c0.01-0.64-0.2-2.05,0.99-1.39c0.38,0.21,0.61,0.68,1.02,0.89c0.09,0.05,0.2,0.03,0.26-0.06
				c0.58-0.86,0.63-1.83,0.89-2.79c1.19,1.35,2.4-0.15,2.53-1.67c0.6,0.66,1.43,1.17,2.17,0.33c0.49-0.55,0.66-1.27,0.68-2.01
				c0.62,0.97,1.58,1.78,2.6,1.34c0.91-0.39,1.12-1.4,1.01-2.4c0.08,0.05,0.16,0.09,0.25,0.11c0.81,0.26,1.3-0.32,1.59-0.97
				c0.2,0.15,0.41,0.29,0.6,0.46c0.04,0.03,0.14,0.05,0.18,0.01c0.39-0.32,0.54-0.68,0.65-1.16c0.04-0.2,0.01-0.54,0.11-0.71
				c0.32-0.54,0.72-0.01,1.05,0.31c0.07,0.06,0.21,0.11,0.29,0.04c0.59-0.56,0.37-1.06,0.58-1.76c0.15-0.54,0.17-0.36,0.78-0.19
				c0.38,0.11,0.7,0.19,1.1,0.18C277.87,327.6,278.47,326.68,278.27,325.18z M232.12,351.57c-0.04-0.38,0.35-0.87,0.76-0.75
				c0.68,0.2,0.64,1.1,0.32,1.65C232.71,352.34,232.17,352.04,232.12,351.57z M243.95,341.22c1.25,0.62,1.89,2.07,1.56,3.36
				C244.56,343.73,243.79,342.21,243.95,341.22z"/>
			<path d="M304.38,340.25c-0.03-0.24-0.31-0.24-0.34,0c-0.13,1.01-0.73,1.47-1.68,1.53c-0.62,0.04-1.32,0.12-1.92-0.04
				c-0.11-0.03-0.19,0.06-0.22,0.15c-0.19,0.58-0.23,1.22-0.53,1.75c-0.44-0.33-0.99-0.71-1.37-0.17c-0.42,0.59-0.09,2.5-1.19,1.41
				c-0.11-0.11-0.23-0.1-0.31,0.03c-0.62,0.98-1.31,1.02-1.81,0.41c-0.14-0.39-0.31-0.73-0.49-0.99c-0.18-0.25-0.35,0.12-0.31,0.29
				c0.07,0.27,0.16,0.56,0.28,0.84c0.09,0.8-0.1,1.93-0.57,2.26c-1.06,0.75-2.3-1.05-2.46-1.91l0,0c-0.01-0.03-0.01-0.06-0.02-0.09
				c-0.1-0.39-0.51-0.19-0.45,0.16c0.01,0.04,0.02,0.08,0.02,0.11c0.18,0.73,0.01,1.86-0.37,2.51c-0.58,0.98-1.31,0.49-1.94-0.25
				c-0.19-0.22-0.34,0.07-0.34,0.25c0.01,1.19-0.95,2.88-2.07,1.43c-0.15-0.19-0.33-0.02-0.37,0.14c-0.13,0.47-0.24,0.94-0.36,1.41
				c-0.08,0.33-0.18,0.66-0.31,0.97c-0.05,0.5-0.22,0.55-0.49,0.16c-0.42-0.24-0.7-0.91-1.27-0.86c-0.77,0.07-0.87,1.14-0.84,1.88
				c-0.45-0.23-1.01-0.47-1.44-0.2c-0.44,0.28-0.57,0.98-0.65,1.5c-0.37-0.34-0.8-0.68-1.28-0.37c-0.46,0.29-0.64,1.15-0.76,1.75
				c-0.57-0.21-0.96-0.52-1.27-1.08c-0.11-0.21-0.27,0.04-0.28,0.17c-0.04,0.57,0.15,1.57-0.14,2.07c-0.6,1.03-1.86-0.79-2.11-1.45
				c-0.13-0.33-0.51-0.26-0.5,0.1c0.03,1.06,0.3,4.31-1.38,4.16c-0.26-0.02-0.53-0.14-0.8-0.31c0.52-1.77-0.3-3.81-2.09-4.52
				c-0.13-0.05-0.25-0.01-0.3,0.12c-0.57,1.43,0.44,3.55,1.71,4.71c-0.13,0.23-0.29,0.45-0.49,0.65c-0.59,0.56-1.42,0.19-1.92,0.79
				c-0.33,0.41-0.14,0.45-0.66,0.8c-0.53,0.36-0.66,0.23-1.11-0.17c-0.22-0.2-0.38-0.4-0.54-0.65c-0.14-0.21-0.33,0.02-0.35,0.18
				c-0.04,0.46-0.08,1.42-0.66,1.58c-0.5,0.14-1.06-0.42-1.38-0.7c-0.16-0.15-0.33-0.05-0.37,0.14c-0.07,0.28-0.09,0.57-0.12,0.86
				c-0.02,0.18-0.01,0.42-0.07,0.59c-0.16,0.46-0.87,1.28-1.23,0.05c-0.1-0.34-0.5-0.25-0.49,0.09c0.03,0.88-0.27,1.83-0.9,2.48
				c-0.33,0.34-0.73,0.58-1.21,0.62c0,0-0.01,0-0.01,0c0.07-0.16,0.11-0.34,0.13-0.53c0.04-0.62-0.24-1.64-0.93-1.82
				c-0.6-0.16-1.09,0.38-1.23,0.92c-0.19,0.76,0.27,1.45,0.91,1.81c0.03,0.02,0.06,0.03,0.1,0.05c-0.43,0.3-0.94,0.48-1.41,0.66
				c-0.38,0.14-0.89,0.24-1.22,0.49c-0.14,0.11-0.26,0.48-0.38,0.55c-1.09,0.59-0.55-0.15-1.09-0.12c-1.02,0.05-1.5,0.53-1.75,1.38
				c-0.89-0.9-1.67,0.46-1.96,1.46c-0.38-0.55-0.85-1.42-1.48-1.58c-0.66-0.16-1.27,0.45-1.71,0.84c-0.02,0.01-0.02,0.07,0.01,0.05
				c0.59-0.44,1.24-0.96,1.93-0.42c0.5,0.39,0.85,1.09,1.22,1.59c0.07,0.09,0.17-0.02,0.19-0.09c0.16-0.67,0.89-2.53,1.76-1.27
				c0.11,0.15,0.24,0.04,0.27-0.1c0.26-1.08,0.79-1.38,1.84-1.12c0.42,0.11,0.52,0.2,0.91-0.05c0.27-0.17,0.35-0.53,0.66-0.71
				c0.15-0.08,0.36-0.13,0.52-0.19c0.49-0.17,0.99-0.33,1.45-0.57c0.3-0.15,0.58-0.34,0.82-0.57c1.57,0.36,2.73-1.29,3.02-2.83
				c0.35,0.36,0.85,0.52,1.34,0.12c0.53-0.42,0.48-1.24,0.54-1.91c0.47,0.39,1.09,0.79,1.67,0.49c0.51-0.27,0.66-0.91,0.72-1.5
				c0.58,0.67,1.44,1.25,2.14,0.5c0.53-0.57-0.54-0.51,1.09-1.09c0.21-0.07,0.43,0.01,0.66-0.09c0.45-0.19,0.84-0.7,1.08-1.11
				c0.04-0.06,0.06-0.13,0.09-0.2c0.2,0.15,0.41,0.27,0.61,0.36c2.26,0.98,2.45-1.81,2.41-3.66c0.47,0.71,1.15,1.41,1.85,1.36
				c1.07-0.08,0.88-1.59,0.73-2.6c0.32,0.39,0.7,0.67,1.23,0.86c0.1,0.04,0.19-0.05,0.21-0.14c0.1-0.38,0.11-0.87,0.26-1.23
				c0.37-0.9,1-0.58,1.49-0.09c0.09,0.09,0.2-0.02,0.22-0.12c0.09-0.44,0.16-1.34,0.65-1.55c0.45-0.19,1.06,0.33,1.39,0.57
				c0.15,0.11,0.29-0.07,0.29-0.22c0.01-0.64-0.2-2.05,0.99-1.39c0.38,0.21,0.61,0.68,1.02,0.89c0.09,0.05,0.2,0.03,0.26-0.06
				c0.58-0.86,0.63-1.83,0.89-2.79c1.2,1.35,2.4-0.15,2.53-1.67c0.6,0.66,1.43,1.17,2.17,0.33c0.49-0.55,0.66-1.27,0.68-2.01
				c0.62,0.97,1.58,1.78,2.6,1.34c0.91-0.39,1.12-1.4,1.01-2.4c0.08,0.04,0.16,0.09,0.25,0.11c0.81,0.26,1.3-0.32,1.59-0.97
				c0.2,0.15,0.41,0.29,0.6,0.46c0.04,0.03,0.14,0.05,0.18,0.01c0.39-0.32,0.54-0.68,0.65-1.16c0.04-0.2,0.01-0.54,0.11-0.71
				c0.32-0.54,0.72-0.01,1.05,0.31c0.07,0.06,0.21,0.11,0.29,0.04c0.59-0.56,0.37-1.06,0.58-1.76c0.15-0.54,0.17-0.36,0.78-0.19
				c0.38,0.11,0.7,0.19,1.1,0.18C303.97,342.68,304.58,341.75,304.38,340.25z M258.23,366.64c-0.04-0.38,0.35-0.87,0.76-0.75
				c0.68,0.2,0.64,1.1,0.32,1.65C258.82,367.42,258.28,367.11,258.23,366.64z M270.06,356.3c1.25,0.62,1.89,2.07,1.56,3.36
				C270.67,358.8,269.89,357.29,270.06,356.3z"/>
			<path d="M243.71,359.04c-0.49,0.03-1.04,0.22-1.42,0.56c-0.62-0.62-1.38-1.18-1.76-1.71c-0.18-0.25-0.36,0.1-0.35,0.27
				c0.03,0.55-0.3,1.23-0.69,1.6c-0.4,0.38-0.69,0.27-1.16,0.18c-0.55-0.11-0.74,0.18-0.76,0.59c-0.71-0.28-1.09,0.47-1.31,1.16
				c-0.32-0.27-0.69-0.46-1.1-0.2c-0.42,0.27-0.63,0.83-0.81,1.28c-0.59-0.4-0.86-1.55-1.74-1.36c-0.72,0.15-1.28,1.17-1.42,1.82
				c-0.04,0.18,0.14,0.21,0.18,0.04c0.15-0.63,0.9-1.8,1.66-1.43c0.59,0.29,0.72,1.09,1.3,1.4c0.06,0.03,0.13-0.02,0.16-0.08
				c0.35-0.83,0.8-1.85,1.74-0.94c0.1,0.1,0.2-0.03,0.23-0.13c0.16-0.58,0.46-1.53,1.21-0.98c0.18,0.13,0.27-0.14,0.25-0.28
				c-0.1-0.64,0.45-0.31,0.81-0.25c0.33,0.05,0.59-0.03,0.86-0.23c0.49-0.37,0.85-0.99,0.98-1.61c0.31,0.32,0.67,0.6,0.99,0.9
				c0.11,0.11,0.26,0.24,0.42,0.39c-0.03,0.07-0.07,0.14-0.09,0.22c-0.21,0.78,0.24,1.69,1.06,1.84c0.12,0.02,0.18-0.06,0.22-0.16
				c0.26-0.71-0.02-1.33-0.49-1.9c0.35-0.2,0.76-0.23,1.1-0.43C243.94,359.49,243.97,359.02,243.71,359.04z M242.82,361.43
				c-0.46-0.17-0.68-0.64-0.5-1.03C242.6,360.72,242.83,361.08,242.82,361.43z"/>
			<path d="M256.11,348.86c-0.03-0.08-0.1,0-0.1,0.05c-0.04,0.35-0.01,0.8-0.42,0.9c-0.33,0.08-0.75-0.21-1.02-0.37
				c-0.11-0.07-0.18,0.12-0.19,0.19c-0.02,0.22-0.12,0.93-0.34,1.08c-0.32,0.22-0.8-0.46-0.96-0.66c-0.14-0.17-0.29,0.01-0.29,0.18
				c0.01,0.56-0.3,1.89-1.07,1.77c-0.18-0.03-0.34-0.12-0.48-0.24c0.03-0.83-0.19-1.7-0.86-2.14c-0.19-0.12-0.29,0.1-0.31,0.25
				c-0.08,0.66,0.2,1.67,0.74,2.3c-0.07,0.51-0.27,0.98-0.6,1.22c-0.46,0.33-0.83-0.04-1.31,0.02c-0.31,0.04-0.44,0.3-0.53,0.57
				c-0.6-0.41-1,0.23-1.28,0.81c-0.77-0.59-1.39,0.07-1.57,0.87c-0.34-0.26-0.77-0.5-1.17-0.46c-0.67,0.05-0.57,0.81-0.49,1.28
				c0.04,0.22,0.25,0.04,0.23-0.11c-0.1-1.06,1.1-0.27,1.47,0.1c0.17,0.17,0.38,0,0.37-0.21c-0.04-0.74,0.46-1.42,1.14-0.79
				c0.08,0.07,0.21,0.02,0.25-0.07c0.2-0.45,0.45-1.36,1.05-0.8c0.12,0.11,0.24-0.05,0.26-0.16c0.15-0.9,0.73-0.31,1.33-0.41
				c0.56-0.09,0.88-0.62,1.06-1.11c0.05-0.13,0.09-0.26,0.12-0.41c0.21,0.16,0.45,0.27,0.72,0.28c1.03,0.05,1.21-1.13,1.25-2.02
				c0.28,0.34,0.66,0.7,1.04,0.51c0.43-0.21,0.45-0.85,0.48-1.33c0.37,0.24,0.89,0.51,1.27,0.22
				C256.28,349.89,256.24,349.24,256.11,348.86z"/>
			<path d="M257.57,348.8c-0.04-0.04-0.08-0.01-0.11,0.03c-0.02,0.03-0.03,0.04-0.04,0.05c-0.01,0.01-0.02,0.03-0.03,0.04
				c-0.02,0.03,0.02-0.02-0.01,0.01c-0.02,0.03-0.05,0.06-0.08,0.08c-0.02,0.01-0.03,0.02-0.05,0.03c-0.01,0-0.02,0.01-0.02,0.01
				c-0.01,0.01,0.01,0-0.01,0c-0.04,0.01-0.07,0.02-0.11,0.03c-0.02,0,0.01,0-0.01,0c-0.01,0-0.02,0-0.03,0
				c-0.02,0-0.04,0-0.06-0.01c-0.02,0-0.04-0.01-0.06-0.01c-0.01,0-0.02-0.01-0.03-0.01c-0.01,0-0.01,0,0,0c0,0-0.01,0-0.01,0
				c-0.1-0.04-0.18-0.1-0.27-0.16c-0.03-0.02-0.07-0.01-0.1,0.01c-0.03,0.02-0.06,0.07-0.07,0.11c-0.02,0.08-0.02,0.19,0.06,0.25
				c0.17,0.12,0.39,0.21,0.6,0.15c0.22-0.06,0.37-0.25,0.43-0.45C257.6,348.92,257.61,348.84,257.57,348.8z"/>
			<path d="M259.29,346.97c0-0.06-0.06-0.01-0.06,0.03c-0.03,0.38-0.07,0.8-0.39,1.04c-0.26,0.2-0.64,0.23-0.96,0.3
				c-0.28,0.06-0.55,0.13-0.82,0.21c-0.14,0.04-0.14,0.4,0.01,0.35c0.46-0.15,0.94-0.21,1.4-0.34c0.16-0.04,0.32-0.1,0.45-0.21
				c0.16-0.13,0.26-0.33,0.31-0.53C259.31,347.54,259.31,347.25,259.29,346.97z"/>
			<path d="M283.43,332.76c-0.08-0.11-0.21-0.09-0.25,0.04c-0.34,1.05-1.19,0.95-1.7,0c-0.1-0.18-0.23,0.05-0.22,0.16
				c0.02,0.74-0.08,1.77-0.49,2.4c-0.53,0.82-0.89-0.16-1.49-0.14c-0.58,0.02-0.74,0.69-0.78,1.25c-0.51-0.32-1.01,0.03-1.25,0.67
				c-0.62-0.53-1.09-0.16-1.37,0.59c-0.32-0.28-0.76-0.78-1.07-0.7c-0.59,0.16-0.68,3.21-1.57,1.38c-0.04-0.09-0.09-0.13-0.14-0.14
				c-0.01-0.14-0.07-0.27-0.15-0.33c-0.88-0.55-1.58-0.38-2.02,0.58c-0.45,1-0.8,4.61-2.38,2.31c-0.12-0.18-0.31-0.02-0.32,0.15
				c-0.03,0.78-0.08,1.83-1,0.91c-0.13-0.13-0.27,0.08-0.28,0.19c-0.03,0.52-0.02,1.83-0.87,1.22c-0.42-0.3-0.71-0.85-0.81-1.35
				c-0.05-0.25-0.3-0.03-0.27,0.15c0.18,0.98-0.12,1.91-0.61,2.75c-0.08,0.14,0.05,0.42,0.18,0.21c0.41-0.66,0.7-1.35,0.76-2.08
				c0.29,0.56,0.73,1.11,1.25,1.03c0.59-0.09,0.69-0.8,0.73-1.37c0.94,0.77,1.19-0.05,1.27-1.02c0.6,0.66,1.34,0.84,1.95-0.12
				c0.21-0.33,0.33-0.92,0.48-1.5c0.04,0.37,0.19,0.72,0.47,0.98c0.95,0.89,1.55-0.55,1.75-1.62c0.35,0.44,0.8,0.66,1.22-0.03
				c0.17-0.28,0.41-1.55,0.54-1.56c0.08-0.01,0.81,0.67,0.94,0.74c0.15,0.08,0.26-0.02,0.3-0.17c0.02-0.6,0.36-0.73,1.01-0.39
				c0.13,0.16,0.33,0.05,0.36-0.13c0-0.53,0.31-0.71,0.94-0.55c0.16,0.22,0.42,0.13,0.42-0.15c0-0.22-0.06-0.7,0.07-0.88
				c0.34-0.45,0.63,0,0.91,0.12c0.4,0.18,0.76-0.03,1.01-0.35c0.54-0.68,0.59-1.66,0.56-2.54c0.61,0.85,1.6,0.92,1.88-0.17
				c1.12,1.08,1.97,2.71,2.48,4.13c0.1,0.29,0.36,0.05,0.35-0.16C286.15,335.39,284.43,334.17,283.43,332.76z M272.24,340.43
				c-0.76,0.57-0.8-0.85-0.56-1.27c0.26-0.45,0.64-0.66,1.15-0.56c0,0.02,0,0.04,0,0.05C272.86,339.15,272.66,340.11,272.24,340.43z
				"/>
			<path d="M263.25,360.51c-0.43-1.98-1.55-4.05-2.92-5.54c-0.14-0.15-0.4-0.22-0.47,0.04c-0.19,0.67,0.09,2.36-0.71,2.61
				c-0.6,0.19-0.94-0.92-1.46-1.22c-0.12-0.07-0.23-0.01-0.28,0.1c-0.43,0.81-0.31,1.98-0.82,2.73c-0.2-0.29-0.47-0.58-0.81-0.38
				c-0.29,0.17-0.39,0.68-0.45,1.08c-0.68-0.47-1.15,0.06-1.39,0.84c-0.77-0.73-1.3-0.2-1.73,0.7c-0.29-0.33-0.54-0.65-1.03-0.69
				c-0.09-0.01-0.17,0.03-0.21,0.12c-0.18,0.43-0.22,0.88-0.34,1.33c-0.32,1.17-0.99,0-1.27-0.51c-0.08-0.15-0.29-0.21-0.37-0.02
				c-0.24,0.55-0.25,1.14-0.37,1.72c-0.04,0.17-0.06,0.41-0.15,0.56c-0.2,0.32-0.67,0.39-1.04,0.19c-0.32-0.16-0.49-0.82-0.58-1.15
				c-0.08-0.3-0.44-0.26-0.43,0.05c0.01,1.03,0.21,3.03-0.92,3.53c-0.26,0.11-0.53,0.1-0.76,0.01c0.29-0.51,0.43-1.08,0.27-1.64
				c-0.29-1.04-1.26-0.81-1.39,0.18c-0.06,0.47,0.11,1.06,0.41,1.53c-0.38,0.53-0.89,0.94-1.49,1.24c-0.21,0.1-0.13,0.65,0.12,0.54
				c0.58-0.26,1.25-0.75,1.74-1.35c0.35,0.3,0.79,0.42,1.28,0.18c1-0.48,1.18-1.83,1.2-2.99c0.32,0.53,0.79,0.96,1.39,0.74
				c0.87-0.32,0.82-1.58,0.99-2.45c0.31,0.57,0.78,1.26,1.37,0.87c0.31-0.2,0.4-0.73,0.48-1.05c0.04-0.15,0.07-0.77,0.19-0.85
				c0.24-0.18,0.74,0.55,0.87,0.68c0.11,0.1,0.26,0.1,0.33-0.05c0.3-0.67,0.68-1.57,1.46-0.6c0.13,0.16,0.32,0.04,0.36-0.13
				c0.08-0.36,0.28-1.55,1.08-0.72c0.14,0.15,0.32,0.06,0.36-0.13c0.04-0.2,0.17-1.48,0.69-0.66c0.08,0.13,0.23,0.2,0.35,0.08
				c0.72-0.74,0.6-1.9,0.96-2.82c0.52,0.5,0.73,1.53,1.64,1.18c1-0.38,0.9-1.49,0.99-2.4c1.11,1.38,1.76,3,2.35,4.67
				C262.86,361.15,263.36,361.02,263.25,360.51z"/>
			<path d="M273.48,349c-0.38,0.15-0.52,0.52-0.55,0.91c-0.32-0.31-0.66-0.79-1.1-0.52c-0.27,0.16-0.36,0.49-0.39,0.82
				c-0.35-0.36-0.79-0.59-1.28-0.2c-0.41,0.32-0.37,0.78-0.4,1.23c-0.1-0.16-0.24-0.3-0.41-0.33c-0.28-0.05-0.46,0.21-0.57,0.43
				c-0.24,0.46-0.32,0.97-0.45,1.47c-0.43-0.47-0.91-1.03-1.49-1.21c-0.88-0.28-1.1,0.88-1.17,1.49c-0.04,0.35,0.38,0.56,0.44,0.13
				c0.06-0.52,0.2-1.29,0.87-0.92c0.52,0.28,0.92,0.79,1.33,1.2c0.12,0.13,0.26,0.08,0.32-0.09c0.14-0.43,0.19-0.89,0.33-1.32
				c0.05-0.15,0.13-0.5,0.29-0.58c0.21-0.1,0.38,0.3,0.44,0.44c0.1,0.2,0.27,0.12,0.32-0.06c0.1-0.38-0.01-0.85,0.16-1.21
				c0.13-0.27,0.49-0.41,0.76-0.29c0.25,0.1,0.42,0.38,0.57,0.6c0.18,0.25,0.32-0.12,0.3-0.27c-0.04-0.29-0.09-1.14,0.42-0.94
				c0.34,0.13,0.52,0.59,0.84,0.78c0.16,0.09,0.21-0.2,0.2-0.29c-0.05-0.38,0.09-0.74,0.29-1.06
				C273.59,349.13,273.6,348.96,273.48,349z"/>
			<path d="M295.5,334.24c-0.11-0.16-0.25,0-0.26,0.14c-0.01,0.78-0.01,1.62-0.25,2.37c-0.14,0.44-0.36,0.88-0.87,0.93
				c-0.5,0.05-0.76-0.36-1.15-0.54c-1.17-0.54-1.55,0.98-1.62,1.93c-0.43-0.18-0.8-0.1-0.97,0.29c-0.7-0.64-1.21,0.11-1.36,0.92
				c-0.36-0.38-0.7-0.72-1.22-0.22c-0.47,0.45-0.4,1.09-0.44,1.68c-0.5-0.49-1.03-1.08-1.75-0.58c-0.67,0.46-0.63,1.37-0.74,2.11
				c-0.39-0.17-0.72-0.44-1.08-0.68c-0.05-0.04-0.12,0.01-0.15,0.05c-0.15,0.21-0.19,0.37-0.31,0.59c-0.04,0.3-0.19,0.53-0.47,0.69
				c-0.37-0.18-0.69-0.43-0.96-0.75c-0.1-0.11-0.24-0.09-0.31,0.03c-0.2,0.35-0.24,0.73-0.41,1.09c-0.34,0.71-0.71,0.5-1.26,0.02
				c-0.19-0.17-0.36-0.02-0.41,0.19c-0.1,0.45-0.03,0.95-0.18,1.38c-0.46,1.32-1.67-0.15-1.96-0.75c-0.12-0.25-0.39-0.12-0.4,0.13
				c-0.01,0.74,0.45,2.58-0.39,2.88c-0.19,0.07-0.16,0.54,0.07,0.47c0.88-0.26,0.85-1.44,0.8-2.39c0.45,0.62,1.12,1.19,1.82,0.86
				c0.65-0.3,0.69-1.14,0.75-1.83c0.38,0.29,0.84,0.54,1.26,0.21c0.38-0.3,0.55-1.03,0.65-1.59c0.36,0.26,0.71,0.5,1.13,0.69
				c0.07,0.03,0.13-0.02,0.17-0.07c0.2-0.28,0.22-0.57,0.37-0.86c0.38-0.73,0.77-0.08,1.34,0.14c0.1,0.04,0.17-0.06,0.19-0.15
				c0.14-0.57,0.06-1.8,0.75-2.05c0.64-0.23,1.14,0.52,1.52,0.9c0.13,0.12,0.27,0.08,0.32-0.09c0.09-0.29,0.03-0.65,0.13-0.92
				c0.1-0.29,0.66-0.79,0.92-0.7c0,0,0.44,0.42,0.35,0.33c0.19,0.17,0.3-0.18,0.29-0.3c-0.11-0.63,0.21-0.89,0.96-0.79
				c0.16,0.19,0.32-0.03,0.31-0.21c0.16-0.46,0.41-0.51,0.76-0.16c0.12,0.1,0.22-0.03,0.24-0.15c0.08-0.45,0.11-0.9,0.26-1.33
				c0.13-0.37,0.48-0.76,0.95-0.64c0.15,0.04,0.39,0.35,0.51,0.43c0.47,0.32,1.05,0.42,1.51,0.03c0.78-0.65,0.74-2.01,0.67-3.06
				c0.92,1.17,2.13,2.43,2.31,3.92c0.03,0.28,0.3,0.18,0.31-0.06C298.3,337.01,296.41,335.56,295.5,334.24z"/>
		</g>
		<g class="st19">
			<path d="M325.12,243.89c-0.03-0.24-0.31-0.24-0.34,0c-0.13,1.01-0.73,1.47-1.68,1.53c-0.62,0.04-1.32,0.12-1.92-0.04
				c-0.11-0.03-0.19,0.06-0.22,0.15c-0.19,0.58-0.23,1.22-0.53,1.75c-0.44-0.33-0.99-0.71-1.37-0.17c-0.42,0.59-0.09,2.5-1.19,1.41
				c-0.11-0.11-0.23-0.1-0.31,0.03c-0.62,0.98-1.31,1.02-1.81,0.41c-0.14-0.39-0.31-0.73-0.49-0.99c-0.18-0.25-0.35,0.12-0.31,0.29
				c0.07,0.27,0.16,0.56,0.28,0.84c0.09,0.8-0.1,1.93-0.57,2.26c-1.06,0.75-2.3-1.05-2.46-1.91l0,0c-0.01-0.03-0.01-0.06-0.02-0.09
				c-0.1-0.39-0.51-0.19-0.45,0.16c0.01,0.04,0.02,0.08,0.02,0.11c0.18,0.73,0.01,1.86-0.37,2.51c-0.58,0.98-1.31,0.49-1.94-0.25
				c-0.19-0.22-0.34,0.07-0.34,0.25c0.01,1.19-0.95,2.88-2.07,1.43c-0.15-0.19-0.33-0.02-0.37,0.14c-0.13,0.47-0.24,0.94-0.36,1.41
				c-0.08,0.33-0.18,0.66-0.31,0.97c-0.05,0.5-0.22,0.55-0.49,0.16c-0.42-0.24-0.7-0.91-1.27-0.86c-0.77,0.07-0.87,1.14-0.84,1.88
				c-0.45-0.23-1.01-0.47-1.44-0.19c-0.44,0.28-0.57,0.98-0.65,1.5c-0.37-0.34-0.8-0.68-1.28-0.37c-0.46,0.29-0.64,1.15-0.76,1.75
				c-0.57-0.21-0.96-0.52-1.27-1.08c-0.11-0.21-0.27,0.04-0.28,0.17c-0.04,0.57,0.15,1.57-0.14,2.07c-0.6,1.03-1.86-0.79-2.11-1.45
				c-0.13-0.33-0.51-0.26-0.5,0.1c0.03,1.06,0.3,4.31-1.38,4.16c-0.26-0.02-0.53-0.14-0.8-0.31c0.52-1.77-0.3-3.81-2.09-4.52
				c-0.13-0.05-0.25-0.01-0.3,0.12c-0.57,1.43,0.44,3.55,1.71,4.71c-0.13,0.23-0.29,0.45-0.49,0.65c-0.59,0.56-1.42,0.19-1.92,0.79
				c-0.33,0.41-0.14,0.45-0.66,0.8c-0.53,0.36-0.66,0.23-1.11-0.17c-0.22-0.2-0.38-0.4-0.54-0.65c-0.14-0.21-0.33,0.02-0.35,0.18
				c-0.04,0.46-0.08,1.42-0.66,1.58c-0.5,0.14-1.07-0.42-1.38-0.7c-0.16-0.15-0.33-0.05-0.37,0.14c-0.07,0.28-0.09,0.57-0.12,0.86
				c-0.02,0.18-0.01,0.42-0.07,0.59c-0.16,0.46-0.87,1.28-1.23,0.05c-0.1-0.34-0.5-0.25-0.49,0.09c0.03,0.88-0.27,1.83-0.9,2.48
				c-0.33,0.34-0.73,0.58-1.21,0.62c0,0-0.01,0-0.01,0c0.07-0.16,0.11-0.34,0.13-0.53c0.04-0.62-0.24-1.64-0.93-1.82
				c-0.6-0.16-1.09,0.38-1.23,0.92c-0.19,0.76,0.27,1.45,0.91,1.81c0.03,0.02,0.06,0.03,0.1,0.05c-0.43,0.3-0.94,0.48-1.41,0.66
				c-0.38,0.14-0.89,0.24-1.22,0.49c-0.14,0.11-0.26,0.48-0.38,0.55c-1.09,0.59-0.55-0.15-1.09-0.12c-1.02,0.05-1.5,0.53-1.75,1.38
				c-0.89-0.9-1.67,0.46-1.96,1.46c-0.38-0.55-0.85-1.42-1.48-1.58c-0.66-0.16-1.27,0.45-1.71,0.84c-0.02,0.01-0.02,0.07,0.01,0.05
				c0.59-0.44,1.24-0.96,1.93-0.42c0.5,0.39,0.85,1.09,1.22,1.59c0.07,0.09,0.17-0.02,0.19-0.09c0.16-0.67,0.89-2.53,1.76-1.27
				c0.11,0.15,0.24,0.04,0.27-0.1c0.26-1.08,0.79-1.38,1.84-1.12c0.42,0.11,0.52,0.2,0.91-0.05c0.27-0.17,0.35-0.53,0.66-0.71
				c0.15-0.08,0.36-0.13,0.52-0.19c0.49-0.17,0.99-0.33,1.45-0.57c0.3-0.15,0.58-0.34,0.82-0.57c1.57,0.36,2.73-1.29,3.02-2.83
				c0.35,0.36,0.85,0.52,1.34,0.12c0.53-0.42,0.48-1.24,0.54-1.91c0.47,0.39,1.09,0.79,1.67,0.49c0.51-0.27,0.66-0.91,0.72-1.5
				c0.58,0.67,1.44,1.25,2.14,0.5c0.53-0.57-0.54-0.51,1.09-1.09c0.21-0.07,0.43,0.01,0.66-0.09c0.45-0.19,0.84-0.7,1.08-1.11
				c0.04-0.06,0.06-0.13,0.09-0.2c0.2,0.15,0.41,0.27,0.61,0.36c2.26,0.98,2.45-1.81,2.41-3.66c0.47,0.71,1.15,1.41,1.85,1.36
				c1.07-0.08,0.88-1.59,0.73-2.6c0.32,0.39,0.71,0.67,1.23,0.86c0.1,0.04,0.19-0.05,0.21-0.14c0.1-0.38,0.11-0.87,0.26-1.23
				c0.37-0.9,1-0.58,1.49-0.09c0.09,0.09,0.2-0.02,0.22-0.12c0.09-0.44,0.16-1.34,0.65-1.55c0.45-0.19,1.06,0.33,1.39,0.57
				c0.15,0.11,0.29-0.07,0.29-0.22c0.01-0.64-0.2-2.05,0.99-1.39c0.38,0.21,0.61,0.68,1.02,0.89c0.09,0.05,0.2,0.03,0.26-0.06
				c0.58-0.86,0.63-1.83,0.89-2.79c1.19,1.35,2.4-0.15,2.53-1.67c0.6,0.66,1.44,1.17,2.17,0.33c0.49-0.55,0.66-1.27,0.68-2.01
				c0.62,0.97,1.58,1.78,2.6,1.34c0.91-0.39,1.12-1.4,1.01-2.4c0.08,0.04,0.16,0.09,0.25,0.11c0.81,0.26,1.3-0.32,1.59-0.97
				c0.2,0.15,0.41,0.29,0.6,0.46c0.04,0.03,0.14,0.05,0.18,0.01c0.39-0.32,0.54-0.68,0.65-1.16c0.04-0.2,0.01-0.54,0.11-0.71
				c0.32-0.54,0.72-0.01,1.05,0.31c0.07,0.06,0.21,0.11,0.29,0.04c0.59-0.56,0.37-1.06,0.58-1.76c0.15-0.54,0.17-0.36,0.78-0.19
				c0.38,0.11,0.7,0.19,1.1,0.18C324.72,246.31,325.32,245.39,325.12,243.89z M278.97,270.28c-0.04-0.38,0.35-0.87,0.76-0.75
				c0.68,0.2,0.64,1.1,0.32,1.65C279.56,271.05,279.02,270.74,278.97,270.28z M290.8,259.93c1.25,0.62,1.89,2.07,1.56,3.36
				C291.41,262.44,290.64,260.92,290.8,259.93z"/>
			<path d="M351.23,258.96c-0.03-0.24-0.31-0.24-0.34,0c-0.13,1.01-0.73,1.47-1.68,1.53c-0.62,0.04-1.32,0.12-1.92-0.04
				c-0.11-0.03-0.19,0.06-0.22,0.15c-0.19,0.58-0.23,1.22-0.53,1.75c-0.44-0.33-0.99-0.71-1.37-0.17c-0.42,0.59-0.09,2.5-1.19,1.41
				c-0.11-0.11-0.23-0.1-0.31,0.03c-0.62,0.98-1.31,1.03-1.81,0.41c-0.14-0.39-0.31-0.73-0.49-0.99c-0.18-0.25-0.35,0.12-0.31,0.29
				c0.07,0.27,0.16,0.56,0.28,0.84c0.09,0.8-0.1,1.93-0.57,2.26c-1.06,0.75-2.3-1.05-2.46-1.91l0,0c-0.01-0.03-0.01-0.06-0.02-0.09
				c-0.1-0.39-0.51-0.19-0.45,0.16c0.01,0.04,0.02,0.08,0.02,0.11c0.18,0.73,0.01,1.86-0.37,2.51c-0.58,0.98-1.31,0.49-1.94-0.25
				c-0.19-0.22-0.34,0.07-0.34,0.25c0.01,1.19-0.95,2.88-2.07,1.43c-0.15-0.19-0.33-0.02-0.37,0.14c-0.13,0.47-0.24,0.94-0.36,1.4
				c-0.08,0.33-0.18,0.66-0.31,0.97c-0.05,0.5-0.22,0.55-0.49,0.16c-0.42-0.24-0.7-0.91-1.27-0.86c-0.77,0.07-0.87,1.14-0.84,1.88
				c-0.45-0.23-1.01-0.47-1.44-0.19c-0.44,0.28-0.57,0.98-0.65,1.5c-0.37-0.34-0.8-0.68-1.28-0.37c-0.46,0.29-0.64,1.15-0.76,1.75
				c-0.57-0.21-0.96-0.52-1.27-1.08c-0.11-0.21-0.27,0.04-0.28,0.17c-0.04,0.57,0.15,1.57-0.14,2.07c-0.6,1.03-1.86-0.79-2.11-1.45
				c-0.13-0.33-0.51-0.26-0.5,0.1c0.03,1.06,0.3,4.31-1.38,4.16c-0.26-0.02-0.53-0.14-0.8-0.31c0.52-1.77-0.3-3.81-2.09-4.52
				c-0.13-0.05-0.25-0.01-0.3,0.12c-0.57,1.43,0.44,3.55,1.71,4.71c-0.13,0.23-0.29,0.45-0.49,0.65c-0.59,0.56-1.42,0.19-1.92,0.79
				c-0.33,0.41-0.14,0.45-0.66,0.8c-0.53,0.36-0.66,0.23-1.11-0.17c-0.22-0.2-0.38-0.4-0.54-0.65c-0.14-0.21-0.33,0.02-0.35,0.18
				c-0.04,0.46-0.08,1.42-0.66,1.58c-0.5,0.14-1.07-0.42-1.38-0.7c-0.16-0.15-0.33-0.05-0.37,0.14c-0.07,0.28-0.09,0.57-0.12,0.86
				c-0.02,0.18-0.01,0.42-0.07,0.59c-0.16,0.46-0.87,1.28-1.23,0.05c-0.1-0.34-0.5-0.25-0.49,0.09c0.03,0.88-0.27,1.83-0.9,2.48
				c-0.33,0.34-0.73,0.58-1.21,0.62c0,0-0.01,0-0.01,0c0.07-0.16,0.11-0.34,0.13-0.53c0.04-0.62-0.24-1.64-0.93-1.82
				c-0.6-0.16-1.09,0.38-1.23,0.92c-0.19,0.76,0.27,1.45,0.91,1.81c0.03,0.02,0.06,0.03,0.1,0.05c-0.43,0.3-0.94,0.48-1.41,0.66
				c-0.38,0.14-0.89,0.24-1.22,0.49c-0.14,0.11-0.26,0.48-0.38,0.55c-1.09,0.59-0.55-0.15-1.09-0.12c-1.02,0.05-1.5,0.53-1.75,1.38
				c-0.89-0.9-1.67,0.46-1.96,1.46c-0.38-0.55-0.85-1.42-1.48-1.58c-0.66-0.16-1.27,0.45-1.71,0.84c-0.02,0.01-0.02,0.07,0.01,0.05
				c0.59-0.44,1.24-0.96,1.93-0.42c0.5,0.39,0.85,1.09,1.22,1.59c0.07,0.09,0.17-0.02,0.19-0.09c0.16-0.67,0.89-2.53,1.76-1.27
				c0.11,0.15,0.24,0.04,0.27-0.1c0.26-1.08,0.79-1.38,1.84-1.12c0.42,0.11,0.52,0.2,0.91-0.05c0.27-0.17,0.35-0.53,0.66-0.71
				c0.15-0.08,0.36-0.13,0.52-0.19c0.49-0.17,0.99-0.33,1.45-0.57c0.3-0.15,0.58-0.34,0.82-0.57c1.57,0.36,2.73-1.29,3.02-2.83
				c0.35,0.36,0.85,0.52,1.34,0.12c0.53-0.42,0.48-1.24,0.54-1.91c0.47,0.39,1.09,0.79,1.66,0.49c0.51-0.27,0.66-0.91,0.72-1.5
				c0.58,0.67,1.44,1.25,2.14,0.5c0.53-0.57-0.54-0.51,1.09-1.09c0.21-0.07,0.43,0.01,0.66-0.09c0.45-0.19,0.84-0.7,1.08-1.11
				c0.04-0.06,0.06-0.13,0.09-0.2c0.2,0.15,0.41,0.27,0.61,0.36c2.26,0.98,2.45-1.81,2.41-3.66c0.47,0.71,1.15,1.41,1.85,1.36
				c1.07-0.08,0.88-1.59,0.73-2.6c0.32,0.39,0.71,0.67,1.23,0.86c0.1,0.04,0.19-0.05,0.21-0.14c0.1-0.38,0.11-0.87,0.26-1.23
				c0.37-0.9,1-0.58,1.49-0.09c0.09,0.09,0.2-0.02,0.22-0.12c0.09-0.44,0.16-1.34,0.65-1.55c0.45-0.19,1.06,0.33,1.39,0.57
				c0.15,0.11,0.29-0.07,0.29-0.22c0.01-0.64-0.2-2.05,0.99-1.39c0.38,0.21,0.61,0.68,1.02,0.89c0.09,0.05,0.2,0.03,0.26-0.06
				c0.58-0.86,0.63-1.83,0.89-2.79c1.2,1.35,2.4-0.15,2.53-1.67c0.6,0.66,1.43,1.17,2.17,0.33c0.49-0.55,0.66-1.28,0.68-2.01
				c0.62,0.97,1.58,1.78,2.6,1.34c0.91-0.39,1.12-1.4,1.01-2.4c0.08,0.05,0.16,0.09,0.25,0.11c0.81,0.26,1.3-0.32,1.59-0.97
				c0.2,0.15,0.41,0.29,0.6,0.46c0.04,0.03,0.14,0.05,0.18,0.01c0.39-0.32,0.54-0.68,0.65-1.16c0.04-0.2,0.01-0.54,0.11-0.71
				c0.32-0.54,0.72-0.01,1.05,0.31c0.07,0.06,0.21,0.11,0.29,0.04c0.59-0.56,0.37-1.06,0.58-1.76c0.15-0.54,0.17-0.36,0.78-0.19
				c0.38,0.11,0.7,0.19,1.1,0.18C350.82,261.38,351.43,260.46,351.23,258.96z M305.08,285.35c-0.04-0.38,0.35-0.87,0.76-0.75
				c0.68,0.2,0.64,1.1,0.32,1.65C305.67,286.12,305.13,285.82,305.08,285.35z M316.91,275c1.25,0.62,1.89,2.07,1.56,3.36
				C317.52,277.51,316.74,275.99,316.91,275z"/>
			<path d="M290.56,277.75c-0.49,0.03-1.04,0.22-1.42,0.56c-0.62-0.62-1.38-1.18-1.76-1.71c-0.18-0.25-0.36,0.1-0.35,0.27
				c0.03,0.55-0.3,1.23-0.69,1.6c-0.4,0.38-0.69,0.27-1.16,0.18c-0.55-0.11-0.74,0.18-0.76,0.59c-0.71-0.28-1.09,0.47-1.31,1.16
				c-0.32-0.27-0.69-0.46-1.1-0.2c-0.42,0.27-0.63,0.83-0.81,1.28c-0.59-0.4-0.86-1.55-1.74-1.36c-0.72,0.15-1.28,1.17-1.42,1.82
				c-0.04,0.18,0.14,0.21,0.18,0.04c0.15-0.63,0.9-1.8,1.66-1.43c0.59,0.29,0.72,1.09,1.3,1.4c0.06,0.03,0.13-0.02,0.16-0.08
				c0.35-0.83,0.8-1.85,1.74-0.94c0.1,0.1,0.2-0.03,0.23-0.13c0.16-0.58,0.46-1.53,1.21-0.98c0.18,0.13,0.27-0.14,0.25-0.28
				c-0.1-0.64,0.45-0.31,0.81-0.25c0.33,0.05,0.59-0.03,0.86-0.23c0.49-0.37,0.85-0.99,0.98-1.61c0.31,0.32,0.67,0.6,0.99,0.9
				c0.11,0.11,0.26,0.24,0.42,0.39c-0.03,0.07-0.07,0.14-0.09,0.22c-0.21,0.78,0.24,1.69,1.06,1.84c0.12,0.02,0.18-0.06,0.22-0.16
				c0.26-0.71-0.02-1.33-0.49-1.9c0.35-0.2,0.76-0.23,1.1-0.43C290.79,278.2,290.82,277.73,290.56,277.75z M289.67,280.13
				c-0.46-0.17-0.68-0.64-0.5-1.03C289.45,279.42,289.68,279.78,289.67,280.13z"/>
			<path d="M302.96,267.56c-0.03-0.08-0.1,0-0.1,0.05c-0.04,0.35-0.01,0.8-0.42,0.9c-0.33,0.08-0.75-0.21-1.02-0.37
				c-0.11-0.07-0.18,0.12-0.19,0.19c-0.02,0.22-0.12,0.93-0.34,1.08c-0.32,0.22-0.8-0.46-0.96-0.66c-0.14-0.17-0.29,0.01-0.29,0.18
				c0.01,0.56-0.3,1.89-1.07,1.77c-0.18-0.03-0.34-0.12-0.48-0.24c0.03-0.83-0.19-1.7-0.86-2.14c-0.19-0.12-0.29,0.1-0.31,0.25
				c-0.08,0.66,0.2,1.67,0.74,2.3c-0.07,0.51-0.27,0.98-0.6,1.22c-0.46,0.33-0.83-0.04-1.3,0.02c-0.31,0.04-0.44,0.3-0.53,0.57
				c-0.6-0.41-1,0.23-1.28,0.81c-0.77-0.59-1.39,0.07-1.57,0.87c-0.34-0.26-0.77-0.5-1.17-0.47c-0.67,0.05-0.57,0.81-0.49,1.28
				c0.04,0.22,0.25,0.04,0.23-0.11c-0.1-1.06,1.1-0.27,1.47,0.1c0.17,0.17,0.38,0,0.37-0.21c-0.04-0.74,0.46-1.42,1.14-0.79
				c0.08,0.07,0.21,0.02,0.25-0.07c0.2-0.45,0.45-1.36,1.05-0.8c0.12,0.11,0.24-0.05,0.26-0.16c0.15-0.9,0.73-0.31,1.33-0.41
				c0.56-0.09,0.88-0.62,1.06-1.11c0.05-0.13,0.09-0.26,0.12-0.41c0.21,0.16,0.45,0.27,0.72,0.28c1.03,0.05,1.21-1.13,1.25-2.02
				c0.28,0.34,0.66,0.7,1.04,0.51c0.43-0.21,0.45-0.85,0.48-1.33c0.37,0.24,0.89,0.51,1.27,0.22
				C303.13,268.6,303.09,267.95,302.96,267.56z"/>
			<path d="M304.42,267.51c-0.04-0.04-0.08-0.01-0.11,0.03c-0.02,0.03-0.03,0.04-0.04,0.05c-0.01,0.01-0.02,0.03-0.03,0.04
				c-0.02,0.03,0.02-0.02-0.01,0.01c-0.02,0.03-0.05,0.06-0.08,0.08c-0.02,0.01-0.03,0.02-0.05,0.03c-0.01,0-0.02,0.01-0.02,0.01
				c-0.01,0.01,0.01,0-0.01,0c-0.04,0.01-0.07,0.02-0.11,0.03c-0.02,0,0.01,0-0.01,0c-0.01,0-0.02,0-0.03,0
				c-0.02,0-0.04,0-0.06-0.01c-0.02,0-0.04-0.01-0.06-0.01c-0.01,0-0.02-0.01-0.03-0.01c-0.01,0-0.01,0,0,0c0,0-0.01,0-0.01,0
				c-0.1-0.04-0.18-0.1-0.27-0.16c-0.03-0.02-0.07-0.01-0.1,0.01c-0.03,0.02-0.06,0.07-0.07,0.11c-0.02,0.08-0.02,0.19,0.06,0.25
				c0.17,0.12,0.39,0.21,0.6,0.15c0.22-0.06,0.37-0.25,0.43-0.45C304.45,267.62,304.46,267.55,304.42,267.51z"/>
			<path d="M306.14,265.67c0-0.06-0.06-0.01-0.06,0.03c-0.03,0.38-0.07,0.8-0.39,1.04c-0.26,0.2-0.64,0.23-0.96,0.3
				c-0.28,0.06-0.55,0.13-0.82,0.21c-0.14,0.05-0.14,0.4,0.01,0.35c0.46-0.15,0.94-0.21,1.4-0.34c0.16-0.04,0.32-0.1,0.45-0.21
				c0.16-0.13,0.26-0.33,0.31-0.53C306.16,266.25,306.16,265.95,306.14,265.67z"/>
			<path d="M330.28,251.46c-0.08-0.11-0.21-0.09-0.25,0.04c-0.34,1.05-1.19,0.95-1.7,0c-0.1-0.18-0.23,0.05-0.22,0.16
				c0.02,0.74-0.08,1.77-0.49,2.4c-0.53,0.82-0.89-0.16-1.49-0.14c-0.58,0.02-0.74,0.69-0.78,1.25c-0.51-0.32-1.01,0.03-1.25,0.67
				c-0.62-0.53-1.09-0.16-1.37,0.59c-0.32-0.28-0.76-0.78-1.07-0.7c-0.59,0.16-0.68,3.21-1.57,1.38c-0.04-0.09-0.09-0.13-0.14-0.14
				c-0.01-0.14-0.07-0.27-0.15-0.33c-0.88-0.55-1.58-0.38-2.02,0.58c-0.45,1-0.8,4.61-2.38,2.31c-0.12-0.18-0.31-0.02-0.32,0.15
				c-0.03,0.78-0.08,1.83-1,0.91c-0.13-0.13-0.27,0.08-0.28,0.19c-0.03,0.52-0.02,1.83-0.87,1.22c-0.42-0.3-0.71-0.85-0.81-1.35
				c-0.05-0.25-0.3-0.03-0.27,0.15c0.18,0.98-0.12,1.91-0.61,2.75c-0.08,0.14,0.05,0.42,0.18,0.21c0.41-0.66,0.7-1.35,0.76-2.08
				c0.29,0.56,0.73,1.11,1.25,1.03c0.59-0.09,0.69-0.8,0.73-1.37c0.94,0.77,1.19-0.05,1.27-1.02c0.6,0.66,1.34,0.84,1.95-0.12
				c0.21-0.33,0.33-0.92,0.48-1.5c0.04,0.37,0.19,0.72,0.47,0.98c0.95,0.89,1.55-0.55,1.75-1.62c0.35,0.44,0.8,0.66,1.22-0.03
				c0.17-0.28,0.41-1.55,0.54-1.56c0.08-0.01,0.81,0.67,0.94,0.74c0.15,0.08,0.26-0.02,0.3-0.17c0.02-0.6,0.36-0.73,1.01-0.39
				c0.13,0.16,0.33,0.05,0.36-0.13c0-0.53,0.31-0.71,0.94-0.55c0.16,0.22,0.42,0.13,0.42-0.15c0-0.22-0.06-0.7,0.07-0.88
				c0.34-0.45,0.63,0,0.91,0.12c0.4,0.18,0.76-0.03,1.01-0.35c0.54-0.68,0.59-1.66,0.56-2.54c0.61,0.85,1.6,0.92,1.88-0.17
				c1.12,1.08,1.97,2.71,2.48,4.13c0.1,0.29,0.36,0.05,0.35-0.16C333,254.1,331.28,252.88,330.28,251.46z M319.09,259.14
				c-0.76,0.57-0.8-0.85-0.56-1.27c0.26-0.45,0.64-0.66,1.15-0.56c0,0.02,0,0.04,0,0.05C319.71,257.86,319.51,258.82,319.09,259.14z
				"/>
			<path d="M325.07,296.48c-0.49,0.03-1.04,0.22-1.42,0.56c-0.62-0.62-1.38-1.18-1.76-1.71c-0.18-0.25-0.36,0.1-0.35,0.27
				c0.03,0.55-0.3,1.23-0.69,1.6c-0.4,0.38-0.69,0.27-1.16,0.18c-0.55-0.11-0.74,0.18-0.76,0.59c-0.71-0.28-1.09,0.47-1.31,1.16
				c-0.32-0.27-0.69-0.46-1.1-0.2c-0.42,0.27-0.63,0.83-0.81,1.29c-0.59-0.4-0.86-1.55-1.74-1.36c-0.72,0.15-1.28,1.17-1.42,1.82
				c-0.04,0.18,0.14,0.21,0.18,0.04c0.15-0.63,0.9-1.8,1.66-1.43c0.59,0.29,0.72,1.09,1.3,1.4c0.06,0.03,0.13-0.02,0.16-0.08
				c0.35-0.83,0.8-1.85,1.74-0.94c0.1,0.1,0.2-0.03,0.23-0.13c0.16-0.58,0.46-1.53,1.21-0.98c0.18,0.13,0.27-0.14,0.25-0.28
				c-0.1-0.64,0.45-0.31,0.81-0.25c0.33,0.05,0.59-0.03,0.86-0.23c0.49-0.37,0.85-0.99,0.98-1.61c0.31,0.32,0.67,0.6,0.99,0.9
				c0.11,0.11,0.26,0.24,0.42,0.39c-0.03,0.07-0.07,0.14-0.09,0.22c-0.21,0.78,0.24,1.69,1.06,1.84c0.12,0.02,0.18-0.06,0.22-0.16
				c0.26-0.71-0.02-1.33-0.49-1.9c0.35-0.2,0.76-0.23,1.1-0.43C325.3,296.94,325.33,296.47,325.07,296.48z M324.18,298.87
				c-0.46-0.17-0.68-0.64-0.5-1.03C323.97,298.16,324.19,298.52,324.18,298.87z"/>
			<path d="M337.47,286.3c-0.03-0.08-0.1,0-0.1,0.05c-0.04,0.35-0.01,0.8-0.42,0.9c-0.33,0.08-0.75-0.21-1.02-0.37
				c-0.11-0.07-0.18,0.12-0.19,0.19c-0.02,0.22-0.12,0.93-0.34,1.08c-0.32,0.22-0.8-0.46-0.96-0.66c-0.14-0.17-0.29,0.01-0.29,0.18
				c0.01,0.56-0.3,1.89-1.07,1.77c-0.18-0.03-0.34-0.12-0.48-0.24c0.03-0.83-0.19-1.7-0.86-2.14c-0.19-0.12-0.29,0.1-0.31,0.25
				c-0.08,0.66,0.2,1.67,0.74,2.3c-0.07,0.51-0.27,0.98-0.6,1.22c-0.46,0.33-0.83-0.04-1.3,0.02c-0.31,0.04-0.44,0.3-0.53,0.57
				c-0.6-0.41-1,0.23-1.28,0.81c-0.77-0.59-1.39,0.07-1.57,0.87c-0.34-0.26-0.77-0.5-1.17-0.46c-0.67,0.05-0.57,0.81-0.49,1.28
				c0.04,0.22,0.25,0.04,0.23-0.11c-0.1-1.06,1.1-0.27,1.47,0.1c0.17,0.17,0.38,0,0.37-0.21c-0.04-0.74,0.46-1.42,1.14-0.79
				c0.08,0.07,0.21,0.02,0.25-0.07c0.2-0.45,0.45-1.36,1.05-0.8c0.12,0.11,0.24-0.05,0.26-0.16c0.15-0.9,0.73-0.31,1.33-0.41
				c0.56-0.09,0.88-0.62,1.06-1.11c0.05-0.13,0.09-0.26,0.12-0.41c0.21,0.16,0.45,0.27,0.72,0.28c1.03,0.05,1.21-1.13,1.25-2.02
				c0.28,0.34,0.66,0.7,1.04,0.51c0.43-0.21,0.45-0.85,0.48-1.33c0.37,0.24,0.89,0.51,1.27,0.22
				C337.65,287.34,337.6,286.69,337.47,286.3z"/>
			<path d="M340.65,284.41c0-0.06-0.06-0.01-0.06,0.03c-0.03,0.38-0.07,0.8-0.39,1.04c-0.26,0.2-0.64,0.23-0.96,0.3
				c-0.28,0.06-0.55,0.13-0.82,0.21c-0.14,0.05-0.14,0.4,0.01,0.35c0.46-0.15,0.94-0.21,1.4-0.34c0.16-0.04,0.32-0.1,0.45-0.21
				c0.16-0.13,0.26-0.33,0.31-0.53C340.67,284.99,340.67,284.69,340.65,284.41z"/>
			<path d="M364.8,270.2c-0.08-0.11-0.21-0.09-0.25,0.04c-0.34,1.05-1.19,0.95-1.7,0c-0.1-0.18-0.23,0.05-0.22,0.16
				c0.02,0.74-0.08,1.77-0.49,2.4c-0.53,0.82-0.89-0.16-1.49-0.14c-0.58,0.02-0.74,0.69-0.78,1.25c-0.51-0.32-1.01,0.03-1.25,0.67
				c-0.62-0.53-1.09-0.16-1.37,0.59c-0.32-0.28-0.76-0.78-1.07-0.7c-0.59,0.16-0.68,3.21-1.57,1.38c-0.04-0.09-0.09-0.13-0.14-0.14
				c-0.01-0.14-0.07-0.27-0.15-0.33c-0.88-0.55-1.58-0.38-2.02,0.58c-0.45,1-0.8,4.61-2.38,2.31c-0.12-0.18-0.31-0.02-0.32,0.15
				c-0.03,0.78-0.08,1.83-1,0.91c-0.13-0.13-0.27,0.08-0.28,0.19c-0.03,0.52-0.02,1.83-0.87,1.22c-0.42-0.3-0.71-0.85-0.81-1.35
				c-0.05-0.25-0.3-0.03-0.27,0.15c0.18,0.98-0.12,1.91-0.61,2.75c-0.08,0.14,0.05,0.42,0.18,0.21c0.41-0.66,0.7-1.35,0.76-2.08
				c0.29,0.56,0.73,1.11,1.25,1.03c0.59-0.09,0.69-0.8,0.73-1.37c0.94,0.77,1.19-0.05,1.27-1.02c0.6,0.66,1.34,0.84,1.95-0.12
				c0.21-0.33,0.33-0.92,0.48-1.5c0.04,0.37,0.19,0.72,0.47,0.98c0.95,0.89,1.55-0.55,1.75-1.62c0.35,0.44,0.8,0.66,1.22-0.03
				c0.17-0.28,0.41-1.55,0.54-1.56c0.08-0.01,0.81,0.67,0.94,0.74c0.15,0.08,0.26-0.02,0.3-0.17c0.02-0.6,0.36-0.73,1.01-0.39
				c0.13,0.16,0.33,0.05,0.36-0.13c0-0.53,0.31-0.71,0.94-0.55c0.16,0.22,0.42,0.13,0.42-0.15c0-0.22-0.06-0.7,0.07-0.88
				c0.34-0.45,0.63,0,0.91,0.12c0.4,0.18,0.76-0.03,1.01-0.35c0.54-0.68,0.59-1.66,0.56-2.54c0.61,0.85,1.6,0.92,1.88-0.17
				c1.12,1.08,1.97,2.71,2.48,4.13c0.1,0.29,0.36,0.05,0.35-0.16C367.51,272.84,365.79,271.62,364.8,270.2z M353.6,277.88
				c-0.76,0.57-0.8-0.85-0.56-1.27c0.26-0.45,0.64-0.66,1.15-0.56c0,0.02,0,0.04,0,0.05C354.22,276.6,354.03,277.56,353.6,277.88z"
				/>
			<path d="M310.1,279.21c-0.43-1.98-1.55-4.05-2.92-5.54c-0.14-0.15-0.4-0.22-0.47,0.04c-0.19,0.67,0.09,2.36-0.71,2.61
				c-0.6,0.19-0.94-0.92-1.46-1.22c-0.12-0.07-0.23-0.01-0.28,0.1c-0.43,0.81-0.31,1.98-0.82,2.73c-0.2-0.29-0.47-0.58-0.81-0.38
				c-0.29,0.17-0.39,0.68-0.45,1.08c-0.68-0.47-1.15,0.06-1.39,0.84c-0.77-0.73-1.3-0.2-1.73,0.7c-0.29-0.33-0.54-0.65-1.03-0.69
				c-0.09-0.01-0.17,0.03-0.21,0.12c-0.18,0.43-0.22,0.88-0.34,1.33c-0.32,1.17-0.99,0-1.27-0.51c-0.08-0.15-0.29-0.21-0.37-0.02
				c-0.24,0.55-0.25,1.14-0.37,1.72c-0.04,0.17-0.06,0.41-0.15,0.56c-0.2,0.32-0.67,0.39-1.04,0.19c-0.32-0.16-0.49-0.82-0.58-1.15
				c-0.08-0.3-0.44-0.26-0.43,0.05c0.01,1.03,0.21,3.03-0.92,3.53c-0.26,0.11-0.53,0.1-0.76,0.01c0.29-0.51,0.43-1.08,0.27-1.64
				c-0.29-1.04-1.26-0.81-1.39,0.18c-0.06,0.47,0.11,1.06,0.41,1.53c-0.38,0.53-0.89,0.94-1.49,1.24c-0.21,0.1-0.13,0.65,0.12,0.54
				c0.58-0.26,1.25-0.75,1.74-1.35c0.35,0.3,0.79,0.42,1.28,0.18c1-0.48,1.17-1.83,1.2-2.99c0.32,0.53,0.79,0.96,1.39,0.74
				c0.87-0.32,0.82-1.58,0.99-2.45c0.31,0.57,0.78,1.26,1.37,0.87c0.31-0.2,0.4-0.73,0.48-1.05c0.04-0.15,0.07-0.77,0.19-0.85
				c0.25-0.18,0.74,0.55,0.87,0.68c0.11,0.1,0.26,0.1,0.33-0.05c0.3-0.67,0.68-1.57,1.46-0.6c0.13,0.16,0.32,0.04,0.36-0.13
				c0.08-0.36,0.28-1.55,1.08-0.72c0.14,0.15,0.32,0.06,0.36-0.13c0.04-0.2,0.17-1.48,0.69-0.66c0.08,0.13,0.23,0.2,0.35,0.08
				c0.72-0.74,0.6-1.9,0.96-2.82c0.52,0.5,0.73,1.53,1.64,1.18c1-0.38,0.89-1.49,0.99-2.4c1.11,1.38,1.76,3,2.35,4.67
				C309.71,279.85,310.21,279.73,310.1,279.21z"/>
			<path d="M320.33,267.71c-0.38,0.15-0.52,0.52-0.55,0.91c-0.32-0.31-0.66-0.79-1.1-0.52c-0.27,0.16-0.36,0.49-0.39,0.82
				c-0.35-0.36-0.79-0.59-1.28-0.2c-0.41,0.32-0.37,0.78-0.4,1.23c-0.1-0.16-0.24-0.3-0.41-0.33c-0.28-0.05-0.46,0.21-0.57,0.43
				c-0.24,0.46-0.32,0.97-0.45,1.47c-0.43-0.47-0.91-1.03-1.49-1.21c-0.88-0.28-1.1,0.88-1.17,1.49c-0.04,0.35,0.39,0.56,0.44,0.13
				c0.06-0.52,0.2-1.29,0.87-0.92c0.52,0.28,0.92,0.79,1.33,1.2c0.12,0.13,0.26,0.08,0.32-0.09c0.14-0.43,0.19-0.89,0.33-1.32
				c0.05-0.15,0.13-0.5,0.29-0.58c0.21-0.1,0.38,0.3,0.44,0.44c0.1,0.2,0.27,0.12,0.32-0.06c0.1-0.38-0.01-0.85,0.16-1.21
				c0.13-0.27,0.49-0.41,0.76-0.29c0.25,0.1,0.42,0.38,0.57,0.6c0.18,0.25,0.32-0.11,0.3-0.27c-0.04-0.29-0.09-1.14,0.42-0.94
				c0.34,0.13,0.52,0.59,0.84,0.78c0.16,0.09,0.21-0.2,0.2-0.29c-0.05-0.38,0.09-0.74,0.29-1.06
				C320.44,267.84,320.45,267.66,320.33,267.71z"/>
			<path d="M342.35,252.95c-0.11-0.16-0.25,0-0.26,0.14c-0.01,0.78-0.01,1.62-0.25,2.37c-0.14,0.44-0.36,0.88-0.87,0.93
				c-0.5,0.05-0.76-0.36-1.15-0.54c-1.17-0.54-1.55,0.98-1.62,1.93c-0.43-0.18-0.8-0.1-0.97,0.29c-0.7-0.64-1.21,0.11-1.36,0.92
				c-0.36-0.38-0.7-0.72-1.22-0.22c-0.47,0.45-0.4,1.09-0.44,1.68c-0.5-0.49-1.03-1.08-1.75-0.58c-0.67,0.46-0.63,1.37-0.74,2.11
				c-0.39-0.17-0.72-0.44-1.08-0.68c-0.05-0.04-0.12,0.01-0.15,0.05c-0.15,0.2-0.19,0.37-0.31,0.59c-0.04,0.3-0.19,0.53-0.47,0.69
				c-0.37-0.18-0.69-0.43-0.96-0.75c-0.1-0.11-0.24-0.09-0.31,0.03c-0.2,0.35-0.24,0.73-0.41,1.09c-0.34,0.71-0.71,0.5-1.26,0.02
				c-0.19-0.17-0.36-0.02-0.41,0.19c-0.1,0.45-0.03,0.95-0.18,1.38c-0.46,1.32-1.67-0.15-1.96-0.75c-0.12-0.25-0.39-0.12-0.4,0.13
				c-0.01,0.74,0.45,2.58-0.39,2.88c-0.19,0.07-0.16,0.54,0.07,0.47c0.88-0.26,0.85-1.44,0.8-2.39c0.45,0.62,1.12,1.19,1.82,0.86
				c0.65-0.3,0.69-1.14,0.75-1.83c0.38,0.29,0.84,0.54,1.26,0.21c0.38-0.3,0.55-1.03,0.65-1.59c0.36,0.26,0.71,0.5,1.13,0.69
				c0.07,0.03,0.13-0.02,0.17-0.07c0.2-0.28,0.22-0.57,0.37-0.86c0.38-0.73,0.77-0.08,1.34,0.14c0.1,0.04,0.17-0.06,0.19-0.15
				c0.14-0.57,0.06-1.8,0.75-2.05c0.64-0.23,1.14,0.52,1.52,0.9c0.13,0.12,0.27,0.08,0.32-0.09c0.09-0.29,0.03-0.65,0.13-0.92
				c0.1-0.29,0.66-0.79,0.92-0.7c0,0,0.44,0.42,0.35,0.33c0.19,0.17,0.3-0.18,0.29-0.3c-0.11-0.63,0.21-0.89,0.96-0.79
				c0.16,0.19,0.32-0.03,0.31-0.21c0.16-0.46,0.41-0.51,0.76-0.16c0.12,0.1,0.22-0.03,0.24-0.15c0.08-0.45,0.11-0.9,0.26-1.33
				c0.13-0.37,0.48-0.76,0.95-0.64c0.15,0.04,0.39,0.35,0.51,0.43c0.47,0.32,1.05,0.42,1.51,0.03c0.78-0.65,0.74-2.01,0.67-3.06
				c0.92,1.17,2.13,2.43,2.31,3.92c0.03,0.28,0.3,0.18,0.31-0.06C345.15,255.71,343.26,254.27,342.35,252.95z"/>
			<path d="M324.47,289.99c-0.43-1.98-1.55-4.05-2.92-5.54c-0.14-0.15-0.4-0.22-0.47,0.04c-0.19,0.67,0.09,2.36-0.71,2.61
				c-0.6,0.19-0.94-0.92-1.46-1.22c-0.12-0.07-0.23,0-0.28,0.1c-0.43,0.81-0.31,1.98-0.82,2.73c-0.2-0.29-0.47-0.58-0.81-0.38
				c-0.29,0.17-0.39,0.68-0.45,1.08c-0.68-0.47-1.15,0.06-1.39,0.84c-0.77-0.73-1.3-0.2-1.73,0.7c-0.29-0.33-0.54-0.65-1.03-0.69
				c-0.09-0.01-0.17,0.03-0.21,0.12c-0.18,0.43-0.22,0.88-0.34,1.33c-0.32,1.17-0.99,0-1.27-0.51c-0.08-0.15-0.29-0.21-0.37-0.02
				c-0.24,0.55-0.25,1.14-0.37,1.72c-0.04,0.17-0.06,0.41-0.15,0.56c-0.2,0.32-0.67,0.39-1.04,0.19c-0.32-0.16-0.49-0.82-0.58-1.15
				c-0.08-0.3-0.44-0.26-0.43,0.05c0.01,1.03,0.21,3.03-0.92,3.53c-0.26,0.11-0.53,0.1-0.76,0.01c0.29-0.51,0.43-1.08,0.27-1.64
				c-0.29-1.04-1.26-0.81-1.39,0.18c-0.06,0.47,0.11,1.06,0.41,1.53c-0.38,0.53-0.89,0.94-1.49,1.24c-0.21,0.1-0.13,0.65,0.11,0.54
				c0.58-0.26,1.25-0.75,1.74-1.35c0.35,0.3,0.79,0.42,1.28,0.19c1-0.48,1.17-1.83,1.2-2.99c0.32,0.53,0.79,0.96,1.39,0.74
				c0.87-0.32,0.82-1.58,0.99-2.45c0.31,0.57,0.78,1.26,1.37,0.87c0.31-0.2,0.4-0.73,0.48-1.05c0.04-0.15,0.07-0.77,0.19-0.85
				c0.24-0.18,0.74,0.55,0.87,0.68c0.11,0.1,0.26,0.1,0.33-0.05c0.3-0.67,0.68-1.57,1.46-0.6c0.13,0.16,0.32,0.04,0.36-0.13
				c0.08-0.36,0.28-1.55,1.08-0.72c0.14,0.15,0.32,0.06,0.36-0.13c0.04-0.2,0.17-1.48,0.69-0.66c0.08,0.13,0.23,0.2,0.35,0.08
				c0.72-0.74,0.6-1.9,0.96-2.82c0.52,0.5,0.73,1.53,1.64,1.18c1-0.38,0.9-1.49,0.99-2.4c1.11,1.38,1.76,3,2.35,4.67
				C324.08,290.63,324.58,290.5,324.47,289.99z"/>
			<path d="M334.7,278.48c-0.38,0.15-0.52,0.52-0.55,0.91c-0.32-0.31-0.66-0.79-1.1-0.52c-0.27,0.16-0.36,0.49-0.39,0.82
				c-0.35-0.36-0.79-0.59-1.28-0.2c-0.41,0.32-0.37,0.78-0.4,1.23c-0.1-0.16-0.24-0.3-0.41-0.33c-0.28-0.05-0.46,0.21-0.57,0.43
				c-0.24,0.46-0.32,0.97-0.45,1.47c-0.43-0.47-0.91-1.03-1.49-1.21c-0.88-0.28-1.1,0.88-1.17,1.49c-0.04,0.35,0.38,0.56,0.44,0.13
				c0.06-0.52,0.2-1.29,0.87-0.92c0.52,0.28,0.92,0.79,1.33,1.2c0.12,0.13,0.26,0.08,0.32-0.09c0.14-0.43,0.19-0.89,0.33-1.32
				c0.05-0.15,0.13-0.5,0.29-0.58c0.21-0.1,0.38,0.3,0.44,0.44c0.1,0.2,0.27,0.12,0.32-0.06c0.1-0.38-0.01-0.85,0.16-1.21
				c0.13-0.27,0.49-0.4,0.76-0.29c0.25,0.1,0.42,0.38,0.57,0.6c0.18,0.25,0.32-0.12,0.3-0.27c-0.04-0.29-0.09-1.14,0.42-0.94
				c0.34,0.13,0.52,0.59,0.84,0.78c0.16,0.09,0.21-0.2,0.2-0.29c-0.05-0.38,0.09-0.74,0.29-1.06
				C334.8,278.62,334.82,278.44,334.7,278.48z"/>
			<path d="M356.72,263.72c-0.11-0.16-0.25,0-0.26,0.14c-0.01,0.78-0.01,1.62-0.25,2.37c-0.14,0.44-0.36,0.88-0.87,0.93
				c-0.5,0.05-0.76-0.36-1.15-0.54c-1.17-0.54-1.55,0.98-1.62,1.93c-0.43-0.18-0.8-0.1-0.97,0.29c-0.7-0.63-1.21,0.11-1.36,0.92
				c-0.36-0.38-0.7-0.72-1.22-0.22c-0.47,0.45-0.4,1.09-0.44,1.68c-0.5-0.49-1.03-1.08-1.75-0.58c-0.67,0.46-0.63,1.37-0.74,2.11
				c-0.39-0.17-0.72-0.44-1.08-0.68c-0.05-0.04-0.12,0.01-0.15,0.05c-0.15,0.2-0.19,0.37-0.31,0.59c-0.04,0.3-0.19,0.53-0.47,0.69
				c-0.37-0.18-0.69-0.43-0.96-0.75c-0.1-0.11-0.24-0.09-0.31,0.03c-0.2,0.35-0.24,0.73-0.41,1.09c-0.34,0.71-0.71,0.5-1.26,0.02
				c-0.19-0.17-0.36-0.02-0.41,0.19c-0.1,0.45-0.03,0.95-0.18,1.38c-0.46,1.32-1.67-0.15-1.96-0.75c-0.12-0.25-0.39-0.12-0.4,0.13
				c-0.01,0.74,0.45,2.58-0.39,2.88c-0.19,0.07-0.16,0.54,0.07,0.47c0.88-0.26,0.85-1.44,0.8-2.39c0.45,0.62,1.12,1.19,1.82,0.86
				c0.65-0.3,0.69-1.14,0.75-1.83c0.38,0.29,0.84,0.54,1.26,0.21c0.38-0.3,0.55-1.03,0.65-1.59c0.36,0.26,0.71,0.5,1.13,0.69
				c0.07,0.03,0.13-0.02,0.17-0.07c0.2-0.28,0.22-0.57,0.37-0.86c0.38-0.73,0.77-0.08,1.34,0.14c0.1,0.04,0.17-0.06,0.19-0.15
				c0.14-0.57,0.06-1.8,0.75-2.05c0.64-0.23,1.14,0.52,1.52,0.9c0.13,0.12,0.27,0.08,0.32-0.09c0.09-0.29,0.03-0.65,0.13-0.92
				c0.1-0.29,0.66-0.79,0.92-0.7c0,0,0.44,0.42,0.35,0.33c0.19,0.17,0.3-0.17,0.29-0.3c-0.11-0.63,0.21-0.89,0.96-0.79
				c0.16,0.19,0.32-0.03,0.31-0.21c0.16-0.46,0.41-0.51,0.76-0.16c0.12,0.1,0.22-0.03,0.24-0.15c0.08-0.45,0.11-0.9,0.26-1.33
				c0.13-0.37,0.48-0.76,0.95-0.64c0.15,0.04,0.39,0.35,0.51,0.43c0.47,0.32,1.05,0.42,1.51,0.03c0.78-0.65,0.74-2.01,0.67-3.06
				c0.92,1.17,2.13,2.43,2.31,3.92c0.03,0.28,0.3,0.18,0.31-0.06C359.52,266.49,357.63,265.04,356.72,263.72z"/>
		</g>
	</g>
</g>
<g id="Character">
	<g id="Character_10_">
		<g id="XMLID_1242_">
			<g id="XMLID_1245_">
				<path id="XMLID_1271_" class="st20" d="M355.23,289.47l-20.75,14l-4.14,2.8l-0.01,0c-0.59,0.4-1.25,0.23-1.67-0.18
					c-0.32-0.31-0.48-0.79-0.33-1.3c0.01-0.01,0.01-0.03,0.01-0.05l1.78-5.3l7.81-23.33l6.94,5.37L355.23,289.47z"/>
				<path id="XMLID_1236_" class="st21" d="M344.89,281.47l-13.62,20.67l-2.6,3.93c-0.32-0.31-0.48-0.79-0.33-1.3
					c0.01-0.01,0.01-0.03,0.01-0.05l1.78-5.3l7.81-23.33L344.89,281.47z"/>
				<path id="XMLID_1224_" class="st2" d="M334.48,303.46l-4.14,2.8l-0.01,0c-0.59,0.4-1.25,0.23-1.67-0.18
					c-0.32-0.31-0.48-0.79-0.33-1.3c0.01-0.01,0.01-0.03,0.01-0.05l1.78-5.3c0.18,1.16,0.56,2.06,1.13,2.71
					C332.01,303.01,333.11,303.44,334.48,303.46z"/>
				<path id="XMLID_1283_" class="st16" d="M427.78,157.64l-1.74,2.29l-2.11,2.76L337.95,276.1c0.25,3.5,2.17,6.63,4.73,9
					c3.88,3.62,9.25,5.51,12.54,4.36l85.42-112.68l4.02-5.29C441.86,174.77,425.03,160.96,427.78,157.64z"/>
				<path id="XMLID_503_" class="st2" d="M426.04,159.93l-2.11,2.76L337.95,276.1c0.25,3.5,2.17,6.63,4.73,9l87.88-117.15
					L426.04,159.93z"/>
				<path id="XMLID_1275_" class="st0" d="M421.12,166.34l-3.88,5.13c-1.18,1.45,1.27,4.8,4.67,7.9c4.51,4.13,10.73,7.81,12.29,5.89
					l3.93-5.18c-1.56,1.92-7.84-1.72-12.35-5.85c-3.26-2.98-5.64-6.2-4.76-7.72l0.01-0.02
					C421.04,166.44,421.07,166.39,421.12,166.34z"/>
				<path id="XMLID_499_" class="st7" d="M425.77,174.24c-3.26-2.98-5.64-6.2-4.76-7.72l0.01-0.02c0.02-0.06,0.05-0.11,0.1-0.15
					l-3.88,5.13c-1.18,1.45,1.27,4.8,4.67,7.9L425.77,174.24L425.77,174.24z"/>
				<path id="XMLID_1270_" class="st5" d="M420.16,167.63c-2.74,3.36,14.22,17.15,16.95,13.79l3.89-5.12
					c-2.74,3.36-19.67-10.43-16.93-13.79L420.16,167.63z"/>
				<path id="XMLID_1264_" class="st0" d="M427.78,157.64l-3.85,5.05c-2.71,3.28,13.51,16.75,16.71,14.08
					c0.06-0.04,0.12-0.1,0.18-0.17l3.84-5.12C441.86,174.77,425.03,160.96,427.78,157.64z"/>
				<path id="XMLID_1255_" class="st22" d="M444.12,136.18l-16.34,21.45c-1.18,1.42,1.22,4.76,4.58,7.85c4.5,4.15,10.7,7.88,12.3,6
					c0.01,0,0.01,0,0.02-0.02l15.71-20.64c4.06-4.51-3.47-13.52-10.02-15.66C447.93,134.35,445.64,134.5,444.12,136.18z"/>
				<path id="XMLID_1248_" class="st20" d="M444.12,136.18l-16.34,21.45c-1.18,1.42,1.22,4.76,4.58,7.85l16.7-20.94
					c0,0-4.36-4.39-3.97-6.88c0.38-2.51,2.56-3.03,5.29-2.5C447.93,134.35,445.64,134.5,444.12,136.18z"/>
			</g>
			<path id="XMLID_474_" class="st23" d="M424.07,162.51l-3.91,5.12c-1.17,1.44,1.27,4.79,4.65,7.89l3.87-5.15
				C425.32,167.28,422.9,163.95,424.07,162.51z"/>
			<path id="XMLID_459_" class="st7" d="M427.78,157.64l-3.85,5.05c-1.18,1.43,1.23,4.79,4.59,7.91l3.84-5.11
				C429.01,162.39,426.6,159.06,427.78,157.64z"/>
		</g>
		<g id="Character_1_">
			<g>
				<path id="XMLID_1101_" class="st20" d="M424.2,190.44c4.07-0.07,7.84,1.57,10.01,8.24c2.42,7.41,6.73,23.14,5.13,28.52
					c-1.26,4.26-19.19,6.14-19.19,6.14l-2.25-9.18l11.02-2.29l-1.63-8.63L424.2,190.44z"/>
				<path id="XMLID_1100_" class="st5" d="M423.85,189.98c7.04-0.51,9.01,3.58,10.48,7.98c2.12,6.37,3,9.58,4.3,15.11
					c0,0-1.8,6.05-10.08,4.96l-1.13-3.87L423.85,189.98z"/>
			</g>
			<g id="XMLID_610_">
				<g>
					<g id="XMLID_1087_">
						<path id="XMLID_1099_" class="st4" d="M381.23,359.43c-0.37,1.85,0.3,2.82,2.69,4.2c2.39,1.38,6.14,1.85,10.09,0.71
							c3.95-1.15,5.83-2.87,7.47-3.28c1.64-0.41,5.7-0.45,7.32-0.92c1.62-0.47,1.6-1.31,1.59-3.26L381.23,359.43z"/>
						<g id="XMLID_1097_">
							<path id="XMLID_1098_" class="st5" d="M408.81,347.48c0,0,0.77,2.33,1.19,4.38c0.33,1.62,0.8,4.33,0.23,5.56
								c-0.57,1.22-2.78,2.01-6.22,1.98c-2.23-0.02-5.69,1.49-8.07,2.82c-2.45,1.37-5.11,1.37-7.71,1.07
								c-3.06-0.36-6.22-2.13-6.72-3.4c-0.49-1.27-0.62-2.22,6.58-5.29c0.07-0.03,8.36-3.09,11.85-6.94L408.81,347.48z"/>
						</g>
						<g id="XMLID_1095_" class="st11">
							<path id="XMLID_1096_" d="M408.81,347.48c0,0,0.77,2.33,1.19,4.38c0.33,1.62,0.8,4.33,0.23,5.56
								c-0.57,1.22-2.78,2.01-6.22,1.98c-2.23-0.02-5.69,1.49-8.07,2.82c-2.45,1.37-5.11,1.37-7.71,1.07
								c-3.06-0.36-6.22-2.13-6.72-3.4c-0.49-1.27-0.62-2.22,6.58-5.29c0.07-0.03,8.36-3.09,11.85-6.94L408.81,347.48z"/>
						</g>
						<path id="XMLID_1094_" class="st7" d="M394.95,362.68c0,0-0.62-6.19-5.65-7.96c-4.55-1.6-8.52,1.77-8.07,4.7
							C381.53,361.4,387.07,365.87,394.95,362.68z"/>
						<path id="XMLID_1090_" class="st7" d="M390.58,353.57c0,0,1.62,0,3.43,1.52c1.45,1.22,1.49,2.03,1.49,2.03
							c0.33,0.51,1.4,0.23,1.31-0.63c0,0-0.34-3.12-4.44-3.76C392.37,352.74,391.24,352.46,390.58,353.57z"/>
						<path id="XMLID_1089_" class="st7" d="M393.46,352.19c0,0,1.65-0.15,3.47,1.38c1.45,1.22,1.46,2.18,1.46,2.18
							c0.33,0.51,1.4,0.23,1.31-0.63c0,0-0.34-3.12-4.44-3.76C395.25,351.36,394.12,351.08,393.46,352.19z"/>
						<path id="XMLID_1088_" class="st7" d="M396.31,350.56c0,0,1.64-0.26,3.55,1.14c1.53,1.12,1.6,2.07,1.6,2.07
							c0.37,0.48,1.41,0.13,1.27-0.72c0,0-0.55-3.09-4.69-3.45C398.04,349.61,396.89,349.41,396.31,350.56z"/>
					</g>
					<g id="XMLID_1083_">
						<path id="XMLID_1084_" class="st20" d="M408.81,342.23c0,0-0.01,4.34,0,5.48c0.01,1.14-1.33,2.83-4.81,2.71
							c-2.44-0.09-4.15-0.74-4.05-2.76v-4.98L408.81,342.23z"/>
					</g>
				</g>
				<g>
					<path id="XMLID_1081_" class="st4" d="M412.39,327.11c-0.12,1.57-0.32,2.98,0.28,4.7c0.87,2.47,2.72,3.61,3.8,4.58
						c1.08,0.98,2.29,2.42,3.16,3.83c0.77,1.25,1.65,2.69,3.3,4.12c1.03,0.89,3.93,0.97,5.32,0.38c1.4-0.59,1.87-1.11,1.78-3.35
						c-0.08-2.18-6.85-2.99-6.85-2.99L412.39,327.11z"/>
					<path id="XMLID_1063_" class="st5" d="M429.16,334.72c0.58,0.22,0.72,1.32,0.81,3.5c0.07,1.65,0.76,4.08-1.52,5.12
						c-1.84,0.84-4.78,0.28-6.02-1.28c-1.55-1.95-2.6-3.66-4.81-6.03c-1.92-2.06-3.92-2.75-4.77-6.87c-0.55-2.65-0.12-3.74,1.66-4.5
						c2.45-1.04,6.3,2.37,8.22,2.9C424.39,328.03,428.58,334.51,429.16,334.72z"/>
					<path id="XMLID_1062_" class="st11" d="M429.16,334.72c0.58,0.22,0.72,1.32,0.81,3.5c0.07,1.65,0.76,4.08-1.52,5.12
						c-1.84,0.84-4.78,0.28-6.02-1.28c-1.55-1.95-2.6-3.66-4.81-6.03c-1.92-2.06-3.92-2.75-4.77-6.87c-0.55-2.65-0.12-3.74,1.66-4.5
						c2.45-1.04,6.3,2.37,8.22,2.9C424.39,328.03,428.58,334.51,429.16,334.72z"/>
					<path id="XMLID_1061_" class="st7" d="M422.73,327.57c-0.1-0.03-0.21-0.07-0.33-0.11c-3.53,0.31-4.95,2.74-5.3,3.48
						c-0.33,0.72,0.68,1.28,1.28,0.72c1.37-2.72,4.18-3.32,5.3-3.46C423.32,327.87,422.99,327.64,422.73,327.57z"/>
					<path id="XMLID_1060_" class="st7" d="M424.32,328.81c-3.26,0.44-4.58,2.74-4.93,3.45c-0.33,0.72,0.68,1.28,1.28,0.72
						c1.08-2.16,3.08-2.98,4.42-3.3C424.83,329.37,424.57,329.08,424.32,328.81z"/>
					<g id="XMLID_1042_">
						<path id="XMLID_1044_" class="st20" d="M429.49,330.77l-0.33,4.61c0,0-2.79,2.14-6.78,0.18c-0.12-0.26-0.46-4.38-0.46-4.38
							L429.49,330.77z"/>
					</g>
					<path id="XMLID_1039_" class="st7" d="M413.98,332.21c0,0,0.19-4.9,6.82-5.58l0.38,0.21c0,0-1.06-1.92-3.26-2.52
						c-2.2-0.59-3.94-0.02-5.1,1.46C411.66,327.28,412.84,331.26,413.98,332.21z"/>
				</g>
				<g id="XMLID_1031_">
					<path id="XMLID_1035_" class="st2" d="M431.42,300.05c-0.95-8.07-2.62-12.89-2.62-12.89s1.13-11.04,1.79-21.52
						c0.71-11.32,0.55-25.57,0.83-28.39c0,0-35.1-8.11-36.05,4.98c-1.07,14.72,0.07,47.13,0.28,51.23
						c0.3,5.76,0.32,11.76,1.29,21.11c0.97,9.23,2.58,30.01,2.58,30.01c4.68,1.68,9.77,0,9.77,0s2.71-25.09,2.59-31.73
						c-0.15-8.11-2.19-14.55-2.19-14.55l4.36-36.47c0,0,0.44,16.22,0.74,21.98c0.3,5.76,1.09,9.28,2.52,20
						c1.24,9.3,4.44,28.06,4.44,28.06c4.27,1.7,7.76,0,7.76,0S432.37,308.12,431.42,300.05z"/>
				</g>
				<g id="XMLID_966_">
					<path id="XMLID_1000_" class="st16" d="M426.76,254.19c0,0-4.25,5.71-9.72,8.17c0,0-2.38,20.09-2.36,19.69l-0.62-20.21
						C414.06,261.83,422.23,258.03,426.76,254.19z"/>
				</g>
			</g>
			<g>
				<polygon id="XMLID_565_" class="st20" points="407.05,185.52 408.94,197.48 420.79,196.85 419.09,182.95 				"/>
				<path id="XMLID_561_" class="st4" d="M431.61,196.31c-0.99-3.26-4.66-6.95-8.78-6.28c-0.96,0.16-1.87,0.23-2.78,0.39
					c-0.5,2.02-6.56,3.73-11.83,2.49l-6.89,0.8c-3.79,1.26-4.78,4.92-5.37,17.29c0,0-1.05,28.57-0.86,36.29
					c9.36,3.95,17.8,4.03,23.26,2.96c11.36-2.22,13.23-7.08,13.23-7.08l-0.8-19.87c0.03-4.32,1.62-10.17,1.96-12.95
					C433.79,201.84,432.29,198.55,431.61,196.31z"/>
				<path class="st20" d="M402.19,194.07c-8.8,0.28-8.91,2.06-11.77,11.03c-1.35,4.23-3.38,11.05-5.25,16.86
					c-1.13,1.12-10.13,7.26-13.29,9.47c-3.15,2.2-4.97,1.74-8.04,4.06c-2.07,1.56-2.78,3.63-3.8,6.01
					c-0.91,2.11-1.42,4.44-0.93,6.68l2.38-3.14c0,0,3.11-0.22,4.68-0.37c2.76-0.26,5.06-3.77,7.77-5.24
					c5.23-2.83,12.6-5.74,17.35-7.96c2.37-1.11,3.06-1.88,3.63-3.76c2.23-7.32,4.16-14.65,4.16-14.65
					C403.22,207.72,404.54,197.02,402.19,194.07z"/>
				<path class="st5" d="M402.4,193.6c0,0-3.17-0.27-5.64,0.48c-2.48,0.75-3.91,2.08-5.57,6.52c-1.66,4.44-5.24,18.03-5.24,18.03
					s0.58,1.91,4.48,3.51c4.06,1.67,6.27,0.87,6.27,0.87l3.26-9.8c0,0,3.1-5.05,3.66-8.37C404.16,201.51,404.21,197.24,402.4,193.6z
					"/>
				<g id="XMLID_541_">
					<g id="XMLID_549_">
						<path id="XMLID_557_" class="st22" d="M399.08,170.86c0,0-2.82,4.29-2.5,4.71c0.32,0.42,2.4,0.8,2.4,0.8L399.08,170.86z"/>
					</g>
					<g id="XMLID_543_">
						<path id="XMLID_546_" class="st20" d="M406.92,159c-5.72,1.21-7.37,3.72-7.91,12.8c-0.56,9.49,0.41,12.47,1.65,13.75
							c0.84,0.86,5.52,1.02,7.88,0.37c2.95-0.81,9.63-3.18,12.75-7.95c3.68-5.62,4.64-13.23,0.71-16.35
							C416.46,157.22,409.25,158.51,406.92,159z"/>
					</g>
				</g>
				<g id="XMLID_508_">
					<g id="XMLID_533_">
						<g id="XMLID_535_">
							<path id="XMLID_539_" class="st2" d="M397.86,162.51c0.43,0.45,0.94,0.82,1.46,1.16c0.77,0.49,1.56,0.94,2.39,1.33
								c0.77,0.36,1.62,0.59,2.32,1.09c1.04,0.74,1.17,1.72,1.2,2.91c0.02,0.78,0.02,1.75,0.03,2.8c0.02,1.58,1.02,2.77,1.51,0.66
								c0,0,0.9-3.51,3.86-3.07c2.98,0.44,3.22,3.77,1.81,6.39c-0.86,1.59-3.15,1.17-3.15,1.17s-0.52,4.37,3.09,7.95
								c0,0,2.34,1.23,6.99,0.23c3.19-4.38,5.19-6.51,6.89-10.29c3.59-8,1.86-13.02-0.92-15.14c-0.55-3.69-3.46-5.34-6.76-6.1
								c-4.95-1.14-9.58,1.8-14.47,0.71c-0.8-0.18-1.62-0.37-2.39-0.63c-0.31-0.11-0.67-0.21-0.97-0.07
								c-0.38,0.18-0.49,0.67-0.46,1.09c0.06,0.94,0.62,1.84,1.44,2.32c-0.1-0.06-0.58,0.07-0.71,0.08
								c-0.27,0.02-0.55,0.02-0.82,0.03c-0.53,0.01-1.07-0.07-1.61-0.11c-0.37-0.03-0.75-0.07-1.11,0.04
								c-0.82,0.24-1.29,1.16-1.27,2.02c0.02,0.85,0.44,1.65,0.88,2.38c0.18,0.29,0.37,0.59,0.59,0.85
								C397.73,162.37,397.8,162.44,397.86,162.51z"/>
						</g>
					</g>
				</g>
				<path class="st22" d="M400.67,185.55c0.68,0.7,3.87,0.93,6.31,0.65l0.17-0.02l-0.41-1.35
					C406.74,184.83,403.04,186,400.67,185.55z"/>
			</g>
		</g>
	</g>
</g>
</svg>
