<?xml version="1.0" encoding="utf-8"?>
<!-- Generator: Adobe Illustrator 25.2.1, SVG Export Plug-In . SVG Version: 6.00 Build 0)  -->
<svg version="1.1" xmlns="http://www.w3.org/2000/svg" xmlns:xlink="http://www.w3.org/1999/xlink" x="0px" y="0px"
	 viewBox="0 0 500 500" style="enable-background:new 0 0 500 500;" xml:space="preserve">
<style type="text/css">
	.st0{opacity:0.7;fill:#FFFFFF;}
	.st1{fill:#92E3A9;}
	.st2{fill:none;stroke:#263238;stroke-linecap:round;stroke-linejoin:round;stroke-miterlimit:10;}
	.st3{fill:#263238;}
	.st4{fill:#999999;stroke:#263238;stroke-linecap:round;stroke-linejoin:round;stroke-miterlimit:10;}
	.st5{fill:#92E3A9;stroke:#263238;stroke-linecap:round;stroke-linejoin:round;stroke-miterlimit:10;}
	.st6{fill:#BFBFBF;stroke:#263238;stroke-linecap:round;stroke-linejoin:round;stroke-miterlimit:10;}
	.st7{clip-path:url(#XMLID_3_);fill:#92E3A9;}
	.st8{fill:#263238;stroke:#263238;stroke-linecap:round;stroke-linejoin:round;stroke-miterlimit:10;}
	.st9{opacity:0.4;clip-path:url(#XMLID_4_);fill:#92E3A9;}
	.st10{fill:none;stroke:#FFFFFF;stroke-linecap:round;stroke-linejoin:round;stroke-miterlimit:10;}
	.st11{opacity:0.2;}
	.st12{fill:#FFFFFF;stroke:#263238;stroke-linecap:round;stroke-linejoin:round;stroke-miterlimit:10;}
	.st13{fill:#757575;}
	.st14{fill:#BFBFBF;}
	.st15{fill:#FFFFFF;}
	.st16{fill:none;stroke:#757575;stroke-linecap:round;stroke-linejoin:round;stroke-miterlimit:10;}
</style>
<g id="Background_Simple">
	<g>
		<path class="st0" d="M67.93,167.09c0,0-27.88,71.99,11.3,144.5c39.17,72.52,119.88,110.8,184.47,143.55
			c64.59,32.75,131.66,16.8,163.53-36.84c31.87-53.64-11.85-91.93-11.9-168.42c-0.05-76.49,11.45-96.74-29.96-161.36
			c-41.41-64.62-143.06-78.93-219.9-31C88.63,105.45,67.93,167.09,67.93,167.09z"/>
	</g>
	<g>
		<path class="st1" d="M454.33,70.22C391.44,0.67,273.62,11.35,218.86,25.99c-37.67,10.08-59.39,43.26-85.73,47.32
			C53.78,85.56,1.57,126.01,13.96,195.05c12.39,69.04,78.01,90.74,110.21,190.73c32.19,99.99,111.7,116.42,196.08,82.59
			c84.39-33.84,99.55-60.17,119.58-154.36C459.86,219.82,526.37,149.9,454.33,70.22z"/>
		<path class="st0" d="M454.33,70.22C391.44,0.67,273.62,11.35,218.86,25.99c-37.67,10.08-59.39,43.26-85.73,47.32
			C53.78,85.56,1.57,126.01,13.96,195.05c12.39,69.04,78.01,90.74,110.21,190.73c32.19,99.99,111.7,116.42,196.08,82.59
			c84.39-33.84,99.55-60.17,119.58-154.36C459.86,219.82,526.37,149.9,454.33,70.22z"/>
	</g>
</g>
<g id="Doodles">
	<path class="st1" d="M174.12,154.62c14.29-2.17,13.98-32.65-11.22-41.51c-25.2-8.87-12.27-28.62,0.29-24.26
		c12.56,4.36,12.71,33.51,31.53,36.11c18.82,2.6,22.79-35.05,12.44-47.17c-10.35-12.12,10.77-7.12,13.28-10.75
		c4.07-5.89-9.47-34.12,5.3-31.63c7.32,1.24-0.35,19.4,5.12,46.4c5.47,27,12.04,40.45,24.39,26.08c12.35-14.37-1.18-25.63,7.9-32.42
		c9.08-6.79,16.4-0.61,15.54,7.97c-0.86,8.58-1.24,17.01,4.77,13.94c6.01-3.07,15.92-17.43,20.83-28.73
		c4.91-11.3,10.52-10.56,10.96-2.15c0.44,8.41-21.89,26.64-22.49,39.22c-0.6,12.58,8.15,35.23,27.96,20.13
		c19.82-15.1,24.37-20.59,31.28-12.52c6.91,8.07,1.76,21.28,12.98,21.12c11.22-0.16,25.21-30.04,32.27-27.78
		c7.06,2.26,20.39,8.79-3.87,22.21c-24.26,13.42-32.49,12.83-31.42,27.46c1.07,14.64,57.91,16.37,52.18,26.07
		c-5.73,9.7-69.33,8.54-75.96,32.43c-6.64,23.9,27.76,20.24,21.74,33.62c-6.03,13.38-19.94-5.73-32.6-17.01
		c-12.65-11.28-12.91-2.89-23.98,0.71c-11.07,3.6-13.52-2.76-20.65-4.56c-7.13-1.8-2.78,12.82-13.5,11.26
		c-10.72-1.56-3.33-3.75-10.58-6.54c-7.26-2.79-13.53,24.89-29.14,20.58c-15.61-4.31-25.1-16.93-34.86-8.03
		c-9.76,8.9-2.64,27.81-16.56,26.49c-13.93-1.31-8.99-14.3-3.1-15.81c5.88-1.51,21.81-22.87,19.06-31.02
		c-2.75-8.16-29.32,13.61-34.94,2.36c-5.62-11.25-10.57-20.88-24.15-17.5c-13.59,3.39-15.66-15.56-5.03-15.25
		c10.63,0.31,35.31,2.14,37.24-6.76c1.93-8.9-4.38-18.84-21.16-27.27c-16.77-8.43-0.32-25.4,11.48-16.01
		C169.25,153.52,162.82,156.33,174.12,154.62z"/>
	<g>
		<polygon class="st2" points="57.69,293.03 48.2,272.81 83.19,272.81 		"/>
		<polygon class="st2" points="208.79,153.03 213.18,164.81 193.54,163.18 		"/>
		<polyline class="st2" points="213.87,32.01 224.38,37.09 213.87,42.24 224.38,48.73 213.87,55.78 225.67,61.23 216.37,69.88 		"/>
		<polygon class="st2" points="422.25,343.66 418.71,365.24 441.31,365.24 443.07,358.6 428.01,358.46 430.89,342.74 		"/>
		
			<ellipse transform="matrix(0.7071 -0.7071 0.7071 0.7071 -177.4093 383.7902)" class="st2" cx="374.57" cy="406.05" rx="9.53" ry="9.53"/>
		<circle class="st2" cx="148.63" cy="92.86" r="9.53"/>
		<line class="st2" x1="440.68" y1="254.36" x2="461.66" y2="266.35"/>
		<line class="st2" x1="455.21" y1="253.82" x2="447.13" y2="269.73"/>
		<line class="st2" x1="339.74" y1="181.7" x2="317.03" y2="189.94"/>
		<line class="st2" x1="330.75" y1="193.12" x2="323.84" y2="176.67"/>
		<path class="st2" d="M124.39,266.12c-0.16,0.41,16.52-7.21,16.52-7.21l8.14,18.65l-16.52,7.21L124.39,266.12z"/>
		<path class="st2" d="M353.11,241.13c-0.17-0.02,4.4,5.51,4.4,5.51l-6.22,4.97l-4.4-5.51L353.11,241.13z"/>
		<path class="st2" d="M48.2,189.35c0,2.34-1.9,4.24-4.24,4.24c-2.34,0-4.25-1.9-4.25-4.24c0-2.34,1.9-4.25,4.25-4.25
			C46.3,185.1,48.2,187,48.2,189.35z"/>
		<path class="st2" d="M305.53,36.25c0,2.34-1.9,4.24-4.25,4.24c-2.34,0-4.24-1.9-4.24-4.24c0-2.34,1.9-4.25,4.24-4.25
			C303.63,32.01,305.53,33.91,305.53,36.25z"/>
		<polyline class="st2" points="359.09,292.36 363.61,299.9 354.38,300.62 356.82,307.68 346.59,308.46 351.57,322.01 		"/>
		<polyline class="st2" points="119.65,353.85 127.62,358.65 116.95,367.35 123.63,371.57 115.04,381.09 		"/>
		<polyline class="st2" points="349.93,110.96 343.37,104.37 355.83,98.52 350.38,92.8 361.02,85.66 		"/>
	</g>
</g>
<g id="Notation">
	<g>
		<g>
			<path class="st2" d="M93.17,114.63c0,0,47.53,69.94,114.53,81.63"/>
			<path class="st2" d="M81.12,129.47c0,0,68.08,71.17,122.24,75.19"/>
			<path class="st2" d="M75.64,151.9c0,0,69.36,58.98,122.15,62.26"/>
			<path class="st2" d="M75.64,176.34c0,0,57.34,44.03,117.97,44.76"/>
		</g>
		<path class="st3" d="M134.35,146.32c-2.04-2.13-2.88-4.55-3.21-6.51c-0.35-2.03-0.13-3.54-0.11-3.73l0-0.01l-15.18,27.45
			c-0.61-2.15-2.08-4.41-4.27-6.25c-4.29-3.61-9.68-4.26-12.05-1.44c-2.37,2.81-0.81,8.01,3.48,11.62
			c4.29,3.61,9.68,4.25,12.05,1.44c0.37-0.44,0.63-0.94,0.81-1.47l11.95-21.61c0.83,1.41,2.27,3.3,4.61,4.96
			c4.25,3.01,3.34,7.81,3.28,8.09C135.9,158.5,139.23,151.43,134.35,146.32z"/>
		<path class="st3" d="M142.46,194.44c-1.72-1.8-2.43-3.85-2.71-5.51c-0.3-1.71-0.11-3-0.09-3.15l0-0.01l-12.83,23.2
			c-0.51-1.81-1.76-3.73-3.61-5.29c-3.62-3.05-8.18-3.6-10.18-1.22c-2,2.38-0.68,6.78,2.94,9.83c3.63,3.05,8.18,3.6,10.18,1.22
			c0.31-0.37,0.53-0.79,0.69-1.25l10.1-18.27c0.7,1.19,1.92,2.79,3.9,4.2c3.59,2.55,2.82,6.61,2.77,6.84
			C143.77,204.73,146.59,198.76,142.46,194.44z"/>
		<path class="st3" d="M189.59,189.99c-1.72-1.8-2.43-3.85-2.71-5.51c-0.3-1.71-0.11-3-0.09-3.15l0-0.01l-12.83,23.2
			c-0.51-1.81-1.76-3.73-3.61-5.29c-3.63-3.05-8.18-3.6-10.18-1.22c-2,2.38-0.68,6.77,2.94,9.83c3.62,3.05,8.18,3.6,10.18,1.22
			c0.31-0.37,0.53-0.79,0.69-1.24l10.1-18.27c0.7,1.19,1.92,2.79,3.9,4.2c3.59,2.55,2.82,6.61,2.77,6.84
			C190.9,200.29,193.72,194.31,189.59,189.99z"/>
	</g>
</g>
<g id="Paint_tools">
	<g>
		<g>
			<path class="st4" d="M359.5,152.27c-13.13,31.37,3.88,64.69,40.72,69.59c36.84,4.89,55.41-21.01,39.64-29.18
				c-15.77-8.17-13.87-20.21-17.51-46.29C418.7,120.3,372.61,120.95,359.5,152.27z M418.79,178.98
				c-15.88,12.36-12.18-8.88-6.5-10.79C417.97,166.27,424.72,174.36,418.79,178.98z"/>
			<path class="st5" d="M407.85,138.85c-3.86-0.81-6.39,4.08-9.44,5.55c0.31,0.78,4.86,8.07,5.01,7.9c0.53-0.64,1.38-1,2.21-0.93
				c0.62,0.05,1.19,0.31,1.79,0.44c1.6,0.35,3.38-0.33,4.34-1.66c0.96-1.33,1.04-3.24,0.2-4.64c-0.24-0.4-0.56-0.84-0.42-1.28
				c0.14-0.46,0.73-0.69,0.85-1.15c0.08-0.31-0.06-0.64-0.23-0.93C411.24,140.53,409.68,139.23,407.85,138.85z"/>
			<path class="st5" d="M384.47,144.14c-2.13-0.43-4.52-0.33-6.22-1.67c-0.39-0.31-0.76-0.7-1.24-0.78
				c-0.58-0.1-1.13,0.25-1.62,0.59c-2.05,1.44-4.16,2.94-5.43,5.09c-1.28,2.15-1.5,5.14,0.16,7.01c0.92,1.03,2.39,1.8,2.49,3.18
				c0.11,1.53-2.72,4.92,0.71,5.21c1.09,0.09,2.11-0.51,3.06-1.05c1.66-0.95,3.98-0.41,5.36-1.58c1.18-1,0.05-3.1,1.96-3.76
				c1.23-0.43,3.86,0.93,4.19-1.16c0.23-1.46-1.85-1.98-2.35-3.13c-0.36-0.83,0.02-1.82,0.67-2.45c0.65-0.62,1.52-0.96,2.36-1.28
				C388.96,146.21,386.6,144.56,384.47,144.14z"/>
			<path class="st5" d="M383.45,175.78c-0.47-0.38-2.99,0.51-4.08-0.66c-4.28-4.62-15.2,11.37-8.09,13.93
				c0.47,0.17,1,0.27,1.38,0.59c1.47,1.23-0.37,4.07,1,5.41c1.25,1.21,3.26-0.37,5-0.28c0.67,0.03,1.32,0.33,1.99,0.25
				c0.9-0.11,1.58-0.85,2.16-1.55c1.77-2.13,3.83-4.82,3.51-7.77c-0.24-2.18-1.81-4.59-2.5-6.66
				C383.24,177.33,384.88,177.23,383.45,175.78z"/>
			<path class="st5" d="M403.83,199.9c-0.89-0.78-1.31-1.95-2.04-2.88c-0.73-0.93-2.11-1.6-3.06-0.91
				c-0.45,0.33-0.73,0.91-1.26,1.05c-0.42,0.11-0.85-0.09-1.26-0.2c-1.2-0.32-2.57,0.12-3.34,1.09c-0.77,0.96-0.92,2.39-0.35,3.49
				c1.36,2.62,2.56,10.18,4.99,9.69c1.88-0.38,3.48,2.03,5.19,1.59c2.86-0.73,4.86-9.57,2.88-11.63
				C405.07,200.67,404.37,200.38,403.83,199.9z"/>
			<path class="st5" d="M427.39,201.7c-1.16-0.54-2.43-0.94-3.48-1.21c-1.11-0.28-2.29-0.56-3.39-0.24c-1.1,0.32-2.04,1.48-1.7,2.57
				c0.16,0.49,0.54,0.88,0.71,1.37c0.64,1.83-2.76,5.09,0.25,6.14c2.55,0.89,7.3,0.42,9.32-1.54
				C432.63,205.37,430.33,203.07,427.39,201.7z"/>
		</g>
		<g>
			<polygon class="st6" points="441.57,160.67 445.34,155.79 450.42,159.02 446.69,164.44 			"/>
			<path class="st3" d="M441.19,159.27c-20.82,30.76-33.19,52.66-38.8,63.14c-0.57,1.06,0.88,2.04,1.66,1.12
				c6.69-7.88,20.26-25,43.69-58.95C448.94,162.83,442.38,157.52,441.19,159.27z"/>
			<g>
				<defs>
					<path id="XMLID_5_" d="M444.91,155.61c0.12,0.48,2.39,3.32,4.39,4.11c0,0,9.83,0,12.73-11.42c2.9-11.42,8.51-13.86,8.51-13.86
						s-1.08-1-2.56-0.57l1.38-1.52c0,0-2.46-1.18-4.49,0.51l0.34-2.25c0,0-1.87,3.31-5.34,4.13
						C456.39,135.55,441.28,141.8,444.91,155.61z"/>
				</defs>
				<use xlink:href="#XMLID_5_"  style="overflow:visible;fill:#FFFFFF;"/>
				<clipPath id="XMLID_3_">
					<use xlink:href="#XMLID_5_"  style="overflow:visible;"/>
				</clipPath>
				<path id="XMLID_6_" class="st7" d="M462.03,148.29c-0.3,1.18-0.68,2.25-1.12,3.2c0.21-2.77,1.32-6.66,0.02-7.14
					c-2.05-0.75-2.53,3.4-2.85,2.01c-0.32-1.39,1.46-3.92,1.24-5.58c-0.22-1.66-2.71,1.27-4.26,1.67c-1.55,0.4,2.6-4.35,2.06-5.54
					c-0.12-0.25-0.54-0.51-1.13-0.73c1.65-0.8,3.06-1.27,3.86-1.46c3.47-0.81,5.34-4.13,5.34-4.13l-0.33,2.24
					c2.04-1.68,4.5-0.51,4.5-0.51l-1.37,1.53c1.48-0.44,2.56,0.57,2.56,0.57S464.94,136.87,462.03,148.29z"/>
				
					<use xlink:href="#XMLID_5_"  style="overflow:visible;fill:none;stroke:#263238;stroke-linecap:round;stroke-linejoin:round;stroke-miterlimit:10;"/>
			</g>
		</g>
	</g>
</g>
<g id="Lamp">
	<g>
		<path class="st8" d="M241.07,172.86c0,0-6.85,1.59-1.31,9.05c0,0-6.26,1.03-1.89,8.67c0,0-3.79,3.21,0.93,8.92
			c0,0-2.2,5.5,8.8,13.11c0,0-0.08,4.72,7.56,6.52c6.68,1.58,8.48-1.21,8.48-1.21s8.76-1.06,13.58-8.31c0,0,7.72-2.37,5.49-7.09
			c0,0,6.26-4.88,2.93-8.05c0,0,7.19-7.25,3.56-9.66C282.81,180.57,241.07,172.86,241.07,172.86z"/>
		<g>
			<defs>
				<path id="XMLID_2_" d="M293.14,87.61c39.15,16.27,39.65,54.15,26.22,73.05c-12.24,17.21-28.72,15.91-30.17,24.15
					c-1.44,8.24-47.51-3.77-49.65-9.66c-2.14-5.89,7.42-5.1-10.28-28.71C211.57,122.83,245.06,67.63,293.14,87.61z"/>
			</defs>
			<use xlink:href="#XMLID_2_"  style="overflow:visible;fill:#FFFFFF;"/>
			<clipPath id="XMLID_4_">
				<use xlink:href="#XMLID_2_"  style="overflow:visible;"/>
			</clipPath>
			<path class="st9" d="M289.2,184.8c-1.44,8.24-47.51-3.77-49.65-9.65c-2.15-5.9,7.41-5.11-10.28-28.71
				c-17.69-23.61,15.79-78.82,63.88-58.84c5.06,2.1,9.47,4.57,13.29,7.3c-19.67-4.33-46.39-5.08-61.13,22.02
				c-16.04,29.51,8.91,56.35,21.46,58.44c0,0-10.39-7.57-13.84-20.3c0,0,17.73,26.3,45.5,21.91
				C293.48,179.35,289.84,181.12,289.2,184.8z"/>
			
				<use xlink:href="#XMLID_2_"  style="overflow:visible;fill:none;stroke:#263238;stroke-linecap:round;stroke-linejoin:round;stroke-miterlimit:10;"/>
		</g>
		<path class="st10" d="M282.6,195.26c0,0-18.44,6.21-41.58-3.05"/>
		<path class="st10" d="M271.81,189.78c1.1-0.08,2.2-0.22,3.28-0.44"/>
		<path class="st10" d="M242.44,183.7c7.35,3.04,15.32,5.31,23.25,6"/>
		<path class="st10" d="M255.05,203.74c7.68,1.21,15.82,1.45,23.32-0.87"/>
		<path class="st10" d="M241.89,200.52c3.03,1.06,6.16,1.86,9.3,2.51"/>
		<path class="st10" d="M266.82,210.63c-6.87-0.71-13.6-2.66-19.94-5.38"/>
		<path class="st10" d="M273.39,210.86c-1.01,0.05-2.02,0.05-3.02,0.01"/>
		<path class="st10" d="M249.27,213.78c0,0,5.56,4.25,12.68,4.19"/>
		<path class="st2" d="M286.74,183.17c0,0-19.69-12.65-42.72-11.42"/>
		<path class="st2" d="M272.95,179.6c0,0,11.29-24.6,27.05-26.27c0,0-9.55-7.67-13.27-8.83c-3.72-1.16-6.07,6.96-3.47,6.09
			c2.6-0.87,6.3-12.12,1.88-15.06c-4.42-2.94-12.98,11.69-10.46,12.89c2.51,1.2,5.66-14.2-0.51-15.94
			c-6.17-1.74-10.74,11.53-7.85,11.8c2.89,0.27,3.89-5.5-2.7-7.7c-7.13-2.38-16.08,1.12-16.08,1.12s13.82,16.52,9.26,37.59"/>
	</g>
</g>
<g id="Character">
	<g>
		<g>
			<path class="st1" d="M314.5,477.77c5.68-7.03,9.06-27.19,9.06-27.19c7.47,5.33,12.49,12.76,12.49,12.76s7.77-0.92,18.55-4.63
				c10.3-3.54,17.52-8.69,17.52-8.69c-12.07-17.79-32.49-48.02-45.06-57.52c-4.86-3.68-19.92-7.26-19.92-7.26
				c-3.42-3.09-10.85,0-10.85,0c-40.23,10.23-77.03-3.02-77.03-3.02s-5.21-2.41-9.49,0c0,0-6.75-0.81-12.52,0
				c-9.21,1.27-19.27,11.79-23.42,16.57c-1.24,1.43-35.35,40.94-35.35,40.94s-1.18,16.11,1.31,18.25
				c19.99,17.13,49.44-21.79,49.44-21.79c0.19,0.08,0.64,33.89,16.41,51.57c0,0,11.18,5.1,54.64,1.11
				C303.42,484.91,314.5,477.77,314.5,477.77z"/>
			<g>
				<path class="st11" d="M163.75,427.64c-6.69,0.59-10.16-1.01-11.49-3.85c0,0,0,0,0-0.01c9.63-11.14,20.88-24.17,21.58-24.98
					c0.33-0.39,0.71-0.81,1.11-1.26C179.94,408.72,184.1,425.87,163.75,427.64z"/>
				<path class="st11" d="M193.35,462.9c-3.78-13.92-4.01-26.66-4.12-26.7c0,0,4.84-6.34,6.18-13
					C195.42,423.2,201.7,448.25,193.35,462.9z"/>
				<path class="st11" d="M332.39,458.72c-2.16-2.48-5.22-5.56-8.82-8.14c0,0,0.48-15.9,4.92-20.72
					C332.05,425.99,335.86,446.1,332.39,458.72z"/>
			</g>
		</g>
		<path class="st2" d="M314.5,477.77c5.68-7.03,9.06-27.19,9.06-27.19c7.47,5.33,12.49,12.76,12.49,12.76"/>
		<path class="st2" d="M372.13,450.03c-12.07-17.79-32.49-48.02-45.06-57.52c-4.86-3.68-19.92-7.26-19.92-7.26
			c-3.42-3.09-10.85,0-10.85,0c-40.23,10.23-77.03-3.02-77.03-3.02s-5.21-2.41-9.49,0c0,0-6.75-0.81-12.52,0
			c-9.21,1.27-19.27,11.79-23.42,16.57c-1.24,1.43-35.35,40.94-35.35,40.94s-1.18,16.11,1.31,18.25
			c19.99,17.13,49.44-21.79,49.44-21.79c0.19,0.08,0.64,33.89,16.41,51.57"/>
		<g>
			<path class="st3" d="M297.79,375.48c-0.33,0.14-0.53,0.21-0.53,0.21C297.45,375.65,297.62,375.57,297.79,375.48z"/>
			<path class="st3" d="M309.74,345.53c4.23,0.62,5.26-2.47,5.26-2.47s-5.26,2.47-9.9-7.05c-2.64-5.42-1.34-15.39,0.27-22.97
				c3.25-5.36,7.97-12.77,8.59-21.57c1.07-15.09-5.98-22.74-14.16-20.5c0,0-0.6-12.75-12.11-17.33
				c-11.51-4.57-13.35-0.81-24.38-3.59c-11.03-2.78-21.96-0.36-25.93,6.83c-3.98,7.18-5.32,20.22-12.11,25.27
				c-6.79,5.04-18.65,17.2-14.9,30.8c3.75,13.6,1.63,18.25-3.35,24.67c-4.97,6.43-1.95,19.08,7.55,23.01c0,0-4.01-2.14-1.17-5.72
				c0,0,2.2,8.52,9.62,6.97c7.42-1.56,16.8-2.07,21.59,3.18c4.79,5.25,22.32,6.68,26.27,2.66c3.95-4.02,7.01-0.29,14.17,3.3
				c7.16,3.59,15.11,0.44,15.11,0.44s-0.67,3.1-2.38,4.03c1.46-0.61,5.48-2.54,6.61-5.42c1.11-2.83,1.84-5.68,0.43-12.41
				c4.96-1.95,2.67-5.22,2.67-5.22c4.65,2.68,6.86-5.07,6.86-5.07C310.06,347.3,309.74,345.53,309.74,345.53z"/>
		</g>
		<g>
			<path class="st12" d="M300.33,386.63c0,0-31.33,13.95-41.39,14.51c-10.06,0.58-44.31-17.65-44.31-17.65l26.11-7.12
				c3.56-6.78,3.64-14.74,2.79-24.08c-0.27-2.89-0.62-5.63-0.99-8.07c-0.89-5.92-1.87-10.05-1.87-10.05l36.89,1.52
				c-0.78,2.35-1.4,4.75-1.9,7.15c-1.08,5.18-1.58,10.39-1.74,15.21c-0.42,12.76,1.56,20.02,1.56,20.02L300.33,386.63z"/>
			<path class="st12" d="M224.06,388.28c0,0,19.76,3.47,24.66,2.9c4.91-0.57,8.76,4.27,8.76,4.27"/>
			<path class="st12" d="M293.49,389.57c0,0-20.11,2.13-25,2.29c-4.89,0.17-6.31,3.58-6.31,3.58"/>
			<path class="st3" d="M275.65,342.85c-1.08,5.18-1.58,10.39-1.74,15.21c-2.81,2.4-6.33,4.76-10.33,6.1
				c-6.2,2.06-14.45-5.51-20.05-11.87c-0.27-2.89-0.62-5.63-0.99-8.07L275.65,342.85z"/>
		</g>
		<g>
			<g>
				<path class="st12" d="M232.09,303.11c0,0-3.04-4.67-5.76-3.73c-2.72,0.94-2.71,13.61-2.49,16.9c0.22,3.29,6.84,10.65,9.61,8.64"
					/>
				<path class="st12" d="M298.88,312.95c0,0,4.26-3.59,6.59-1.91c2.33,1.69-1.33,13.81-2.49,16.9c-1.16,3.09-9.62,8.23-11.69,5.5"
					/>
			</g>
			<path class="st12" d="M257.62,361.42c-11.19-1.65-22.29-20.61-23.62-25.94c-1.49-5.94-4.77-35.23,1.62-51.28
				c7.18-18.03,22.2-25.64,36.83-23.49c14.64,2.16,26.83,13.77,28.5,33.11c1.49,17.21-10.1,44.31-13.24,49.57
				C284.9,348.11,269.41,363.16,257.62,361.42z"/>
			<path class="st3" d="M282.96,314.43c-0.3,2.07-1.48,3.61-2.62,3.45c-1.14-0.17-1.82-1.98-1.51-4.05
				c0.31-2.07,1.48-3.61,2.62-3.45C282.58,310.55,283.26,312.36,282.96,314.43z"/>
			<path class="st3" d="M246.46,309.06c-0.31,2.07,0.37,3.89,1.51,4.05c1.14,0.17,2.31-1.37,2.62-3.45c0.3-2.07-0.37-3.89-1.51-4.05
				C247.94,305.44,246.77,306.99,246.46,309.06z"/>
			<path class="st13" d="M271.46,337.08c0,0-5.79,11.36-13.19,9.51c-7.27-1.83-7.33-12.17-7.33-12.51c0,0,0.37,0.16,1.04,0.4
				c1.61,0.61,4.92,1.72,9.03,2.32c3.44,0.51,7.07,0.45,9.01,0.36C270.92,337.12,271.46,337.08,271.46,337.08z"/>
			<path class="st12" d="M261.81,313.43c0.29,7.14-5.83,8.35-4.66,10.82c1.17,2.47,3.93,3.26,3.93,3.26"/>
			<path class="st2" d="M250.94,334.06c0,0-0.07,10.67,7.33,12.53c7.4,1.86,13.18-9.51,13.18-9.51"/>
			<path class="st2" d="M239.86,299.65c0,0,6.67-8.42,16.99-5.75"/>
			<path class="st2" d="M291.01,307.18c0,0-3.96-9.98-14.61-10.4"/>
			<g>
				<polygon class="st5" points="322.23,300.47 320.16,302.75 318.56,304.52 300.06,315.27 300.83,310.09 315.97,301.27 
					319.25,300.86 				"/>
				<path class="st12" d="M317.79,304.97c-2.74-0.52-1.82-3.71-1.82-3.71l6.26-0.8L317.79,304.97z"/>
				<path class="st3" d="M322.23,300.47l-2.07,2.28c-1.38-0.38-0.97-1.73-0.91-1.89L322.23,300.47z"/>
			</g>
			<path class="st3" d="M283.42,276.14c0,0-7.02,9.22-22.27,11.87c-19.1,3.33-29.64,19.85-29.38,26.74c0,0-5.88-12.94-3.27-30.4
				c3.79-25.35,27.44-32.6,44.64-30.83c17.2,1.77,25.5,19.01,25.5,19.01s12.91,10.06,11.04,22.73c-1.79,12.13-4.74,12.47-6.3,15.21
				c-2.16,3.8,0.67,5.39-6.87,11.63c0,0,2.98-16.93-0.72-29.56C292.07,279.91,283.42,276.14,283.42,276.14z"/>
			<path class="st3" d="M288.15,271.85c0,0-6.73,25.72-45.02,29.74c0,0,25.79-4.66,37.72-28.23L288.15,271.85z"/>
			<path class="st14" d="M259.09,341.01c0,0,5.26-1.88,7.29,0c0,0-3.46,5.52-7.91,4.19c-4.45-1.33-5.4-6.66-5.4-6.66
				S255.48,337.42,259.09,341.01z"/>
			<path class="st15" d="M270.76,337.17l-1.5,1.7c-9.29,1.42-17.28-2.76-17.28-2.76l-0.52-1.85c1.61,0.61,5.45,1.94,9.55,2.54
				C264.45,337.31,268.82,337.26,270.76,337.17z"/>
			<path class="st2" d="M249.28,333.38c0,0,12.03,5.61,23.66,3.48"/>
			<path class="st16" d="M287.13,265.49c0,0-8.16,10.69-28.04,12.32c-19.88,1.63-25.63,9.87-25.63,9.87"/>
			<path class="st16" d="M242.37,266.35c-1.85,0.35-4.38,1.01-5.26,2.89"/>
			<path class="st16" d="M289.58,257.19c-11.99,8.96-27.47,9.99-43.2,8.72"/>
			<path class="st16" d="M213.64,339.13c-2.25,2.63-3.62,5.4-3.49,8.93"/>
			<path class="st16" d="M227.97,289.17c-5.58,3.16-10.04,8.97-10.34,15.52c-0.51,11.07,7.43,21.06-0.8,30.75"/>
			<path class="st16" d="M225.67,325.26c0,0,6.15,6.51,2.16,13.12c-4,6.61-6.06,13.33,2.13,18.2"/>
			<path class="st16" d="M270.52,291.14c-1.31,0.82-2.67,1.57-4.06,2.24"/>
			<path class="st16" d="M284.88,274.76c-2.19,5.46-6.32,10.31-10.89,13.93"/>
			<path class="st16" d="M289.58,275.67c0,0,8.31,4.52,11.51,12.01c3.2,7.49-1.31,18.03,0.78,21.68"/>
			<path class="st16" d="M302.51,348.75c1.14,0.72,2.4,1.24,3.72,1.55"/>
			<path class="st16" d="M295.93,338.38c0.52,2.68,1.69,5.29,3.37,7.44"/>
			<path class="st16" d="M292.64,344.34c0,0-0.77,8.46,4.62,14.05c5.39,5.59,3.82,9.08,3.82,9.08"/>
			<path class="st16" d="M283.71,353.99c0,0,3.22,8.57-1.89,11.42"/>
			<path class="st16" d="M295.93,273.33c0,0,12.15,2.45,13.93,7.76c1.78,5.31,0,11.43,0,11.43"/>
		</g>
		<path class="st5" d="M139.8,457.98c-10.29-5.71-8.3-26.27-1.48-51.93c3.35-12.61,14.89-44.37,14.66-45.55
			c-0.46-2.31-2.55-6.15-2.55-6.15s3.3-3.4,4.73-4.01c6.01-2.56,17.86-5.79,23.3-3.54c1.69,0.7,4.16,4.67,3.82,6.29
			c-0.35,1.62-5.21,6.95-4.75,12.05c0.46,5.09-3.96,21.96-3.84,28.67c0.02,1.38,0.08,3.12,0.17,5c0.05,1.2-0.01,22.19-8.09,32.92"/>
		<g>
			<path class="st12" d="M173.29,298.56c0.22,2.04,4.63,16.6,5.99,31.49c0,0,5.07-1.81,7.83-4.22c2.76-2.42,8.55-0.48,8.31,1.13
				c-0.24,1.61-5.54,1.33-10.04,7.37c-4.51,6.04-5.41,12.72-11.38,15.95c-5.97,3.23-15.26,4.36-18.84,0.06
				c-3.58-4.3-7.63-27.08-6.23-29.46c1.4-2.38,4.42-4.48,4.42-4.48s1.52-4.45,3.83-4.78c2.31-0.33,7.81-0.46,7.81-0.46
				s1.92-1.54,4.41-1.21c0,0-1.8-17.1-3.38-22.84C164.44,281.37,171.48,281.41,173.29,298.56z"/>
			<path class="st2" d="M169.39,309.94c4.72,2.13,6.8,11.1,6.8,11.74c0,0.64-2.5,7.41-3.4,9.37c-1.17,2.55-3.72,0-3.72,0
				s-0.77,3.35-2.56,1.88c-2.28-1.88-2.28-7.95-2.28-7.95s-0.27,5.05-1.6,7.51c-1.33,2.46-3.98,0.83-3.6-6.47
				c0,0-5.43-1.33-5.62-2.66"/>
			<path class="st2" d="M164.24,324.97c-1.33-3.42-6.45-6.56-6.45-6.56"/>
			<path class="st2" d="M169.08,331.05c0,0,2.68-7.73,1.95-9.37c-0.72-1.64-5.28-6.01-5.28-6.01"/>
			<path class="st2" d="M179.28,330.05c0,0-5.01,1.09-7.25,7.5"/>
		</g>
		<path class="st2" d="M152.97,360.5c0,0,8.11,6.67,16.82,1.07"/>
		<path class="st2" d="M159.79,380.26c-1.57,0.9-3.23,1.63-4.97,2.1"/>
		<path class="st2" d="M179.28,358.39c-3.96,7.11-9.15,14.05-15.53,19.15"/>
		<path class="st2" d="M209.79,382.22c0,0,15.81,14.85,25.07,18.93"/>
		<path class="st2" d="M194.02,398.29c0.66,1.98,1.23,4.03,1.4,6.12"/>
		<path class="st2" d="M188.53,385.71c1.42,2.68,2.71,5.44,3.87,8.24"/>
		<path class="st2" d="M253.07,406.05c0,0,25.89,0.35,42.49-10.99"/>
		<path class="st2" d="M307.15,385.25c0,0-3.82,2.56-6.07,5.28"/>
		<path class="st2" d="M320.14,404.22c-2.68,2.72-5.67,5.16-8.99,7.05"/>
		<path class="st2" d="M325.79,397.33c-0.84,1.27-1.77,2.49-2.74,3.66"/>
		<path class="st2" d="M189.24,436.19c0,0,6.31-8.18,6.18-17.98"/>
		<path class="st2" d="M323.57,450.58c0,0-1.36-16.46,10.19-28.49"/>
		<path class="st2" d="M336.06,431.16c0.55,0.55-9.86,9.63-12.33,13.69"/>
		<path class="st2" d="M222.32,471.85c0,0,37.88,15.06,57.5,14.74"/>
		<g>
			<g>
				<path class="st14" d="M264.76,443.69c0,0.73-0.59,1.32-1.32,1.32h-4.49c-0.73,0-1.32-0.59-1.32-1.32v-6.86
					c0-0.73,0.59-1.32,1.32-1.32h4.49c0.73,0,1.32,0.59,1.32,1.32V443.69z"/>
				<path class="st3" d="M263.44,445.72h-4.49c-1.12,0-2.03-0.91-2.03-2.03v-6.86c0-1.12,0.91-2.03,2.03-2.03h4.49
					c1.12,0,2.03,0.91,2.03,2.03v6.86C265.47,444.81,264.56,445.72,263.44,445.72z M258.95,436.21c-0.34,0-0.62,0.28-0.62,0.62v6.86
					c0,0.34,0.28,0.62,0.62,0.62h4.49c0.34,0,0.62-0.28,0.62-0.62v-6.86c0-0.34-0.28-0.62-0.62-0.62H258.95z"/>
			</g>
			<path class="st2" d="M275.46,378.08c0,0,20.11,4.14-14.27,56.38c0,0-40.04-50.73-20.46-58.09"/>
			<path class="st3" d="M261.91,433.93c0,0.77-0.34,1.39-0.76,1.39c-0.42,0-0.76-0.62-0.76-1.39s0.34-1.39,0.76-1.39
				C261.57,432.55,261.91,433.17,261.91,433.93z"/>
		</g>
	</g>
</g>
</svg>
