<?xml version="1.0" encoding="utf-8"?>
<!-- Generator: Adobe Illustrator 25.2.1, SVG Export Plug-In . SVG Version: 6.00 Build 0)  -->
<svg version="1.1" xmlns="http://www.w3.org/2000/svg" xmlns:xlink="http://www.w3.org/1999/xlink" x="0px" y="0px"
	 viewBox="0 0 500 451.24" style="enable-background:new 0 0 500 451.24;" xml:space="preserve">
<g id="Background_Simple">
	<g>
		<path style="opacity:0.7;fill:#FFFFFF;" d="M67.93,146.23c0,0-27.88,71.99,11.3,144.5c39.17,72.52,119.88,110.8,184.47,143.55
			c64.59,32.75,131.66,16.8,163.53-36.84c31.87-53.64-11.85-91.93-11.9-168.42c-0.05-76.49,11.45-96.74-29.96-161.36
			c-41.41-64.62-143.06-78.93-219.9-31C88.63,84.6,67.93,146.23,67.93,146.23z"/>
	</g>
	<path style="fill:#92E3A9;" d="M63.69,118.31c26.72-51.84,76.28-91.06,138.06-96.58c42.05-3.76,85.24,8.6,118.73,34.35
		c16.86,12.96,31.85,29.55,41.79,48.44c11.42,21.7,14.75,46.72,26.5,68.32c14.61,26.85,42.05,37.93,60.48,61.13
		c15.17,19.11,20.38,44.71,18.64,69.05c-3.18,44.43-29.21,86.62-67.5,109.38c-32.37,19.25-71.39,24.56-109,22.81
		c-57.99-2.7-115.74-21.82-161.42-57.65c-45.68-35.83-78.51-88.8-86.29-146.33C38.39,192.13,46.08,152.48,63.69,118.31z"/>
	<path style="opacity:0.7;fill:#FFFFFF;" d="M63.69,118.31c26.72-51.84,76.28-91.06,138.06-96.58c42.05-3.76,85.24,8.6,118.73,34.35
		c16.86,12.96,31.85,29.55,41.79,48.44c11.42,21.7,14.75,46.72,26.5,68.32c14.61,26.85,42.05,37.93,60.48,61.13
		c15.17,19.11,20.38,44.71,18.64,69.05c-3.18,44.43-29.21,86.62-67.5,109.38c-32.37,19.25-71.39,24.56-109,22.81
		c-57.99-2.7-115.74-21.82-161.42-57.65c-45.68-35.83-78.51-88.8-86.29-146.33C38.39,192.13,46.08,152.48,63.69,118.31z"/>
</g>
<g id="Elements">
	<g>
		<g>
			<path style="fill:none;stroke:#263238;stroke-linecap:round;stroke-linejoin:round;stroke-miterlimit:10;" d="M46.07,137.26
				c1.18,4.67,0.6-3.93,2.91-14.45c2.31-10.52,6.27-6.26,6.27-6.26"/>
			
				<line style="fill:none;stroke:#263238;stroke-linecap:round;stroke-linejoin:round;stroke-miterlimit:10;" x1="45.35" y1="126.51" x2="52.6" y2="123.54"/>
			<path style="fill:none;stroke:#263238;stroke-linecap:round;stroke-linejoin:round;stroke-miterlimit:10;" d="M58.59,119.97
				c0,0-4.33,8.96,2.2,12.77"/>
			<path style="fill:none;stroke:#263238;stroke-linecap:round;stroke-linejoin:round;stroke-miterlimit:10;" d="M64.74,117.45
				c0,0,7.15,3.97,2.67,12.58"/>
			
				<line style="fill:none;stroke:#263238;stroke-linecap:round;stroke-linejoin:round;stroke-miterlimit:10;" x1="59.84" y1="123.01" x2="64.97" y2="126.75"/>
			
				<line style="fill:none;stroke:#263238;stroke-linecap:round;stroke-linejoin:round;stroke-miterlimit:10;" x1="63.86" y1="121.36" x2="59.85" y2="127.74"/>
		</g>
		<g>
			
				<ellipse transform="matrix(0.1619 -0.9868 0.9868 0.1619 -148.7018 255.6165)" style="fill:none;stroke:#263238;stroke-linecap:round;stroke-linejoin:round;stroke-miterlimit:10;" cx="76.13" cy="215.35" rx="10.91" ry="10.91"/>
			
				<ellipse transform="matrix(0.9796 -0.201 0.201 0.9796 -42.2827 22.7607)" style="fill:none;stroke:#263238;stroke-linecap:round;stroke-linejoin:round;stroke-miterlimit:10;" cx="90.95" cy="219.61" rx="12.1" ry="12.1"/>
			
				<line style="fill:none;stroke:#263238;stroke-linecap:round;stroke-linejoin:round;stroke-miterlimit:10;" x1="86.07" y1="210.86" x2="81.05" y2="212.65"/>
			
				<line style="fill:none;stroke:#263238;stroke-linecap:round;stroke-linejoin:round;stroke-miterlimit:10;" x1="86.77" y1="212.93" x2="79.55" y2="215.54"/>
			
				<line style="fill:none;stroke:#263238;stroke-linecap:round;stroke-linejoin:round;stroke-miterlimit:10;" x1="87.04" y1="215.43" x2="78.98" y2="218.52"/>
			
				<line style="fill:none;stroke:#263238;stroke-linecap:round;stroke-linejoin:round;stroke-miterlimit:10;" x1="86.47" y1="218.84" x2="79.12" y2="222.19"/>
			
				<line style="fill:none;stroke:#263238;stroke-linecap:round;stroke-linejoin:round;stroke-miterlimit:10;" x1="85.17" y1="221.46" x2="79.59" y2="223.78"/>
			<path style="fill:none;stroke:#263238;stroke-linecap:round;stroke-linejoin:round;stroke-miterlimit:10;" d="M81.4,198.74
				c-0.32-0.95-3.85-1.62-4.02,1c-0.17,2.62,3.73,0.44,4.83-0.95c0,0-2.01,2.7-1.16,3.23"/>
			<path style="fill:none;stroke:#263238;stroke-linecap:round;stroke-linejoin:round;stroke-miterlimit:10;" d="M100.99,202
				l-3.14,6.53c0,0,1.57-3.26,3.25-2.97c2.07,0.37,0.69,3.75-1.81,2.51"/>
		</g>
		<g>
			
				<line style="fill:none;stroke:#263238;stroke-linecap:round;stroke-linejoin:round;stroke-miterlimit:10;" x1="442.71" y1="308.61" x2="447.64" y2="313.28"/>
			
				<line style="fill:none;stroke:#263238;stroke-linecap:round;stroke-linejoin:round;stroke-miterlimit:10;" x1="447.64" y1="307.39" x2="443.51" y2="313.56"/>
			
				<line style="fill:none;stroke:#263238;stroke-linecap:round;stroke-linejoin:round;stroke-miterlimit:10;" x1="452.49" y1="309.17" x2="457.43" y2="307.33"/>
			
				<line style="fill:none;stroke:#263238;stroke-linecap:round;stroke-linejoin:round;stroke-miterlimit:10;" x1="459.8" y1="302.19" x2="462.8" y2="304.84"/>
			
				<line style="fill:none;stroke:#263238;stroke-linecap:round;stroke-linejoin:round;stroke-miterlimit:10;" x1="465.1" y1="298.99" x2="461.3" y2="312.04"/>
		</g>
		<g>
			<polygon style="fill:none;stroke:#263238;stroke-linecap:round;stroke-linejoin:round;stroke-miterlimit:10;" points="
				234.97,235.37 248.24,226.24 265.81,227.47 266.91,249.74 254.01,258.97 238.09,257.81 			"/>
			<polyline style="fill:none;stroke:#263238;stroke-linecap:round;stroke-linejoin:round;stroke-miterlimit:10;" points="
				238.09,257.81 250.94,248.56 266.91,249.74 			"/>
			
				<line style="fill:none;stroke:#263238;stroke-linecap:round;stroke-linejoin:round;stroke-miterlimit:10;" x1="250.94" y1="248.56" x2="248.24" y2="226.24"/>
			<polyline style="fill:none;stroke:#263238;stroke-linecap:round;stroke-linejoin:round;stroke-miterlimit:10;" points="
				234.97,235.37 252.5,237.4 265.81,227.47 			"/>
			
				<line style="fill:none;stroke:#263238;stroke-linecap:round;stroke-linejoin:round;stroke-miterlimit:10;" x1="252.5" y1="237.4" x2="254.01" y2="258.97"/>
		</g>
		<g>
			<polygon style="fill:none;stroke:#263238;stroke-linecap:round;stroke-linejoin:round;stroke-miterlimit:10;" points="
				389.85,160.52 383.97,178.79 402.27,176.32 			"/>
			
				<line style="fill:none;stroke:#263238;stroke-linecap:round;stroke-linejoin:round;stroke-miterlimit:10;" x1="389.85" y1="160.52" x2="393.12" y2="177.45"/>
			<polyline style="fill:none;stroke:#263238;stroke-linecap:round;stroke-linejoin:round;stroke-miterlimit:10;" points="
				392.6,174.73 394.74,174.39 395.23,177.27 			"/>
		</g>
		<g>
			
				<line style="fill:none;stroke:#263238;stroke-linecap:round;stroke-linejoin:round;stroke-miterlimit:10;" x1="159.39" y1="327.7" x2="168.53" y2="332.19"/>
			
				<line style="fill:none;stroke:#263238;stroke-linecap:round;stroke-linejoin:round;stroke-miterlimit:10;" x1="165.58" y1="324.28" x2="162.96" y2="333.83"/>
			<path style="fill:none;stroke:#263238;stroke-linecap:round;stroke-linejoin:round;stroke-miterlimit:10;" d="M166.85,319.62
				c0,0,1.29-1.16,2.2,0.28c0.91,1.44-0.88,4.46-0.88,4.46l3.67-1.4"/>
		</g>
		<g>
			<path style="fill:none;stroke:#263238;stroke-linecap:round;stroke-linejoin:round;stroke-miterlimit:10;" d="M231.15,13.18
				c8.73,4.9-1.27,16.9-1.27,23.9s10,6,15,8c2,0,6,0,5.89,5.09"/>
			<path style="fill:none;stroke:#263238;stroke-linecap:round;stroke-linejoin:round;stroke-miterlimit:10;" d="M221.42,19.52
				c1.52,8.27,11.01,5.34,16.82,7.23c9.98,3.25,4.45,13.57,1.46,19.81c-1.79,3.73-3.56,8.94-0.37,12.48"/>
			
				<line style="fill:none;stroke:#263238;stroke-linecap:round;stroke-linejoin:round;stroke-miterlimit:10;" x1="222.7" y1="22.73" x2="233.11" y2="14.08"/>
			
				<line style="fill:none;stroke:#263238;stroke-linecap:round;stroke-linejoin:round;stroke-miterlimit:10;" x1="226.78" y1="25.31" x2="234.62" y2="18.8"/>
			
				<line style="fill:none;stroke:#263238;stroke-linecap:round;stroke-linejoin:round;stroke-miterlimit:10;" x1="231.39" y1="31.88" x2="238.01" y2="26.68"/>
			
				<line style="fill:none;stroke:#263238;stroke-linecap:round;stroke-linejoin:round;stroke-miterlimit:10;" x1="230.02" y1="39.67" x2="242.96" y2="30.36"/>
			
				<line style="fill:none;stroke:#263238;stroke-linecap:round;stroke-linejoin:round;stroke-miterlimit:10;" x1="234.98" y1="43.3" x2="244" y2="36.68"/>
			
				<line style="fill:none;stroke:#263238;stroke-linecap:round;stroke-linejoin:round;stroke-miterlimit:10;" x1="238.82" y1="57.37" x2="250.09" y2="48.19"/>
			
				<line style="fill:none;stroke:#263238;stroke-linecap:round;stroke-linejoin:round;stroke-miterlimit:10;" x1="239.1" y1="50.15" x2="246.45" y2="44.98"/>
		</g>
		<g>
			
				<ellipse transform="matrix(0.9285 -0.3713 0.3713 0.9285 -110.3044 53.656)" style="fill:none;stroke:#263238;stroke-linecap:round;stroke-linejoin:round;stroke-miterlimit:10;" cx="84.17" cy="313.25" rx="20.94" ry="20.94"/>
			<path style="fill:none;stroke:#263238;stroke-linecap:round;stroke-linejoin:round;stroke-miterlimit:10;" d="M89.44,292.98
				c7.3-8.57,13.51-13.42,15.9-11.84c3.63,2.4-2.9,18.71-14.59,36.45c-11.69,17.73-24.11,30.17-27.75,27.77
				c-2.39-1.58-0.38-9.2,4.62-19.28"/>
			<path style="fill:none;stroke:#263238;stroke-linecap:round;stroke-linejoin:round;stroke-miterlimit:10;" d="M63.68,317.54
				c-10.17-2.93-16.68-6.35-16.27-9.08c0.64-4.31,18.19-5.28,39.2-2.17c21.01,3.11,37.53,9.12,36.89,13.43
				c-0.44,2.98-8.97,4.36-21.14,3.9"/>
			<path style="fill:none;stroke:#263238;stroke-linecap:round;stroke-linejoin:round;stroke-miterlimit:10;" d="M66.35,302.38
				c-7.68-13.86-11.52-24.67-8.91-26.36c3.42-2.21,16.64,12.13,29.52,32.03c12.89,19.9,20.57,37.83,17.15,40.04
				c-2.26,1.46-8.81-4.31-16.71-14.15"/>
			<path style="fill:#263238;" d="M108.29,290.21c-1.05,1.59-3.18,2.03-4.77,0.98c-1.59-1.05-2.03-3.18-0.98-4.77
				c1.05-1.59,3.18-2.03,4.77-0.98C108.9,286.48,109.33,288.62,108.29,290.21z"/>
			<path style="fill:#263238;" d="M96.9,342.9c-1.05,1.59-3.18,2.03-4.77,0.98c-1.59-1.05-2.03-3.18-0.98-4.77
				c1.05-1.59,3.18-2.03,4.77-0.98C97.5,339.17,97.94,341.31,96.9,342.9z"/>
			<path style="fill:#263238;" d="M78.52,307.17c-1.05,1.59-3.18,2.03-4.77,0.98c-1.59-1.05-2.03-3.18-0.98-4.77
				c1.05-1.59,3.18-2.03,4.77-0.98C79.13,303.44,79.57,305.58,78.52,307.17z"/>
		</g>
		<g>
			<polygon style="fill:none;stroke:#263238;stroke-linecap:round;stroke-linejoin:round;stroke-miterlimit:10;" points="
				297.83,157.47 309.61,157.47 315.51,147.27 309.61,137.06 297.83,137.06 291.94,147.27 			"/>
			<polyline style="fill:none;stroke:#263238;stroke-linecap:round;stroke-linejoin:round;stroke-miterlimit:10;" points="
				296.12,179.86 290.23,169.65 278.45,169.65 			"/>
			<polygon style="fill:none;stroke:#263238;stroke-linecap:round;stroke-linejoin:round;stroke-miterlimit:10;" points="
				280.03,147.27 291.81,147.27 297.7,137.06 291.81,126.86 280.03,126.86 274.14,137.06 			"/>
			<polygon style="fill:none;stroke:#263238;stroke-linecap:round;stroke-linejoin:round;stroke-miterlimit:10;" points="
				297.83,137.06 309.61,137.06 315.51,126.86 309.61,116.66 297.83,116.66 291.94,126.86 			"/>
			<circle style="fill:#263238;" cx="297.7" cy="137.06" r="1.58"/>
			<circle style="fill:#263238;" cx="273.1" cy="115.65" r="1.58"/>
			<path style="fill:#263238;" d="M294.54,179.86c0-0.87,0.71-1.58,1.58-1.58c0.87,0,1.58,0.71,1.58,1.58
				c0,0.87-0.71,1.58-1.58,1.58C295.25,181.44,294.54,180.73,294.54,179.86z"/>
			<circle style="fill:#263238;" cx="278.45" cy="169.65" r="1.58"/>
			<path style="fill:#263238;" d="M326.9,127.13c0-0.87,0.71-1.58,1.58-1.58c0.87,0,1.58,0.71,1.58,1.58c0,0.87-0.71,1.58-1.58,1.58
				C327.61,128.71,326.9,128,326.9,127.13z"/>
			<circle style="fill:#263238;" cx="290.11" cy="169.65" r="1.58"/>
			<path style="fill:#263238;" d="M313.92,127.13c0-0.87,0.71-1.58,1.58-1.58c0.87,0,1.58,0.71,1.58,1.58
				c0,0.87-0.71,1.58-1.58,1.58C314.63,128.71,313.92,128,313.92,127.13z"/>
			<path style="fill:#263238;" d="M296.12,157.47c0-0.87,0.71-1.58,1.58-1.58s1.58,0.71,1.58,1.58c0,0.87-0.71,1.58-1.58,1.58
				S296.12,158.35,296.12,157.47z"/>
			
				<line style="fill:none;stroke:#263238;stroke-linecap:round;stroke-linejoin:round;stroke-miterlimit:10;" x1="315.51" y1="127.13" x2="328.48" y2="127.13"/>
			
				<line style="fill:none;stroke:#263238;stroke-linecap:round;stroke-linejoin:round;stroke-miterlimit:10;" x1="297.7" y1="157.47" x2="290.11" y2="169.65"/>
			
				<line style="fill:none;stroke:#263238;stroke-linecap:round;stroke-linejoin:round;stroke-miterlimit:10;" x1="280.03" y1="126.86" x2="273.1" y2="115.65"/>
		</g>
		<g>
			<path style="fill:none;stroke:#263238;stroke-linecap:round;stroke-linejoin:round;stroke-miterlimit:10;" d="M363.58,86.65
				c2.66-9.04,11.02-15.64,20.92-15.64c10.24,0,18.83,7.05,21.17,16.57"/>
			<path style="fill:none;stroke:#263238;stroke-linecap:round;stroke-linejoin:round;stroke-miterlimit:10;" d="M382.03,114.49
				c-10.88-1.23-19.33-10.46-19.33-21.67"/>
			<path style="fill:none;stroke:#263238;stroke-linecap:round;stroke-linejoin:round;stroke-miterlimit:10;" d="M406.31,92.82
				c0,12.04-9.76,21.81-21.81,21.81"/>
			<path style="fill:none;stroke:#263238;stroke-linecap:round;stroke-linejoin:round;stroke-miterlimit:10;" d="M407.55,78.99
				c6.82-0.88,11.39-0.4,12.1,1.63c1.41,4.06-13.18,12.82-32.59,19.55c-19.41,6.73-36.28,8.9-37.69,4.84
				c-0.75-2.17,3.06-5.68,9.75-9.51"/>
		</g>
		<polygon style="fill:none;stroke:#263238;stroke-linecap:round;stroke-linejoin:round;stroke-miterlimit:10;" points="
			290.11,64.04 292.2,68.28 296.87,68.96 293.49,72.25 294.29,76.91 290.11,74.71 285.93,76.91 286.73,72.25 283.35,68.96 
			288.02,68.28 		"/>
		<g>
			<path style="fill:none;stroke:#263238;stroke-linecap:round;stroke-linejoin:round;stroke-miterlimit:10;" d="M142.47,52.77
				c0,4.08-1.72,7.76-4.47,10.33c-2.54,2.4-5.96,3.86-9.71,3.86c-0.46,0-0.91-0.02-1.35-0.06c-2.95-0.28-5.63-1.46-7.77-3.26
				c-1.83-1.53-3.27-3.52-4.13-5.79c-0.61-1.58-0.94-3.29-0.94-5.08c0-7.83,6.35-14.18,14.19-14.18c2.2,0,4.29,0.5,6.16,1.41
				c2.14,1.03,3.98,2.58,5.35,4.49C141.48,46.82,142.47,49.68,142.47,52.77z"/>
			<path style="fill:none;stroke:#263238;stroke-linecap:round;stroke-linejoin:round;stroke-miterlimit:10;" d="M140.2,55.34
				c0,1.21-0.98,2.19-2.19,2.19s-2.19-0.98-2.19-2.19c0-1.21,0.98-2.19,2.19-2.19S140.2,54.13,140.2,55.34z"/>
			<path style="fill:none;stroke:#263238;stroke-linecap:round;stroke-linejoin:round;stroke-miterlimit:10;" d="M120.45,60.91
				c0,1.1-0.5,2.08-1.28,2.73c-1.83-1.53-3.27-3.52-4.13-5.79c0.53-0.33,1.16-0.51,1.83-0.51
				C118.85,57.34,120.45,58.94,120.45,60.91z"/>
			<path style="fill:none;stroke:#263238;stroke-linecap:round;stroke-linejoin:round;stroke-miterlimit:10;" d="M138,63.1
				c-2.54,2.4-5.96,3.86-9.71,3.86c-0.46,0-0.91-0.02-1.35-0.06c-0.08-0.38-0.12-0.77-0.12-1.17c0-3.26,2.64-5.91,5.9-5.91
				C135.04,59.82,137.04,61.16,138,63.1z"/>
			
				<circle style="fill:none;stroke:#263238;stroke-linecap:round;stroke-linejoin:round;stroke-miterlimit:10;" cx="124.85" cy="43.89" r="3.26"/>
			<path style="fill:none;stroke:#263238;stroke-linecap:round;stroke-linejoin:round;stroke-miterlimit:10;" d="M127.87,53.15
				c0,0.83-0.68,1.51-1.51,1.51s-1.51-0.68-1.51-1.51c0-0.83,0.68-1.51,1.51-1.51S127.87,52.31,127.87,53.15z"/>
			<path style="fill:none;stroke:#263238;stroke-linecap:round;stroke-linejoin:round;stroke-miterlimit:10;" d="M139.8,44.49
				c-0.38,0.13-0.8,0.19-1.23,0.19c-2.3,0-4.15-1.86-4.15-4.16c0-0.18,0.01-0.35,0.03-0.52C136.59,41.03,138.43,42.58,139.8,44.49z"
				/>
		</g>
		<path style="fill:none;stroke:#263238;stroke-linecap:round;stroke-linejoin:round;stroke-miterlimit:10;" d="M465.85,217.44
			l1.53-3.44l-2.48-1.37c0.09-0.61,0.11-1.22,0.05-1.83l2.54-1.24l-1.35-3.51l-2.72,0.78c-0.36-0.49-0.79-0.93-1.26-1.32l0.92-2.68
			l-3.44-1.53l-1.37,2.48c-0.61-0.09-1.22-0.11-1.83-0.05l-1.24-2.54l-3.51,1.35l0.78,2.72c-0.49,0.36-0.93,0.79-1.32,1.26
			l-2.68-0.92l-1.53,3.44l2.48,1.37c-0.09,0.61-0.11,1.22-0.05,1.83l-2.54,1.24l1.35,3.51l2.72-0.78c0.36,0.49,0.79,0.93,1.26,1.32
			l-0.92,2.68l3.44,1.53l1.37-2.48c0.61,0.09,1.22,0.11,1.83,0.05l1.24,2.54l3.51-1.35l-0.78-2.72c0.49-0.36,0.93-0.79,1.32-1.26
			L465.85,217.44z M455.39,215.52c-2.21-0.98-3.2-3.57-2.22-5.77c0.98-2.21,3.57-3.2,5.77-2.22s3.2,3.57,2.22,5.77
			C460.18,215.5,457.6,216.5,455.39,215.52z"/>
		<path style="fill:none;stroke:#263238;stroke-linecap:round;stroke-linejoin:round;stroke-miterlimit:10;" d="M447.57,235.09
			l2.08-4.67l-3.36-1.86c0.12-0.83,0.14-1.66,0.07-2.48l3.45-1.68l-1.83-4.77l-3.69,1.06c-0.49-0.66-1.07-1.26-1.71-1.8l1.25-3.63
			l-4.67-2.08l-1.86,3.36c-0.83-0.12-1.66-0.14-2.48-0.07l-1.68-3.45l-4.77,1.83l1.06,3.69c-0.66,0.49-1.26,1.07-1.8,1.71
			l-3.63-1.25l-2.08,4.67l3.36,1.86c-0.12,0.83-0.14,1.66-0.07,2.48l-3.45,1.68l1.83,4.77l3.69-1.06c0.49,0.66,1.07,1.26,1.71,1.8
			l-1.25,3.63l4.67,2.08l1.86-3.36c0.83,0.12,1.66,0.14,2.48,0.07l1.68,3.45l4.77-1.83l-1.06-3.69c0.66-0.49,1.26-1.07,1.8-1.71
			L447.57,235.09z M433.37,232.48c-3-1.33-4.35-4.84-3.01-7.84c1.33-3,4.84-4.35,7.84-3.01c3,1.33,4.35,4.84,3.01,7.84
			C439.88,232.46,436.37,233.81,433.37,232.48z"/>
	</g>
</g>
<g id="Earth">
	<g>
		<g>
			<defs>
				<path id="XMLID_569_" d="M240.27,190.75c-1.39,2.64-2.94,5.14-4.63,7.48c-9.11,12.67-22.33,21.14-36.81,24.53
					c-7.18,1.68-14.68,2.12-22.15,1.19c-7.36-0.91-14.68-3.15-21.63-6.81c-1.39-0.73-2.74-1.51-4.05-2.33
					c-1.31-0.81-2.57-1.66-3.79-2.56c-1.48-1.08-2.9-2.21-4.26-3.4c-0.01,0-0.01-0.01-0.02-0.02c-0.08-0.07-0.17-0.14-0.24-0.22
					c-0.02-0.02-0.03-0.02-0.03-0.02c-8-7.06-13.91-15.91-17.45-25.62c-1.45-3.98-2.51-8.11-3.13-12.33
					c-1.93-12.83,0.08-26.37,6.59-38.72c9.63-18.28,26.97-29.87,45.9-32.88c13-2.08,26.78-0.12,39.32,6.5
					c11.85,6.25,20.9,15.74,26.61,26.82C249.64,150.04,250.27,171.78,240.27,190.75z"/>
			</defs>
			<use xlink:href="#XMLID_569_"  style="overflow:visible;fill:#92E3A9;"/>
			<clipPath id="XMLID_6_">
				<use xlink:href="#XMLID_569_"  style="overflow:visible;"/>
			</clipPath>
			<g style="opacity:0.6;clip-path:url(#XMLID_6_);">
				<path style="fill:#FFFFFF;" d="M240.27,190.76c-1.39,2.63-2.94,5.13-4.63,7.48l-1.22-0.96l-2.1-1.11l-2.21-1.16l0.37-2.67
					c0,0,0,0-0.12-2.41c-0.13-2.41,1.61-0.44,3.05-1.17c1.42-0.75,2.55-2.96,2.55-2.96s1.02-3.21,0.67-4.5
					c-0.35-1.29-1.9-4.34-1.9-4.34l-3.58,4.97l-2.95-0.23l-2.94-1.54l-0.37-3.95l-1.46-0.76l-0.61-2.27l-7.89-2.21c0,0,0,0-0.9-1.58
					S209.5,167,209.5,167l0.89-2.06c0,0,0,0,1.4-2.3c1.41-2.3,2.87,1.52,2.87,1.52l1.67,0.87l3.1-2.6c0,0,0,0,0.82-3.73l5.05,0.29
					c0,0-0.36-1.83,1.32-2.5c1.68-0.66,0.94-4.31,0.3-5.66c-0.66-1.34-2.96-0.26-2.96-0.26s-2.57-3.91-2.92-5.47
					c-0.35-1.55,4.9-1.04,7.15-2.57c2.24-1.52,1.48-4.69,0.38-4.76c-1.09-0.08,2.15-7.1,8.4-5.17c1.74,0.54,2.84,0.35,3.52-0.25
					C249.64,150.05,250.27,171.79,240.27,190.76z"/>
				<path style="fill:#FFFFFF;" d="M196.54,163.71c-2.14,2.69-2.14,2.69-2.14,2.69s-0.91-2.17-2.21-0.99
					c-1.3,1.18-1.96,1.78-1.96,1.78l-1.45,4.06l-2.6,1.68l-1.59-0.83l-1.5-0.8l-1.63-0.86l-1.56,2.96l-1.27,2.4
					c0.96,1.87,2.29,3.25,2.29,3.25l2.76,4.87l3.29,1.73c2.02,0.04,4.17,0.5,4.17,0.5l2.31,1.21l-0.82,5.01c0,0-1.74,2.83-2.9,2.05
					c-1.17-0.77-1.17-0.77-1.17-0.77l-1.9,6.58l-0.08,3.62c0,0-1.13,0.47-2.27,0.85c-1.15,0.38-0.42,0.18-2.81,0.92
					c-2.39,0.74-2.2,0.71-4.14,1.26c-1.94,0.55-4.75,2.22-4.75,2.22l0.17,3.48l-4.57,0.67l-2.56-1.36l0.63-2.2l0.3-3.44l-0.35-2.57
					l-1.1-2.27l3.08-2.79l-0.68-1.75l-1.75-3.48l-3.7,2l-1.9,1.02l-4.3-1.93l-0.47-2.61l-1.46-4.71l-1.34-2.92l-2.38-3.22l-0.6-2.77
					l1.34-2.54l0.71-1.34l-2.19-2.95l-0.6-2.1l-3.69-3.35c0,0,1.07-0.07,0.83-1.56c-0.24-1.49,2.11-4,2.11-4
					c1.33,0.7,5.32,3.48,5.32,3.48l3.49,0.48c0.04,0,0.7-0.02,1.38-1.32c0.7-1.33,2.78-3.33,2.78-3.33s-1.61-5.59-0.46-6.34
					c1.14-0.77,2.32-4.41,2.32-4.41l0.92-1.75c0,0-2.17-0.95-2.58-2.1c-0.41-1.16-5.76,0.38-5.76,0.38l-3.69,2.56l-2.82,2.24
					l-1.26,2.39c0,0-2.57-3.09-2.58-1.36c-0.01,1.73-1.16,5.21-1.16,5.21s0.53,0.28-0.17,1.62c-0.71,1.33-1.46,1.27-3.04,1.46
					s-5.96-0.41-5.96-0.41s-1,3.7-0.31,4.34c0.68,0.62,0.68,0.62,0.68,0.62s-1.07,2.69-2.13,2.13c-1.07-0.57-2.58-1.36-2.58-1.36
					l-3.61,1.46l-3.96,4.42l-0.89-0.18c-1.93-12.82,0.08-26.37,6.59-38.72c9.63-18.27,26.97-29.86,45.9-32.88
					c0.23,1.02,0.48,1.94,0.48,1.94l-0.97,4.94l-1.28,2.44l-1.1,2.09l-1.55,2.94l3.86,3.66l-0.85,4.33l-2.15,1.35l-0.62,3.25
					l3.69,7.21l1.04,2.83c0,0-1.15,2.56-0.89,4.32c0,0,0.45,2.7,2.42,3.77c1.97,1.06,4.56,2.33,4.56,2.33l-0.21,4.02l-0.89,1.04
					l1.48,4.31c4.51,1.77,4.08,3.25,4.51,1.77c0.44-1.47,0.44-1.47,0.44-1.47l3.07-1.11l3.91,4.67c0,0,1.21-0.16,2.3,1.22
					C196.91,162.27,198.69,161.02,196.54,163.71z"/>
				<path style="fill:#FFFFFF;" d="M143.54,198.54c0.11,1.42-1.69,3.2-1.69,3.2l1.47,0.77l0.45,3.96l-1.11,2.12
					c-8-7.06-13.91-15.91-17.45-25.62l0.8-4.24l3.53-0.5c0,0,3.16-2.1,4.56-1.54c1.4,0.58,2.68,3.97,2.68,3.97s1.03,4.64,0.87,4.55
					l-0.02-0.01l-0.06,0.04l0.08-0.03l1.44,0.76l0.41,1.83l-2.01,3.8l-3.22,0.01c0,0-0.64-0.34-0.7,1.33
					c-0.06,1.68,1.67,2.93,1.67,2.93l3.48-0.89c0.93-3.6,0.93-3.6,0.93-3.6l3.42-0.67c0,0-0.49,2.21,0.31,2.63
					c0.81,0.43,0.81,0.43,0.81,0.43l0.48,2.64C144.67,196.41,143.43,197.12,143.54,198.54z"/>
				<path style="fill:#FFFFFF;" d="M160.08,204.19c-0.31-0.85-0.44-1.6-2.57-2.72c-2.12-1.12-2.02-0.72-2.84,0.21
					c-0.83,0.92-1.79,1.44-3.18,1.13c-1.39-0.31-0.67,1.27-0.67,1.27l0.33,4.27l-3.95,3.91c1.22,0.89,2.48,1.75,3.79,2.56l0.84-2.58
					l6.56,1.95c-1.39-0.42-0.57-2.32-0.57-2.32l-1.4-0.74C156.43,211.12,160.39,205.04,160.08,204.19z"/>
				<path style="fill:#FFFFFF;" d="M201.4,181.99l-2.15-2.17l-2.45,0.78l-1.05,1.99l-0.76,1.44l1.02,1.95l2.02,2.43l1.15-2.18
					c0,0,3.17,0.02,4.83-1.83C205.65,182.54,201.4,181.99,201.4,181.99z"/>
				<path style="fill:#FFFFFF;" d="M195.08,172.2l4,2.11c0,0,0,0,0.16-0.94c0.16-0.94,1.08-2.06,1.08-2.06l-3.07-3.24L195.08,172.2z
					"/>
				<path style="fill:#FFFFFF;" d="M193.72,218.76l-1.15-1.68l-1.33-0.7l-4.09,0l-2.33,4.42c0,0-2.23-0.3-5.16-0.56
					c-2.93-0.26-2.21,0.95-2.21,0.95l-0.77,2.78c7.46,0.93,14.96,0.5,22.15-1.19c-1.18-0.84-2.62-1.61-2.62-1.61L193.72,218.76z"/>
			</g>
			
				<use xlink:href="#XMLID_569_"  style="overflow:visible;fill:none;stroke:#263238;stroke-linecap:round;stroke-linejoin:round;stroke-miterlimit:10;"/>
		</g>
		<path style="fill:none;stroke:#263238;stroke-linecap:round;stroke-linejoin:round;stroke-miterlimit:10;" d="M198.82,222.76
			c-7.18,1.68-14.68,2.12-22.15,1.19l0.77-2.78c0,0-0.72-1.21,2.21-0.95c2.93,0.25,5.16,0.56,5.16,0.56l2.33-4.42l4.09,0l1.33,0.7
			l1.15,1.68l2.48,2.4C196.2,221.15,197.65,221.93,198.82,222.76z"/>
		<g>
			<path style="fill:none;stroke:#263238;stroke-linecap:round;stroke-linejoin:round;stroke-miterlimit:10;" d="M240.49,132.35
				c-0.68,0.6-1.78,0.79-3.52,0.25c-6.25-1.93-9.5,5.09-8.4,5.17c1.1,0.07,1.86,3.24-0.38,4.76c-2.25,1.53-7.5,1.02-7.15,2.57
				c0.35,1.56,2.92,5.47,2.92,5.47s2.3-1.08,2.96,0.27c0.65,1.35,1.39,5-0.3,5.66c-1.68,0.67-1.32,2.5-1.32,2.5l-5.06-0.3
				c-0.81,3.73-0.81,3.73-0.81,3.73l-3.1,2.6l-1.67-0.88c0,0-1.46-3.81-2.87-1.51c-1.4,2.29-1.4,2.29-1.4,2.29l-0.9,2.06
				c0,0,3.63,0.81,4.54,2.39c0.9,1.58,0.9,1.58,0.9,1.58l7.88,2.22l0.62,2.26l1.46,0.77l0.37,3.94l2.94,1.54l2.94,0.23l3.59-4.97
				c0,0,1.55,3.06,1.9,4.34c0.35,1.29-0.67,4.5-0.67,4.5s-1.13,2.21-2.56,2.96c-1.43,0.74-3.17-1.23-3.05,1.18
				c0.12,2.41,0.12,2.41,0.12,2.41l-0.36,2.67l2.21,1.17l2.1,1.11l1.22,0.96"/>
			<path style="fill:none;stroke:#263238;stroke-linecap:round;stroke-linejoin:round;stroke-miterlimit:10;" d="M122.07,170.64
				l0.88,0.17l3.97-4.42l3.6-1.46c0,0,1.52,0.8,2.58,1.36c1.07,0.56,2.14-2.12,2.14-2.12s0,0-0.69-0.63
				c-0.69-0.63,0.31-4.34,0.31-4.34s4.37,0.61,5.96,0.42c1.58-0.19,2.33-0.13,3.04-1.47c0.7-1.33,0.17-1.62,0.17-1.62
				s1.16-3.48,1.16-5.21c0.01-1.73,2.58,1.36,2.58,1.36l1.26-2.39l2.83-2.24l3.68-2.56c0,0,5.35-1.54,5.77-0.38
				c0.41,1.15,2.58,2.1,2.58,2.1l-0.92,1.75c0,0-1.18,3.64-2.32,4.41c-1.15,0.76,0.46,6.34,0.46,6.34s-2.08,2-2.78,3.33
				c-0.7,1.33-1.38,1.32-1.38,1.32l-3.49-0.48c0,0-3.99-2.78-5.32-3.49c0,0-2.34,2.51-2.11,4c0.24,1.49-0.82,1.56-0.82,1.56
				l3.69,3.35l0.6,2.1l2.19,2.95l-0.71,1.35l-1.34,2.54l0.59,2.77l2.39,3.21l1.34,2.92l1.46,4.72l0.47,2.61l4.3,1.93l1.9-1.02l3.7-2
				l1.75,3.48l0.69,1.75l-3.08,2.79l1.09,2.27l0.36,2.57l-0.31,3.44l-0.63,2.2l2.57,1.35l4.56-0.66l-0.16-3.49
				c0,0,2.81-1.66,4.75-2.22c1.94-0.55,1.75-0.52,4.14-1.25c2.39-0.75,1.65-0.54,2.8-0.92c1.14-0.38,2.27-0.84,2.27-0.84l0.08-3.63
				l1.89-6.58c0,0,0,0,1.17,0.77c1.17,0.78,2.9-2.04,2.9-2.04l0.82-5.01l-2.31-1.22c0,0-2.15-0.45-4.17-0.49l-3.3-1.74l-2.75-4.86
				c0,0-1.33-1.38-2.29-3.25l1.27-2.4l1.56-2.96l1.63,0.86l1.5,0.79l1.59,0.84l2.6-1.69l1.45-4.06c0,0,0.66-0.6,1.96-1.77
				c1.3-1.18,2.21,0.99,2.21,0.99s0,0,2.14-2.69c2.15-2.68,0.37-1.44-0.73-2.82s-2.31-1.22-2.31-1.22L189.6,155l-3.07,1.11
				c0,0,0,0-0.44,1.47c-0.43,1.48,0,0-4.51-1.77l-1.49-4.31l0.89-1.04l0.22-4.02c0,0-2.6-1.27-4.56-2.33
				c-1.97-1.07-2.42-3.77-2.42-3.77c-0.26-1.76,0.89-4.31,0.89-4.31l-1.04-2.84l-3.69-7.21l0.63-3.25l2.14-1.35l0.85-4.32
				l-3.86-3.66l1.55-2.94l1.1-2.09l1.29-2.44l0.96-4.95c0,0-0.24-0.91-0.48-1.94"/>
			<path style="fill:none;stroke:#263238;stroke-linecap:round;stroke-linejoin:round;stroke-miterlimit:10;" d="M142.95,208.85
				c-0.1-0.12-0.21-0.21-0.26-0.24c-0.02-0.02-0.03-0.02-0.03-0.02l1.12-2.12l-0.45-3.96l-1.47-0.77c0,0,1.79-1.78,1.68-3.2
				c-0.11-1.43,1.13-2.14,1.13-2.14l-0.48-2.64c0,0,0,0-0.8-0.42c-0.8-0.42-0.31-2.64-0.31-2.64l-3.42,0.67c0,0,0,0-0.93,3.6
				l-3.48,0.89c0,0-1.73-1.25-1.67-2.92c0.06-1.67,0.7-1.33,0.7-1.33l3.22-0.01l2-3.8l-0.4-1.82l-1.45-0.76"/>
			<path style="fill:none;stroke:#263238;stroke-linecap:round;stroke-linejoin:round;stroke-miterlimit:10;" d="M137.63,185.2
				l0.01,0.01c0.16,0.09-0.87-4.55-0.87-4.55s-1.28-3.4-2.68-3.97c-1.4-0.57-4.56,1.54-4.56,1.54l-3.53,0.5l-0.8,4.24"/>
			<path style="fill:none;stroke:#263238;stroke-linecap:round;stroke-linejoin:round;stroke-miterlimit:10;" d="M151.84,212.23
				l-0.84,2.58c-1.31-0.81-2.57-1.66-3.79-2.56l3.95-3.91l-0.33-4.27c0,0-0.73-1.58,0.67-1.27c1.39,0.31,2.35-0.21,3.18-1.13
				c0.82-0.93,0.72-1.33,2.84-0.21c2.13,1.12,2.26,1.87,2.57,2.72c0.31,0.85-3.65,6.93-3.65,6.93l1.4,0.74c0,0-0.82,1.9,0.57,2.32
				L151.84,212.23z"/>
			<path style="fill:none;stroke:#263238;stroke-linecap:round;stroke-linejoin:round;stroke-miterlimit:10;" d="M196.79,180.6
				l2.45-0.78l2.15,2.17c0,0,4.25,0.55,2.6,2.4c-1.66,1.85-4.83,1.83-4.83,1.83l-1.15,2.18l-2.02-2.43l-1.02-1.95l0.76-1.44
				L196.79,180.6z"/>
			<path style="fill:none;stroke:#263238;stroke-linecap:round;stroke-linejoin:round;stroke-miterlimit:10;" d="M200.32,171.31
				c0,0-0.93,1.12-1.08,2.06c-0.16,0.94-0.16,0.94-0.16,0.94l-4-2.11l2.17-4.13L200.32,171.31z"/>
		</g>
	</g>
</g>
<g id="Character">
	<g>
		<path style="fill:#263238;" d="M417.33,407.19c-5.36,4.46-46.65,32.8-105.57,28.23c-3.17-26.82-15.26-137.01-1.51-154.28
			c0,0,33.36-15.91,64.09-9.23c30.73,6.68,42.69,13.08,44.88,18.62C420.88,294.73,418.51,372.74,417.33,407.19z"/>
		<path style="fill:#FFFFFF;stroke:#263238;stroke-linecap:round;stroke-linejoin:round;stroke-miterlimit:10;" d="M373.32,283.69
			c-17.7,15.33-40.5,12.09-40,0.32c0.08-1.84,2.05-4.12,2.05-4.12s-0.26-0.39-0.69-1.06c-0.66-1-1.73-2.63-2.97-4.53
			c-2.19-3.39-4.93-7.65-6.84-10.75c-1.6-2.64,38.29-27.18,38.29-13.07c0,19.88,9.76,23.62,9.76,23.62
			C376.57,275.58,379.99,277.92,373.32,283.69z"/>
		<path style="fill:none;stroke:#FFFFFF;stroke-linecap:round;stroke-linejoin:round;stroke-miterlimit:10;" d="M384.51,314.05
			c0,0-3.57,12.24-1.87,15.74"/>
		<path style="fill:none;stroke:#FFFFFF;stroke-linecap:round;stroke-linejoin:round;stroke-miterlimit:10;" d="M380.34,278.5
			c0,11.81-35.23,23.38-45.56,11.53"/>
		<path style="fill:#263238;" d="M351.36,264.88c0,0-2.37,8.9-13.35,15.85c0,0-0.56-1.22-2.37-1.87c-0.32-0.12-0.66-0.01-0.96-0.03
			c-0.66-1-1.73-2.63-2.97-4.53C337.32,270.23,351.36,264.88,351.36,264.88z"/>
		<g>
			<path style="fill:#FFFFFF;stroke:#263238;stroke-linecap:round;stroke-linejoin:round;stroke-miterlimit:10;" d="M356.3,253.94
				c0,0-0.11,8.78-1.97,10.57c-13.95,13.38-27.59,14.44-29.84,10.91c-15.15-23.75-11.57-30.02-13.11-34.06
				c-2.73-7.14-6.08-18.8-4.6-25.86c3.3-15.77,33.02-27.96,48.64-12.14c7.5,7.59,9.87,24.07,8.29,37.78"/>
			<path style="fill:none;stroke:#263238;stroke-linecap:round;stroke-linejoin:round;stroke-miterlimit:10;" d="M313.26,234
				c0,0-4.16-1.87-5.07,0.36"/>
			<path style="fill:none;stroke:#263238;stroke-linecap:round;stroke-linejoin:round;stroke-miterlimit:10;" d="M323.37,234.1
				c0,0,8.67-3.63,12.57,0.77"/>
			<path style="fill:#263238;" d="M332.96,240.29c0.14,1.3-0.49,2.44-1.42,2.54c-0.93,0.1-1.79-0.87-1.93-2.17
				c-0.14-1.3,0.49-2.44,1.42-2.54C331.95,238.02,332.82,238.99,332.96,240.29z"/>
			<path style="fill:#263238;" d="M315.98,240.69c0.14,1.3-0.49,2.44-1.42,2.54c-0.93,0.1-1.79-0.87-1.93-2.17
				c-0.14-1.3,0.49-2.44,1.42-2.54C314.98,238.41,315.84,239.39,315.98,240.69z"/>
			<path style="fill:#FFFFFF;stroke:#263238;stroke-linecap:round;stroke-linejoin:round;stroke-miterlimit:10;" d="M316.42,237.27
				c1.21,1.95,0.55,5.28-1.05,9.84c-1.59,4.57-0.19,6.22,5.95,6.68"/>
			<path style="fill:none;stroke:#263238;stroke-linecap:round;stroke-linejoin:round;stroke-miterlimit:10;" d="M321.32,261.71
				c0,0,8.02-0.73,11.66-2.74"/>
			<path style="fill:#263238;" d="M371.98,216.37c0-5.94-5.86-18.13-16.15-19.5l0,0c-5.9-6.18-14.33-8.45-24.55-6.1
				c-23.61,5.43-30.8,28.74-31.84,32.61c-0.1,0.36-0.14,0.56-0.14,0.56l6.32-1.61l-2.73,5.32l3.31,2.19l-0.76,0.84l3.84,3.7
				l-1.2-6.75c0.74-4.37,5.76-10.46,5.76-10.46c-2.92,3.51-3.29,8.19-3.29,8.19c1.98-5.19,14-9.96,14-9.96
				c-3.89,3.16-5.97,9.34-5.97,9.34c3.71-4.56,12.38-7.51,17.92-9.08c1.87,4.52,4.84,9.22,9.08,11.83c3.99,2.46,3.86,7.53,3.86,7.53
				c6.94,4.54,8.98,12.36,8.98,12.36l4.84,6.62C363.27,253.99,371.99,243.23,371.98,216.37z"/>
			<path style="fill:#FFFFFF;stroke:#263238;stroke-linecap:round;stroke-linejoin:round;stroke-miterlimit:10;" d="M351.63,236.67
				c-1.62-3.47,4.26-12.87,8.42-11.71c2.34,0.65,5.4,4.92,6,9.41c0.59,4.49-2.57,12.96-5.96,14.85c-2.14,1.2-3.91-2.07-3.91-2.07"/>
		</g>
		<g>
			<polygon style="fill:#FFFFFF;" points="96.51,406.39 209.5,379.98 445.18,407.19 384.51,448.7 			"/>
			<polyline style="fill:#FFFFFF;stroke:#263238;stroke-linecap:round;stroke-linejoin:round;stroke-miterlimit:10;" points="
				96.51,406.39 209.5,379.98 445.18,407.19 			"/>
		</g>
		<polygon style="fill:#FFFFFF;stroke:#263238;stroke-linecap:round;stroke-linejoin:round;stroke-miterlimit:10;" points="
			194.29,411.7 240.03,391.48 297.86,394.47 272.14,416.45 		"/>
		<g>
			<path style="fill:#263238;" d="M312.48,280.16c-14.67,6-17.84,19.49-42.76,72.79c0,0-11.08,2.27-17.01,15.72
				c-5.93,13.45,3.96,24.07,15.43,23.71c0,0,4.59,3.99,13.96,3.59c9.38-0.4,51.04-64.05,51.04-64.05L312.48,280.16z"/>
			<path style="fill:none;stroke:#FFFFFF;stroke-linecap:round;stroke-linejoin:round;stroke-miterlimit:10;" d="M274.09,356.07
				c6.56,5.85,10.33,14.41,8.33,23.91"/>
			<path style="fill:none;stroke:#FFFFFF;stroke-linecap:round;stroke-linejoin:round;stroke-miterlimit:10;" d="M280.42,358.88
				c0,0,8.07,1.76,9.31,12.09"/>
			<path style="fill:none;stroke:#FFFFFF;stroke-linecap:round;stroke-linejoin:round;stroke-miterlimit:10;" d="M304.02,328.69
				c0,0-6.16-13.6-3.82-29.67"/>
			<path style="fill:none;stroke:#FFFFFF;stroke-linecap:round;stroke-linejoin:round;stroke-miterlimit:10;" d="M302.86,315.09
				c-0.61,4.2,3.73,26.56,3.7,50.07"/>
		</g>
		<g>
			<path style="fill:#263238;" d="M412.52,284.56c18.35,9.22,20.54,37.59,3.22,71.51c-12.23,23.94-29.11,59.29-39.79,61.67
				c-10.68,2.37-21.09-4.28-21.09-4.28s-9.01-0.42-11.72-6.82c-7.44-17.53,11.47-39.59,18.91-34.31c0,0,23.76-51.67,28.09-54.92"/>
			<path style="fill:none;stroke:#FFFFFF;stroke-linecap:round;stroke-linejoin:round;stroke-miterlimit:10;" d="M341.43,396
				c-2.46-12.06,16.53-26.31,20.61-23.67c0,0,14.11,0.79,16.22,10.55"/>
			<path style="fill:none;stroke:#FFFFFF;stroke-linecap:round;stroke-linejoin:round;stroke-miterlimit:10;" d="M393.12,398.58
				c8.26-14.57,22.62-42.51,22.62-42.51"/>
			<path style="fill:none;stroke:#FFFFFF;stroke-linecap:round;stroke-linejoin:round;stroke-miterlimit:10;" d="M362.04,372.33
				c0,0,9.89-5.91,17.27-0.32"/>
			<path style="fill:none;stroke:#FFFFFF;stroke-linecap:round;stroke-linejoin:round;stroke-miterlimit:10;" d="M365.38,365.16
				c0,0,5.46-11.98,11.03-23.03c5.56-11.05,18.21-27.29,23.49-28.08"/>
		</g>
		<g>
			<g>
				<defs>
					<path id="XMLID_574_" d="M261.16,386.72c-1.15-0.06-2.3-0.35-3.4-0.93c-17.03-8.87-30.22-23.53-38.18-34.05
						c-5.53-7.31-8.53-12.63-8.53-12.63l4.08-17.48c0,0,3.84,9.96,19.27,19.83c15.42,9.87,33.76,13.07,39.69,22.96
						C279.34,373.18,270.09,387.17,261.16,386.72z"/>
				</defs>
				<use xlink:href="#XMLID_574_"  style="overflow:visible;fill:#FFFFFF;"/>
				<clipPath id="XMLID_7_">
					<use xlink:href="#XMLID_574_"  style="overflow:visible;"/>
				</clipPath>
				<path style="opacity:0.4;clip-path:url(#XMLID_7_);fill:#92E3A9;" d="M261.16,386.72c-0.18-1.17-0.5-2.4-1.02-3.69
					c-3.57-8.94-25.17-26.71-25.17-26.71c-5.14-0.16-10.79-2.3-15.39-4.58c-5.53-7.31-8.53-12.63-8.53-12.63l4.08-17.48
					c0,0,3.84,9.96,19.27,19.83c15.42,9.87,33.76,13.07,39.69,22.96C279.34,373.18,270.09,387.17,261.16,386.72z"/>
				
					<use xlink:href="#XMLID_574_"  style="overflow:visible;fill:none;stroke:#263238;stroke-linecap:round;stroke-linejoin:round;stroke-miterlimit:10;"/>
			</g>
			<path style="fill:#FFFFFF;stroke:#263238;stroke-linecap:round;stroke-linejoin:round;stroke-miterlimit:10;" d="M222.66,338.08
				c0,0-2.11,9.33-7.67,7.24c-3.01-1.13-8.78-10.1-9.87-14.61L222.66,338.08z"/>
			<g>
				<path style="fill:#FFFFFF;stroke:#263238;stroke-linecap:round;stroke-linejoin:round;stroke-miterlimit:10;" d="M198.15,280.7
					l4.54-2.35c0,0,12.83,0.11,20.79,6.58c7.23,5.88,10.89,15.09,10.89,15.09s28.1-15.51,56.78-6.61l11.71,65.21l-53.79,3.55
					l-33.57-31.92L198.15,280.7z"/>
				<g>
					<defs>
						<path id="XMLID_573_" d="M306.56,361.24c0,0-6.31-0.19-14.75,0.09c-12.76,0.4-30.39,1.84-38.45,6.53l-0.38-0.13l-7.38-2.57
							c0,0-0.05-0.07-0.15-0.22c-1.36-2.02-12.33-17.75-27.98-24.16l-22.16-61.92c0,0,23.01,1.03,35.57,21.78l6.31,2.28
							c0,0,37.55-11.12,58.57-7.12L306.56,361.24z"/>
					</defs>
					<use xlink:href="#XMLID_573_"  style="overflow:visible;fill:#92E3A9;"/>
					<clipPath id="XMLID_8_">
						<use xlink:href="#XMLID_573_"  style="overflow:visible;"/>
					</clipPath>
					<path style="opacity:0.3;clip-path:url(#XMLID_8_);fill-opacity:0.7;" d="M245.45,364.94c-1.36-2.02-12.33-17.75-27.98-24.16
						l-22.16-61.92c0,0,23.01,1.03,35.57,21.78L245.45,364.94z"/>
					<path style="opacity:0.3;clip-path:url(#XMLID_8_);fill-opacity:0.7;" d="M291.81,361.33c-12.76,0.4-30.39,1.84-38.45,6.53
						l-0.38-0.13l-14.74-62.56c0,0,12.06-2.71,15.77-1.34C254.01,303.83,278.52,321.92,291.81,361.33z"/>
					
						<use xlink:href="#XMLID_573_"  style="overflow:visible;fill:none;stroke:#263238;stroke-linecap:round;stroke-linejoin:round;stroke-miterlimit:10;"/>
				</g>
				
					<line style="fill:none;stroke:#263238;stroke-linecap:round;stroke-linejoin:round;stroke-miterlimit:10;" x1="237.19" y1="302.92" x2="251.66" y2="362.95"/>
				
					<line style="fill:none;stroke:#263238;stroke-linecap:round;stroke-linejoin:round;stroke-miterlimit:10;" x1="245.6" y1="365.16" x2="231.54" y2="305.17"/>
			</g>
			<g>
				<path style="fill:#FFFFFF;stroke:#263238;stroke-linecap:round;stroke-linejoin:round;stroke-miterlimit:10;" d="M209.88,339.2
					c-3.21-0.89-9.68-20.19-6.72-28.49c0,0,3.52-6.11,4.95-6.53c2.24-0.66,11.28-0.46,10.85,1.06c-1.01,3.52-7.95,3.46-7.95,3.46
					l-2.25,4.12l0.1,2.27c0,0,3.26-2.38,4.47-2.32c0.61,0.03,3.82,1.6,6.36,2.95c2.17,1.15,3.5,1.77,3.01,2.82
					c-1.61,3.46-8.47,1.03-8.47,1.03l-2.57,3.88c0,0,2.49,0.43,3.58,0.56c1.2,0.14,10.14,6.14,9.87,6.9
					c-1.07,2.94-9.65-0.24-9.65-0.24l-1.52,1.26c0,0,6.33,1.64,6.97,1.87c1.01,0.37,4.86,3.34,4.8,3.67
					c-0.46,2.6-5.77,0.69-5.77,0.69l-4.65-0.19c0,0-0.94,0.91-2.49,1.28"/>
				<path style="fill:none;stroke:#263238;stroke-linecap:round;stroke-linejoin:round;stroke-miterlimit:10;" d="M208.86,315.09
					c0,0-2.97,2.52-3.78,3.25c-0.81,0.73-0.58,3.05-0.58,3.05"/>
				<path style="fill:none;stroke:#263238;stroke-linecap:round;stroke-linejoin:round;stroke-miterlimit:10;" d="M206.69,326.5
					c-0.02,2.55,1.7,4.08,2.49,4.9c0.78,0.82-1.25,3.05,0.99,4.65"/>
			</g>
			<g>
				<g>
					<defs>
						<path id="XMLID_575_" d="M354.81,407.02c-6.35,1.73-13.25-9.43-21.67-21.61v-0.01c-5.56-8.04-11.78-16.53-18.93-22.03
							c-0.57-0.43-1.15-0.85-1.73-1.25l4.18-20.97c8.68,4.55,14.06,11.84,23.07,19.33c14.5,12.07,27.35,19.48,30.91,24.82
							C374.2,390.64,365.69,404.05,354.81,407.02z"/>
					</defs>
					<use xlink:href="#XMLID_575_"  style="overflow:visible;fill:#FFFFFF;"/>
					<clipPath id="XMLID_9_">
						<use xlink:href="#XMLID_575_"  style="overflow:visible;"/>
					</clipPath>
					<path style="opacity:0.4;clip-path:url(#XMLID_9_);fill:#92E3A9;" d="M333.14,385.4c-5.56-8.04-11.78-16.53-18.93-22.03
						c1.28-0.02,2.26-0.15,2.77-0.42C316.98,362.95,328.28,372.15,333.14,385.4z"/>
					
						<use xlink:href="#XMLID_575_"  style="overflow:visible;fill:none;stroke:#263238;stroke-linecap:round;stroke-linejoin:round;stroke-miterlimit:10;"/>
				</g>
				<g>
					<defs>
						<path id="XMLID_576_" d="M319.01,361.33c-0.35,0.73-1.06,1.25-2.03,1.62c-0.22,0.09-0.45,0.16-0.69,0.23
							c-0.05,0.01-0.12,0.02-0.19,0.04c-6.71,1.75-21.81-1.89-21.81-1.89s-9.89-4.7-10.49-5.81c-0.37-0.71-0.82-1.91-1.11-2.7
							c-0.16-0.47-0.27-0.79-0.27-0.79s-3.56-1.98-3.96-3.56c-0.39-1.58-1.19-1.98,0.99-2.28c2.18-0.29,14.04,0,14.04,0l-12.85-5.24
							c0,0-8.51-4.29-9.3-5.8c-0.79-1.52-1.78-2.51,2.57-1.91c4.35,0.59,13.85,3.36,13.85,3.36l7.44,1.58l-7.44-3.17
							c0,0-14.64-1.77-11.87-6.32c0,0,5.54,0,8.31,0c2.77,0,11.63,1.04,14.04,1.78c2.42,0.74,18.42,10.68,18.42,10.68"/>
					</defs>
					<use xlink:href="#XMLID_576_"  style="overflow:visible;fill:#FFFFFF;"/>
					<clipPath id="XMLID_10_">
						<use xlink:href="#XMLID_576_"  style="overflow:visible;"/>
					</clipPath>
					<path style="opacity:0.4;clip-path:url(#XMLID_10_);fill:#92E3A9;" d="M316.1,363.22c-6.71,1.75-21.81-1.89-21.81-1.89
						s-9.89-4.7-10.49-5.81c-0.37-0.71-0.82-1.91-1.11-2.7l12.14,1.36c0,0-1.46,2.37,0,4.98
						C296.18,361.58,311.56,364.04,316.1,363.22z"/>
					
						<use xlink:href="#XMLID_576_"  style="overflow:visible;fill:none;stroke:#263238;stroke-linecap:round;stroke-linejoin:round;stroke-miterlimit:10;"/>
				</g>
				
					<line style="fill:none;stroke:#263238;stroke-linecap:round;stroke-linejoin:round;stroke-miterlimit:10;" x1="282.42" y1="352.03" x2="297.03" y2="354.17"/>
			</g>
		</g>
		<g>
			<g>
				<defs>
					<path id="XMLID_3_" d="M136.78,396.76l36.62,11.03l67.01-15.29c0,0-40.93-11.65-41.31-11.37
						C198.71,381.42,136.78,396.76,136.78,396.76z"/>
				</defs>
				<use xlink:href="#XMLID_3_"  style="overflow:visible;fill:#92E3A9;"/>
				<clipPath id="XMLID_11_">
					<use xlink:href="#XMLID_3_"  style="overflow:visible;"/>
				</clipPath>
				<path style="opacity:0.3;clip-path:url(#XMLID_11_);fill-opacity:0.7;" d="M136.78,396.76l36.62,11.03l67.01-15.29
					c0,0-40.93-11.65-41.31-11.37C198.71,381.42,136.78,396.76,136.78,396.76z"/>
				
					<use xlink:href="#XMLID_3_"  style="overflow:visible;fill:none;stroke:#263238;stroke-linecap:round;stroke-linejoin:round;stroke-miterlimit:10;"/>
			</g>
			<g>
				<defs>
					<path id="XMLID_1_" d="M137.31,383.87c-2.57,0.18-3.21,9.44-0.53,12.9l59.15-12.27l4.75-11.22L137.31,383.87z"/>
				</defs>
				<use xlink:href="#XMLID_1_"  style="overflow:visible;fill:#92E3A9;"/>
				<clipPath id="XMLID_12_">
					<use xlink:href="#XMLID_1_"  style="overflow:visible;"/>
				</clipPath>
				<path style="opacity:0.3;clip-path:url(#XMLID_12_);fill-opacity:0.7;" d="M137.31,383.87c-2.57,0.18-3.21,9.44-0.53,12.9
					l59.15-12.27l4.75-11.22L137.31,383.87z"/>
				
					<use xlink:href="#XMLID_1_"  style="overflow:visible;fill:none;stroke:#263238;stroke-linecap:round;stroke-linejoin:round;stroke-miterlimit:10;"/>
			</g>
			<path style="fill:#FFFFFF;stroke:#263238;stroke-linecap:round;stroke-linejoin:round;stroke-miterlimit:10;" d="M237.53,383.73
				c0,0-0.88,4.88-0.31,7.87l-63.89,14.46l-33.68-9.9c0,0-3.5-6.19-0.45-10.99l61.54-10.45L237.53,383.73z"/>
			<polygon style="fill:#92E3A9;stroke:#263238;stroke-linecap:round;stroke-linejoin:round;stroke-miterlimit:10;" points="
				137.31,383.87 200.68,373.27 240.03,383.24 173.85,396.43 			"/>
			<polyline style="fill:none;stroke:#263238;stroke-linecap:round;stroke-linejoin:round;stroke-miterlimit:10;" points="
				139.56,389.79 173.07,399.76 227.92,388.72 			"/>
			
				<line style="fill:none;stroke:#263238;stroke-linecap:round;stroke-linejoin:round;stroke-miterlimit:10;" x1="237.04" y1="389.74" x2="178.06" y2="402.33"/>
			<path style="fill:none;stroke:#263238;stroke-linecap:round;stroke-linejoin:round;stroke-miterlimit:10;" d="M140.35,393.71
				c0.5,0.05,25.26,7.67,25.26,7.67"/>
			
				<line style="fill:none;stroke:#263238;stroke-linecap:round;stroke-linejoin:round;stroke-miterlimit:10;" x1="232.22" y1="387.43" x2="236.91" y2="386.67"/>
			
				<line style="fill:none;stroke:#263238;stroke-linecap:round;stroke-linejoin:round;stroke-miterlimit:10;" x1="171.98" y1="403.24" x2="169.49" y2="402.68"/>
			<g>
				<defs>
					<path id="XMLID_2_" d="M139.2,385.18c0,0,4.54,4.8,0.45,10.99C139.65,396.17,135.87,391.13,139.2,385.18z"/>
				</defs>
				<use xlink:href="#XMLID_2_"  style="overflow:visible;fill:#263238;"/>
				<clipPath id="XMLID_13_">
					<use xlink:href="#XMLID_2_"  style="overflow:visible;"/>
				</clipPath>
				<path style="opacity:0.3;clip-path:url(#XMLID_13_);fill:#FFFFFF;fill-opacity:0.7;" d="M139.2,385.18c0,0,4.54,4.8,0.45,10.99
					C139.65,396.17,135.87,391.13,139.2,385.18z"/>
				
					<use xlink:href="#XMLID_2_"  style="overflow:visible;fill:none;stroke:#263238;stroke-linecap:round;stroke-linejoin:round;stroke-miterlimit:10;"/>
			</g>
		</g>
		<g>
			<defs>
				<polygon id="XMLID_4_" points="276.07,399.76 340.02,402.39 333.79,424.4 255.12,421.4 				"/>
			</defs>
			<use xlink:href="#XMLID_4_"  style="overflow:visible;fill:#FFFFFF;"/>
			<clipPath id="XMLID_14_">
				<use xlink:href="#XMLID_4_"  style="overflow:visible;"/>
			</clipPath>
			<polygon style="opacity:0.4;clip-path:url(#XMLID_14_);fill:#92E3A9;" points="276.07,399.76 340.02,402.39 333.79,424.4 
				255.12,421.4 			"/>
			
				<use xlink:href="#XMLID_4_"  style="overflow:visible;fill:none;stroke:#263238;stroke-linecap:round;stroke-linejoin:round;stroke-miterlimit:10;"/>
		</g>
	</g>
</g>
</svg>
