<?xml version="1.0" encoding="utf-8"?>
<!-- Generator: Adobe Illustrator 25.2.1, SVG Export Plug-In . SVG Version: 6.00 Build 0)  -->
<svg version="1.1" xmlns="http://www.w3.org/2000/svg" xmlns:xlink="http://www.w3.org/1999/xlink" x="0px" y="0px"
	 viewBox="0 0 500 463.2" style="enable-background:new 0 0 500 463.2;" xml:space="preserve">
<g id="Background_Simple">
	<g>
		<path style="fill:#92E3A9;" d="M434.5,328.02c-4.56,4.15-9.22,8.15-13.93,12.03c-32.56,26.74-70.25,46.5-112.8,50.32
			c-1.05,0.09-2.09,0.18-3.14,0.26c-79.5,5.83-78.04-88.98-87.52-112.32c-9.48-23.34-170.66-40.11-198.38-96.27
			C-4.97,134,24.27,89.95,66.15,64.93c28.92-17.28,61.7-27.79,94.29-35.62C256.99,6.1,360.02,9.12,437.82,78.32
			c9.45,8.4,16.72,17.28,24,27.52c20.34,28.59,33.82,62.71,34.85,98.03c1.43,49.21-25.91,90.86-61.01,123.1
			C435.27,327.32,434.89,327.67,434.5,328.02z"/>
		<path style="opacity:0.7;fill:#FFFFFF;" d="M434.5,328.02c-4.56,4.15-9.22,8.15-13.93,12.03c-32.56,26.74-70.25,46.5-112.8,50.32
			c-1.05,0.09-2.09,0.18-3.14,0.26c-79.5,5.83-78.04-88.98-87.52-112.32c-9.48-23.34-170.66-40.11-198.38-96.27
			C-4.97,134,24.27,89.95,66.15,64.93c28.92-17.28,61.7-27.79,94.29-35.62C256.99,6.1,360.02,9.12,437.82,78.32
			c9.45,8.4,16.72,17.28,24,27.52c20.34,28.59,33.82,62.71,34.85,98.03c1.43,49.21-25.91,90.86-61.01,123.1
			C435.27,327.32,434.89,327.67,434.5,328.02z"/>
	</g>
</g>
<g id="Moutains">
	<g>
		<polygon style="fill:#DBDBDB;" points="406.86,231.91 406.86,350.51 273.55,350.51 274.45,231.91 275,230.76 299.42,179.42 
			311.09,154.88 313.47,149.89 340.66,92.71 341.22,93.89 378.07,171.37 		"/>
		<polygon style="fill:#B8B8B8;" points="409.96,345.42 406.86,345.99 382.48,350.51 322.53,350.51 279.02,258.53 275,230.76 
			299.42,179.42 311.09,154.88 313.47,149.89 340.66,92.71 341.22,93.89 323.68,224.27 338.98,189.39 338.37,257.31 359.17,231 
			359.17,268.94 351.83,256.09 345.1,313.6 381.81,226.72 406.86,332.35 		"/>
		<polygon style="fill:#FFFFFF;stroke:#263238;stroke-linecap:round;stroke-linejoin:round;stroke-miterlimit:10;" points="
			311.09,154.88 309,159.27 332.86,131.26 340.82,164.3 350,136.16 359.79,148.96 363.43,140.59 341.22,93.89 340.66,92.71 
			313.47,149.89 		"/>
		<polygon style="fill:none;stroke:#263238;stroke-linecap:round;stroke-linejoin:round;stroke-miterlimit:10;" points="
			406.86,231.91 406.86,350.51 273.55,350.51 274.45,231.91 275,230.76 299.42,179.42 311.09,154.88 313.47,149.89 340.66,92.71 
			341.22,93.89 378.07,171.37 		"/>
	</g>
	<g>
		<polygon style="fill:#DBDBDB;" points="473.18,370.26 448.01,353.35 444.47,384.81 420.48,375.37 414.59,409.97 373.69,383.24 
			339.09,383.24 341.05,348.24 379.55,265.46 381.29,261.73 403.97,212.97 422.06,247.58 425.16,255.02 429.51,265.46 		"/>
		<g>
			<polygon style="fill:#B8B8B8;" points="445.78,334.96 448.33,353.56 457.59,359.79 			"/>
		</g>
		<polygon style="fill:#B8B8B8;" points="420.48,375.37 439.46,382.84 437.2,375.59 430.33,364.15 435.48,356.71 434.5,328.02 
			416.02,353.85 414.88,298.91 396.56,335.53 406.28,217.39 403.97,212.97 381.29,261.73 379.55,265.46 341.05,348.24 
			339.09,383.24 373.69,383.24 414.59,409.97 		"/>
		<polyline style="fill:none;stroke:#263238;stroke-linecap:round;stroke-linejoin:round;stroke-miterlimit:10;" points="
			475.8,375.6 406.11,207.31 327.31,377.13 		"/>
		<polygon style="fill:#FFFFFF;stroke:#263238;stroke-linecap:round;stroke-linejoin:round;stroke-miterlimit:10;" points="
			413.04,270.24 418.19,265.55 430.84,279.6 431.89,269.57 406.11,207.31 376.08,272.04 376.04,272.58 402.74,244.48 		"/>
	</g>
	<g>
		<polygon style="fill:#DBDBDB;" points="358.72,412.14 361.06,439.77 342.14,430.44 317.36,418.22 293.62,406.52 280.97,416.36 
			246.32,401.84 215.41,431.81 191.05,410.74 162.02,416.82 163.89,388.72 213.79,277.09 220.27,262.58 264.58,163.46 279.1,196.71 
			292.68,214.51 352.4,359.21 363.67,344.88 400.4,430.87 		"/>
		<polygon style="fill:#B8B8B8;" points="271.67,335.63 260.05,320.95 267.39,247.52 233.74,314.22 263.11,188.78 264.97,164.34 
			264.58,163.46 220.27,262.58 213.79,277.09 163.89,388.72 162.02,416.82 191.05,410.74 215.41,431.81 246.32,401.84 
			256.75,406.21 259.44,363.78 280.24,379.08 277.79,320.95 		"/>
		<polyline style="fill:none;stroke:#263238;stroke-linecap:round;stroke-linejoin:round;stroke-miterlimit:10;" points="
			405.14,442.16 363.67,344.88 352.4,359.21 267.71,154.73 167.05,382.25 		"/>
		<polygon style="fill:#FFFFFF;stroke:#263238;stroke-linecap:round;stroke-linejoin:round;stroke-miterlimit:10;" points="
			297.7,227.15 267.71,154.73 232.61,234.07 259.92,203.66 276.65,215.24 279.22,206.88 		"/>
		<polygon style="fill:#B8B8B8;" points="342.14,430.44 317.36,418.22 300.32,342.17 		"/>
	</g>
</g>
<g id="Clouds">
	<g>
		<path style="fill:#263238;stroke:#263238;stroke-linecap:round;stroke-linejoin:round;stroke-miterlimit:10;" d="M362.21,154.88
			h-51.12l2.38-4.99c0.05,0,0.1,0,0.15-0.01c2.38-0.24,2.62-1.9,5.95-2.38c3.34-0.48,5.72,1.43,8.34,0.24
			c2.62-1.19,4.29-5.72,9.53-5c5.24,0.71,12.62,8.33,12.62,8.33c2.86,0,4.05-0.71,7.15,0.48
			C360.3,152.74,362.21,154.88,362.21,154.88z"/>
		<path style="fill:#FFFFFF;stroke:#263238;stroke-linecap:round;stroke-linejoin:round;stroke-miterlimit:10;" d="M352.65,148.49
			c0,0-7.38-7.62-12.62-8.34c-5.24-0.71-6.91,3.81-9.53,5c-2.62,1.19-5-0.71-8.34-0.24c-3.33,0.48-3.57,2.14-5.96,2.38
			c-2.38,0.24-4.05-1.43-6.67-0.95c-2.62,0.48-4.05,3.33-5.48,3.33s-3.81-1.67-6.43-1.67c-2.62,0-6.67,2.38-6.67,2.38l-16.2,1.91
			h90.04c0,0-1.91-2.14-5-3.33C356.7,147.77,355.51,148.49,352.65,148.49z"/>
	</g>
	<path style="fill:#FFFFFF;stroke:#263238;stroke-linecap:round;stroke-linejoin:round;stroke-miterlimit:10;" d="M444.62,129.19
		c0,0-7.38-7.62-12.62-8.34c-5.24-0.71-6.91,3.81-9.53,5s-5-0.71-8.34-0.24s-3.57,2.14-5.96,2.38c-2.38,0.24-4.05-1.43-6.67-0.95
		c-2.62,0.48-4.05,3.33-5.48,3.33s-3.81-1.67-6.43-1.67c-2.62,0-6.67,2.38-6.67,2.38l-16.2,1.91h90.04c0,0-1.91-2.14-5-3.33
		C448.67,128.48,447.48,129.19,444.62,129.19z"/>
	<g>
		<path style="fill:#263238;stroke:#263238;stroke-linecap:round;stroke-linejoin:round;stroke-miterlimit:10;" d="M399.11,292.65
			c0,0-13.23-13.66-22.62-14.94c-9.39-1.28-12.38,6.83-17.07,8.96c-4.7,2.13-8.96-1.28-14.94-0.43c-5.98,0.85-6.4,3.84-10.67,4.27
			c-4.27,0.43-7.26-2.56-11.95-1.71c-4.7,0.85-7.26,5.98-9.82,5.98s-6.83-2.99-11.52-2.99c-4.7,0-11.95,4.27-11.95,4.27l-29.03,3.41
			h161.35c0,0-3.41-3.84-8.96-5.98C406.36,291.37,404.23,292.65,399.11,292.65z"/>
		<path style="fill:#FFFFFF;stroke:#263238;stroke-linecap:round;stroke-linejoin:round;stroke-miterlimit:10;" d="M404.15,290.13
			c0,0-13.23-13.66-22.62-14.94c-9.39-1.28-12.38,6.83-17.07,8.96c-4.7,2.13-8.96-1.28-14.94-0.43c-5.98,0.85-6.4,3.84-10.67,4.27
			c-4.27,0.43-7.26-2.56-11.95-1.71c-4.7,0.85-7.26,5.98-9.82,5.98s-6.83-2.99-11.52-2.99c-4.7,0-11.95,4.27-11.95,4.27l-29.03,3.41
			h161.35c0,0-3.41-3.84-8.96-5.98C411.4,288.85,409.27,290.13,404.15,290.13z"/>
	</g>
	<g>
		<path style="fill:#263238;stroke:#263238;stroke-linecap:round;stroke-linejoin:round;stroke-miterlimit:10;" d="M429.51,265.46
			h-49.96l1.74-3.73c1.43,0.48,2.66,1.11,3.54,1.11c1.43,0,2.86-2.86,5.48-3.33c2.62-0.48,4.29,1.19,6.67,0.95
			c2.38-0.24,2.62-1.91,5.96-2.38c3.33-0.48,5.71,1.43,8.33,0.23c2.62-1.19,4.29-5.71,9.53-5c1.36,0.19,2.88,0.84,4.36,1.71
			L429.51,265.46z"/>
		<path style="fill:#FFFFFF;stroke:#263238;stroke-linecap:round;stroke-linejoin:round;stroke-miterlimit:10;" d="M435.67,258.51
			c0,0-7.38-7.62-12.62-8.34c-5.24-0.71-6.91,3.81-9.53,5c-2.62,1.19-5-0.71-8.34-0.24c-3.33,0.48-3.57,2.14-5.95,2.38
			c-2.38,0.24-4.05-1.43-6.67-0.95c-2.62,0.48-4.05,3.33-5.48,3.33c-1.43,0-3.81-1.67-6.43-1.67c-2.62,0-6.67,2.38-6.67,2.38
			l-16.2,1.91h90.04c0,0-1.91-2.14-5-3.33C439.72,257.79,438.53,258.51,435.67,258.51z"/>
	</g>
	<g>
		<path style="fill:#263238;stroke:#263238;stroke-linecap:round;stroke-linejoin:round;stroke-miterlimit:10;" d="M299.07,277.09
			h-85.28l6.48-14.51c1.82,0.19,3.61,0.07,5.45-0.77c5.61-2.54,9.17-12.22,20.38-10.69c11.2,1.53,26.99,17.82,26.99,17.82
			c6.11,0,8.66-1.52,15.28,1.02C294.99,272.51,299.07,277.09,299.07,277.09z"/>
		<path style="fill:#FFFFFF;stroke:#263238;stroke-linecap:round;stroke-linejoin:round;stroke-miterlimit:10;" d="M276.71,265.84
			c0,0-15.79-16.3-27-17.83c-11.21-1.53-14.77,8.15-20.37,10.7c-5.6,2.55-10.7-1.53-17.83-0.51c-7.13,1.02-7.64,4.58-12.73,5.09
			c-5.09,0.51-8.66-3.06-14.26-2.04c-5.6,1.02-8.66,7.13-11.71,7.13c-3.06,0-8.15-3.57-13.75-3.57c-5.6,0-14.26,5.09-14.26,5.09
			l-34.64,4.07h192.53c0,0-4.07-4.58-10.7-7.13C285.37,264.31,282.83,265.84,276.71,265.84z"/>
	</g>
	<path style="fill:#FFFFFF;stroke:#263238;stroke-linecap:round;stroke-linejoin:round;stroke-miterlimit:10;" d="M231.18,90.43
		c0,0-15.79-16.3-27-17.83c-11.21-1.53-14.77,8.15-20.37,10.7c-5.6,2.55-10.7-1.53-17.83-0.51c-7.13,1.02-7.64,4.58-12.73,5.09
		c-5.09,0.51-8.66-3.06-14.26-2.04c-5.6,1.02-8.66,7.13-11.72,7.13c-3.06,0-8.15-3.57-13.75-3.57c-5.6,0-14.26,5.09-14.26,5.09
		l-34.64,4.07h192.53c0,0-4.07-4.58-10.7-7.13C239.84,88.9,237.29,90.43,231.18,90.43z"/>
	<path style="fill:#FFFFFF;stroke:#263238;stroke-linecap:round;stroke-linejoin:round;stroke-miterlimit:10;" d="M442.54,412.88
		c0,0-22.71-23.44-38.83-25.64c-16.12-2.2-21.25,11.72-29.3,15.38c-8.06,3.66-15.38-2.2-25.64-0.73
		c-10.26,1.47-10.99,6.59-18.32,7.33c-7.33,0.73-12.45-4.4-20.51-2.93c-8.06,1.47-12.45,10.26-16.85,10.26
		c-4.4,0-11.72-5.13-19.78-5.13c-8.06,0-20.51,7.33-20.51,7.33l-49.82,5.86H479.9c0,0-5.86-6.59-15.38-10.26
		C454.99,410.68,451.33,412.88,442.54,412.88z"/>
</g>
<g id="Flag">
	<g>
		<g>
			
				<line style="fill:none;stroke:#263238;stroke-linecap:round;stroke-linejoin:round;stroke-miterlimit:10;" x1="340.66" y1="92.71" x2="340.66" y2="51.69"/>
			<g>
				<g>
					<path style="fill:#263238;stroke:#263238;stroke-linecap:round;stroke-linejoin:round;stroke-miterlimit:10;" d="M366.8,85.76
						v-7.59c0,0,2.7,1.43,3.89,3.6c0.17,0.31,0.31,0.63,0.4,0.97C371.09,82.73,367.53,82.24,366.8,85.76z"/>
					<path style="fill:#92E3A9;stroke:#263238;stroke-miterlimit:10;" d="M350.4,56.24c-5.92,0.22-9.05-2.09-9.78-2.7v11.3
						l0.19,13.1c1.77,2.78,14.13,2.78,21.19,2.78c7.06,0,9.08,2.02,9.08,2.02V58.01C367.31,54.48,357.21,55.99,350.4,56.24z"/>
					<path style="fill:#92E3A9;stroke:#263238;stroke-miterlimit:10;" d="M371.09,82.73c0,0-4.41-0.34-4.29,3.03
						c0.06,1.59,2.02,2.78,9.08,2.27c7.06-0.5,17.94,1.09,17.94,1.09l-6.81-12.11l10.09-4.04c0,0-4.82-3.86-12.14-6.13
						c-7.32-2.27-13.91-1.88-13.91-1.88L371.09,82.73z"/>
				</g>
			</g>
		</g>
		
			<line style="fill:none;stroke:#263238;stroke-linecap:round;stroke-linejoin:round;stroke-miterlimit:10;" x1="360.59" y1="23.54" x2="360.59" y2="36.41"/>
		
			<line style="fill:none;stroke:#263238;stroke-linecap:round;stroke-linejoin:round;stroke-miterlimit:10;" x1="360.59" y1="99.51" x2="360.59" y2="112.38"/>
		
			<line style="fill:none;stroke:#263238;stroke-linecap:round;stroke-linejoin:round;stroke-miterlimit:10;" x1="312.8" y1="41.31" x2="327.5" y2="52.95"/>
		
			<line style="fill:none;stroke:#263238;stroke-linecap:round;stroke-linejoin:round;stroke-miterlimit:10;" x1="405.93" y1="41.31" x2="391.22" y2="52.95"/>
		
			<line style="fill:none;stroke:#263238;stroke-linecap:round;stroke-linejoin:round;stroke-miterlimit:10;" x1="405.93" y1="107.88" x2="391.22" y2="96.24"/>
		
			<line style="fill:none;stroke:#263238;stroke-linecap:round;stroke-linejoin:round;stroke-miterlimit:10;" x1="312.19" y1="107.88" x2="326.89" y2="96.24"/>
		
			<line style="fill:none;stroke:#263238;stroke-linecap:round;stroke-linejoin:round;stroke-miterlimit:10;" x1="321.38" y1="74.39" x2="301.77" y2="74.39"/>
		
			<line style="fill:none;stroke:#263238;stroke-linecap:round;stroke-linejoin:round;stroke-miterlimit:10;" x1="421.85" y1="74.39" x2="402.25" y2="74.39"/>
	</g>
</g>
<g id="Crag">
	<g>
		<path style="fill:#FFFFFF;stroke:#263238;stroke-linecap:round;stroke-linejoin:round;stroke-miterlimit:10;" d="M155.83,449.29
			l7.23-16.76c0,0,2.89-7.52,4.63-9.84c1.74-2.31,4.05-6.94,4.05-6.94l9.26-13.89l9.26-28.35l-25.69,8.56l-19.75,15.19l-26.96,13.29
			l-93.43,18.99"/>
		<g>
			<polyline style="fill:#FFFFFF;stroke:#263238;stroke-linecap:round;stroke-linejoin:round;stroke-miterlimit:10;" points="
				25.35,358.46 139.34,358.46 190.26,373.5 185.05,381.6 174.63,385.08 163.06,387.97 153.8,401.28 146.28,407.64 121.4,411.69 
				22.45,433.68 			"/>
			<polyline style="fill:#FFFFFF;stroke:#263238;stroke-linecap:round;stroke-linejoin:round;stroke-miterlimit:10;" points="
				163.06,387.97 164.22,409.38 157.85,421.53 153.23,429.05 140.64,449.29 			"/>
			<polyline style="fill:#FFFFFF;stroke:#263238;stroke-linecap:round;stroke-linejoin:round;stroke-miterlimit:10;" points="
				146.28,407.64 144.55,425.58 135.87,430.79 124.29,437.73 			"/>
		</g>
	</g>
</g>
<g id="Character">
	<g>
		<path style="opacity:0.21;" d="M131.71,382.64c0,3.48-18.78,6.31-41.95,6.31c-23.17,0-41.95-2.82-41.95-6.31
			c0-3.48,18.78-6.31,41.95-6.31C112.93,376.33,131.71,379.16,131.71,382.64z"/>
		<g>
			<g>
				<path style="fill:#FFFFFF;stroke:#263238;stroke-miterlimit:10;" d="M155.09,149.75c0,0,2.66-2.18,4.23-3.27
					c1.57-1.09,4.36-4.11,4.6-5.32c0.24-1.21,1.57-8.47,1.57-8.47s-0.97-0.12-2.78,0.24s-3.39,0.85-3.39,0.85l-4.84,5.81
					L155.09,149.75z"/>
				<path style="fill:#FFFFFF;stroke:#263238;stroke-miterlimit:10;" d="M161.62,133.18c0,0-0.36,2.06,0.36,2.66
					c0.73,0.6,4.84,0.73,5.44-0.48c0.6-1.21,0.73-3.27,0-3.27S161.62,133.18,161.62,133.18z"/>
				<path style="fill:#FFFFFF;stroke:#263238;stroke-miterlimit:10;" d="M164.65,136.81c0,0-5.69,0.24-5.93,0.97
					s-0.6,2.18-0.24,2.42c0.36,0.24,6.29,0.24,6.9-0.48C165.98,138.98,166.82,136.08,164.65,136.81z"/>
				<path style="fill:#FFFFFF;stroke:#263238;stroke-miterlimit:10;" d="M164.28,140.07c0,0-5.69,0.24-5.93,0.97
					c-0.24,0.73-0.6,2.18-0.24,2.42c0.36,0.24,6.29,0.24,6.9-0.48C165.61,142.25,166.46,139.35,164.28,140.07z"/>
				<path style="fill:#FFFFFF;stroke:#263238;stroke-miterlimit:10;" d="M162.62,143.19c0,0-4.3,0.18-4.48,0.73
					c-0.18,0.55-0.46,1.65-0.18,1.83c0.27,0.18,4.75,0.18,5.21-0.37C163.62,144.84,164.26,142.64,162.62,143.19z"/>
			</g>
			<g>
				<g>
					<path style="fill:#FFFFFF;stroke:#263238;stroke-miterlimit:10;" d="M187.87,128.63l-39.01,5.89
						c-0.16,0.02-0.32,0.04-0.48,0.04c-0.12,0-0.25-0.01-0.37-0.02c-1.42-0.17-2.61-1.27-2.83-2.74c-0.27-1.77,0.95-3.42,2.72-3.69
						l37.42-5.64l1.59-0.24c1.77-0.27,3.41,0.95,3.68,2.72C190.86,126.72,189.64,128.36,187.87,128.63z"/>
				</g>
				<g>
					<path style="fill:#B5B5B5;stroke:#263238;stroke-miterlimit:10;" d="M185.1,128.94l-37.08,5.6c-1.42-0.17-2.61-1.27-2.83-2.74
						c-0.27-1.77,0.95-3.42,2.72-3.69l37.42-5.64c1.29,0.29,2.33,1.34,2.54,2.72C188.13,126.99,186.89,128.67,185.1,128.94z"/>
				</g>
				<g>
					<path style="fill:#B5B5B5;stroke:#263238;stroke-miterlimit:10;" d="M121.57,137.67c-1.13,0-2.11-0.82-2.29-1.97
						c-0.19-1.26,0.68-2.44,1.94-2.63l26.82-4.04c1.27-0.19,2.44,0.68,2.63,1.94c0.19,1.26-0.68,2.44-1.94,2.63l-26.82,4.04
						C121.8,137.66,121.68,137.67,121.57,137.67z"/>
				</g>
			</g>
			<path style="fill:#FFFFFF;stroke:#263238;stroke-miterlimit:10;" d="M148.31,151.45c0,0,3.15-10.65,3.39-12.58
				c0.24-1.94,2.42-3.63,2.42-3.63s3.99-3.27,4.96-4.96c0.97-1.69,1.81,0.36,1.81,1.82s-4.72,5.93-4.72,5.93s0.85,3.99,0.85,6.05
				c0,2.06-1.57,4.84-1.57,4.84l-2.3,6.65L148.31,151.45z"/>
			<g>
				<polygon style="fill:#FFFFFF;stroke:#263238;stroke-miterlimit:10;" points="147.1,149.87 156.18,156.53 152.91,162.09 
					144.56,155.08 				"/>
				<path style="fill:#92E3A9;stroke:#263238;stroke-miterlimit:10;" d="M144.8,153.87l11.25,9.07c0,0-23.59,34.85-25.05,35.82
					c-1.45,0.97-4.23,1.57-4.23,1.57l-5.57-17.18L144.8,153.87z"/>
			</g>
			<polygon style="fill:#FFFFFF;stroke:#263238;stroke-linecap:round;stroke-linejoin:round;stroke-miterlimit:10;" points="
				112.38,158.1 117.94,161.61 115.04,161.61 113.59,162.94 110.92,162.7 109.96,159.55 			"/>
			<g>
				<path style="fill:#FFFFFF;stroke:#263238;stroke-linecap:round;stroke-linejoin:round;stroke-miterlimit:10;" d="M119.39,121.8
					c0,0,3.39,8.47,2.9,9.32c-0.48,0.85-1.21,2.18-0.97,3.03c0.24,0.85,3.63,4.96,3.27,5.69s-2.66,3.51-2.66,3.51
					s-1.21,5.44-0.97,5.93c0.24,0.48,1.33,1.82,0.6,3.15c-0.73,1.33-2.66,1.57-3.87,1.57c-1.21,0-2.78-0.24-2.78-0.24l-3.51,6.65
					l-19.72-7.5l3.03-6.65c0,0-2.18-4.84-0.6-11.01c1.57-6.17,13.43-13.31,18.39-14.04S119.39,121.8,119.39,121.8z"/>
				<path style="fill:#263238;stroke:#263238;stroke-linecap:round;stroke-linejoin:round;stroke-miterlimit:10;" d="M114.8,123.37
					c0,0,3.15,4.11,2.54,5.32c-0.6,1.21-3.63,4.11-3.63,4.11s0.97,4.23,0.48,4.72c-0.48,0.48-1.81,0.85-2.3,0.6
					c-0.48-0.24-3.51-6.05-5.44-4.72c-1.94,1.33-2.3,4.48-1.45,6.29c0.85,1.82,1.57,2.78,1.57,2.78s-4.84,4.48-7.5,4.96
					c-2.66,0.48-4.72,0.73-5.44-0.36c-0.73-1.09-5.2-10.89-5.32-17.79c-0.12-6.9,4.48-12.7,7.26-14.04
					c2.78-1.33,8.11-1.45,8.11-1.45s0.36-3.15,4.11-3.03c3.75,0.12,7.62,3.15,7.62,3.15s-1.21-4.36,1.69-1.81
					c2.9,2.54,4.96,3.99,4.36,7.99C120.85,124.1,114.8,123.37,114.8,123.37z"/>
				<polyline style="fill:none;stroke:#263238;stroke-linecap:round;stroke-linejoin:round;stroke-miterlimit:10;" points="
					106.57,142.49 109.23,143.22 110.32,145.4 				"/>
				<path style="fill:#263238;stroke:#263238;stroke-linecap:round;stroke-linejoin:round;stroke-miterlimit:10;" d="M117.7,153.99
					c0,0-1.45-0.73-2.42-1.45c-0.97-0.73-3.15-2.3-3.15-2.3l1.21,5.81l1.57-2.3L117.7,153.99z"/>
			</g>
			<polygon style="fill:#FFFFFF;stroke:#263238;stroke-linecap:round;stroke-linejoin:round;stroke-miterlimit:10;" points="
				86.97,151.08 85.88,156.17 109.83,162.82 121.45,172.86 112.13,161.73 110.68,158.22 			"/>
			<path style="fill:#92E3A9;stroke:#263238;stroke-linecap:round;stroke-linejoin:round;stroke-miterlimit:10;" d="M113.59,162.94
				c0,0,6.72,2.32,11.84,16.19c5.12,13.87,19.49,69.11,19.49,69.11l-7.93,2.05c0,0-3.47-20.14-9.74-39.46
				C120.96,191.51,113.59,162.94,113.59,162.94z"/>
			<g>
				<path style="fill:#263238;stroke:#263238;stroke-linecap:round;stroke-linejoin:round;stroke-miterlimit:10;" d="M138.13,245.33
					c0,0-2.71,29.34-3.85,43.4s-12.35,52.07-13.68,57.2s-1.9,20.9-1.9,20.9l1.9,1.33v1.52l6.46,4.18c0,0,9.5,3.42,7.41,5.51
					c-2.09,2.09-5.89,1.33-11.21,1.33c-5.32,0-11.02-1.9-12.73-1.9c-1.71,0-3.42,0-4.18-0.19c-0.76-0.19-2.47,0.57-2.47-1.14
					c0-1.71-1.33-8.17-1.33-8.17s-1.52-2.28-1.52-3.8c0-1.52,0.38-6.65,1.14-8.55s1.9-9.5,1.9-9.5l1.14-19.95l-6.65,14.44
					l-5.7,23.94c0,0,2.85,0.95,2.85,1.71s-0.57,4.18-0.57,4.18s3.61,3.61,5.32,4.94c1.71,1.33,9.88,5.7,10.45,5.89
					c0.57,0.19,3.04,2.28,1.52,3.23c-1.52,0.95-9.12,1.52-15.2,1.52c-6.08,0-13.87-2.66-13.87-2.66l-1.71,1.14
					c0,0-5.51-1.33-6.27-1.52s-1.14-3.61-0.95-4.94c0.19-1.33,0-2.85,0-3.61s-0.57-4.75-0.19-6.08c0.38-1.33,1.71-4.94,1.71-4.94
					s2.85-30.78,3.61-35.54c0.76-4.75,5.89-15.2,5.89-15.2s2.66-18.62,3.04-22.23c0.38-3.61,0.57-17.29,0.57-17.29
					s-3.23-8.17-4.37-14.25c-1.14-6.08-0.19-7.41-0.19-7.41l2.47-9.5L138.13,245.33z"/>
				<path style="fill:none;stroke:#8C8C8C;stroke-linecap:round;stroke-linejoin:round;stroke-miterlimit:10;" d="M108.91,322.51
					c0,0,5.79-19.3,6.75-25.08c0.96-5.79,7.4-27.66,7.4-27.66l6.11-4.18"/>
				<path style="fill:none;stroke:#8C8C8C;stroke-linecap:round;stroke-linejoin:round;stroke-miterlimit:10;" d="M86.72,319.62
					c0,0,13.83-8.36,21.87-22.83"/>
				<path style="fill:none;stroke:#8C8C8C;stroke-linecap:round;stroke-linejoin:round;stroke-miterlimit:10;" d="M110.51,288.1
					c0,0-8.36,12.86-14.15,18.01"/>
			</g>
			<path style="fill:#FFFFFF;stroke:#263238;stroke-linecap:round;stroke-linejoin:round;stroke-miterlimit:10;" d="M125.2,182.18
				c0,0,9.8,46.64,11.12,52.91c1.32,6.27,1.82,10.24,1.82,10.24s-4.29,0.83-6.11,0.83c-1.82,0-5.78-0.17-5.78-0.17l-5.94-66.37
				L125.2,182.18z"/>
			<path style="fill:#92E3A9;stroke:#263238;stroke-linecap:round;stroke-linejoin:round;stroke-miterlimit:10;" d="M82.97,154.35
				v5.08c0,0-5.57,22.26-4.84,29.28s7.62,29.52,7.62,29.52s-1.69,2.78-1.82,3.15s0.6,3.15,0.6,3.15l-6.17,30.49
				c0,0,23.59,4.96,39.08,3.63s16.58-2.18,16.58-2.18s-2.06-28.8-1.94-35.57c0.12-6.78-5.57-35.45-6.9-38.72
				c-1.33-3.27-3.75-9.32-3.75-9.32l-11.62-10.04L82.97,154.35z"/>
			<g>
				<g>
					<path style="fill:none;stroke:#263238;stroke-linecap:round;stroke-linejoin:round;stroke-miterlimit:10;" d="M100.88,190.65
						c0,0-12.83,11.62-14.64,12.34"/>
					<path style="fill:none;stroke:#263238;stroke-linecap:round;stroke-linejoin:round;stroke-miterlimit:10;" d="M104.63,190.29
						c0,0-3.63,5.93-5.2,8.59"/>
					
						<line style="fill:none;stroke:#263238;stroke-linecap:round;stroke-linejoin:round;stroke-miterlimit:10;" x1="103.06" y1="199.48" x2="99.19" y2="206.86"/>
				</g>
				<path style="fill:#FFFFFF;stroke:#263238;stroke-linecap:round;stroke-linejoin:round;stroke-miterlimit:10;" d="M126.53,146
					c0,0,0.36-8.59,0.73-10.04c0.36-1.45,3.51-7.62,3.51-7.62s1.94-1.57,2.78-0.97c0.85,0.61,0.73,2.06,0.73,2.06
					s1.45-2.06,2.3-1.81c0.85,0.24,1.69,1.94,1.69,1.94s1.69-0.48,2.66-0.12c0.97,0.36,1.69,0.12,1.45,1.21
					c-0.24,1.09-2.66,7.02-2.66,7.02s5.08-1.94,5.08-0.97s-0.85,1.33-1.94,2.06c-1.09,0.73-5.08,2.78-5.08,2.78l-3.02,3.02
					l-0.48,2.78L126.53,146z"/>
				<path style="fill:#FFFFFF;stroke:#263238;stroke-linecap:round;stroke-linejoin:round;stroke-miterlimit:10;" d="M127.02,150.48
					l-0.48-4.48c0,0,1.81-0.6,3.51-0.48s5.44,1.33,5.44,1.33l0.24,4.6L127.02,150.48z"/>
				<path style="fill:#92E3A9;stroke:#263238;stroke-linecap:round;stroke-linejoin:round;stroke-miterlimit:10;" d="M85.88,168.87
					c0,0,4.84-1.33,6.29-1.45c1.45-0.12,32.67,2.78,32.67,2.78l1.57-21.3c0,0,1.81-0.36,3.51,0.12c1.69,0.48,8.83,2.54,8.83,2.54
					s0.48,22.02,0.48,26.98c0,4.96,0,8.11,0,8.11s-1.57,0.6-2.9,0.85s-34.36,3.02-40.41,3.02s-12.46,0.48-13.91-5.69"/>
			</g>
		</g>
	</g>
</g>
</svg>
