<?xml version="1.0" encoding="utf-8"?>
<!-- Generator: Adobe Illustrator 25.2.1, SVG Export Plug-In . SVG Version: 6.00 Build 0)  -->
<svg version="1.1" xmlns="http://www.w3.org/2000/svg" xmlns:xlink="http://www.w3.org/1999/xlink" x="0px" y="0px"
	 viewBox="0 0 750 500" style="enable-background:new 0 0 750 500;" xml:space="preserve">
<style type="text/css">
	.st0{fill:#92E3A9;}
	.st1{opacity:0.7;fill:#FFFFFF;}
	.st2{fill:none;stroke:#263238;stroke-linecap:round;stroke-linejoin:round;stroke-miterlimit:10;}
	.st3{fill:#263238;}
	.st4{fill:#92E3A9;stroke:#263238;stroke-linecap:round;stroke-linejoin:round;stroke-miterlimit:10;}
	.st5{fill:#263238;stroke:#263238;stroke-linecap:round;stroke-linejoin:round;stroke-miterlimit:10;}
	.st6{fill:#FFFFFF;stroke:#263238;stroke-linecap:round;stroke-linejoin:round;stroke-miterlimit:10;}
	.st7{fill:none;stroke:#263238;stroke-width:3;stroke-linecap:round;stroke-linejoin:round;stroke-miterlimit:10;}
</style>
<g id="Background_Simple">
	<g>
		<path class="st0" d="M670.94,215.37c-25.62-40.94-60.83-76.73-97.79-104.38c-37.39-27.98-81.78-49.05-128.84-52.34
			c-46.77-3.28-93.68,5.19-136.06,25.42c-30.76,14.68-58.24,35.08-78.63,62.63c-3.26,4.41-5.28,8.9-7.48,13.95
			c-0.38,0.89-0.76,1.78-1.12,2.67c-5.42,13.44-9.61,27.3-12.48,41.5c-1.63,8.08-2.31,16.8-5.49,24.49
			c-9.36,22.68-39.14,29.21-57.97,41.61c-45.07,29.68-86.53,81.09-77.76,138.32c0.01,0.07,0.02,0.14,0.03,0.21
			c7.98,51.22,29.93,56.54,29.93,56.54h587.36c0,0,27.94-43.24,26.61-124.39C710.54,296.42,694.71,253.35,670.94,215.37z"/>
		<path class="st1" d="M670.94,215.37c-25.62-40.94-60.83-76.73-97.79-104.38c-37.39-27.98-81.78-49.05-128.84-52.34
			c-46.77-3.28-93.68,5.19-136.06,25.42c-30.76,14.68-58.24,35.08-78.63,62.63c-3.26,4.41-5.28,8.9-7.48,13.95
			c-0.38,0.89-0.76,1.78-1.12,2.67c-5.42,13.44-9.61,27.3-12.48,41.5c-1.63,8.08-2.31,16.8-5.49,24.49
			c-9.36,22.68-39.14,29.21-57.97,41.61c-45.07,29.68-86.53,81.09-77.76,138.32c0.01,0.07,0.02,0.14,0.03,0.21
			c7.98,51.22,29.93,56.54,29.93,56.54h587.36c0,0,27.94-43.24,26.61-124.39C710.54,296.42,694.71,253.35,670.94,215.37z"/>
	</g>
</g>
<g id="Clouds">
	<path class="st2" d="M655.03,324.55c0,0-15.56-2.59-17.64-7.26c-2.07-4.64-4.42-11.2-9.12-13.85c-5.79-3.27-10.71,2.67-16.31-1.2
		c-6.75-4.67-7.26-15.05-24.39-17.12c-17.12-2.08-16.6,17.12-17.64,20.24c-1.04,3.11-10.9-3.11-16.6,1.04
		c-5.71,4.15-4.15,12.45-5.71,14.01c-1.56,1.56-8.82-1.56-10.9,0c-2.08,1.56-4.67,3.11-4.67,3.11l-11.93,3.63h142.69L655.03,324.55z
		"/>
	<path class="st2" d="M437.26,73.11c0,0-11.24-1.87-12.75-5.25c-1.5-3.35-3.19-8.09-6.59-10.01c-4.18-2.36-7.74,1.93-11.78-0.87
		c-4.87-3.37-5.25-10.87-17.62-12.37c-12.37-1.5-12,12.37-12.75,14.62c-0.75,2.25-7.87-2.25-12,0.75c-4.12,3-3,9-4.12,10.12
		c-1.12,1.12-6.37-1.12-7.87,0c-1.5,1.12-3.37,2.25-3.37,2.25l-8.62,2.62h103.1L437.26,73.11z"/>
	<path class="st2" d="M175.17,242.95c0,0-8.06-1.34-9.14-3.76c-1.07-2.41-2.29-5.8-4.73-7.18c-3-1.69-5.55,1.38-8.45-0.62
		c-3.5-2.42-3.77-7.8-12.64-8.88c-8.88-1.08-8.61,8.88-9.15,10.49c-0.54,1.61-5.65-1.61-8.61,0.54c-2.96,2.15-2.15,6.46-2.96,7.26
		c-0.81,0.81-4.57-0.81-5.65,0c-1.08,0.81-2.42,1.61-2.42,1.61l-6.19,1.88h73.97L175.17,242.95z"/>
	<path class="st2" d="M257.09,412.45c0,0-12.44-2.07-14.1-5.8c-1.66-3.71-3.53-8.95-7.29-11.07c-4.63-2.61-8.56,2.14-13.04-0.96
		c-5.39-3.73-5.81-12.03-19.5-13.69c-13.69-1.66-13.28,13.69-14.1,16.18c-0.83,2.49-8.71-2.49-13.28,0.83
		c-4.56,3.32-3.32,9.96-4.56,11.2c-1.24,1.24-7.05-1.24-8.71,0c-1.66,1.24-3.73,2.49-3.73,2.49l-9.54,2.9h114.08L257.09,412.45z"/>
</g>
<g id="Arrows">
	<polyline class="st2" points="675.82,302.77 569.68,202.22 594.04,202.22 417.92,94.37 469.5,202.22 493.86,202.22 571.34,275.62 	
		"/>
	<polyline class="st2" points="261.3,364.42 200.57,306.89 207.74,306.89 155.89,275.14 171.08,306.89 178.25,306.89 238.98,364.42 
			"/>
	<polygon class="st3" points="571.71,123.67 534.71,101.02 545.55,123.67 554.74,123.67 598.07,164.72 605.85,164.72 562.52,123.67 
			"/>
	<polygon class="st3" points="484.53,258.07 447.54,235.41 458.37,258.07 467.56,258.07 510.89,299.11 518.67,299.11 475.34,258.07 
			"/>
	<polygon class="st3" points="107.62,408.39 70.63,385.73 81.46,408.39 90.65,408.39 133.98,449.43 141.76,449.43 98.43,408.39 	"/>
	<polygon class="st3" points="175.27,94.59 101.81,49.61 123.33,94.59 141.57,94.59 227.62,176.1 243.07,176.1 157.02,94.59 	"/>
</g>
<g id="Plant_1_">
	<g>
		<path class="st3" d="M578.9,426.97c-3.99-0.48-5.72,4.46-7.2,2.09c-1.48-2.37,4.25-6.83-2.17-10.93c-6.41-4.1-9.4,1.78-11.44-0.32
			c-2.03-2.1-0.57-7.59-4.8-10c-4.24-2.41-6.21,0.59-8.56,0.69c-2.35,0.1-9.73-3.88-12.67-0.75c-2.95,3.12,4.1,10.68,0.79,10.91
			c-3.31,0.22-4.66,6.68-1.97,10.86c2.69,4.18,11.35,5.83,9.66,8.01c-1.69,2.18-9.96,2.05-6.59,6.93c3.37,4.88,14.81,5.2,16.45,5.78
			c1.65,0.58-5.27,1.85-4.1,6.42c1.17,4.57,10.67,5.13,16.79,2.2c6.11-2.94,5.01-11.64,5.01-11.64s0.12,0,0.31,0
			c-0.78-1.78-1.68-3.51-2.65-5.18c-0.03,0.01-0.06,0.02-0.09,0.02h-13.72c-0.28,0-0.5-0.22-0.5-0.5s0.22-0.5,0.5-0.5h13.22
			c-3.14-5.15-7.02-9.69-10.71-13.4l-13.6-1.33c-0.27-0.03-0.48-0.27-0.45-0.55c0.03-0.27,0.28-0.46,0.55-0.45l12.37,1.21
			c-6.19-6.01-11.59-9.59-11.69-9.66c-0.23-0.15-0.3-0.46-0.15-0.69c0.15-0.23,0.46-0.29,0.69-0.15c0.1,0.07,5.31,3.51,11.4,9.35
			l-2.78-9.46c-0.08-0.26,0.07-0.54,0.34-0.62c0.26-0.08,0.54,0.07,0.62,0.34l3.29,11.19c3.51,3.52,7.19,7.78,10.29,12.61
			l0.84-10.31c0.02-0.28,0.27-0.48,0.54-0.46c0.28,0.02,0.48,0.26,0.46,0.54l-0.95,11.66c1.21,2.01,2.31,4.12,3.25,6.3
			c2.7-0.18,8.73-1.17,11.97-6.37C585.68,433.98,582.89,427.45,578.9,426.97z"/>
		<path class="st3" d="M600.11,394.09c-3.12-2.53-7.22,0.72-7.21-2.07c0.01-2.79,7.23-3.51,3.99-10.4c-3.24-6.89-8.9-3.51-9.5-6.37
			c-0.6-2.86,3.57-6.73,1.27-11.02c-2.3-4.3-5.57-2.82-7.61-3.98c-2.04-1.17-6.16-8.47-10.32-7.4c-4.16,1.07-2.23,11.22-5.15,9.65
			c-2.92-1.58-7.5,3.17-7.46,8.14c0.05,4.97,6.49,10.99,3.9,11.93c-2.59,0.94-9.52-3.58-9.27,2.34c0.25,5.92,9.75,12.3,10.83,13.66
			c1.08,1.37-5.44-1.25-6.89,3.24c-1.45,4.49,6.29,10.04,13.03,10.81c6.74,0.78,10.45-7.17,10.45-7.17s0.1,0.07,0.26,0.17
			c0.29-1.93,0.46-3.86,0.52-5.79c-0.03-0.01-0.06-0.02-0.08-0.03l-11.6-7.32c-0.23-0.15-0.3-0.46-0.16-0.69
			c0.15-0.23,0.46-0.3,0.69-0.16l11.18,7.05c0.09-6.03-0.77-11.94-1.91-17.05l-10.79-8.37c-0.22-0.17-0.26-0.48-0.09-0.7
			c0.17-0.22,0.48-0.24,0.7-0.09l9.82,7.62c-2.03-8.39-4.68-14.29-4.73-14.41c-0.11-0.25,0-0.55,0.25-0.66
			c0.25-0.11,0.55,0,0.66,0.25c0.05,0.11,2.62,5.81,4.65,13.99l2.69-9.49c0.08-0.27,0.35-0.42,0.62-0.34
			c0.26,0.07,0.42,0.35,0.34,0.62l-3.18,11.22c1.09,4.85,1.93,10.42,1.97,16.15l6.21-8.28c0.17-0.22,0.48-0.26,0.7-0.1
			c0.22,0.17,0.27,0.48,0.1,0.7l-7.02,9.36c-0.05,2.35-0.25,4.71-0.62,7.06c2.38,1.29,8.01,3.67,13.52,0.99
			C602.11,403.63,603.23,396.62,600.11,394.09z"/>
		<path class="st3" d="M609,453.32c-1.74-1.41-4.03,0.4-4.02-1.16c0.01-1.56,4.04-1.96,2.23-5.8c-1.81-3.85-4.97-1.96-5.31-3.56
			c-0.34-1.6,1.99-3.75,0.71-6.15c-1.28-2.4-3.11-1.57-4.25-2.22c-1.14-0.65-3.44-4.73-5.76-4.13s-1.24,6.27-2.87,5.38
			c-1.63-0.88-4.19,1.77-4.16,4.54c0.03,2.77,3.62,6.13,2.18,6.66c-1.45,0.53-5.31-2-5.17,1.31c0.14,3.31,5.44,6.86,6.05,7.63
			c0.6,0.76-3.04-0.7-3.85,1.81c-0.81,2.5,3.51,5.6,7.27,6.04c3.76,0.43,5.83-4,5.83-4s0.06,0.04,0.14,0.09
			c0.16-1.07,0.25-2.16,0.29-3.23c-0.02-0.01-0.03-0.01-0.05-0.02l-6.48-4.08c-0.13-0.08-0.17-0.25-0.09-0.38
			c0.08-0.13,0.25-0.17,0.38-0.09l6.24,3.94c0.05-3.37-0.43-6.66-1.07-9.52l-6.02-4.67c-0.12-0.09-0.14-0.27-0.05-0.39
			c0.09-0.12,0.27-0.14,0.39-0.05l5.48,4.25c-1.13-4.68-2.61-7.98-2.64-8.04c-0.06-0.14,0-0.31,0.14-0.37
			c0.14-0.06,0.31,0,0.37,0.14c0.03,0.06,1.46,3.24,2.6,7.81l1.5-5.3c0.04-0.15,0.2-0.23,0.34-0.19c0.15,0.04,0.23,0.2,0.19,0.34
			l-1.78,6.26c0.61,2.71,1.08,5.82,1.1,9.02l3.47-4.62c0.09-0.12,0.27-0.14,0.39-0.06c0.12,0.09,0.15,0.27,0.06,0.39l-3.92,5.22
			c-0.03,1.31-0.14,2.63-0.34,3.94c1.33,0.72,4.47,2.05,7.55,0.55C610.12,458.65,610.74,454.74,609,453.32z"/>
		<path class="st3" d="M663.27,449.38c-1.96-6.08-10.24-5.3-7.8-9.01c2.43-3.71,12.67,1.59,14.33-10.39
			c1.66-11.98-8.82-12.39-7.14-16.72c1.68-4.33,10.58-5.86,11.25-13.58c0.67-7.72-4.98-8.58-6.68-11.9
			c-1.7-3.32-0.87-16.62-7.33-18.79c-6.47-2.18-12.69,13.02-15.22,8.39c-2.52-4.63-12.74-2.28-16.98,4.38
			c-4.24,6.66-0.88,20.26-5.15,19.27c-4.27-0.99-9.57-13.02-14.38-4.91c-4.8,8.11,2.33,24.83,2.59,27.59
			c0.26,2.76-6.17-6.38-11.98-1.66c-5.82,4.72-0.32,18.82,7.98,25.69c8.3,6.87,20.13-0.5,20.13-0.5s0.07,0.18,0.2,0.44
			c2.05-2.31,3.95-4.75,5.72-7.26c-0.03-0.04-0.06-0.07-0.08-0.11l-9.11-19.8c-0.18-0.4-0.01-0.87,0.39-1.05
			c0.4-0.18,0.87-0.01,1.05,0.39l8.78,19.08c5.35-7.96,9.32-16.56,12.23-24.36l-7.12-20.51c-0.14-0.41,0.08-0.87,0.49-1.01
			c0.41-0.14,0.85,0.09,1.01,0.49l6.48,18.66c4.57-12.93,6.15-23.09,6.18-23.29c0.06-0.43,0.47-0.73,0.9-0.67
			c0.44,0.07,0.73,0.47,0.67,0.9c-0.03,0.19-1.54,10-5.93,22.67l11.81-10.3c0.33-0.29,0.83-0.25,1.12,0.08
			c0.29,0.33,0.26,0.83-0.08,1.12l-13.96,12.18c-2.75,7.41-6.46,15.55-11.37,23.23l15.44-5.64c0.41-0.15,0.86,0.07,1.02,0.47
			c0.15,0.41-0.06,0.87-0.47,1.02l-17.46,6.38c-2.1,3.09-4.41,6.07-6.94,8.87c2.05,3.78,7.49,11.83,17.15,13.04
			C657.67,463.82,665.23,455.45,663.27,449.38z"/>
		<g>
			<polygon class="st3" points="616.01,465.97 628.94,448.65 627.34,447.46 613.51,465.97 			"/>
			<polygon class="st3" points="595.44,465.97 582.33,405.93 580.38,406.35 593.39,465.97 			"/>
			<polygon class="st3" points="584.01,465.97 569.2,446.61 567.61,447.82 581.49,465.97 			"/>
		</g>
	</g>
</g>
<g id="Character">
	<g>
		<g>
			<g>
				<g>
					<path class="st4" d="M459.67,305.04c0,0,2.35,4.73,3.32,21.31c0.98,16.58,7.8,52.98,11.7,66.96
						c3.9,13.98,8.78,72.48,8.78,72.48h-35.1c0,0-1.95-12.35-3.25-22.1c-1.3-9.75-5.53-26-7.15-31.53
						c-1.63-5.53-4.55-15.93-4.55-15.93S434.57,348.09,459.67,305.04z"/>
					<path class="st5" d="M457.05,319.62c0,0-3.44,14.4-9.7,37.24c-6.26,22.85-7.51,37.55-7.82,40.37
						c-0.31,2.82-1.56,14.92-1.56,14.92l-4.39-12.73c0,0,0.94-29.73,3.76-42.25c2.82-12.52,20.34-40.68,20.34-40.68L457.05,319.62z"
						/>
					<path class="st2" d="M449.66,437.74c3.1-8.62,7.21-22.7,9.11-40.54"/>
					<path class="st2" d="M445.77,447.26c0,0,1-2,2.46-5.71"/>
					<path class="st2" d="M457.01,379.1c-1.74,13.17-4.18,31.06-5.72,39.88"/>
					<path class="st2" d="M459.09,363.07c0,0-0.57,4.48-1.42,11.01"/>
				</g>
				<path class="st4" d="M345.29,277.77l-4.66-0.67c0,0-1.66-5.65-3.66-6.32c-2-0.67-6.65,0-7.65-0.67c-1-0.66-3.66-3.33-10.31-6.98
					c-6.65-3.66-23.94,2-26.6,2c-2.66,0-8.65-3.99-8.65-3.99l-16.63-13.97c0,0-1.66-6.65-9.31-14.63
					c-7.65-7.98-11.97-11.31-17.62-18.62c-5.65-7.32-11.64-4.66-16.63-2.66c-4.99,1.99-17.29,24.27-14.63,28.6
					c2.66,4.32,8.98,11.31,12.3,15.3c3.33,3.99,18.95,33.92,23.61,35.25c4.66,1.33,8.31,2.99,8.31,2.99s11.31,16.29,20.28,22.28
					c8.98,5.99,22.28,12.64,22.28,12.64l3.66,2.66c0,0,3.99,57.52,7.32,68.83c3.33,11.31,3.66,46.55,3.66,46.55l-0.33,19.62h117.04
					l4.32-45.55c0,0,3.99-46.22,13.63-68.83c9.64-22.61,16.96-43.56,14.63-46.55c-2.33-2.99-37.24-19.29-44.56-24.27
					c-7.32-4.99-12.3-8.65-12.3-8.65l-52.2,2.99L345.29,277.77z"/>
				<g>
					<polygon class="st6" points="370.22,425.6 370.56,431.39 354.93,459.65 342.92,442.4 336.64,433.39 337.1,430.72 
						340.02,413.84 342.96,396.76 345.88,379.87 348.83,362.79 351.74,345.91 354.69,328.83 357.59,312.02 357.57,311.97 
						351.84,300.23 350.94,298.39 362.91,288.84 365.32,291.94 371.89,300.38 368.35,305.33 363.57,312.02 364.21,322.97 
						365.07,337.71 365.93,352.27 366.79,367 367.64,381.57 368.51,396.3 369.36,410.87 					"/>
					<path class="st3" d="M365.32,291.94l-13.48,8.29l5.73,11.74l10.78-6.64l3.54-4.95L365.32,291.94z M364.21,322.97l-9.52,5.86
						l-2.95,17.08l13.33-8.2L364.21,322.97z M365.93,352.27l-17.1,10.52l-2.95,17.08L366.79,367L365.93,352.27z M367.64,381.57
						l-24.68,15.19l-2.94,17.08l28.49-17.54L367.64,381.57z M369.36,410.87l-32.26,19.85l-0.46,2.67l6.28,9.01l27.3-16.8
						L369.36,410.87z"/>
				</g>
				<line class="st2" x1="267.48" y1="249.51" x2="271.8" y2="264.47"/>
				<path class="st2" d="M291.27,298.58c-1.03-4.06-1.76-6.92-1.84-7.18"/>
				<path class="st5" d="M299.4,330.97c0,0-3.95-15.81-6.88-27.45l1.27,17.3l-20.32-5.15L299.4,330.97z"/>
				<path class="st2" d="M295.71,280.88c-0.68-3.3-1.44-6.11-2.29-8.09"/>
				<path class="st2" d="M300.4,324.66c0,0-1.14-23.09-3.87-39.34"/>
				<path class="st2" d="M337.31,274.11c0,0-2.99,16.63,2.33,30.92"/>
				<path class="st2" d="M341.63,321.08c0.92,1.52,1.92,2.96,3,4.25"/>
				<path class="st2" d="M332.65,295.39c0,0,2.05,12.1,7.12,22.29"/>
				<path class="st4" d="M206.96,225.24c0,0,4.32,7.98,8.31,9.64c3.99,1.66,11.31,0,15.3-5.65c3.99-5.65,6.32-10.31,2.99-14.3
					c-3.33-3.99-6.98-6.65-6.98-6.65S210.62,211.94,206.96,225.24z"/>
				<g>
					<path class="st6" d="M226.58,208.28c0,0-13.93-14.46-17.43-17.96s-12.05-10.11-19.63-16.52c-7.58-6.42-15.75-16.52-17.3-13.03
						c-1.56,3.5,2.92,12.64,6.61,18.47c3.69,5.83,9.91,9.14,10.5,9.53c0.58,0.39-5.64,7.78-5.05,9.91c0.58,2.14,0.58,2.14,0.58,2.14
						s-4.86,5.83-4.47,7.58c0.39,1.75,2.33,3.69,2.33,3.69s-2.72,5.05-1.94,6.42c0.78,1.36,7.58,9.72,10.5,9.91
						c2.92,0.19,3.3-1.75,2.33-2.92c-0.97-1.17-4.28-5.64-4.28-5.64s9.72,5.25,12.25,5.44s6.61-0.97,6.61-0.97s4.47,4.86,9.14,4.28
						c4.67-0.58,10.89-7.39,11.86-11.28C230.15,213.45,229.43,212.24,226.58,208.28z"/>
					<path class="st2" d="M210.9,195.96c0,0-12.64,4.67-13.61,5.83c-0.97,1.17-7.39,6.61-9.53,7.58c-2.14,0.97-1.56,5.44,0.97,5.83
						c2.53,0.39,11.47-3.5,12.44-3.89c0.97-0.39,8.36,0,11.08-1.36"/>
					<path class="st2" d="M203.71,211.71c0,0,0.78,5.05,7.19,6.03c6.42,0.97,10.3-1.75,11.47-2.53"/>
					<path class="st2" d="M190.69,189.35c0,0,6.61,2.14,10.69,1.94"/>
					<path class="st2" d="M192.44,189.93c0,0,2.33,7.39,7.58,10.11"/>
					<path class="st2" d="M184.85,200.82c0,0,3.3,4.28,7.19,6.22"/>
					<path class="st2" d="M182.72,212.09c0,0,6.42,5.05,17.89,7.39c0,0,3.11,0,2.72-4.08"/>
					<line class="st2" x1="190.88" y1="216.95" x2="189.33" y2="219.87"/>
				</g>
			</g>
			<g>
				<path class="st6" d="M357.47,175.21c0,0-8.79,31.34-12.01,45.1c-3.22,13.76-2.93,24.31,1.46,31.63
					c2.47,4.12,5.56,5.86,5.56,5.86l-2.34,14.06c0,0,8.79,14.94,12.01,16.99c3.22,2.05,34.26-23.72,34.26-23.72l3.22-27.24
					c0,0,10.54,0.59,13.18-5.27c2.64-5.86,2.34-11.13,1.17-12.3c-1.17-1.17-1.17-1.17-1.17-1.17s4.1-16.1,6.15-19.62
					c2.32-3.98,5.36-7.43,5.18-12.32c-0.44-11.55-10.54-23.23-20.88-27.54c-10.1-4.21-22.64-6.83-33.5-4.66
					C356.59,157.64,350.15,167.31,357.47,175.21z"/>
				<path class="st5" d="M403.27,159.67c-10.1-4.21-22.64-6.83-33.5-4.66c-13.18,2.64-19.62,12.3-12.3,20.21
					c0,0,5.56,1.46,11.71,2.05c6.15,0.59,20.21,1.46,25.19,3.81c4.98,2.34,7.03,4.1,7.03,4.1s-5.27,9.96-2.34,15.23
					c2.93,5.27,8.49,7.91,7.61,10.25c-0.88,2.34-4.39,10.25-3.22,12.01c1.17,1.76,4.69-4.69,6.15-4.69c1.46,0,3.22,1.17,3.22,1.17
					s4.1-16.1,6.15-19.62c2.32-3.98,5.36-7.43,5.18-12.32C423.71,175.65,413.61,163.97,403.27,159.67z"/>
				<path class="st3" d="M362.73,206.26c-0.28,1.92-1.42,3.34-2.54,3.18c-1.12-0.16-1.8-1.85-1.52-3.77
					c0.28-1.92,1.42-3.34,2.54-3.18C362.34,202.65,363.02,204.34,362.73,206.26z"/>
				<path class="st3" d="M382.95,212.41c-0.28,1.92-1.42,3.34-2.54,3.18s-1.8-1.85-1.52-3.77c0.28-1.92,1.42-3.34,2.54-3.18
					C382.55,208.8,383.23,210.49,382.95,212.41z"/>
				<path class="st2" d="M369.19,205.96c0,0-1.46,7.91-4.69,12.3c-3.22,4.39-8.79,5.56-7.32,7.91c1.46,2.34,8.79,3.22,8.79,3.22"/>
				<path class="st2" d="M358.64,233.49c0,0,8.2,4.39,15.52,1.76"/>
				<path class="st5" d="M386.17,254.28c0,0-5.56,2.93-16.99,5.86c-11.42,2.93-16.69-2.34-16.69-2.34l-2.33,14
					C361.33,267.23,386.17,254.28,386.17,254.28z"/>
				<path class="st2" d="M350.15,203.62c0,0-1.76-3.22-4.98,0.88c-3.22,4.1,0.29,15.81,0.29,15.81L350.15,203.62z"/>
				<path class="st7" d="M356.59,193.08c0,0,5.27-2.05,10.54,3.81"/>
				<path class="st7" d="M379.44,200.98c0,0,6.74-4.1,14.06,0.88"/>
				<circle class="st2" cx="384.71" cy="213.87" r="12.01"/>
				<circle class="st2" cx="358.42" cy="206.62" r="10.76"/>
				<path class="st2" d="M369.19,206.62c0,0,3.22-1.54,4.69,0.81"/>
				<line class="st2" x1="396.42" y1="216.21" x2="406.97" y2="220.02"/>
			</g>
		</g>
		<polygon class="st4" points="362.16,288.84 347.28,309.69 341.96,273.45 349.94,269.13 		"/>
		<polygon class="st4" points="362.16,288.84 374.22,312.02 402.81,272.12 396.42,265.12 		"/>
	</g>
</g>
<g id="Speech_Bubble">
	<g>
		<g>
			<path class="st5" d="M327.17,142.3c7.07-9.16,11.28-20.64,11.28-33.1c0-29.95-24.28-54.23-54.23-54.23
				c-29.95,0-54.23,24.28-54.23,54.23c0,15.72,6.69,29.88,17.38,39.79c9.68,8.96,22.62,14.44,36.85,14.44
				c8.65,0,16.82-2.02,24.07-5.63c3.4-1.69,6.61-3.73,9.56-6.06l15.84,14.26L327.17,142.3z"/>
			<path class="st6" d="M323.04,140.64c7.07-9.16,11.28-20.64,11.28-33.1c0-29.95-24.28-54.23-54.23-54.23
				c-29.95,0-54.23,24.28-54.23,54.23c0,15.72,6.69,29.88,17.38,39.79c9.68,8.96,22.62,14.44,36.85,14.44
				c8.65,0,16.82-2.02,24.07-5.63c3.4-1.69,6.61-3.73,9.56-6.06l15.84,14.26L323.04,140.64z"/>
		</g>
		<g>
			<path class="st5" d="M304.16,156.14c-7.25,3.61-15.42,5.63-24.07,5.63c-14.23,0-27.17-5.48-36.85-14.44l9.57-15.67l6.15,3.88
				l16.17-44.3l13.9,54.33l9.38-5.82L304.16,156.14z"/>
			<line class="st2" x1="275.13" y1="91.24" x2="275.13" y2="62.78"/>
			<path class="st4" d="M275.29,64.49c0,0,11.41,0.77,12.56,2.44c1.15,1.67,1.54,5.9,2.05,6.15c0.51,0.26,7.05,0.13,7.56,1.03
				c0.51,0.9,1.54,4.74,2.18,5.64c0.64,0.9,6.02,1.54,6.02,1.54s-1.54,1.03-2.31,1.28c-0.77,0.26-2.82,0.64-2.82,0.64l3.33,0.9
				c0,0-1.79,1.67-4.49,1.92c-2.69,0.26-4.87-1.79-5.26-2.44c-0.38-0.64-4.74-0.38-6.15-0.77c-1.41-0.38-1.15-2.82-1.79-3.59
				c-0.64-0.77-11.02-1.28-11.02-1.28L275.29,64.49z"/>
		</g>
	</g>
</g>
<g id="Line">
	<line class="st2" x1="37.78" y1="465.97" x2="730.68" y2="465.97"/>
</g>
</svg>
