<?xml version="1.0" encoding="utf-8"?>
<!-- Generator: Adobe Illustrator 21.0.0, SVG Export Plug-In . SVG Version: 6.00 Build 0)  -->
<svg version="1.1" id="Layer_1" xmlns="http://www.w3.org/2000/svg" xmlns:xlink="http://www.w3.org/1999/xlink" x="0px" y="0px"
	 viewBox="0 0 494.8 272.1" style="enable-background:new 0 0 494.8 272.1;" xml:space="preserve">
<style type="text/css">
	.st0{fill:#E3E9FF;}
	.st1{fill:#F7F9FF;}
	.st2{fill:#060534;}
	.st3{fill:#6F8FF2;}
	.st4{fill:#FD7166;}
	.st5{fill:#AFC2FA;}
	.st6{fill:#A4B8F5;}
	.st7{fill:#CDD8FA;}
	.st8{fill:#EDF1FF;}
	.st9{fill:#6A86CE;}
	.st10{fill:#FA9490;}
	.st11{fill:#D15D54;}
	.st12{fill:#0B0754;}
	.st13{fill:#09074D;}
	.st14{fill:#E68884;}
	.st15{fill:#FFFFFF;}
	.st16{fill:#BBCBFA;}
	.st17{fill:#92B5F8;}
	.st18{fill:#7C9AF2;}
	.st19{opacity:0.2;fill:#193F1E;enable-background:new    ;}
	.st20{fill:#A7C1E9;}
	.st21{fill:#8EA5ED;}
	.st22{fill:#C4574F;}
	.st23{fill:#3A49CD;}
	.st24{fill:#201D40;}
	.st25{fill:#2E5BE6;}
	.st26{fill:#4E73E6;}
	.st27{fill:#3662C1;}
</style>
<title>mail-success</title>
<g>
	<g id="Layer_1_1_">
		<path class="st0" d="M66.4,256.9c-8.9-11.3-44.6-11.7-39.2-39.7c1.7-9,18.1-19.7,29.6-23.1c44.4-13.1,33.3-27.1,14.1-50.8
			c-15-25.3-7.3-69.2,26.3-83.2c22.3-8.2,61.4,4,84.6-2.9c25-7.4,27.4-28.4,51.5-37.3c72.2-26.6,177.6-2.3,180.9,57.6
			c6,109.2,123,67.5,41.5,180.3L66.4,256.9z"/>
		<path class="st1" d="M305.2,77.3l-0.2-0.5c-0.1-0.2-1.9-4.8-0.5-8.1c0.6-1.5,1.5-2.8,2.7-3.8c0.8-0.9,2.1-1.2,3.3-0.8
			c1.9,0.8,2.2,4.1,0.8,7.5c-1.4,3.2-5.4,5.3-5.6,5.4L305.2,77.3z M309.6,64.9c-0.7,0.1-1.3,0.3-1.8,0.8c-1.1,0.9-1.9,2.1-2.4,3.4
			c-1,2.3-0.1,5.5,0.3,6.8c1.1-0.7,3.7-2.4,4.7-4.7l0.5,0.2l-0.5-0.2c1.2-2.8,1.1-5.7-0.3-6.3C310,65,309.8,64.9,309.6,64.9z"/>
		<path class="st1" d="M303.5,83.4l-0.5-0.1c-0.2-0.1-5-1.3-6.8-4.4s-1.9-6.5-0.1-7.6c1.1-0.5,2.4-0.3,3.4,0.4
			c1.3,0.9,2.4,2.1,3.1,3.4l0,0c1.8,3,1,7.5,1,7.7L303.5,83.4z M297.2,71.9c-0.2,0-0.5,0.1-0.7,0.2c-1.3,0.7-1,3.6,0.5,6.2
			c1.3,2.2,4.4,3.4,5.6,3.8c0.1-1.3,0.3-4.4-1-6.5c-0.7-1.2-1.6-2.3-2.8-3.1C298.4,72.2,297.8,72,297.2,71.9z"/>
		<path class="st1" d="M308.3,84.4c-1.9-0.1-3.7-0.4-5.5-1.2l-0.5-0.2l0.3-0.5c0.1-0.2,2.5-4.5,5.9-5.5c1.5-0.5,3.1-0.6,4.6-0.3
			c1.5,0,2.8,1.2,2.8,2.7c0,1-0.5,1.9-1.3,2.4c-1.2,1.1-2.6,1.8-4.1,2.2l0,0C309.9,84.3,309.1,84.4,308.3,84.4z M303.8,82.5
			c1.2,0.4,4.2,1.3,6.6,0.6l0,0c1.4-0.4,2.6-1.1,3.7-2c0.7-0.5,1.1-1.3,1-2.2c-0.2-0.6-0.9-1.1-2-1.3c-1.4-0.2-2.8-0.1-4.2,0.3
			C306.4,78.6,304.5,81.4,303.8,82.5z"/>
		<path class="st1" d="M301.7,94.4l-1.3-0.2l0,0h-0.1l-0.4-0.1l0.1-0.4c0.2-1,0.4-2,0.5-3c2.2-11.5,4.6-15.7,4.7-15.8l0.2-0.4l1.7,1
			l-0.3,0.4c0,0.1-2.3,4.3-4.5,15.6c-0.2,0.9-0.3,1.8-0.5,2.6L301.7,94.4z"/>
		<path class="st2" d="M433.6,149.7c-0.3,0-0.5-0.3-0.5-0.6c0-0.3,0.2-0.5,0.5-0.5c1.3-0.2,2.7-0.4,4.1-0.7c0.3-0.1,0.6,0.1,0.7,0.4
			c0.1,0.3-0.1,0.6-0.4,0.7c0,0-0.1,0-0.1,0C436.4,149.2,435,149.5,433.6,149.7L433.6,149.7z M441.8,148.1c-0.3,0-0.6-0.3-0.6-0.6
			c0-0.2,0.2-0.5,0.4-0.5c1.3-0.3,2.7-0.7,4-1.1c0.3-0.1,0.6,0.2,0.6,0.5c0,0.2-0.1,0.5-0.3,0.6c-1.3,0.4-2.7,0.8-4,1.1L441.8,148.1
			z M449.8,145.6c-0.3,0-0.6-0.3-0.5-0.6c0-0.2,0.1-0.4,0.4-0.5c1.3-0.5,2.6-1,3.8-1.5c0.3-0.2,0.6-0.1,0.8,0.1
			c0.2,0.3,0.1,0.6-0.1,0.8c-0.1,0-0.1,0.1-0.2,0.1c-1.3,0.6-2.6,1.1-3.9,1.6C449.9,145.6,449.8,145.6,449.8,145.6L449.8,145.6z
			 M457.4,142.3c-0.3,0-0.5-0.3-0.5-0.6c0-0.1,0.1-0.3,0.2-0.4c1.2-0.6,2.5-1.3,3.6-2c0.3-0.1,0.6,0,0.7,0.3c0.1,0.2,0,0.5-0.2,0.7
			c-1.2,0.7-2.4,1.4-3.7,2.1C457.6,142.3,457.5,142.3,457.4,142.3L457.4,142.3z M464.5,137.9c-0.3,0-0.6-0.3-0.5-0.6
			c0-0.2,0.1-0.3,0.2-0.4c1.1-0.8,2.2-1.7,3.2-2.6c0.3-0.2,0.6-0.1,0.8,0.1c0.1,0.2,0.1,0.5,0,0.7c-1,0.9-2.1,1.8-3.3,2.7
			C464.7,137.8,464.6,137.9,464.5,137.9L464.5,137.9z M470.7,132.3c-0.3,0-0.6-0.3-0.5-0.6c0-0.1,0.1-0.3,0.1-0.4
			c0.9-1,1.8-2.1,2.6-3.2c0.2-0.2,0.6-0.2,0.8,0c0.2,0.2,0.2,0.4,0.1,0.7c-0.8,1.1-1.7,2.2-2.6,3.3
			C471,132.2,470.8,132.3,470.7,132.3L470.7,132.3z M475.5,125.5c-0.3,0-0.6-0.3-0.6-0.6c0-0.1,0-0.2,0.1-0.3
			c0.7-1.2,1.2-2.4,1.7-3.7c0.2-0.2,0.5-0.3,0.8-0.1c0.2,0.1,0.2,0.3,0.2,0.5c-0.5,1.3-1.1,2.6-1.8,3.8
			C475.9,125.4,475.7,125.5,475.5,125.5L475.5,125.5z M478.6,117.8h-0.1c-0.3-0.1-0.5-0.4-0.4-0.7c0.3-1.3,0.6-2.7,0.8-4
			c0.1-0.3,0.4-0.5,0.7-0.4c0.2,0.1,0.4,0.3,0.4,0.6c-0.2,1.4-0.5,2.8-0.9,4.1C479,117.7,478.8,117.8,478.6,117.8L478.6,117.8z
			 M479.9,109.6L479.9,109.6c-0.3,0-0.5-0.3-0.5-0.6c0.1-1.1,0.1-2.2,0.1-3.2c0-0.3,0-0.6,0-0.9c0-0.3,0.2-0.6,0.5-0.6
			c0.3,0,0.6,0.2,0.6,0.5c0,0,0,0.1,0,0.1c0,0.3,0,0.6,0,1c0,1.1,0,2.2-0.1,3.3C480.4,109.4,480.1,109.6,479.9,109.6L479.9,109.6z
			 M479.7,101.3c-0.3,0-0.5-0.2-0.5-0.5c-0.2-1.3-0.4-2.7-0.8-4c-0.1-0.3,0-0.6,0.3-0.7s0.6,0,0.7,0.3c0,0,0,0.1,0,0.2
			c0.4,1.4,0.6,2.8,0.8,4.2C480.2,101,480,101.2,479.7,101.3L479.7,101.3z M477.5,93.3c-0.2,0-0.4-0.1-0.5-0.3
			c-0.6-1.2-1.2-2.4-2-3.5c-0.2-0.2-0.2-0.6,0-0.8c0.2-0.2,0.6-0.2,0.8,0c0,0,0.1,0.1,0.1,0.1c0.8,1.2,1.5,2.4,2.1,3.7
			c0.1,0.3,0,0.6-0.3,0.7C477.6,93.2,477.5,93.3,477.5,93.3L477.5,93.3z M459.2,92.6c-0.3,0-0.5-0.3-0.5-0.6c0-0.3,0.2-0.4,0.5-0.5
			c1.3-0.1,2.6-0.4,3.9-0.9c0.2-0.2,0.6-0.1,0.8,0.1c0.2,0.2,0.1,0.6-0.1,0.8c-0.1,0.1-0.2,0.1-0.3,0.1
			C462.2,92.2,460.7,92.5,459.2,92.6L459.2,92.6z M455.1,92.1c-0.1,0-0.1,0-0.2,0c-1.6-0.5-2.7-1.8-2.9-3.4
			c-0.1-0.3,0.1-0.6,0.4-0.7s0.6,0.1,0.7,0.4c0,0,0,0.1,0,0.1c0.2,1.2,1.1,2.2,2.2,2.5c0.3,0.1,0.4,0.5,0.3,0.7
			C455.5,92,455.3,92.1,455.1,92.1L455.1,92.1z M466.9,89.7c-0.3,0-0.6-0.2-0.6-0.6c0-0.2,0.1-0.3,0.2-0.4c1-0.8,1.9-1.8,2.7-2.9
			c0.1-0.3,0.5-0.4,0.8-0.3s0.4,0.5,0.3,0.8c0,0,0,0.1-0.1,0.1c-0.8,1.2-1.8,2.3-2.9,3.2C467.1,89.6,467,89.7,466.9,89.7L466.9,89.7
			z M472.7,86.5c-0.1,0-0.3-0.1-0.4-0.2c-1-0.9-2.1-1.7-3.3-2.4c-0.3-0.1-0.4-0.5-0.2-0.8c0.1-0.3,0.5-0.4,0.8-0.2l0,0
			c1.3,0.7,2.4,1.5,3.5,2.5c0.2,0.2,0.3,0.5,0.1,0.8C473,86.5,472.8,86.5,472.7,86.5L472.7,86.5z M453.9,85.2
			c-0.3,0-0.6-0.3-0.5-0.6c0-0.1,0-0.2,0.1-0.3c0.9-1.2,2.2-2,3.6-2.6c0.2-0.2,0.6-0.1,0.8,0.1c0.2,0.2,0.1,0.6-0.1,0.8
			c-0.1,0.1-0.2,0.1-0.3,0.1c-1.2,0.5-2.3,1.2-3.1,2.2C454.2,85.1,454.1,85.2,453.9,85.2L453.9,85.2z M471.4,82.8h-0.1
			c-0.3-0.1-0.5-0.4-0.4-0.7c0.3-1.3,0.5-2.6,0.5-4c0-0.3,0.3-0.6,0.6-0.6l0,0c0.3,0,0.6,0.3,0.5,0.6c0,1.4-0.2,2.9-0.6,4.3
			C471.8,82.7,471.6,82.8,471.4,82.8L471.4,82.8z M465.5,82.5h-0.1c-1.3-0.3-2.7-0.5-4-0.5c-0.3,0-0.5-0.3-0.5-0.6
			c0-0.3,0.2-0.4,0.5-0.5c1.4,0,2.9,0.1,4.3,0.5c0.3,0.1,0.5,0.4,0.4,0.7C465.9,82.4,465.7,82.5,465.5,82.5L465.5,82.5z M471.6,74.5
			c-0.3,0-0.5-0.2-0.5-0.5c-0.2-1.4-0.6-2.7-1-4c-0.1-0.3,0-0.6,0.3-0.7c0.3-0.1,0.6,0,0.7,0.3c0,0,0,0.1,0,0.1
			c0.4,1.3,0.8,2.7,1,4.1C472.1,74.1,471.9,74.4,471.6,74.5L471.6,74.5z M469.1,66.6c-0.2,0-0.4-0.1-0.5-0.3
			c-0.5-1.2-1.1-2.5-1.8-3.7c-0.1-0.3,0-0.6,0.2-0.8c0.3-0.1,0.6,0,0.8,0.2c0.7,1.3,1.3,2.6,1.8,3.8c0.1,0.3,0,0.6-0.3,0.7
			C469.3,66.6,469.2,66.6,469.1,66.6L469.1,66.6z M465.1,59.3c-0.2,0-0.4-0.1-0.5-0.2c-0.8-1.1-1.6-2.2-2.5-3.2
			c-0.2-0.3-0.1-0.6,0.1-0.8c0.2-0.1,0.5-0.1,0.7,0c1,1,1.8,2.2,2.6,3.3c0.2,0.3,0.1,0.6-0.2,0.8C465.3,59.2,465.2,59.3,465.1,59.3
			L465.1,59.3z M459.5,53.1c-0.1,0-0.3,0-0.4-0.1c-1-0.9-2.1-1.7-3.3-2.5c-0.2-0.2-0.3-0.6-0.1-0.8c0.2-0.2,0.5-0.3,0.7-0.1
			c1.2,0.8,2.3,1.7,3.4,2.6c0.2,0.2,0.3,0.5,0.1,0.8C459.9,53.1,459.7,53.2,459.5,53.1L459.5,53.1z M367,48.8
			c-0.3,0-0.5-0.3-0.5-0.6c0-0.2,0.1-0.4,0.3-0.5c1.1-0.4,2.5-0.9,4-1.4c0.3-0.1,0.6,0,0.7,0.3c0.1,0.3,0,0.6-0.3,0.7
			c0,0-0.1,0-0.1,0c-1.5,0.5-2.8,0.9-3.9,1.3C367.2,48.8,367.1,48.8,367,48.8L367,48.8z M452.6,48.4c-0.1,0-0.2,0-0.3-0.1
			c-1.2-0.6-2.4-1.2-3.7-1.8c-0.3-0.1-0.5-0.4-0.4-0.7c0.1-0.3,0.4-0.5,0.7-0.4c0.1,0,0.2,0,0.2,0.1c1.3,0.6,2.6,1.2,3.8,1.8
			c0.2,0.2,0.3,0.5,0.1,0.8C452.9,48.3,452.8,48.4,452.6,48.4L452.6,48.4z M375,46.3c-0.3,0-0.5-0.3-0.5-0.6c0-0.2,0.2-0.4,0.4-0.5
			c1.3-0.3,2.7-0.7,4.1-1c0.3-0.1,0.6,0,0.7,0.3c0.1,0.3,0,0.6-0.3,0.7c0,0-0.1,0-0.2,0c-1.4,0.3-2.7,0.7-4,1L375,46.3z M445,45.1
			c-0.1,0-0.1,0-0.2,0c-1.3-0.4-2.6-0.8-4-1.2c-0.3,0-0.5-0.3-0.5-0.6c0-0.3,0.3-0.5,0.6-0.5c0.1,0,0.1,0,0.2,0
			c1.4,0.4,2.7,0.8,4,1.2c0.3,0.1,0.4,0.4,0.3,0.7C445.4,45,445.2,45.1,445,45.1L445,45.1z M383.1,44.4c-0.3,0-0.5-0.3-0.5-0.6
			c0-0.2,0.2-0.4,0.4-0.5c1.4-0.3,2.7-0.5,4.1-0.8c0.3-0.1,0.6,0.1,0.7,0.4c0.1,0.3-0.1,0.6-0.4,0.7c-0.1,0-0.1,0-0.2,0
			c-1.4,0.3-2.7,0.5-4.1,0.8L383.1,44.4z M391.3,42.9c-0.3,0-0.5-0.3-0.5-0.6c0-0.3,0.2-0.5,0.5-0.5c1.4-0.2,2.8-0.4,4.1-0.6
			c0.3-0.1,0.6,0.1,0.7,0.4c0.1,0.3-0.1,0.6-0.4,0.7c-0.1,0-0.1,0-0.2,0C394.2,42.5,392.8,42.7,391.3,42.9L391.3,42.9z M437,42.9
			h-0.1c-1.3-0.3-2.7-0.5-4.1-0.8c-0.3,0-0.5-0.3-0.5-0.6c0-0.3,0.3-0.5,0.6-0.5c0,0,0.1,0,0.1,0c1.4,0.2,2.8,0.5,4.1,0.8
			c0.3,0.1,0.5,0.4,0.4,0.7C437.4,42.8,437.2,42.9,437,42.9L437,42.9z M399.6,41.8c-0.3,0-0.5-0.3-0.5-0.6c0-0.3,0.2-0.5,0.5-0.5
			c1.4-0.2,2.8-0.3,4.2-0.4c0.3-0.1,0.6,0.1,0.7,0.4s-0.1,0.6-0.4,0.7c0,0-0.1,0-0.1,0C402.4,41.6,401,41.7,399.6,41.8L399.6,41.8z
			 M428.8,41.7L428.8,41.7c-1.4-0.2-2.8-0.3-4.2-0.4c-0.3-0.1-0.5-0.3-0.4-0.7c0-0.3,0.3-0.4,0.5-0.5c1.4,0.1,2.8,0.2,4.2,0.4
			c0.3,0.1,0.5,0.3,0.5,0.6C429.2,41.4,429,41.6,428.8,41.7z M407.9,41.2c-0.3,0-0.5-0.3-0.5-0.6c0-0.3,0.2-0.4,0.5-0.5
			c1.4-0.1,2.8-0.1,4.2-0.2c0.3,0,0.5,0.3,0.5,0.6c0,0.3-0.2,0.4-0.5,0.5C410.8,41,409.4,41.1,407.9,41.2L407.9,41.2z M420.4,41.1
			L420.4,41.1c-1.4,0-2.8-0.1-4.1-0.1c-0.3,0-0.5-0.3-0.5-0.6c0-0.3,0.2-0.4,0.5-0.5l0,0c1.4,0,2.8,0,4.2,0.1c0.3,0,0.5,0.3,0.5,0.6
			C420.9,40.8,420.7,41,420.4,41.1L420.4,41.1z"/>
		<path class="st2" d="M180.4,186.1c-0.1,0-0.2,0-0.3-0.1c-0.6-0.3-1.2-0.6-1.9-0.9c-0.2-0.2-0.3-0.5-0.1-0.8
			c0.1-0.2,0.3-0.3,0.5-0.2c0.6,0.3,1.3,0.6,1.9,0.9c0.2,0.2,0.3,0.5,0.1,0.8C180.7,186,180.5,186.1,180.4,186.1L180.4,186.1z"/>
		<path class="st2" d="M254.3,249.2c-0.2,0-0.4-0.1-0.5-0.3c-0.6-1.2-1.4-2.3-2.2-3.4c-0.2-0.3-0.1-0.6,0.2-0.8
			c0.2-0.1,0.5-0.1,0.7,0.1c0.9,1.1,1.6,2.3,2.3,3.5c0.1,0.3,0,0.6-0.2,0.8C254.5,249.2,254.4,249.2,254.3,249.2L254.3,249.2z
			 M249.4,242.7c-0.2,0-0.3-0.1-0.4-0.2c-0.9-0.9-1.9-1.9-2.9-2.8c-0.3-0.2-0.3-0.5-0.1-0.8s0.5-0.3,0.8-0.1c0,0,0.1,0.1,0.1,0.1
			c1.1,0.9,2.1,1.9,3,2.9c0.2,0.2,0.2,0.6,0,0.8C249.6,242.6,249.5,242.7,249.4,242.7L249.4,242.7z M178.4,238h-0.5
			c-0.3,0-0.5-0.3-0.5-0.6c0-0.3,0.2-0.4,0.5-0.5h0.5c1.2,0,2.4-0.1,3.5-0.2c0.3-0.1,0.6,0.1,0.7,0.4c0.1,0.3-0.1,0.6-0.4,0.7
			c-0.1,0-0.1,0-0.2,0C180.8,237.9,179.6,238,178.4,238L178.4,238z M173.7,237.6L173.7,237.6l-0.9-0.1c-1.1-0.2-2.2-0.5-3.3-0.8
			c-0.3-0.1-0.4-0.5-0.2-0.8c0.1-0.2,0.4-0.3,0.6-0.3c1,0.3,2,0.6,3.1,0.8l0.8,0.1c0.3,0.1,0.5,0.4,0.4,0.7
			C174.2,237.4,174,237.6,173.7,237.6L173.7,237.6z M243.1,237.2c-0.1,0-0.2,0-0.3-0.1c-1.1-0.8-2.2-1.6-3.3-2.4
			c-0.3-0.1-0.4-0.5-0.3-0.8c0.1-0.3,0.5-0.4,0.8-0.3c0,0,0.1,0,0.1,0.1c1.2,0.8,2.3,1.6,3.4,2.4c0.2,0.2,0.3,0.5,0.1,0.8
			C243.5,237.1,243.3,237.2,243.1,237.2z M186,237c-0.3,0-0.5-0.3-0.5-0.6c0-0.2,0.2-0.4,0.4-0.5c1.3-0.3,2.6-0.7,3.9-1.2
			c0.2-0.2,0.6-0.1,0.8,0.1c0.2,0.2,0.1,0.6-0.1,0.8c-0.1,0.1-0.2,0.1-0.3,0.1c-1.3,0.5-2.6,0.9-4,1.3L186,237z M154.6,235.8
			L154.6,235.8c-1.4,0-2.8-0.2-4.2-0.6c-0.3,0-0.5-0.3-0.5-0.6s0.3-0.5,0.6-0.5c0,0,0.1,0,0.1,0c1.3,0.4,2.6,0.5,3.9,0.6
			c0.3,0,0.5,0.3,0.5,0.6C155.1,235.5,154.9,235.7,154.6,235.8z M158.7,235.3c-0.3,0-0.5-0.3-0.5-0.6c0-0.2,0.2-0.5,0.4-0.5
			c1.3-0.3,2.6-0.7,3.8-1.2c0.3,0,0.6,0.2,0.6,0.5c0,0.2-0.1,0.4-0.2,0.5c-1.3,0.5-2.6,1-4,1.3L158.7,235.3z M166,234.8
			c-0.1,0-0.2,0-0.3-0.1c-1.2-0.8-2.3-1.7-3.3-2.8c-0.2-0.3-0.1-0.6,0.2-0.8c0.2-0.1,0.5-0.1,0.7,0.1c0.9,1,1.9,1.9,3,2.6
			c0.2,0.2,0.3,0.5,0.1,0.8C166.3,234.7,166.2,234.8,166,234.8L166,234.8z M193.8,234.1c-0.3,0-0.5-0.3-0.5-0.6
			c0-0.2,0.1-0.4,0.3-0.5c1.3-0.6,2.6-1.2,3.7-1.7c0.3-0.2,0.6-0.1,0.8,0.2c0.2,0.3,0.1,0.6-0.2,0.8c0,0-0.1,0.1-0.1,0.1
			c-1.2,0.6-2.4,1.2-3.8,1.7C193.9,234.1,193.9,234.2,193.8,234.1L193.8,234.1z M146.8,233.5c-0.1,0-0.2,0-0.3-0.1
			c-1.2-0.8-2.3-1.7-3.2-2.8c-0.2-0.2-0.3-0.6-0.1-0.8s0.6-0.3,0.8-0.1c0,0,0.1,0.1,0.1,0.1c0.9,1,1.9,1.8,3,2.6
			c0.2,0.2,0.3,0.5,0.1,0.8C147.1,233.4,146.9,233.5,146.8,233.5L146.8,233.5z M236.3,232.6c-0.1,0-0.2,0-0.3-0.1
			c-1.1-0.7-2.3-1.4-3.6-2c-0.3-0.1-0.4-0.5-0.2-0.8s0.5-0.4,0.8-0.2c1.2,0.7,2.5,1.4,3.6,2c0.2,0.2,0.3,0.5,0.1,0.8
			C236.6,232.4,236.4,232.5,236.3,232.6L236.3,232.6z M166.3,232.2c-0.3,0-0.5-0.3-0.5-0.6c0-0.2,0.1-0.3,0.2-0.4
			c1.2-0.7,2.3-1.5,3.3-2.3c0.2-0.2,0.6-0.2,0.8,0s0.2,0.6,0,0.8c0,0-0.1,0.1-0.1,0.1c-1.1,0.9-2.3,1.7-3.5,2.4
			C166.5,232.2,166.4,232.3,166.3,232.2L166.3,232.2z M201.2,230.6c-0.3,0-0.6-0.3-0.5-0.6c0-0.2,0.1-0.4,0.3-0.5
			c1.5-0.7,2.7-1.2,3.8-1.7c0.3,0,0.6,0.2,0.6,0.5c0,0.2-0.1,0.4-0.2,0.5c-1.1,0.4-2.3,1-3.8,1.6
			C201.4,230.6,201.3,230.6,201.2,230.6L201.2,230.6z M229,228.8c-0.1,0-0.1,0-0.2,0c-1.2-0.5-2.5-1-3.8-1.4
			c-0.3-0.1-0.5-0.4-0.4-0.7c0.1-0.3,0.4-0.5,0.7-0.4c0,0,0.1,0,0.1,0c1.3,0.4,2.7,0.9,3.9,1.4c0.3,0.1,0.4,0.5,0.3,0.7
			C229.4,228.7,229.2,228.8,229,228.8L229,228.8z M160.8,228.8c-0.2,0-0.4-0.1-0.5-0.4c-0.5-1.3-0.8-2.8-0.9-4.2
			c-0.1-0.3,0.1-0.6,0.5-0.6c0.3-0.1,0.6,0.1,0.6,0.5c0,0,0,0.1,0,0.1c0.1,1.3,0.4,2.6,0.8,3.8c0.1,0.3,0,0.6-0.3,0.7
			C160.9,228.7,160.8,228.8,160.8,228.8z M208.9,227.6c-0.3,0-0.6-0.3-0.5-0.6c0-0.2,0.2-0.4,0.4-0.5c1.3-0.4,2.7-0.8,4.1-1
			c0.3,0,0.6,0.2,0.6,0.5c0,0.3-0.2,0.5-0.4,0.6c-1.3,0.2-2.6,0.6-3.9,1L208.9,227.6z M141.2,227.6c-0.2,0-0.4-0.1-0.5-0.3
			c-0.7-1.2-1.3-2.5-1.9-3.8c0-0.3,0.2-0.6,0.5-0.6c0.2,0,0.4,0.1,0.5,0.2c0.5,1.2,1.2,2.4,1.9,3.6c0.2,0.3,0.1,0.6-0.2,0.8
			C141.5,227.6,141.4,227.6,141.2,227.6L141.2,227.6z M172.8,227.2c-0.3,0-0.6-0.3-0.5-0.6c0-0.1,0.1-0.3,0.1-0.4
			c0.9-1,1.8-2,2.5-3.1c0.1-0.3,0.5-0.4,0.8-0.3c0.3,0.1,0.4,0.5,0.3,0.8c0,0,0,0.1-0.1,0.1c-0.8,1.2-1.7,2.3-2.6,3.3
			C173,227.1,172.9,227.2,172.8,227.2L172.8,227.2z M221.1,226.6L221.1,226.6c-1.4-0.2-2.7-0.3-4.1-0.3c-0.3,0-0.6-0.2-0.6-0.5
			c0-0.3,0.2-0.6,0.5-0.6c0,0,0.1,0,0.1,0c1.4,0,2.8,0.1,4.2,0.3c0.3,0.1,0.5,0.3,0.4,0.7C221.6,226.4,221.4,226.6,221.1,226.6
			L221.1,226.6z M160.2,220.7h-0.1c-0.3-0.1-0.5-0.4-0.4-0.7c0.3-1.4,0.8-2.7,1.5-4c0.1-0.3,0.5-0.4,0.8-0.2s0.4,0.5,0.2,0.8
			c-0.6,1.2-1.1,2.4-1.4,3.7C160.7,220.5,160.5,220.6,160.2,220.7L160.2,220.7z M177.2,220.4H177c-0.3-0.1-0.4-0.4-0.4-0.7
			c0.3-0.9,0.5-1.8,0.5-2.7c0-0.4,0-0.7-0.1-1.1c0-0.3,0.2-0.6,0.5-0.6c0.3,0,0.5,0.1,0.6,0.4c0.1,0.4,0.1,0.9,0.1,1.3
			c0,1-0.2,2-0.5,3C177.6,220.2,177.4,220.3,177.2,220.4L177.2,220.4z M138.1,220c-0.2,0-0.5-0.2-0.5-0.4c-0.4-1.3-0.7-2.7-0.9-4.1
			c0-0.3,0.2-0.6,0.5-0.6c0.3,0,0.5,0.2,0.6,0.4c0.2,1.3,0.5,2.7,0.9,4c0.1,0.3-0.1,0.6-0.4,0.7L138.1,220z M164.2,213.6
			c-0.3,0-0.6-0.2-0.6-0.5c0-0.2,0.1-0.4,0.2-0.5c1-1,2.3-1.8,3.7-2.3c0.3-0.1,0.6,0.2,0.6,0.5c0,0.2-0.1,0.5-0.3,0.6
			c-1.2,0.4-2.3,1.1-3.3,2C164.4,213.4,164.3,213.5,164.2,213.6L164.2,213.6z M175.4,212.9c-0.1,0-0.2,0-0.3-0.1
			c-0.1-0.1-0.3-0.2-0.5-0.3c-0.9-0.6-1.9-1-3-1.3c-0.3,0-0.5-0.3-0.5-0.6s0.3-0.5,0.6-0.5c0,0,0.1,0,0.1,0c1.2,0.3,2.4,0.8,3.4,1.4
			c0.2,0.1,0.4,0.3,0.6,0.4c0.2,0.2,0.3,0.5,0.1,0.8C175.8,212.8,175.6,212.9,175.4,212.9L175.4,212.9z M136.9,211.9
			c-0.3,0-0.6-0.2-0.6-0.6v-0.2c0-1.3,0.1-2.7,0.3-4c0-0.3,0.3-0.6,0.6-0.5s0.6,0.3,0.5,0.6c0,0,0,0.1,0,0.1
			c-0.2,1.3-0.3,2.6-0.3,3.9v0.2C137.4,211.7,137.2,211.9,136.9,211.9L136.9,211.9z M138.1,203.8h-0.2c-0.3-0.1-0.5-0.4-0.4-0.7
			c0.4-1.3,0.9-2.6,1.6-3.9c0.2-0.3,0.5-0.3,0.8-0.2c0.2,0.1,0.3,0.4,0.2,0.7c-0.6,1.2-1.1,2.5-1.5,3.7
			C138.5,203.6,138.4,203.7,138.1,203.8L138.1,203.8z M141.8,196.4c-0.1,0-0.2,0-0.3-0.1c-0.2-0.2-0.3-0.5-0.1-0.8
			c0.8-1.1,1.7-2.2,2.7-3.3c0.2-0.3,0.5-0.3,0.8-0.1c0.3,0.2,0.3,0.5,0.1,0.8c0,0-0.1,0.1-0.1,0.1c-0.9,1-1.8,2-2.6,3.1
			C142.1,196.3,141.9,196.3,141.8,196.4L141.8,196.4z M147.4,190.4c-0.3,0-0.6-0.2-0.6-0.6c0-0.2,0.1-0.3,0.2-0.4
			c1.1-0.9,2.2-1.7,3.4-2.4c0.3-0.1,0.6,0,0.7,0.3c0.1,0.2,0,0.5-0.2,0.7c-1.2,0.7-2.3,1.5-3.3,2.3
			C147.6,190.3,147.5,190.4,147.4,190.4L147.4,190.4z M154.4,186.1c-0.3,0-0.6-0.3-0.5-0.6c0-0.2,0.1-0.4,0.3-0.5
			c1.3-0.6,2.6-1.1,3.9-1.5c0.3-0.1,0.6,0,0.7,0.3c0.1,0.3,0,0.6-0.3,0.7c0,0-0.1,0-0.1,0c-1.3,0.4-2.6,0.9-3.8,1.4
			C154.6,186.1,154.5,186.1,154.4,186.1L154.4,186.1z M174.5,184h-0.1c-1.3-0.3-2.7-0.5-4-0.7c-0.3,0-0.6-0.2-0.6-0.6
			c0-0.3,0.2-0.6,0.6-0.6c0,0,0.1,0,0.1,0c1.4,0.1,2.8,0.4,4.1,0.7c0.3,0.1,0.5,0.4,0.4,0.7C175,183.8,174.8,184,174.5,184
			L174.5,184z M162.3,183.7c-0.3,0-0.5-0.3-0.5-0.6c0-0.2,0.2-0.4,0.4-0.5c1.4-0.2,2.8-0.4,4.2-0.5c0.3,0,0.6,0.2,0.6,0.5
			c0,0.3-0.2,0.6-0.5,0.6c0,0-0.1,0-0.1,0C165,183.3,163.6,183.4,162.3,183.7L162.3,183.7z"/>
		<path class="st2" d="M256.2,255.2L256.2,255.2c-0.3,0-0.6-0.3-0.5-0.6c0-0.6-0.1-1.3-0.3-1.9c-0.1-0.3,0-0.6,0.3-0.7
			s0.6,0,0.7,0.3c0,0,0,0.1,0,0.2c0.2,0.7,0.3,1.5,0.4,2.2C256.8,254.9,256.5,255.2,256.2,255.2z"/>
		<rect x="140.6" y="143.7" class="st2" width="15.6" height="112"/>
		<path class="st3" d="M143,82.5h59v61.9h-79.2v-39C122.8,92.7,131.8,82.5,143,82.5z"/>
		<path class="st2" d="M202,82.5c11.2,0,20.3,10.2,20.3,22.8v39h-40.5v-39C181.8,92.7,190.8,82.5,202,82.5z"/>
		<rect x="173.9" y="62.7" class="st4" width="4.1" height="52"/>
		<polygon class="st4" points="156.2,74.4 175.4,74.4 175.4,62.7 156.2,62.7 162.1,68.6 		"/>
		<rect x="162.4" y="134" class="st5" width="30.1" height="10.3"/>
		
			<rect x="168.7" y="91.7" transform="matrix(0.4321 -0.9018 0.9018 0.4321 2.4701 217.4432)" class="st5" width="10.3" height="30.1"/>
		<path class="st6" d="M171.1,99.7l-2.2,2c-0.5,0.5-0.6,1.2-0.1,1.7l1.3,1.5l-2.4-0.6c-0.7-0.2-1.3,0.1-1.7,0.6l-2,2.7l9.3,4.6
			l4.9-9.2L171.1,99.7z"/>
		<path class="st7" d="M187.4,86.4l-16.9,15.2c-0.6,0.6-0.7,1.6-0.1,2.2c0,0,0,0,0,0l26.4,29.3c0.6,0.6,1.6,0.7,2.2,0.1c0,0,0,0,0,0
			l16.9-15.2c0.6-0.6,0.7-1.6,0.1-2.2c0,0,0,0,0,0l-26.4-29.3C189,85.9,188,85.8,187.4,86.4C187.4,86.4,187.4,86.4,187.4,86.4z"/>
		<path class="st8" d="M187.4,86.4l-0.5,0.5l2,22.4c0.2,2.2,1.8,4,3.9,4.4l22.6,4.9l0.5-0.5c0.6-0.6,0.7-1.6,0.1-2.2l-26.4-29.3
			C189,85.9,188,85.8,187.4,86.4z"/>
		<polygon class="st6" points="183.3,141.8 188.6,136.3 181.8,134 164.8,134 		"/>
		<path class="st7" d="M166,107.3l-7.8,21.3c-0.3,0.8,0.1,1.7,0.9,2l37.1,13.6c0.8,0.3,1.7-0.1,2-0.9L206,122c0.3-0.8-0.1-1.7-0.9-2
			L168,106.4C167.2,106.1,166.3,106.5,166,107.3z"/>
		<path class="st8" d="M166,107.3l-0.4,1.2l12.4,18.3c1.2,1.8,3.4,2.7,5.5,2.1l22.2-6.2l0.3-0.7c0.3-0.8-0.1-1.7-0.9-2L168,106.4
			C167.2,106.1,166.3,106.5,166,107.3z"/>
		<path class="st3" d="M226.7,94.2c10.9,2.7,14,13.4,9,25l-13.5,25.1h-40.5l17.4-34.6C204.2,98.2,216.3,91.6,226.7,94.2z"/>
		<path class="st9" d="M254.6,229.4c0-9.8-7.9-17.8-17.7-17.8c-7.6,0-14.4,4.8-16.8,12c-3.2-1.9-7.3-0.9-9.2,2.3
			c-0.9,1.5-1.2,3.4-0.8,5.1c-7.8-1.2-15,4.2-16.2,12c-0.1,0.7-0.2,1.4-0.2,2.1c0,7.9,6.2,13.5,14,13.5c3.3,0,33.4-1.3,33.4-1.3
			S254.6,237.1,254.6,229.4z"/>
		<path class="st9" d="M468.3,254.6c0,0.6-0.1,1.3-0.2,1.9h-86.7l-0.2-29.9c-4.3-2.8-7.1-7.1-7.1-12.1c0-8.3,8-15.1,17.8-15.1
			s17.8,6.8,17.8,15.1c0,1.1-0.1,2.2-0.4,3.3c0.7-0.1,1.4-0.1,2.1-0.1c8.1,0,15.1,4.5,17.6,10.7c1.1-0.6,2.4-0.9,3.6-0.9
			c3.9,0,7,2.7,7,6c0,0.5-0.1,1-0.2,1.5c0.7-0.1,1.5-0.1,2.2-0.1c7.1,0,13,4.2,14.5,9.8c5.6-1.1,10.9,2.6,12,8.1
			C468.2,253.3,468.3,253.9,468.3,254.6L468.3,254.6z"/>
		<path class="st9" d="M293,91.6c-3.4,0-6.6,1.4-8.9,3.8c-1.4-4-5.7-6.1-9.7-4.7c-4,1.4-6.1,5.7-4.7,9.7l0,0
			c-8.6,0.2-15.4,7.4-15.1,16c0.2,8.6,7.4,15.4,16,15.1c8.6-0.2,15.4-7.4,15.1-16c0-0.7-0.1-1.4-0.2-2.1c5.3,4.1,13,3.1,17.1-2.2
			c4.1-5.3,3.1-13-2.2-17.1C298.3,92.5,295.7,91.6,293,91.6L293,91.6z M280.8,104.4c0,0.1,0,0.1,0,0.2l-0.1-0.1L280.8,104.4z"/>
		<path class="st9" d="M361.6,89.4c-1.4,3.1-5.5,5-5.5,5s-1.7-4.7-0.3-7.7s3.9-4.9,5.5-4.2S363.1,86.3,361.6,89.4z"/>
		<path class="st9" d="M352.8,93c1.6,3,0.7,7.4,0.7,7.4s-4.7-1.4-6.3-4.4s-1.6-6.1-0.1-6.9S351.2,90,352.8,93z"/>
		<path class="st9" d="M351,110.2c0,0.6-0.1,1-0.1,1.1l0,0l0,0l-0.4-0.1c-1.2-0.4-4.6-1.7-6-4.1c-1.7-3-1.8-6-0.2-6.9
			s4.1,0.8,5.8,3.8c0.7,1.3,1,2.8,1,4.3C351.1,108.9,351.1,109.5,351,110.2z"/>
		<path class="st9" d="M360.9,101.5c-3.3,0.8-7.4-1.1-7.4-1.1s2.5-4.3,5.8-5.1s6.3-0.2,6.7,1.6S364.1,100.6,360.9,101.5z"/>
		<path class="st9" d="M358,111.5c-3.2,1.2-7.5-0.3-7.5-0.3s2-4.5,5.2-5.7s6.2-0.8,6.9,0.8S361.1,110.3,358,111.5z"/>
		<path class="st9" d="M357,93.2c0,0-2.5,4.2-5.1,15.6c-0.2,0.8-0.4,1.7-0.6,2.6h-0.1l-0.4-0.1l0,0l-0.4-0.1c0.2-1,0.4-2,0.6-2.9
			c2.6-11.3,5-15.4,5.1-15.5L357,93.2z"/>
		<path class="st1" d="M459.4,206l-0.1-0.5c0-0.2-0.9-5.1,1.1-8c1.6-2.3,3.7-3.8,5.4-3.8c0.5,0,1,0.1,1.4,0.4
			c1.7,1.2,1.4,4.5-0.7,7.5c-2,2.9-6.4,4.2-6.5,4.2L459.4,206z M465.8,194.6c-1.4,0-3.3,1.4-4.6,3.4s-1.2,5.4-1,6.7
			c1.2-0.4,4.1-1.6,5.5-3.7c1.7-2.5,2.2-5.4,1-6.2C466.4,194.7,466.1,194.6,465.8,194.6z"/>
		<path class="st1" d="M456.5,211.6l-0.5-0.2c-0.2-0.1-4.6-2.3-5.8-5.6c-1.2-3.5-0.6-6.8,1.3-7.4c0.2-0.1,0.5-0.1,0.7-0.1
			c1.8,0,3.9,2.1,4.9,5.2c1.1,3.3-0.4,7.6-0.5,7.8L456.5,211.6z M452.2,199.1c-0.1,0-0.3,0-0.4,0.1c-1.4,0.5-1.7,3.3-0.7,6.2
			c0.8,2.4,3.6,4.2,4.8,4.8c0.4-1.2,1.1-4.2,0.3-6.6C455.3,201,453.6,199.1,452.2,199.1L452.2,199.1z"/>
		<path class="st1" d="M452.3,221.8l-0.7-0.1v-0.1l-0.3-0.2c-1.3-0.7-4.5-2.6-5.5-5.3c-0.6-1.5-0.8-3.1-0.6-4.6
			c0-1.2,0.7-2.3,1.8-2.9c0.2-0.1,0.5-0.1,0.8-0.1c1.8,0,3.9,2.1,5,5.1c0.5,1.5,0.6,3.1,0.4,4.7c-0.1,0.7-0.2,1.3-0.4,2
			c-0.1,0.5-0.3,0.9-0.3,1.1L452.3,221.8z M447.8,209.5c-0.2,0-0.3,0-0.4,0.1c-0.6,0.2-1,1-1.2,2.1c-0.1,1.4,0.1,2.8,0.6,4.2
			c0.9,2.4,3.9,4.2,4.9,4.7c0-0.1,0.1-0.3,0.1-0.5c0.2-0.6,0.3-1.2,0.4-1.9c0.2-1.4,0.1-2.9-0.3-4.2
			C450.9,211.4,449.1,209.5,447.8,209.5z"/>
		<path class="st1" d="M462.8,213.7c-3.3,0-6.7-2.3-6.8-2.4l-0.4-0.3l0.3-0.4c0.1-0.2,3.3-4,6.9-4.3c0.4,0,0.8-0.1,1.1-0.1
			c3.3,0,5.6,1.3,5.8,3.1c0,1.2-0.7,2.3-1.8,2.9c-1.4,0.8-2.9,1.3-4.5,1.4L462.8,213.7z M456.9,210.8c1.7,1.1,3.7,1.7,5.8,1.9h0.5
			c1.4-0.1,2.8-0.5,4-1.3c0.9-0.6,1.4-1.3,1.4-2c-0.1-1.3-2.2-2.2-4.8-2.2c-0.3,0-0.7,0-1,0C460.3,207.5,457.8,209.8,456.9,210.8z"
			/>
		<path class="st1" d="M457.5,223.1c-2.2-0.1-4.3-0.7-6.2-1.7l-0.5-0.3l0.3-0.4c0.1-0.2,2.9-4.3,6.4-5c0.8-0.2,1.5-0.2,2.3-0.2
			c2.7,0,4.6,1,4.9,2.6c0.4,2-2.1,4.2-5.8,4.9C458.5,223.1,458,223.1,457.5,223.1z M452.3,220.8c1.6,0.8,3.4,1.2,5.2,1.3
			c0.4,0,0.8,0,1.3-0.1c3-0.6,5.3-2.3,5-3.8c-0.2-1-1.8-1.8-4-1.8c-0.7,0-1.4,0.1-2.1,0.2C455.2,217.2,453.1,219.8,452.3,220.8
			L452.3,220.8z"/>
		<path class="st1" d="M452.6,222l-1.2-0.5l0,0l-0.1-0.1l-0.4-0.2l0.2-0.4c0.4-1,0.8-1.9,1.1-2.8c4.4-10.8,7.5-14.5,7.6-14.6
			l0.3-0.4l1.5,1.3l-0.3,0.4c0,0-3.1,3.7-7.4,14.4c-0.3,0.8-0.7,1.7-1,2.5L452.6,222z"/>
		<path class="st10" d="M457.8,237.8l-1.7,4l-5.7,0.9c-0.1-0.2-0.2-0.3-0.2-0.5c-0.2-1.1-0.6-2.2-1.2-3.2l-0.5-0.8l6.2-4.7
			c0.6,1.1,1.4,2.1,2.2,3C457.2,236.8,457.4,237.5,457.8,237.8z"/>
		<path class="st11" d="M461.9,241.2c-6.3,7.8-1,14.4-12.8,15.2c-1,0.1-3.6,0-4.9,0c-1.8-9,6.5-2.9,5.8-14.2l0,0
			c1.3-1.2,3.1-1.7,4.9-1.4l1.9-4.4C458.1,237.5,461.5,240.2,461.9,241.2z"/>
		<path class="st10" d="M423.2,247.9l-4.9,1.5l-3.7-3.8c0.1-1.9-0.1-3.7-0.6-5.5l8.5-1.5C422.9,241.7,423.2,244.8,423.2,247.9z"/>
		<path class="st11" d="M418.3,248.5c-0.5-1.7-1.9-3-3.7-3.4c-4.9,6.5-16.9,2.5-16.5,11.3c18.2-0.1,25.8,0,25.8,0
			c-0.1-2.9-0.3-5.8-0.8-8.7l-1,0.2L418.3,248.5z"/>
		<path class="st12" d="M410,116.9c-11.4,0.5-8.6-6.1-6.9-11.4c2.9-8.6-4.5-5.5-6.5-19.1c-1.4-9.7,17.4-26.7,26.9-13.6
			c3.6-3,15.9-0.6,15.5,5.9s-3.6,11.3,8,15.6s13.9,10.6,12.6,18.1c-3.2,19,3,12,4.1,25.5c1.4,16.8-11.7,20.7-30.2,19.6
			S410,116.9,410,116.9z"/>
		<path class="st4" d="M413.6,110.6c-5,2.7-20,10.2-20,10.2s-11.7,0.4-18.7-1.4c-0.5,2.1-0.4,4.3,0.2,6.4c5.8,2.1,11.7,3.8,14.6,4.6
			c3.9,1,21.6-4.7,28-8.1c2.4-1.3,7.6-5.5,5.6-9.3C420.4,107.3,415.8,109.5,413.6,110.6z"/>
		<path class="st2" d="M412.8,240.4c-1.5-6.9-4.7-22.4-10.8-38c0,0-1.9-26.7,12.2-49.5l20,1.7l-14.3,33.9l-4.3,12.2
			c7.9,9.4,6.1,21.1,8.4,38.3C424.3,241.8,413.4,243.1,412.8,240.4z"/>
		<path class="st13" d="M448.3,239.4c-4.9-7.6-11.4-17.3-26.4-34c0,0-1.8-6.3-2.1-18.6c-0.3-9.3-1.6-20.8-1-32.4l3.1-1.5l15.6-7.6
			c2.3,4.2,3.5,9,3.4,13.8c0,11.3-5,24.1-6.1,40.9c9.8,7.2,12.2,18.2,20.8,34.1C456.2,235.1,448.5,239.7,448.3,239.4z"/>
		<path class="st11" d="M414.1,152.9c-1.5-12.5-6.8-19.9-7.2-27.5c-0.5-7.8,8.6-15.6,8.6-15.6c3.2-2.1,6.9-3.3,10.8-3.5
			c0,0,5.3,0.5,8.2,4.3c4,5.4-0.5,14.1-2.1,22.6c-1.3,7,5.1,12,5.1,12s-3.1,7.9-13.7,9.4C419.1,155.3,414.1,152.9,414.1,152.9z"/>
		<path class="st10" d="M416.4,109.6c0,0-3.6,5-1.7,5.7c2.3,0.8,10.5-5.7,12-8.8c0.4-0.9,0.4-6.4,0.4-6.4l-8.5,2.2
			C417.8,109.4,416.4,109.6,416.4,109.6z"/>
		
			<ellipse transform="matrix(0.999 -4.431684e-02 4.431684e-02 0.999 -3.6422 18.7287)" class="st10" cx="420.6" cy="91.5" rx="9.7" ry="12"/>
		<path class="st12" d="M409.8,91.4c0,0,2.3-0.5,5.6-5.7c2.6,2.9,7.9,5.1,16.1,5.5c0.1-6.4-6.1-13.9-11.7-13.7
			S410.1,84.1,409.8,91.4z"/>
		<ellipse transform="matrix(0.999 -4.414248e-02 4.414248e-02 0.999 -3.7426 18.3503)" cx="413.6" cy="93.9" rx="0.9" ry="0.9"/>
		<ellipse transform="matrix(0.999 -4.431684e-02 4.431684e-02 0.999 -3.7219 18.731)" cx="420.6" cy="93.3" rx="0.9" ry="0.9"/>
		<path class="st12" d="M423,92.1c-0.1,0-0.3-0.1-0.3-0.2c-0.8-1.1-2.5-0.7-2.5-0.7c-0.2,0-0.4-0.1-0.5-0.3c0-0.2,0.1-0.4,0.3-0.5
			c0.1,0,2.3-0.6,3.4,1c0.1,0.2,0.1,0.5-0.1,0.6C423.1,92.1,423.1,92.1,423,92.1L423,92.1z"/>
		<path class="st12" d="M412,92.3c-0.2,0-0.4-0.2-0.4-0.4c0-0.1,0-0.2,0.1-0.2c0.7-0.9,1.8-1.3,2.9-0.9c0.2,0.1,0.3,0.4,0.2,0.6
			c-0.1,0.2-0.3,0.3-0.5,0.2c-0.7-0.2-1.5,0-2,0.6C412.3,92.3,412.2,92.3,412,92.3z"/>
		<path class="st14" d="M416.6,94.8c-0.8,1-1.8,2.3-0.9,3c0.5,0.4,1.2,0.5,1.8,0.3c0,0-1.5-0.5-1.2-1.7
			C416.5,95.8,416.6,95.3,416.6,94.8z"/>
		<ellipse transform="matrix(0.549 -0.8358 0.8358 0.549 116.4443 401.2258)" class="st10" cx="430" cy="92.7" rx="2.9" ry="2.1"/>
		<path class="st15" d="M416.1,99.8l4.7-0.9c0.2,0,0.3,0.1,0.3,0.2c0,0.1,0,0.2-0.1,0.2c-0.6,0.9-1.5,1.5-2.6,1.8
			c-0.9,0.1-1.9-0.3-2.6-0.9c-0.1-0.1-0.1-0.3-0.1-0.4C415.9,99.8,416,99.8,416.1,99.8z"/>
		<path class="st14" d="M429.8,94.2c-0.1,0-0.2,0-0.3-0.1c-0.4-0.5-0.5-1.1-0.3-1.7c0.2-0.7,0.8-1.2,1.5-1.3c0.2,0,0.4,0.1,0.4,0.3
			c0,0.2-0.1,0.3-0.3,0.4c-0.4,0.1-0.8,0.4-0.9,0.8c-0.1,0.3-0.1,0.7,0.1,1c0.1,0.1,0.1,0.4,0,0.5C429.9,94.2,429.8,94.3,429.8,94.2
			L429.8,94.2z"/>
		<path class="st3" d="M309.3,87.8l-63.1,58.4c-3.1,2.9-4.9,7-4.9,11.2v52.8l153.1-2v-50.8c0-4.3-1.8-8.3-4.9-11.2l-63.1-58.4
			C321.5,83.4,314.1,83.4,309.3,87.8z"/>
		<rect x="269.9" y="110.2" class="st7" width="113.1" height="93.6"/>
		<rect x="269.9" y="121" class="st16" width="82.1" height="86.3"/>
		<rect x="248.2" y="123.9" class="st15" width="100.9" height="87.9"/>
		<path class="st7" d="M330.3,145.8h-62.2c-2.4,0-4.4-2-4.4-4.4l0,0c0-2.4,2-4.4,4.4-4.4h62.2c2.4,0,4.4,2,4.4,4.4l0,0
			C334.6,143.8,332.7,145.8,330.3,145.8C330.3,145.8,330.3,145.8,330.3,145.8z"/>
		<path class="st7" d="M330.4,163h-61.1c-0.9,0-1.8-0.3-2.5-0.9c-1.8-1.4-3-3-3-4.9V157c0-2.3,1.9-4.3,4.3-4.3l0,0h62.4
			c2.3,0,4.3,1.9,4.3,4.3l0,0v0.2C334.6,159.6,332.8,161.5,330.4,163z"/>
		<path class="st7" d="M330.3,178.2h-62.2c-2.4,0-4.4-2-4.4-4.4c0,0,0,0,0,0l0,0c0-2.4,2-4.4,4.4-4.4h62.2c2.4,0,4.4,2,4.4,4.4l0,0
			C334.7,176.2,332.8,178.1,330.3,178.2C330.3,178.2,330.3,178.2,330.3,178.2z"/>
		<path class="st7" d="M329.4,196.3H269c-2.9,0-5.3-2.4-5.3-5.3l0,0l0,0c0-2.9,2.4-5.3,5.3-5.3l0,0h60.4c2.9,0,5.3,2.4,5.3,5.3l0,0
			l0,0C334.6,193.9,332.3,196.3,329.4,196.3z"/>
		<ellipse transform="matrix(0.4011 -0.916 0.916 0.4011 96.986 344.5576)" class="st9" cx="312" cy="98.1" rx="10.2" ry="10.2"/>
		<path class="st17" d="M319.7,101.5c-1.9,4.2-6.8,6.2-11,4.3c-4.2-1.9-6.2-6.8-4.3-11s6.8-6.2,11-4.3c0.9,0.4,1.7,0.9,2.4,1.6
			c0.2,0.2,0.4,0.4,0.6,0.6C320.5,95.1,321,98.5,319.7,101.5L319.7,101.5z"/>
		
			<ellipse transform="matrix(0.4011 -0.916 0.916 0.4011 47.6431 349.7319)" class="st9" cx="291.3" cy="138.4" rx="12.2" ry="12.2"/>
		<path class="st17" d="M300.4,142.4c-2.2,5-8.2,7.3-13.2,5.1c-1.3-0.6-2.5-1.5-3.5-2.6c-0.2-0.3-0.4-0.5-0.6-0.8
			c-3.1-4.6-1.9-10.8,2.7-13.9c3.9-2.6,9-2.2,12.4,1C301.3,134.1,302.2,138.6,300.4,142.4L300.4,142.4z"/>
		
			<ellipse transform="matrix(0.3987 -0.9171 0.9171 0.3987 93.5009 432.0237)" class="st9" cx="376.2" cy="144.7" rx="12.2" ry="12.2"/>
		<path class="st17" d="M385.2,150.4c-2.2,5.1-8.1,7.4-13.2,5.2s-7.4-8.1-5.2-13.2c2.2-5.1,8.1-7.4,13.2-5.2c1.1,0.5,2.1,1.1,2.9,2
			c0.2,0.2,0.5,0.5,0.7,0.8C386.1,142.8,386.7,146.9,385.2,150.4L385.2,150.4z"/>
		<path class="st15" d="M375,156.7c-1.1-0.2-1.3-0.1-1.9,0.8c0.2-1.1,0.1-1.3-0.8-1.9c1.1,0.2,1.3,0.1,1.9-0.8
			C374,155.9,374.1,156.1,375,156.7z"/>
		<polygon class="st9" points="353.3,119.6 346.4,138 324.7,195.8 322.5,201.8 316,199.4 280.1,186.1 296.7,141.9 305.2,119.3 
			305.3,119.1 329.3,110.7 		"/>
		<path class="st18" d="M321.3,115.9l16.3,6c-1.5,3.9,0.6,8.3,4.5,9.8l-20.3,53.7c-3.9-1.5-8.3,0.6-9.8,4.5l-16.3-6
			c1.5-3.9-0.6-8.3-4.5-9.8l20.3-53.7C315.5,121.8,319.9,119.8,321.3,115.9C321.3,115.9,321.3,115.9,321.3,115.9z"/>
		
			<ellipse transform="matrix(0.3471 -0.9378 0.9378 0.3471 65.8287 395.6718)" class="st9" cx="317.1" cy="150.6" rx="12.6" ry="12.6"/>
		<polygon class="st9" points="329.3,110.7 319.7,128 305.2,119.3 304.9,119.2 305.3,119.1 		"/>
		<polygon class="st19" points="303,125.1 319.7,128 305.2,119.3 		"/>
		<polygon class="st19" points="329.3,110.7 319.7,128 330.9,111.3 		"/>
		<path class="st19" d="M346.4,138l-21.7,57.9l-8.7,3.6l-36-13.3l16.6-44.3h7.7c2.9,0,5.4,4.5,6.3,10.8L346.4,138z"/>
		
			<rect x="272.5" y="151.2" transform="matrix(0.9247 -0.3807 0.3807 0.9247 -41.6667 136.9477)" class="st9" width="105.7" height="45.3"/>
		<path class="st18" d="M363.8,148.6l6.6,16.1c-3.9,1.6-5.7,6.1-4.1,9.9l-69.5,28.6c-1.6-3.9-6.1-5.7-9.9-4.1l-6.6-16.1
			c3.9-1.6,5.7-6.1,4.1-9.9l69.5-28.6C355.5,148.3,359.9,150.1,363.8,148.6z"/>
		
			<ellipse transform="matrix(0.9247 -0.3807 0.3807 0.9247 -41.4546 136.6479)" class="st9" cx="324.7" cy="173.1" rx="12.6" ry="12.6"/>
		<path class="st9" d="M309.3,161.4V206H264v-44.6h31.8c0-8.9,3-16.1,6.7-16.1S309.3,152.5,309.3,161.4L309.3,161.4z"/>
		<rect x="270.7" y="145.3" class="st18" width="31.8" height="50.1"/>
		<circle class="st9" cx="286.7" cy="173.3" r="11.3"/>
		<path class="st19" d="M309.3,161.4v4.6H264v-20.7h38.5C306.3,145.3,309.3,152.5,309.3,161.4L309.3,161.4z"/>
		<path class="st9" d="M302.6,145.3c-3.7,0-6.7,7.2-6.7,16.1h-45.3c0-8.9,3-16.1,6.7-16.1H302.6z"/>
		<path class="st18" d="M294.4,145.3c-1.6,0-3.1,1.5-3.9,3.7c-2.4,0-4.4,1.9-4.5,4.3h-22.9c-0.1-2.2-1.7-4-3.9-4.3
			c0.8-2.3,2.3-3.8,3.9-3.8L294.4,145.3z"/>
		
			<ellipse transform="matrix(0.4011 -0.916 0.916 0.4011 53.3192 431.7371)" class="st9" cx="356.9" cy="175.1" rx="13.8" ry="13.8"/>
		<path class="st17" d="M367.3,179.6c-2.5,5.7-9.2,8.3-15,5.8c-1.5-0.7-2.9-1.7-4-3c-0.3-0.3-0.5-0.6-0.7-0.9
			c-3.6-5.1-2.4-12.2,2.7-15.8c4.5-3.2,10.6-2.7,14.5,1.2c0.3,0.3,0.5,0.6,0.8,0.9C368.4,171.1,369,175.7,367.3,179.6L367.3,179.6z"
			/>
		<path class="st20" d="M364.8,166.9l-17.3,14.7c-1.7-2.4-2.3-5.3-1.9-8.2l11.3-9.6C359.8,163.7,362.6,164.9,364.8,166.9
			L364.8,166.9z"/>
		<path class="st20" d="M367.2,170.4l-16.6,14.2c-0.9-0.6-1.7-1.3-2.4-2.1l17.3-14.7C366.2,168.6,366.8,169.5,367.2,170.4z"/>
		<path class="st15" d="M351.5,163.5c-1,1.3-1.1,1.6-0.3,3c-1.2-1-1.6-1.1-3-0.3c1-1.3,1.1-1.6,0.3-3
			C349.8,164.2,350.1,164.3,351.5,163.5z"/>
		<polygon class="st21" points="394.3,256.4 241.3,256.4 241.3,157.7 317.8,200.7 394.3,157.7 		"/>
		<path class="st3" d="M309.3,193.5l-68,62.9h153.1l-68-62.9C321.5,189,314.1,189,309.3,193.5z"/>
		<path class="st8" d="M263.6,226.6c-2.9,0-5.3-2.4-5.3-5.3s2.4-5.3,5.3-5.3c2.9,0,5.3,2.4,5.3,5.3v0
			C268.9,224.2,266.5,226.6,263.6,226.6z M263.6,217.2c-2.3,0-4.1,1.9-4.1,4.1s1.9,4.1,4.1,4.1c2.3,0,4.1-1.9,4.1-4.1
			C267.7,219,265.9,217.2,263.6,217.2L263.6,217.2z"/>
		<path class="st21" d="M336.2,248c-3.4,0-6.2-2.8-6.2-6.2c0-3.4,2.8-6.2,6.2-6.2c3.4,0,6.2,2.8,6.2,6.2l0,0
			C342.5,245.2,339.7,248,336.2,248z M336.2,237c-2.7,0-4.9,2.2-4.9,4.9c0,2.7,2.2,4.8,4.9,4.8c2.7,0,4.9-2.2,4.9-4.8
			C341.1,239.1,338.9,237,336.2,237z"/>
		<path class="st8" d="M259.3,213.1c-1.6,0-2.9-1.3-2.9-2.9c0-1.6,1.3-2.9,2.9-2.9s2.9,1.3,2.9,2.9v0
			C262.2,211.8,260.9,213.1,259.3,213.1z M259.3,208.4c-1,0-1.8,0.8-1.8,1.8s0.8,1.8,1.8,1.8c1,0,1.8-0.8,1.8-1.8v0
			C261.2,209.2,260.3,208.4,259.3,208.4z"/>
		<path class="st21" d="M344.6,233.8c-1.9,0-3.4-1.5-3.4-3.4c0-1.9,1.5-3.4,3.4-3.4c1.9,0,3.4,1.5,3.4,3.4v0
			C348,232.3,346.4,233.8,344.6,233.8z M344.6,228.3c-1.2,0-2.1,1-2.1,2.1c0,1.2,1,2.2,2.1,2.2c1.2,0,2.1-1,2.1-2.1v0
			C346.7,229.3,345.8,228.3,344.6,228.3L344.6,228.3L344.6,228.3z"/>
		<circle class="st21" cx="347.3" cy="238.8" r="2.4"/>
		<path class="st8" d="M383.1,239.4c-1.8,0-3.2-1.4-3.2-3.2s1.4-3.2,3.2-3.2s3.2,1.4,3.2,3.2C386.3,238,384.9,239.4,383.1,239.4
			L383.1,239.4z M383.1,233.9c-1.3,0-2.4,1.1-2.4,2.4s1.1,2.4,2.4,2.4c1.3,0,2.4-1.1,2.4-2.4v0C385.5,235,384.4,233.9,383.1,233.9
			L383.1,233.9z"/>
		<path class="st15" d="M335.5,100.9c-2.4,0-4.4-2-4.4-4.4c0-2.4,2-4.4,4.4-4.4c2.4,0,4.4,2,4.4,4.4v0
			C339.9,98.9,338,100.9,335.5,100.9z M335.5,93.4c-1.7,0-3.1,1.4-3.1,3.1s1.4,3.1,3.1,3.1c1.7,0,3.1-1.4,3.1-3.1c0,0,0,0,0,0
			C338.6,94.8,337.2,93.4,335.5,93.4z"/>
		<path class="st10" d="M389.9,143.2c-0.8,0.2-1.5,0.4-2.3,0.5c0-0.6-0.1-2.2-1.4-2.7s-2.3-1.4-3.4-1.1v2.2h-1.1
			c0,0-3.2,0.1-3.7,1.4s1,1.7,1,1.7s0.5,3.6,3.9,3.5c3.2-0.2,6.4-0.7,9.5-1.5C391.3,146,390.5,144.7,389.9,143.2z"/>
		<path class="st4" d="M423.5,113.9c-2.8,4.9-11.5,19.3-11.5,19.3s-15.1,7.9-22,10c0.3,1.2,0.3,2.6,1.8,4.1c8.6,0.6,19.1-3.1,22-4
			c3.8-1.2,15.8-15.4,19.5-21.8c1.3-2.4,3.5-8.7-0.1-10.8C427.5,107.4,424.7,111.8,423.5,113.9z"/>
		<path class="st1" d="M342.4,49.8c-3.3,0-6-2.7-6-6s2.7-6,6-6s6,2.7,6,6C348.4,47.1,345.7,49.7,342.4,49.8z M342.4,38.9
			c-2.6,0-4.8,2.1-4.8,4.8c0,2.6,2.1,4.8,4.8,4.8c2.6,0,4.8-2.1,4.8-4.7C347.2,41.1,345.1,38.9,342.4,38.9
			C342.5,38.9,342.4,38.9,342.4,38.9z"/>
		<polygon class="st11" points="367,40.4 368.8,46.8 334,57.9 		"/>
		<polygon class="st22" points="369.8,54.3 366.1,60.1 335.6,57.4 		"/>
		<polygon class="st4" points="334,57.9 387.6,55.9 372.6,44.9 		"/>
		<polygon class="st4" points="367,40.4 334,57.9 357.8,32.7 		"/>
		<polygon class="st11" points="177.9,175.4 176.1,182.4 213.5,193.7 		"/>
		<polygon class="st22" points="175.2,190.4 179.1,196.5 211.9,193.2 		"/>
		<polygon class="st4" points="213.5,193.7 156,192.3 172,180.4 		"/>
		<polygon class="st4" points="177.9,175.4 213.5,193.7 187.7,167.1 		"/>
		<path class="st2" d="M486.6,259.4H7.5c-1.4-0.1-2.5-1.2-2.4-2.6l0,0c-0.1-1.4,1-2.6,2.4-2.6h479.1c1.4,0.1,2.5,1.2,2.4,2.6l0,0
			C489,258.1,488,259.3,486.6,259.4z"/>
		<path class="st9" d="M289.1,88.3c-0.6,2.9-4,4.7-4,4.7s-2.6-2.9-2-5.9s4-4.7,4-4.7S289.6,85.4,289.1,88.3z"/>
		<path class="st9" d="M273.8,107.3c-3.8-0.9-7.5-2.1-11.2-3.6c-5.3-2.2-10.5-5.5-13.3-10.4c-1.9-3.3-2.6-7.2-1.9-10.9
			c0.9-3.7,4-6.4,7.8-6.9c5.2-0.8,11.8,1.6,12.4,8.4c0.4,3.9-1.9,7.5-5.6,8.8c-2.8,1-5.9,0.3-7-2.5c-0.3-0.9-0.5-1.8-0.5-2.8h-0.8
			c0,1,0.2,2,0.5,3c1.3,3.2,4.8,4.1,8,3c4.1-1.4,6.7-5.4,6.3-9.7c-0.6-7.4-7.7-10.4-13.5-9.6c-4.3,0.5-7.9,3.5-9,7.8
			c-0.9,3.7,0,8.5,1.9,12c3,5.4,8.4,8.9,14,11.3c3.7,1.6,7.5,2.8,11.4,3.8L273.8,107.3z"/>
		<path class="st9" d="M245.2,99c3.1-0.8,4.8-4.1,4.8-4.1s-3.2-1.9-6.3-1.1s-4.8,4.1-4.8,4.1S242.2,99.8,245.2,99z"/>
		<path class="st9" d="M243.4,94.3c2.7,1.5,6.2,0.4,6.2,0.4s-0.9-3.5-3.6-5s-6.2-0.4-6.2-0.4S240.6,92.8,243.4,94.3z"/>
		<path class="st9" d="M272.4,80.2c-2.3-1.6-5.6-0.9-5.6-0.9s0.5,3.3,2.9,4.9s5.6,0.9,5.6,0.9S274.7,81.8,272.4,80.2z"/>
		<path class="st9" d="M265.9,87.5c1.1-1.1,1.8-2.6,1.9-4.1c-2.9-0.6-5.7,1.3-6.3,4.2c-0.1,0.3-0.1,0.7-0.1,1
			C263.1,88.8,264.6,88.4,265.9,87.5z"/>
		<path class="st9" d="M256.6,84c0-1.7-0.6-3.3-1.7-4.6c-1.3,1.1-2.2,2.6-2.5,4.3c0,1.7,0.6,3.3,1.7,4.6
			C255.4,87.1,256.3,85.6,256.6,84z"/>
		<path class="st9" d="M258.8,87.3c1.3-1.1,2.1-2.6,2.4-4.3c-3.1-0.8-6.2,1-7.1,4.1c-0.1,0.4-0.2,0.7-0.2,1.1
			C255.6,88.5,257.4,88.1,258.8,87.3z"/>
		<path class="st9" d="M263.3,74c2.4-1.6,2.9-5,2.9-5s-3.3-0.7-5.6,0.9s-2.9,5-2.9,5S261,75.6,263.3,74z"/>
		<path class="st1" d="M216,166.6c-3.3,0-6-2.7-6-6s2.7-6,6-6s6,2.7,6,6C221.9,163.9,219.3,166.6,216,166.6z M216,155.8
			c-2.6,0-4.8,2.1-4.8,4.8s2.1,4.8,4.8,4.8s4.8-2.1,4.8-4.8v0C220.8,157.9,218.6,155.8,216,155.8L216,155.8L216,155.8z"/>
		<circle class="st1" cx="221.4" cy="174.3" r="3.6"/>
		<circle class="st1" cx="327.8" cy="32.7" r="3.6"/>
		<circle class="st1" cx="457.1" cy="178.7" r="3.6"/>
		<g id="c">
			<path class="st23" d="M102.6,137.9c0,0-3.7,18.9,3.6,36.7c7.9,1.3,9.3-0.9,9.3-0.9l-0.3-27.6L102.6,137.9z"/>
			<path class="st23" d="M131.7,190.9l-14.4-15.4c0,0-3.6-6.1-11.2-0.9c0.8,4.6,7.8,12.4,18.6,20.5
				C128.6,194.8,131.7,190.9,131.7,190.9z"/>
			<polygon id="v-2" class="st10" points="116.4,129.9 116.4,129.9 118.2,133.8 109.4,139 104.9,135.5 105.1,129.6 114.6,126.1 			
				"/>
			<path class="st24" d="M81,247c4.5,5.6,14.3,0.5,14.4,8.3c-15.7,0.8-22.2,1.2-22.2,1.2c-0.1-2.6,0-5.2,0.3-7.8L81,247z"/>
			<path class="st24" d="M21.5,239.4c0.1,7.1,10.9,10.3,6.2,16.5c-12.8-9-18.5-13.5-18.5-13.5c1.6-2.4,3.4-4.6,5.2-6.7L21.5,239.4z"
				/>
			<path class="st25" d="M71.8,156.3l-21.3,9.8c0,0,15.2,32.8,24.4,43.1c1.6,1.8,11.4-0.4,12.2-2.4C90,199.5,71.8,156.3,71.8,156.3z
				"/>
			<path class="st25" d="M73.5,205.1c-4.7,14.1-2,44.4-2,44.4c4.2-0.4,8.4-1.2,12.4-2.3c1.5-24.5,3.8-35.6,3.3-44.6
				C84.8,197,76.9,197.3,73.5,205.1z"/>
			<path class="st26" d="M66.9,161l-24.5-7.3c0,0-3.2,40.2-0.9,53.9c0.4,2.4,9,5.5,10.7,4.2C58.8,207.1,66.9,161,66.9,161z"/>
			<path class="st26" d="M42.9,202.3C30.4,208.8,13.6,236,13.6,236c3.1,1.8,6.3,3.4,9.6,4.8c18.4-16.4,23.3-23.2,29.2-29
				C56.9,205.8,50.5,198.5,42.9,202.3z"/>
			<g id="v">
				<path id="h-5" class="st27" d="M100.1,122.3c0,0,4.7,4.3,6,7c0.8,9.2,4.6,8.8,4.6,8.8c2,2.2,4.5,8,4.5,8
					c-9.6,6.7-35.5,31.6-35.5,31.6s-19.1-4.4-25.8-9.6c-9.1-7.1-11.5-14.4-11.5-14.4c8-10.8,17-17.8,31.9-27.6
					C80.1,122.4,94.9,118.5,100.1,122.3z"/>
			</g>
			
				<ellipse transform="matrix(0.7202 -0.6938 0.6938 0.7202 -51.1075 122.2944)" class="st10" cx="126.1" cy="124.5" rx="15.2" ry="12"/>
			<path class="st14" d="M127.1,128.9c-0.6,1.9-1.2,4.3-1.2,4.3c-1.2,0.4-2.5,0-3.3-1c1,0.5,2.1,0.8,2.8-0.4
				S127.1,128.9,127.1,128.9z"/>
			<path class="st24" d="M121.6,109.8c6-5.3,12.4-0.9,12.4-0.9s-0.5-1.7,1.7-2.8c0.1,1.4,0.7,2.7,1.6,3.7c6.1,6.8,8.3,12.3,4.9,13.7
				c-1.2,0.5,1.8,5.6-6.6,8.5c0.5-1,3.2-3.7,2.8-5.6c-0.4-1.9-2.1,0.7-4.1-2.8s-2.2-6.7-5.3-8.1c-2.6-1-12.1,2.3-12.6,2.8
				C117.4,117,118.9,112,121.6,109.8z"/>
			<path class="st24" d="M130.8,135.9c0,0-4.1,2.1-5.7,2c1.4-1.3-2.1-4-3.3-5.4c-2.2-2.5-1.9-7.1-6.1-5.4
				c-2.7-3.3,3.9-10.2,3.9-10.2c-9.2,3.5-11.9,11.4-6.5,20.3C116.6,143.1,125.9,141,130.8,135.9z"/>
			<ellipse transform="matrix(0.7636 -0.6457 0.6457 0.7636 -50.3307 110.3268)" cx="125.5" cy="123.9" rx="1.2" ry="1.2"/>
			<ellipse transform="matrix(0.7636 -0.6457 0.6457 0.7636 -53.7586 115.9389)" cx="131.4" cy="131.4" rx="1.2" ry="1.2"/>
			<path class="st24" d="M133.7,132.3c-0.1-0.2-0.2-0.4-0.1-0.6c0.2-0.4,0.2-0.9,0-1.4c-0.3-0.4-0.7-0.7-1.2-0.9
				c-0.3-0.1-0.5-0.4-0.4-0.7s0.4-0.5,0.7-0.4l0,0c0.8,0.2,1.5,0.7,1.9,1.4c0.4,0.7,0.4,1.6,0.1,2.3c-0.1,0.3-0.4,0.5-0.7,0.4
				C133.8,132.4,133.7,132.4,133.7,132.3L133.7,132.3z"/>
			<path class="st24" d="M124.5,121.5c-0.2-0.2-0.2-0.6,0-0.8c0.1-0.1,0.2-0.1,0.4-0.1c1-0.1,2,0.2,2.8,0.9c0.5,0.5,0.8,1.2,0.8,1.9
				c0,0.3-0.3,0.6-0.6,0.6c-0.3,0-0.6-0.3-0.6-0.6c0-0.4-0.2-0.8-0.5-1.1c-0.5-0.4-1.2-0.6-1.9-0.6
				C124.8,121.7,124.6,121.6,124.5,121.5z"/>
			
				<ellipse transform="matrix(0.1253 -0.9921 0.9921 0.1253 -13.5651 217.5166)" class="st10" cx="116.6" cy="116.5" rx="3.6" ry="2.9"/>
			<path class="st14" d="M115.5,118.2c0.1,0,0.1,0.1,0.2,0.1c0.9,0.2,1.7-0.3,2.1-1.1c0.4-0.8,0.2-1.8-0.5-2.4
				c-0.2-0.2-0.5-0.1-0.6,0s-0.1,0.5,0,0.6c0.4,0.4,0.5,0.9,0.3,1.4c-0.2,0.5-0.7,0.7-1.3,0.6c-0.2,0-0.4,0.1-0.5,0.4
				C115.3,117.9,115.3,118.1,115.5,118.2L115.5,118.2z"/>
			<path class="st15" d="M118.5,130.2c0.2-0.2,0.5-0.3,0.6-0.1c1,1.9,2.3,3.7,3.8,5.2c0.2,0.2,0,0.4-0.3,0.6c-1.5,0.6-3.2,0-4.1-1.3
				C117.5,133.3,117.5,131.5,118.5,130.2z"/>
		</g>
		<path class="st17" d="M166.1,248.5v5.4c0,2.1,1.7,3.9,3.8,3.9h0h66.4c2.1,0,3.9-1.7,3.9-3.8v0v-5.4c0-2.1-1.7-3.9-3.8-3.9h0h-66.5
			C167.8,244.7,166.1,246.4,166.1,248.5L166.1,248.5L166.1,248.5z"/>
		<rect x="234.6" y="244.7" class="st9" width="1.9" height="13.1"/>
		<rect x="226.5" y="244.7" class="st9" width="1.9" height="13.1"/>
		<rect x="218.4" y="244.7" class="st9" width="1.9" height="13.1"/>
		<rect x="210.3" y="244.7" class="st9" width="1.9" height="13.1"/>
		<rect x="202.2" y="244.7" class="st9" width="1.9" height="13.1"/>
		<rect x="194.1" y="244.7" class="st9" width="1.9" height="13.1"/>
		<rect x="186" y="244.7" class="st9" width="1.9" height="13.1"/>
		<rect x="177.9" y="244.7" class="st9" width="1.9" height="13.1"/>
		<rect x="169.9" y="244.7" class="st9" width="1.9" height="13.1"/>
		<path class="st9" d="M167,246.1h72.3c-0.7-0.9-1.8-1.4-2.9-1.4h-66.5C168.8,244.7,167.7,245.2,167,246.1z"/>
		<path class="st9" d="M167,256.5h72.3c-0.7,0.9-1.8,1.4-2.9,1.4h-66.5C168.8,257.8,167.7,257.3,167,256.5z"/>
		<path class="st17" d="M161.4,235.4v5.4c0,2.1,1.7,3.9,3.8,3.9h0h66.5c2.1,0,3.9-1.7,3.9-3.8v0v-5.4c0-2.1-1.7-3.9-3.8-3.9h0h-66.5
			C163.1,231.5,161.4,233.3,161.4,235.4L161.4,235.4L161.4,235.4z"/>
		<rect x="230" y="231.5" class="st9" width="1.9" height="13.1"/>
		<rect x="221.9" y="231.5" class="st9" width="1.9" height="13.1"/>
		<rect x="213.8" y="231.5" class="st9" width="1.9" height="13.1"/>
		<rect x="205.7" y="231.5" class="st9" width="1.9" height="13.1"/>
		<rect x="197.6" y="231.5" class="st9" width="1.9" height="13.1"/>
		<rect x="189.5" y="231.5" class="st9" width="1.9" height="13.1"/>
		<rect x="181.4" y="231.5" class="st9" width="1.9" height="13.1"/>
		<rect x="173.3" y="231.5" class="st9" width="1.9" height="13.1"/>
		<rect x="165.2" y="231.5" class="st9" width="1.9" height="13.1"/>
		<path class="st9" d="M162.3,232.9h72.3c-0.7-0.9-1.8-1.4-2.9-1.4h-66.4C164.1,231.5,163.1,232,162.3,232.9z"/>
		<path class="st9" d="M162.3,243.3h72.3c-0.7,0.9-1.8,1.4-2.9,1.4h-66.4C164.1,244.7,163.1,244.2,162.3,243.3z"/>
		
			<ellipse transform="matrix(0.9516 -0.3074 0.3074 0.9516 -60.887 49.9858)" class="st9" cx="128.3" cy="218.3" rx="38.6" ry="38.6"/>
		<path class="st17" d="M98,228.1c5.4,16.7,23.3,25.8,40,20.4c4.5-1.5,8.7-3.9,12.1-7.2c0.8-0.8,1.5-1.6,2.3-2.4
			c11.4-13.3,9.8-33.4-3.5-44.8c-11.5-9.8-28.3-10.2-40.2-0.8c-0.9,0.7-1.7,1.4-2.5,2.2C97.5,203.9,94.3,216.5,98,228.1z"/>
		<path class="st20" d="M108.6,193.3l43.7,45.6c5.3-6.2,8-14.2,7.6-22.3l-28.7-29.9C123.1,186,115.1,188.4,108.6,193.3L108.6,193.3z
			"/>
		<path class="st20" d="M100.8,202.4l42.2,44c2.6-1.4,5-3.1,7.1-5.1l-44-45.8C104,197.6,102.2,199.9,100.8,202.4z"/>
		<path class="st15" d="M126.1,188.2c3.7-0.4,4.4,0,6.1,3.3c-0.4-3.7,0-4.4,3.3-6.1c-3.8,0.4-4.4,0-6.1-3.3
			C129.8,185.8,129.4,186.5,126.1,188.2z"/>
		<path class="st15" d="M139.4,247.8c3.2-0.3,3.7,0,5.2,2.8c-0.4-3.1,0-3.7,2.8-5.2c-3.2,0.3-3.7,0-5.2-2.8
			C142.5,245.8,142.2,246.3,139.4,247.8z"/>
		<path class="st10" d="M114.4,192.2c-2.3-1.3-5.6-3.6-4.8-4.8c1.2-1.8,2.8-0.5,3.9-1.8s-2.2-3.4-8.3-1.2l-0.7-0.8l-4.8,3.3l0.8,0.7
			c0.3,4.4,6.3,10.2,11.9,10.9S117.5,193.9,114.4,192.2z"/>
		<path class="st23" d="M95.4,120.8c-10.2,1.5-13.3,13.9-16.8,37.5c7.6,6.4,12.1,2.3,12.1,2.3s8.4-15.3,10.9-20.6
			C107.6,127.1,100.3,120.1,95.4,120.8z"/>
		<path class="st23" d="M105.7,183.4l-13.3-22c0,0-2.8-6.1-13.8-3c-0.9,5.7,2.9,16.1,21.1,29.9C102.5,187.6,105.7,183.4,105.7,183.4
			z"/>
	</g>
</g>
</svg>
