<?xml version="1.0" encoding="utf-8"?>
<!-- Generator: Adobe Illustrator 25.2.1, SVG Export Plug-In . SVG Version: 6.00 Build 0)  -->
<svg version="1.1" id="DESIGNED_BY_FREEPIK" xmlns="http://www.w3.org/2000/svg" xmlns:xlink="http://www.w3.org/1999/xlink"
	 x="0px" y="0px" viewBox="0 0 589 500" style="enable-background:new 0 0 589 500;" xml:space="preserve">
<style type="text/css">
	.st0{opacity:0.18;}
	.st1{fill:#C5D9FF;}
	.st2{opacity:0.41;}
	.st3{opacity:0.31;fill:#C5D9FF;}
	.st4{fill:#243762;}
	.st5{fill:#F7A9B4;}
	.st6{fill:#FFFFFF;}
	.st7{fill:#ECF1F7;}
	.st8{opacity:0.53;}
	.st9{fill:#AF9CDA;}
	.st10{fill:#F5F4F6;}
	.st11{opacity:0.4;fill:#FFFFFF;}
	.st12{fill:none;stroke:#243762;stroke-linecap:round;stroke-miterlimit:10;}
</style>
<g>
	<g>
		<g>
			<g class="st0">
				<g>
					<path class="st1" d="M570.52,315.74c0.54-9.29,0.3-18.63-0.75-27.88c-4.92-43.44-27.21-84.41-60.01-113.32
						c-11.7-10.31-25.02-19.55-32.64-33.16c-12.83-22.92-11.85-49.27-27.77-71.9c-15.94-22.66-39.16-40.33-65.35-49.41
						c-78.09-27.06-187.43,17-177.58,111.09c0.04,0.34,0.07,0.83,0.12,1.45c1.31,19.54-14.03,35.98-33.55,36.44
						c-72.05,1.71-134.07,57.26-147.34,127.63c-8.53,45.25,5.44,94.86,38.54,126.87c24.71,23.9,57.86,37.03,91.04,46.05
						c66.51,18.09,136.5,21.88,205.07,14.96c64.19-6.47,131.9-24.93,173.42-74.31C555.83,383.9,568.52,350.12,570.52,315.74z"/>
				</g>
			</g>
			<g class="st2">
				<g>
					<path class="st1" d="M531.25,303.08c0.46-7.87,0.25-15.77-0.63-23.6c-4.17-36.78-23.03-71.45-50.8-95.92
						c-9.91-8.73-21.18-16.55-27.63-28.07c-10.86-19.4-10.03-41.71-23.51-60.87c-13.49-19.18-33.15-34.14-55.32-41.82
						c-66.11-22.91-158.66,14.39-150.32,94.04c0.03,0.29,0.06,0.7,0.1,1.23c1.11,16.54-11.88,30.45-28.4,30.85
						C133.73,180.36,81.23,227.38,70,286.95c-7.22,38.31,4.61,80.3,32.63,107.4c20.92,20.23,48.98,31.34,77.06,38.98
						c56.3,15.31,115.54,18.52,173.59,12.67c54.34-5.48,111.65-21.1,146.8-62.91C518.82,360.78,529.56,332.18,531.25,303.08z"/>
				</g>
			</g>
			<path class="st3" d="M93.15,116.67c-1.09,11.58-11.37,20.08-22.95,18.98c-11.58-1.09-20.08-11.37-18.98-22.95
				c1.09-11.58,11.37-20.08,22.95-18.98C85.75,94.82,94.25,105.09,93.15,116.67z"/>
			<path class="st3" d="M518.55,80.95c-0.38,4.03-3.95,6.98-7.98,6.6c-4.03-0.38-6.98-3.95-6.6-7.98c0.38-4.03,3.95-6.98,7.98-6.6
				C515.98,73.35,518.93,76.92,518.55,80.95z"/>
			
				<ellipse transform="matrix(0.1606 -0.987 0.987 0.1606 50.0841 246.1498)" class="st3" cx="169.76" cy="93.63" rx="14.18" ry="14.18"/>
			<path class="st3" d="M62.46,466.38c0,3.96-3.21,7.17-7.17,7.17c-3.96,0-7.17-3.21-7.17-7.17c0-3.96,3.21-7.17,7.17-7.17
				C59.25,459.21,62.46,462.42,62.46,466.38z"/>
		</g>
	</g>
	<g>
		<g>
			<path class="st4" d="M424.66,153.72H301.79c-3.55,0-6.44-2.3-6.44-5.12V67.01c0-2.82,2.89-5.12,6.44-5.12h122.87
				c3.55,0,6.44,2.3,6.44,5.12v81.59C431.1,151.42,428.21,153.72,424.66,153.72z M301.79,63.41c-2.71,0-4.91,1.61-4.91,3.6v81.59
				c0,1.98,2.2,3.6,4.91,3.6h122.87c2.71,0,4.92-1.61,4.92-3.6V67.01c0-1.98-2.21-3.6-4.92-3.6H301.79z"/>
			<rect x="296.11" y="78.52" class="st4" width="133.41" height="1.52"/>
			<path class="st4" d="M305.8,74.58c-1.58,0-2.87-1.29-2.87-2.87c0-1.58,1.29-2.87,2.87-2.87c1.58,0,2.87,1.29,2.87,2.87
				C308.67,73.29,307.38,74.58,305.8,74.58z M305.8,70.36c-0.74,0-1.35,0.6-1.35,1.35c0,0.74,0.6,1.35,1.35,1.35
				c0.74,0,1.35-0.6,1.35-1.35C307.15,70.96,306.54,70.36,305.8,70.36z"/>
			<path class="st4" d="M313.71,74.58c-1.58,0-2.87-1.29-2.87-2.87c0-1.58,1.29-2.87,2.87-2.87c1.58,0,2.87,1.29,2.87,2.87
				C316.59,73.29,315.3,74.58,313.71,74.58z M313.71,70.36c-0.74,0-1.35,0.6-1.35,1.35c0,0.74,0.6,1.35,1.35,1.35
				c0.74,0,1.35-0.6,1.35-1.35C315.06,70.96,314.46,70.36,313.71,70.36z"/>
			<path class="st4" d="M321.48,74.58c-1.58,0-2.87-1.29-2.87-2.87c0-1.58,1.29-2.87,2.87-2.87c1.58,0,2.87,1.29,2.87,2.87
				C324.35,73.29,323.07,74.58,321.48,74.58z M321.48,70.36c-0.74,0-1.35,0.6-1.35,1.35c0,0.74,0.6,1.35,1.35,1.35
				c0.74,0,1.35-0.6,1.35-1.35C322.83,70.96,322.23,70.36,321.48,70.36z"/>
		</g>
		<g>
			<path class="st5" d="M278.03,55.57h-24.4h-16.07H226c-1.41,0-2.54,1.14-2.54,2.54v28.16c0,1.41,1.14,2.54,2.54,2.54h12.34
				c0.07,0.01,0.14,0.02,0.21,0.02h15.62c0.18,0,0.35,0.07,0.48,0.21l12.98,13.74c0.42,0.44,1.13,0.13,1.13-0.5V89.54
				c0-0.39,0.3-0.7,0.66-0.7h8.61c1.17,0,2.12-1,2.12-2.24V57.81C280.15,56.57,279.2,55.57,278.03,55.57z"/>
			<g>
				<path class="st6" d="M232.04,64.84h39.52c0.26,0,0.47-0.21,0.47-0.47c0-0.26-0.21-0.47-0.47-0.47h-39.52
					c-0.26,0-0.47,0.21-0.47,0.47C231.57,64.63,231.78,64.84,232.04,64.84z"/>
				<path class="st6" d="M245.38,80.12h26.18c0.26,0,0.47-0.21,0.47-0.47s-0.21-0.47-0.47-0.47h-26.18c-0.26,0-0.47,0.21-0.47,0.47
					S245.13,80.12,245.38,80.12z"/>
				<path class="st6" d="M253.56,72.16h18c0.26,0,0.47-0.21,0.47-0.47c0-0.26-0.21-0.47-0.47-0.47h-18c-0.26,0-0.47,0.21-0.47,0.47
					C253.09,71.95,253.3,72.16,253.56,72.16z"/>
				<path class="st6" d="M231.91,72.16h18c0.26,0,0.47-0.21,0.47-0.47c0-0.26-0.21-0.47-0.47-0.47h-18c-0.26,0-0.47,0.21-0.47,0.47
					C231.44,71.95,231.65,72.16,231.91,72.16z"/>
			</g>
		</g>
	</g>
	<g>
		<g>
			<g>
				<path class="st7" d="M398.81,358.5H118.56c-7.15,0-12.95-5.2-12.95-11.61v-195.3v-21.98c0-6.41,5.8-11.61,12.95-11.61h280.25
					c7.15,0,12.95,5.2,12.95,11.61v217.28C411.76,353.3,405.96,358.5,398.81,358.5z"/>
				<path class="st4" d="M398.81,359.36H118.56c-7.61,0-13.81-5.59-13.81-12.47V129.61c0-6.88,6.19-12.47,13.81-12.47h280.25
					c7.61,0,13.81,5.59,13.81,12.47v217.28C412.62,353.76,406.42,359.36,398.81,359.36z M118.56,118.86
					c-6.67,0-12.09,4.82-12.09,10.75v217.28c0,5.93,5.42,10.75,12.09,10.75h280.25c6.67,0,12.09-4.82,12.09-10.75V129.61
					c0-5.93-5.42-10.75-12.09-10.75H118.56z"/>
			</g>
			<g class="st8">
				<path class="st6" d="M383.18,354.34H134.39c-6.35,0-11.5-5.11-11.5-11.41V151v-21.6c0-6.3,5.15-11.41,11.5-11.41h248.79
					c6.35,0,11.5,5.11,11.5,11.41v213.52C394.68,349.23,389.53,354.34,383.18,354.34z"/>
			</g>
			<g>
				<rect x="351.65" y="302.88" class="st5" width="13.67" height="10.43"/>
				<g>
					<rect x="337.98" y="302.88" class="st1" width="13.67" height="10.43"/>
				</g>
				<rect x="365.31" y="302.88" class="st9" width="13.67" height="10.43"/>
				<rect x="310.65" y="302.88" class="st5" width="13.67" height="10.43"/>
				<g>
					<rect x="296.98" y="302.88" class="st1" width="13.67" height="10.43"/>
				</g>
				<rect x="324.32" y="302.88" class="st9" width="13.67" height="10.43"/>
			</g>
			<g>
				<rect x="351.65" y="323.97" class="st5" width="13.67" height="10.43"/>
				<g>
					<rect x="337.98" y="323.97" class="st1" width="13.67" height="10.43"/>
				</g>
				<rect x="365.31" y="323.97" class="st9" width="13.67" height="10.43"/>
				<rect x="310.65" y="323.97" class="st5" width="13.67" height="10.43"/>
				<g>
					<rect x="296.98" y="323.97" class="st1" width="13.67" height="10.43"/>
				</g>
				<rect x="324.32" y="323.97" class="st9" width="13.67" height="10.43"/>
			</g>
			<g>
				<rect x="351.65" y="281.8" class="st5" width="13.67" height="10.43"/>
				<g>
					<rect x="337.98" y="281.8" class="st1" width="13.67" height="10.43"/>
				</g>
				<rect x="365.31" y="281.8" class="st9" width="13.67" height="10.43"/>
				<rect x="310.65" y="281.8" class="st5" width="13.67" height="10.43"/>
				<g>
					<rect x="296.98" y="281.8" class="st1" width="13.67" height="10.43"/>
				</g>
				<rect x="324.32" y="281.8" class="st9" width="13.67" height="10.43"/>
			</g>
			<g>
				<rect x="351.65" y="262.04" class="st5" width="13.67" height="10.43"/>
				<g>
					<rect x="337.98" y="262.04" class="st1" width="13.67" height="10.43"/>
				</g>
				<rect x="365.31" y="262.04" class="st9" width="13.67" height="10.43"/>
				<rect x="310.65" y="262.04" class="st5" width="13.67" height="10.43"/>
				<g>
					<rect x="296.98" y="262.04" class="st1" width="13.67" height="10.43"/>
				</g>
				<rect x="324.32" y="262.04" class="st9" width="13.67" height="10.43"/>
			</g>
			<g>
				<g>
					<rect x="232.84" y="295.64" class="st1" width="13.95" height="41.73"/>
				</g>
				<rect x="250.02" y="277.11" class="st5" width="13.95" height="60.26"/>
				<rect x="267.61" y="263.32" class="st9" width="13.95" height="74.05"/>
			</g>
			<g>
				<path class="st9" d="M105.61,156.16v-26.55c0-6.41,5.8-11.61,12.95-11.61h280.25c7.15,0,12.95,5.2,12.95,11.61v26.31
					L105.61,156.16z"/>
				<path class="st4" d="M104.75,157.02v-27.41c0-6.88,6.19-12.47,13.81-12.47h280.25c7.61,0,13.81,5.59,13.81,12.47v27.17
					L104.75,157.02z M118.56,118.86c-6.67,0-12.09,4.82-12.09,10.75v25.69l304.43-0.24v-25.45c0-5.93-5.42-10.75-12.09-10.75H118.56
					z"/>
			</g>
			<g>
				<circle class="st9" cx="127.71" cy="138.65" r="4.81"/>
				<path class="st10" d="M127.71,144.32c-3.13,0-5.67-2.54-5.67-5.67s2.54-5.67,5.67-5.67c3.13,0,5.67,2.54,5.67,5.67
					S130.84,144.32,127.71,144.32z M127.71,134.7c-2.18,0-3.95,1.77-3.95,3.95c0,2.18,1.77,3.95,3.95,3.95
					c2.18,0,3.95-1.77,3.95-3.95C131.66,136.47,129.89,134.7,127.71,134.7z"/>
			</g>
			<g>
				<circle class="st9" cx="145.77" cy="138.65" r="4.81"/>
				<path class="st10" d="M145.77,144.32c-3.13,0-5.67-2.54-5.67-5.67s2.54-5.67,5.67-5.67s5.67,2.54,5.67,5.67
					S148.89,144.32,145.77,144.32z M145.77,134.7c-2.18,0-3.95,1.77-3.95,3.95c0,2.18,1.77,3.95,3.95,3.95
					c2.18,0,3.95-1.77,3.95-3.95C149.72,136.47,147.95,134.7,145.77,134.7z"/>
			</g>
			<g>
				<circle class="st9" cx="163.48" cy="138.65" r="4.81"/>
				<path class="st10" d="M163.48,144.32c-3.13,0-5.67-2.54-5.67-5.67s2.54-5.67,5.67-5.67c3.13,0,5.67,2.54,5.67,5.67
					S166.61,144.32,163.48,144.32z M163.48,134.7c-2.18,0-3.95,1.77-3.95,3.95c0,2.18,1.77,3.95,3.95,3.95
					c2.18,0,3.95-1.77,3.95-3.95C167.44,136.47,165.66,134.7,163.48,134.7z"/>
			</g>
			<path class="st9" d="M175.78,217.4v-36.76c-20.3,0-36.76,16.46-36.76,36.76s16.46,36.76,36.76,36.76s36.76-16.46,36.76-36.76
				H175.78z"/>
			<path class="st5" d="M211.24,213.35c0-17.35-14.06-31.41-31.41-31.41v31.41H211.24z"/>
			<g>
				<g>
					<g>
						<path class="st6" d="M369.19,195.54H233.42c-1.68,0-3.05-1.36-3.05-3.05l0,0c0-1.68,1.36-3.05,3.05-3.05h135.77
							c1.68,0,3.05,1.36,3.05,3.05l0,0C372.24,194.18,370.87,195.54,369.19,195.54z"/>
						<path class="st4" d="M369.19,196.4H233.42c-2.15,0-3.91-1.75-3.91-3.91c0-2.15,1.75-3.91,3.91-3.91h135.77
							c2.15,0,3.91,1.75,3.91,3.91C373.09,194.65,371.34,196.4,369.19,196.4z M233.42,190.31c-1.21,0-2.19,0.98-2.19,2.19
							c0,1.21,0.98,2.19,2.19,2.19h135.77c1.21,0,2.19-0.98,2.19-2.19c0-1.21-0.98-2.19-2.19-2.19H233.42z"/>
					</g>
					<g>
						<path class="st6" d="M369.19,220.45H233.42c-1.68,0-3.05-1.36-3.05-3.05l0,0c0-1.68,1.36-3.05,3.05-3.05h135.77
							c1.68,0,3.05,1.36,3.05,3.05l0,0C372.24,219.08,370.87,220.45,369.19,220.45z"/>
						<path class="st4" d="M369.19,221.31H233.42c-2.15,0-3.91-1.75-3.91-3.91c0-2.15,1.75-3.91,3.91-3.91h135.77
							c2.15,0,3.91,1.75,3.91,3.91C373.09,219.55,371.34,221.31,369.19,221.31z M233.42,215.21c-1.21,0-2.19,0.98-2.19,2.19
							c0,1.21,0.98,2.19,2.19,2.19h135.77c1.21,0,2.19-0.98,2.19-2.19c0-1.21-0.98-2.19-2.19-2.19H233.42z"/>
					</g>
					<g>
						<path class="st6" d="M369.19,242.1H233.42c-1.68,0-3.05-1.36-3.05-3.05l0,0c0-1.68,1.36-3.05,3.05-3.05h135.77
							c1.68,0,3.05,1.36,3.05,3.05l0,0C372.24,240.73,370.87,242.1,369.19,242.1z"/>
						<path class="st4" d="M369.19,242.96H233.42c-2.15,0-3.91-1.75-3.91-3.91s1.75-3.91,3.91-3.91h135.77
							c2.15,0,3.91,1.75,3.91,3.91S371.34,242.96,369.19,242.96z M233.42,236.86c-1.21,0-2.19,0.98-2.19,2.19s0.98,2.19,2.19,2.19
							h135.77c1.21,0,2.19-0.98,2.19-2.19s-0.98-2.19-2.19-2.19H233.42z"/>
					</g>
				</g>
			</g>
		</g>
	</g>
	<g>
		<path class="st4" d="M22.69,411.34c5.94-16.76,12.35-33.32,18.92-49.81c3.26-8.25,6.68-16.44,10.01-24.66l10.29-24.53
			c3.42-8.18,7.03-16.28,10.53-24.42l1.32-3.05l0.66-1.52c0.28-0.6,0.25-0.69,1.04-2.22c1.29-2.41,3.24-4.58,5.56-6.11
			c2.32-1.55,4.99-2.5,7.73-2.78c2.74-0.28,5.59,0.1,8.2,1.17c1.3,0.54,2.53,1.23,3.66,2.04c0.54,0.42,1.07,0.86,1.58,1.31
			l0.63,0.59l4.86,4.53l38.9,36.27l19.45,18.14l9.73,9.07l2.43,2.27c0.32,0.31,0.11,0.07,0.06,0.04c-0.09-0.05-0.17-0.12-0.26-0.2
			c-0.19-0.11-0.4-0.24-0.62-0.32c-0.92-0.34-1.8-0.27-2.62,0.14c-0.41,0.21-0.8,0.54-1.08,0.91c-0.06,0.1-0.12,0.2-0.19,0.28
			c-0.04,0.05-0.16,0.35,0.03-0.05l0.73-1.49l2.93-5.97l5.85-11.94l11.73-23.87l23.52-47.71l11.76-23.85l5.88-11.93l2.94-5.96
			l0.73-1.49l0.18-0.37l0.43-0.8c0.35-0.61,0.68-1.21,1.1-1.78c1.61-2.33,3.87-4.31,6.39-5.66c5.05-2.71,11.12-2.99,16.42-0.68
			c2.64,1.15,5.01,2.98,6.8,5.12l0.65,0.82l0.42,0.57l0.48,0.68l0.96,1.35l7.7,10.84l15.35,21.72l30.7,43.43l30.7,43.43l15.35,21.72
			l0.96,1.36l0.12,0.17c0.02,0.03-0.02-0.04-0.03-0.05c-0.03-0.05-0.07-0.1-0.11-0.15c-0.09-0.08-0.18-0.17-0.26-0.28
			c-0.39-0.38-0.93-0.69-1.44-0.88c-1.06-0.36-2.08-0.24-3.07,0.32c-0.49,0.28-0.94,0.7-1.22,1.13c-0.07,0.09-0.15,0.23-0.17,0.3
			l0.4-0.73l0.79-1.46l3.17-5.85c16.82-31.22,33.94-62.27,50.92-93.4l25.52-46.67l25.67-46.59c2.75-4.99,9.02-6.8,14-4.05
			c4.93,2.72,6.76,8.89,4.13,13.85l-24.92,46.99l-25.07,46.91c-16.74,31.26-33.35,62.59-50.25,93.76l-3.16,5.85l-0.79,1.46
			l-0.39,0.73c-0.31,0.54-0.68,1.15-1.05,1.71c-1.54,2.25-3.62,4.23-6.02,5.65c-4.81,2.85-10.65,3.39-15.89,1.61
			c-2.62-0.88-5.08-2.41-7.05-4.34c-0.51-0.47-0.97-0.98-1.39-1.51l-0.63-0.79l-0.41-0.55l-0.96-1.36l-15.38-21.7l-30.76-43.4
			l-30.76-43.4l-15.38-21.7l-7.66-10.87l-0.96-1.36l-0.48-0.68l-0.12-0.17c-0.01-0.01,0.03,0.05,0.04,0.07
			c0.04,0.06,0.08,0.12,0.13,0.17c0.37,0.45,0.95,0.88,1.56,1.14c1.23,0.52,2.44,0.47,3.59-0.14c0.57-0.3,1.09-0.81,1.45-1.3
			c0.08-0.14,0.18-0.23,0.24-0.37l0.04-0.1c0.02-0.04,0.03-0.08-0.02,0.02l-0.19,0.37l-0.74,1.49l-2.97,5.95l-5.94,11.9
			l-11.89,23.79l-23.77,47.58l-11.92,23.78l-5.97,11.88l-2.99,5.94l-0.75,1.49c-0.04,0.1-0.46,0.88-0.77,1.41
			c-0.32,0.57-0.69,1.13-1.1,1.66c-1.59,2.15-3.69,3.97-6.05,5.24c-4.7,2.57-10.42,2.97-15.48,1.04c-1.25-0.48-2.47-1.09-3.58-1.83
			c-0.57-0.36-1.1-0.75-1.6-1.18c-0.48-0.39-1.12-0.97-1.2-1.05l-2.41-2.29l-9.64-9.16L132,333.64l-38.54-36.65l-4.82-4.58
			l-0.58-0.55c0.09,0.1,0.19,0.18,0.31,0.25c0.22,0.17,0.48,0.32,0.76,0.42c0.56,0.22,1.14,0.3,1.68,0.24
			c1.05-0.08,2.16-0.85,2.65-1.84l-2.47,5.31c-3.74,8.04-7.38,16.12-11.21,24.12l-11.45,24.01c-3.92,7.96-7.75,15.96-11.74,23.88
			c-7.93,15.88-16.02,31.68-24.57,47.28c-1.36,2.49-4.48,3.4-6.97,2.03C22.82,416.33,21.86,413.67,22.69,411.34z"/>
		<path class="st4" d="M505.65,233.5c-4.84,0-9.16-3.43-10.11-8.36l-11.46-59.44l-49.1,19.1c-5.3,2.06-11.28-0.56-13.34-5.87
			c-2.06-5.3,0.56-11.28,5.87-13.34l72.13-28.06l16.14,83.71c1.08,5.59-2.58,10.99-8.17,12.07
			C506.96,233.44,506.3,233.5,505.65,233.5z"/>
	</g>
	<g>
		<g>
			<g>
				<g>
					<path class="st6" d="M487.75,422.33H314.44c-4.42,0-8.01-2.75-8.01-6.15V312.75v-11.64c0-3.4,3.59-6.15,8.01-6.15h173.31
						c4.42,0,8.01,2.75,8.01,6.15v115.08C495.76,419.58,492.17,422.33,487.75,422.33z"/>
					<path class="st4" d="M487.75,423.19H314.44c-4.89,0-8.87-3.14-8.87-7.01V301.11c0-3.86,3.98-7.01,8.87-7.01h173.31
						c4.89,0,8.87,3.14,8.87,7.01v115.08C496.62,420.05,492.64,423.19,487.75,423.19z M314.44,295.82c-3.94,0-7.15,2.37-7.15,5.29
						v115.08c0,2.92,3.21,5.29,7.15,5.29h173.31c3.94,0,7.15-2.37,7.15-5.29V301.11c0-2.92-3.21-5.29-7.15-5.29H314.44z"/>
				</g>
				<g>
					<path class="st5" d="M306.44,318.41v-17.3c0-3.4,3.59-6.15,8.01-6.15h173.31c4.42,0,8.01,2.75,8.01,6.15v17.3"/>
					<path class="st4" d="M496.62,318.41h-1.72v-17.3c0-2.92-3.21-5.29-7.15-5.29H314.44c-3.94,0-7.15,2.37-7.15,5.29v17.3h-1.72
						v-17.3c0-3.86,3.98-7.01,8.87-7.01h173.31c4.89,0,8.87,3.14,8.87,7.01V318.41z"/>
				</g>
				<g>
					<rect x="306.44" y="317.55" class="st4" width="188.18" height="1.72"/>
				</g>
				<g>
					<path class="st6" d="M323.08,307.73c0,1.64-1.33,2.98-2.98,2.98c-1.64,0-2.98-1.33-2.98-2.98c0-1.64,1.33-2.98,2.98-2.98
						C321.74,304.75,323.08,306.09,323.08,307.73z"/>
					<path class="st4" d="M320.1,311.56c-2.12,0-3.84-1.72-3.84-3.83c0-2.12,1.72-3.83,3.84-3.83c2.11,0,3.83,1.72,3.83,3.83
						C323.94,309.85,322.22,311.56,320.1,311.56z M320.1,305.61c-1.17,0-2.12,0.95-2.12,2.12c0,1.17,0.95,2.12,2.12,2.12
						c1.17,0,2.12-0.95,2.12-2.12C322.22,306.56,321.27,305.61,320.1,305.61z"/>
				</g>
				<g>
					<path class="st6" d="M334.24,307.73c0,1.64-1.33,2.98-2.98,2.98c-1.64,0-2.98-1.33-2.98-2.98c0-1.64,1.33-2.98,2.98-2.98
						C332.91,304.75,334.24,306.09,334.24,307.73z"/>
					<path class="st4" d="M331.27,311.56c-2.12,0-3.84-1.72-3.84-3.83c0-2.12,1.72-3.83,3.84-3.83c2.11,0,3.83,1.72,3.83,3.83
						C335.1,309.85,333.38,311.56,331.27,311.56z M331.27,305.61c-1.17,0-2.12,0.95-2.12,2.12c0,1.17,0.95,2.12,2.12,2.12
						c1.17,0,2.12-0.95,2.12-2.12C333.39,306.56,332.44,305.61,331.27,305.61z"/>
				</g>
				<g>
					<path class="st6" d="M345.2,307.73c0,1.64-1.33,2.98-2.98,2.98c-1.64,0-2.98-1.33-2.98-2.98c0-1.64,1.33-2.98,2.98-2.98
						C343.87,304.75,345.2,306.09,345.2,307.73z"/>
					<path class="st4" d="M342.22,311.56c-2.11,0-3.83-1.72-3.83-3.83c0-2.12,1.72-3.83,3.83-3.83c2.12,0,3.84,1.72,3.84,3.83
						C346.06,309.85,344.34,311.56,342.22,311.56z M342.22,305.61c-1.17,0-2.12,0.95-2.12,2.12c0,1.17,0.95,2.12,2.12,2.12
						c1.17,0,2.12-0.95,2.12-2.12C344.34,306.56,343.39,305.61,342.22,305.61z"/>
				</g>
				<g>
					<g>
						<polygon class="st4" points="418.79,390.2 417.07,390.2 417.07,372.22 442.6,372.22 442.6,350.95 444.32,350.95 
							444.32,373.94 418.79,373.94 						"/>
						<polygon class="st4" points="469.86,390.2 468.14,390.2 468.14,373.94 442.6,373.94 442.6,350.95 444.32,350.95 
							444.32,372.22 469.86,372.22 						"/>
						<rect x="442.6" y="365.96" class="st4" width="1.72" height="24.24"/>
						<g>
							<path class="st1" d="M417.86,399.16L417.86,399.16c-4.07,0-7.38-3.3-7.38-7.38l0,0c0-4.07,3.3-7.38,7.38-7.38l0,0
								c4.07,0,7.38,3.3,7.38,7.38l0,0C425.24,395.86,421.94,399.16,417.86,399.16z"/>
							<path class="st4" d="M417.86,400.02c-4.54,0-8.24-3.69-8.24-8.23c0-4.54,3.69-8.23,8.24-8.23c4.54,0,8.23,3.69,8.23,8.23
								C426.1,396.32,422.41,400.02,417.86,400.02z M417.86,385.26c-3.59,0-6.52,2.92-6.52,6.52s2.92,6.52,6.52,6.52
								c3.59,0,6.52-2.92,6.52-6.52S421.46,385.26,417.86,385.26z"/>
						</g>
						<g>
							<path class="st5" d="M443.46,399.16L443.46,399.16c-4.07,0-7.38-3.3-7.38-7.38l0,0c0-4.07,3.3-7.38,7.38-7.38l0,0
								c4.07,0,7.38,3.3,7.38,7.38l0,0C450.84,395.86,447.54,399.16,443.46,399.16z"/>
							<path class="st4" d="M443.46,400.02c-4.54,0-8.24-3.69-8.24-8.23c0-4.54,3.69-8.23,8.24-8.23c4.54,0,8.24,3.69,8.24,8.23
								C451.7,396.32,448,400.02,443.46,400.02z M443.46,385.26c-3.59,0-6.52,2.92-6.52,6.52s2.92,6.52,6.52,6.52
								c3.59,0,6.52-2.92,6.52-6.52S447.06,385.26,443.46,385.26z"/>
						</g>
						<g>
							<path class="st1" d="M469,399.16L469,399.16c-4.07,0-7.38-3.3-7.38-7.38l0,0c0-4.07,3.3-7.38,7.38-7.38l0,0
								c4.07,0,7.38,3.3,7.38,7.38l0,0C476.37,395.86,473.07,399.16,469,399.16z"/>
							<path class="st4" d="M469,400.02c-4.54,0-8.24-3.69-8.24-8.23c0-4.54,3.69-8.23,8.24-8.23c4.54,0,8.23,3.69,8.23,8.23
								C477.23,396.32,473.54,400.02,469,400.02z M469,385.26c-3.59,0-6.52,2.92-6.52,6.52s2.92,6.52,6.52,6.52
								c3.59,0,6.52-2.92,6.52-6.52S472.59,385.26,469,385.26z"/>
						</g>
						<g>
							<path class="st5" d="M448.12,360.17h-9.31c-6.87,0-12.45-5.57-12.45-12.45l0,0c0-6.87,5.57-12.45,12.45-12.45h9.31
								c6.87,0,12.45,5.57,12.45,12.45l0,0C460.57,354.6,454.99,360.17,448.12,360.17z"/>
							<path class="st4" d="M448.12,361.03h-9.31c-7.34,0-13.31-5.97-13.31-13.31c0-7.34,5.97-13.31,13.31-13.31h9.31
								c7.34,0,13.31,5.97,13.31,13.31C461.43,355.06,455.46,361.03,448.12,361.03z M438.81,336.13c-6.39,0-11.59,5.2-11.59,11.59
								c0,6.39,5.2,11.59,11.59,11.59h9.31c6.39,0,11.59-5.2,11.59-11.59c0-6.39-5.2-11.59-11.59-11.59H438.81z"/>
						</g>
					</g>
				</g>
				<g>
					<g>
						<path class="st6" d="M394.78,349.49h-69.26c-0.39,0-0.71-0.32-0.71-0.71v-14.73c0-0.39,0.32-0.71,0.71-0.71h69.26
							c0.39,0,0.71,0.32,0.71,0.71v14.73C395.48,349.18,395.17,349.49,394.78,349.49z"/>
						<path class="st4" d="M394.78,350.35h-69.26c-0.86,0-1.57-0.7-1.57-1.57v-14.73c0-0.86,0.7-1.56,1.57-1.56h69.26
							c0.86,0,1.57,0.7,1.57,1.56v14.73C396.34,349.65,395.64,350.35,394.78,350.35z M325.67,348.63h68.96v-14.43h-68.96V348.63z"/>
					</g>
					<g>
						<path class="st6" d="M378.27,349.49h-52.76c-0.39,0-0.71-0.32-0.71-0.71v-14.73c0-0.39,0.32-0.71,0.71-0.71h52.76
							c0.39,0,0.71,0.32,0.71,0.71v14.73C378.98,349.18,378.66,349.49,378.27,349.49z"/>
						<path class="st4" d="M378.27,350.35h-52.76c-0.86,0-1.57-0.7-1.57-1.57v-14.73c0-0.86,0.7-1.56,1.57-1.56h52.76
							c0.86,0,1.57,0.7,1.57,1.56v14.73C379.84,349.65,379.14,350.35,378.27,350.35z M325.67,348.63h52.46v-14.43h-52.46V348.63z"/>
					</g>
					<g>
						<path class="st6" d="M344.49,349.49h-18.98c-0.39,0-0.71-0.32-0.71-0.71v-14.73c0-0.39,0.32-0.71,0.71-0.71h18.98
							c0.39,0,0.71,0.32,0.71,0.71v14.73C345.2,349.18,344.88,349.49,344.49,349.49z"/>
						<path class="st4" d="M344.49,350.35h-18.98c-0.86,0-1.57-0.7-1.57-1.57v-14.73c0-0.86,0.7-1.56,1.57-1.56h18.98
							c0.86,0,1.57,0.7,1.57,1.56v14.73C346.06,349.65,345.36,350.35,344.49,350.35z M325.67,348.63h18.68v-14.43h-18.68V348.63z"/>
					</g>
					<path class="st4" d="M357.81,367.75h-33.01c-0.47,0-0.86-0.38-0.86-0.86s0.38-0.86,0.86-0.86h33.01c0.47,0,0.86,0.38,0.86,0.86
						S358.29,367.75,357.81,367.75z"/>
					<path class="st4" d="M395.48,367.75h-33.01c-0.47,0-0.86-0.38-0.86-0.86s0.38-0.86,0.86-0.86h33.01c0.47,0,0.86,0.38,0.86,0.86
						S395.96,367.75,395.48,367.75z"/>
					<path class="st4" d="M357.81,381.99h-33.01c-0.47,0-0.86-0.38-0.86-0.86c0-0.47,0.38-0.86,0.86-0.86h33.01
						c0.47,0,0.86,0.38,0.86,0.86C358.67,381.61,358.29,381.99,357.81,381.99z"/>
					<path class="st4" d="M395.48,381.99h-33.01c-0.47,0-0.86-0.38-0.86-0.86c0-0.47,0.38-0.86,0.86-0.86h33.01
						c0.47,0,0.86,0.38,0.86,0.86C396.34,381.61,395.96,381.99,395.48,381.99z"/>
					<path class="st4" d="M357.81,395.69h-33.01c-0.47,0-0.86-0.38-0.86-0.86c0-0.47,0.38-0.86,0.86-0.86h33.01
						c0.47,0,0.86,0.38,0.86,0.86C358.67,395.31,358.29,395.69,357.81,395.69z"/>
					<path class="st4" d="M395.48,395.69h-33.01c-0.47,0-0.86-0.38-0.86-0.86c0-0.47,0.38-0.86,0.86-0.86h33.01
						c0.47,0,0.86,0.38,0.86,0.86C396.34,395.31,395.96,395.69,395.48,395.69z"/>
				</g>
			</g>
		</g>
		<g>
			<path class="st6" d="M480.8,265.05H357.66c-1.53,0-2.77-1.24-2.77-2.77v-35.79c0-1.53,1.24-2.77,2.77-2.77H480.8
				c1.53,0,2.77,1.24,2.77,2.77v35.79C483.57,263.81,482.33,265.05,480.8,265.05z"/>
			<path class="st9" d="M484.42,263.09h-1.72v-37.4c0-0.61-0.5-1.11-1.11-1.11h-97.54v-1.72h97.54c1.56,0,2.82,1.27,2.82,2.82
				V263.09z"/>
			<g>
				<path class="st5" d="M385.88,243.61c0,5.17-4.19,9.36-9.36,9.36c-5.17,0-9.36-4.19-9.36-9.36s4.19-9.36,9.36-9.36
					C381.7,234.25,385.88,238.44,385.88,243.61z"/>
				<path class="st4" d="M376.53,256.91c-7.34,0-13.31-5.97-13.31-13.31c0-7.34,5.97-13.31,13.31-13.31
					c7.34,0,13.31,5.97,13.31,13.31C389.84,250.94,383.87,256.91,376.53,256.91z M376.53,231.21c-6.84,0-12.4,5.56-12.4,12.4
					c0,6.84,5.56,12.4,12.4,12.4c6.84,0,12.4-5.56,12.4-12.4C388.93,236.77,383.36,231.21,376.53,231.21z"/>
				<path class="st4" d="M375.46,247.28l-4.38-6.06c-0.15-0.2-0.1-0.49,0.1-0.64c0.2-0.15,0.49-0.1,0.64,0.1l3.76,5.2l16.53-16.54
					c0.18-0.18,0.47-0.18,0.64,0c0.18,0.18,0.18,0.47,0,0.64L375.46,247.28z"/>
			</g>
			<g>
				<path class="st4" d="M466.93,238.42H401.1c-0.47,0-0.86-0.38-0.86-0.86c0-0.47,0.38-0.86,0.86-0.86h65.84
					c0.47,0,0.86,0.38,0.86,0.86C467.79,238.04,467.41,238.42,466.93,238.42z"/>
			</g>
			<g>
				<path class="st4" d="M430.51,246.23H401.1c-0.47,0-0.86-0.38-0.86-0.86c0-0.47,0.38-0.86,0.86-0.86h29.42
					c0.47,0,0.86,0.38,0.86,0.86C431.37,245.85,430.99,246.23,430.51,246.23z"/>
			</g>
			<g>
				<path class="st4" d="M466.93,246.23h-29.42c-0.47,0-0.86-0.38-0.86-0.86c0-0.47,0.38-0.86,0.86-0.86h29.42
					c0.47,0,0.86,0.38,0.86,0.86C467.79,245.85,467.41,246.23,466.93,246.23z"/>
			</g>
			<g>
				<path class="st4" d="M466.93,254.41H401.1c-0.47,0-0.86-0.38-0.86-0.86c0-0.47,0.38-0.86,0.86-0.86h65.84
					c0.47,0,0.86,0.38,0.86,0.86C467.79,254.02,467.41,254.41,466.93,254.41z"/>
			</g>
		</g>
	</g>
	<g>
		<g>
			<circle class="st7" cx="228.14" cy="330.03" r="44.47"/>
			<path class="st4" d="M228.14,375.36c-25,0-45.33-20.34-45.33-45.33c0-25,20.34-45.33,45.33-45.33c25,0,45.33,20.34,45.33,45.33
				C273.47,355.03,253.14,375.36,228.14,375.36z M228.14,286.41c-24.05,0-43.62,19.57-43.62,43.62c0,24.05,19.57,43.61,43.62,43.61
				c24.05,0,43.62-19.57,43.62-43.61C271.76,305.98,252.19,286.41,228.14,286.41z"/>
		</g>
		<path class="st1" d="M228.14,272.8c-31.61,0-57.23,25.62-57.23,57.23c0,15.47,6.15,29.5,16.13,39.8l-50.5,66.35l9.68,7.37
			l50.17-65.91c9.09,6.07,20.01,9.62,31.76,9.62c31.61,0,57.23-25.62,57.23-57.23S259.75,272.8,228.14,272.8z M228.14,374.51
			c-24.56,0-44.47-19.91-44.47-44.47c0-24.56,19.91-44.47,44.47-44.47s44.47,19.91,44.47,44.47
			C272.61,354.59,252.7,374.51,228.14,374.51z"/>
		<path class="st1" d="M228.14,272.8c-31.61,0-57.23,25.62-57.23,57.23c0,15.47,6.15,29.5,16.13,39.8l-50.5,66.35l9.68,7.37
			l50.17-65.91c9.09,6.07,20.01,9.62,31.76,9.62c31.61,0,57.23-25.62,57.23-57.23S259.75,272.8,228.14,272.8z M228.14,374.51
			c-24.56,0-44.47-19.91-44.47-44.47c0-24.56,19.91-44.47,44.47-44.47s44.47,19.91,44.47,44.47
			C272.61,354.59,252.7,374.51,228.14,374.51z"/>
		<path class="st4" d="M146.38,444.75l-11.04-8.41l51.02-67.03c0.29-0.38,0.83-0.45,1.2-0.16c0.38,0.29,0.45,0.83,0.16,1.2
			l-49.98,65.66l8.31,6.32l50.14-65.86l0.67,0.45c9.28,6.2,20.09,9.48,31.28,9.48c31.08,0,56.37-25.29,56.37-56.37
			s-25.29-56.37-56.37-56.37c-0.47,0-0.86-0.38-0.86-0.86c0-0.47,0.38-0.86,0.86-0.86c32.03,0,58.09,26.06,58.09,58.09
			s-26.06,58.09-58.09,58.09c-11.26,0-22.15-3.22-31.56-9.32L146.38,444.75z M228.14,375.36c-25,0-45.33-20.34-45.33-45.33
			c0-25,20.34-45.33,45.33-45.33c25,0,45.33,20.34,45.33,45.33C273.47,355.03,253.14,375.36,228.14,375.36z M228.14,286.41
			c-24.05,0-43.62,19.57-43.62,43.62c0,24.05,19.57,43.61,43.62,43.61c24.05,0,43.62-19.57,43.62-43.61
			C271.76,305.98,252.19,286.41,228.14,286.41z"/>
		<g>
			<path class="st9" d="M117.59,474.86L117.59,474.86c8.11,5.69,19.29,3.73,24.98-4.38l42.28-60.26c5.69-8.11,3.73-19.29-4.38-24.98
				v0c-8.11-5.69-19.29-3.73-24.98,4.38l-42.28,60.26C107.52,457.98,109.48,469.17,117.59,474.86z"/>
			<path class="st4" d="M127.87,478.96c-3.73,0-7.49-1.1-10.77-3.4c-4.11-2.88-6.85-7.19-7.72-12.14
				c-0.87-4.95,0.24-9.93,3.13-14.04l42.28-60.26c5.95-8.48,17.7-10.54,26.18-4.59c8.48,5.95,10.54,17.7,4.59,26.18l-42.28,60.26
				C139.62,476.18,133.79,478.96,127.87,478.96z M170.21,382.83c-0.99,0-1.99,0.09-2.98,0.26c-4.49,0.79-8.41,3.28-11.03,7.01
				l-42.28,60.26c-2.62,3.73-3.63,8.26-2.84,12.76c0.79,4.49,3.28,8.41,7.01,11.03l0,0c3.73,2.62,8.27,3.63,12.76,2.84
				c4.49-0.79,8.41-3.28,11.03-7.01l42.28-60.26c2.62-3.73,3.63-8.26,2.84-12.76c-0.79-4.49-3.28-8.41-7.01-11.03
				C177.08,383.9,173.69,382.83,170.21,382.83z"/>
		</g>
		
			<ellipse transform="matrix(0.9231 -0.3846 0.3846 0.9231 -102.8685 108.2572)" class="st11" cx="219.24" cy="311.33" rx="13.83" ry="13.83"/>
	</g>
	<g>
		<g>
			<path class="st6" d="M156.09,339.98H26.75c-2.59,0-4.69-2.1-4.69-4.69v-71.33c0-2.59,2.1-4.69,4.69-4.69h129.34
				c2.59,0,4.69,2.1,4.69,4.69v71.33C160.77,337.88,158.68,339.98,156.09,339.98z"/>
			<path class="st4" d="M82.69,340.84H26.22c-2.77,0-5.02-2.25-5.02-5.02v-51.81c0-0.47,0.38-0.86,0.86-0.86
				c0.47,0,0.86,0.38,0.86,0.86v51.81c0,1.82,1.48,3.3,3.3,3.3h56.47c0.47,0,0.86,0.38,0.86,0.86S83.17,340.84,82.69,340.84z"/>
			<path class="st5" d="M22.06,269.44v-6.01c0-2.3,1.86-4.16,4.16-4.16h130.39c2.3,0,4.16,1.86,4.16,4.16v5.48L22.06,269.44z"/>
			<path class="st4" d="M161.3,269.44H26.94c-0.29,0-0.53-0.24-0.53-0.53s0.24-0.53,0.53-0.53H161.3c0.29,0,0.53,0.24,0.53,0.53
				S161.6,269.44,161.3,269.44z"/>
			<path class="st7" d="M27.78,266.25c-0.86,0-1.56-0.7-1.56-1.56c0-0.86,0.7-1.56,1.56-1.56c0.86,0,1.56,0.7,1.56,1.56
				C29.34,265.55,28.64,266.25,27.78,266.25z M27.78,263.66c-0.57,0-1.03,0.46-1.03,1.03c0,0.57,0.46,1.03,1.03,1.03
				c0.57,0,1.03-0.46,1.03-1.03C28.81,264.12,28.35,263.66,27.78,263.66z"/>
			<path class="st7" d="M32.49,266.25c-0.86,0-1.56-0.7-1.56-1.56c0-0.86,0.7-1.56,1.56-1.56c0.86,0,1.56,0.7,1.56,1.56
				C34.05,265.55,33.35,266.25,32.49,266.25z M32.49,263.66c-0.57,0-1.03,0.46-1.03,1.03c0,0.57,0.46,1.03,1.03,1.03
				s1.03-0.46,1.03-1.03C33.52,264.12,33.06,263.66,32.49,263.66z"/>
			<path class="st7" d="M36.96,266.25c-0.86,0-1.56-0.7-1.56-1.56c0-0.86,0.7-1.56,1.56-1.56c0.86,0,1.56,0.7,1.56,1.56
				C38.52,265.55,37.82,266.25,36.96,266.25z M36.96,263.66c-0.57,0-1.03,0.46-1.03,1.03c0,0.57,0.46,1.03,1.03,1.03
				s1.03-0.46,1.03-1.03C37.99,264.12,37.53,263.66,36.96,263.66z"/>
			<g>
				<path class="st4" d="M143.98,283.23H77.56c-0.27,0-0.49-0.24-0.49-0.53s0.22-0.53,0.49-0.53h66.42c0.27,0,0.49,0.24,0.49,0.53
					S144.25,283.23,143.98,283.23z"/>
				<path class="st4" d="M143.98,300.74H77.56c-0.27,0-0.49-0.24-0.49-0.53s0.22-0.53,0.49-0.53h66.42c0.27,0,0.49,0.24,0.49,0.53
					S144.25,300.74,143.98,300.74z"/>
				<path class="st4" d="M106.76,291.4h-29.2c-0.27,0-0.49-0.24-0.49-0.53c0-0.29,0.22-0.53,0.49-0.53h29.2
					c0.27,0,0.49,0.24,0.49,0.53C107.25,291.16,107.03,291.4,106.76,291.4z"/>
				<path class="st4" d="M143.98,291.4h-29.2c-0.27,0-0.49-0.24-0.49-0.53c0-0.29,0.22-0.53,0.49-0.53h29.2
					c0.27,0,0.49,0.24,0.49,0.53C144.47,291.16,144.25,291.4,143.98,291.4z"/>
				<path class="st4" d="M106.76,309.9h-29.2c-0.27,0-0.49-0.24-0.49-0.53s0.22-0.53,0.49-0.53h29.2c0.27,0,0.49,0.24,0.49,0.53
					S107.03,309.9,106.76,309.9z"/>
				<path class="st4" d="M143.98,309.9h-29.2c-0.27,0-0.49-0.24-0.49-0.53s0.22-0.53,0.49-0.53h29.2c0.27,0,0.49,0.24,0.49,0.53
					S144.25,309.9,143.98,309.9z"/>
				<g>
					<rect x="122.01" y="318.83" class="st5" width="11.23" height="8.57"/>
					<rect x="110.77" y="318.83" class="st1" width="11.23" height="8.57"/>
					<rect x="133.24" y="318.83" class="st9" width="11.23" height="8.57"/>
					<rect x="88.31" y="318.83" class="st5" width="11.23" height="8.57"/>
					<rect x="77.08" y="318.83" class="st1" width="11.23" height="8.57"/>
					<rect x="99.54" y="318.83" class="st9" width="11.23" height="8.57"/>
				</g>
			</g>
			<g>
				<rect x="32.35" y="299.95" class="st1" width="9.18" height="27.45"/>
				<rect x="43.66" y="287.76" class="st5" width="9.18" height="39.64"/>
				<rect x="55.23" y="278.69" class="st9" width="9.18" height="48.7"/>
			</g>
		</g>
		<g>
			<path class="st1" d="M93.03,180.7H61.94H41.45H26.72c-1.79,0-3.24,1.45-3.24,3.24v35.88c0,1.79,1.45,3.24,3.24,3.24h15.73
				c0.09,0.01,0.17,0.03,0.26,0.03h19.9c0.23,0,0.45,0.09,0.61,0.26l16.54,17.51c0.53,0.56,1.44,0.16,1.44-0.63v-16.25
				c0-0.49,0.38-0.89,0.85-0.89h10.98c1.49,0,2.7-1.28,2.7-2.86v-36.67C95.73,181.98,94.52,180.7,93.03,180.7z"/>
			<g>
				<path class="st6" d="M34.43,192.52h50.36c0.33,0,0.6-0.27,0.6-0.6c0-0.33-0.27-0.6-0.6-0.6H34.43c-0.33,0-0.6,0.27-0.6,0.6
					C33.83,192.25,34.09,192.52,34.43,192.52z"/>
				<path class="st6" d="M51.43,211.99h33.35c0.33,0,0.6-0.27,0.6-0.6s-0.27-0.6-0.6-0.6H51.43c-0.33,0-0.6,0.27-0.6,0.6
					S51.1,211.99,51.43,211.99z"/>
				<path class="st6" d="M61.84,201.84h22.94c0.33,0,0.6-0.27,0.6-0.6c0-0.33-0.27-0.6-0.6-0.6H61.84c-0.33,0-0.6,0.27-0.6,0.6
					C61.25,201.57,61.51,201.84,61.84,201.84z"/>
				<path class="st6" d="M34.25,201.84h22.94c0.33,0,0.6-0.27,0.6-0.6c0-0.33-0.27-0.6-0.6-0.6H34.25c-0.33,0-0.6,0.27-0.6,0.6
					C33.66,201.57,33.92,201.84,34.25,201.84z"/>
			</g>
		</g>
	</g>
</g>
</svg>
